<svg width="48" height="48" viewBox="0 0 48 48" fill="none" xmlns="http://www.w3.org/2000/svg">
<path d="M34.3776 15.3147L30.9527 32.8013C30.9527 32.8013 30.8055 33.6004 29.8144 33.6004C29.2878 33.6004 29.0162 33.3499 29.0162 33.3499L21.5977 27.194L17.968 25.3645L13.3097 24.1256C13.3097 24.1256 12.4805 23.8861 12.4805 23.2004C12.4805 22.629 13.3335 22.3565 13.3335 22.3565L32.8224 14.6143C32.8215 14.6134 33.4176 14.3995 33.8519 14.4004C34.1189 14.4004 34.4233 14.5147 34.4233 14.8575C34.4233 15.0861 34.3776 15.3147 34.3776 15.3147Z" fill="#C5C9D1"/>
<path d="M24.3656 29.4909L21.2332 32.5757C21.2332 32.5757 21.097 32.6808 20.9151 32.6854C20.852 32.6872 20.7843 32.6772 20.7148 32.6461L21.5962 27.1924L24.3656 29.4909Z" fill="#C5C9D1"/>
</svg>
