<svg width="41" height="40" viewBox="0 0 41 40" fill="none" xmlns="http://www.w3.org/2000/svg">
<rect x="0.5" width="40" height="40" rx="8" fill="#13151C"/>
<path d="M30.8095 10.9524L27.2419 29.1676C27.2419 29.1676 27.0886 30 26.0562 30C25.5076 30 25.2248 29.739 25.2248 29.739L17.4971 23.3267L13.7162 21.421L8.86381 20.1305C8.86381 20.1305 8 19.881 8 19.1667C8 18.5714 8.88857 18.2876 8.88857 18.2876L29.1895 10.2229C29.1886 10.2219 29.8095 9.99905 30.2619 10C30.54 10 30.8572 10.1191 30.8572 10.4762C30.8572 10.7143 30.8095 10.9524 30.8095 10.9524Z" fill="white"/>
<path d="M20.3812 25.7185L17.1183 28.9318C17.1183 28.9318 16.9764 29.0414 16.7869 29.0461C16.7212 29.048 16.6507 29.0375 16.5783 29.0052L17.4964 23.3242L20.3812 25.7185Z" fill="#B0BEC5"/>
<path d="M26.9501 13.9961C26.7892 13.7866 26.492 13.7485 26.2825 13.9076L13.7149 21.4285C13.7149 21.4285 15.7206 27.0399 16.0263 28.0114C16.333 28.9837 16.5787 29.0066 16.5787 29.0066L17.4968 23.3257L26.8606 14.6628C27.0701 14.5038 27.1092 14.2057 26.9501 13.9961Z" fill="#13151C"/>
</svg>
