<svg width="48" height="48" viewBox="0 0 48 48" fill="none" xmlns="http://www.w3.org/2000/svg">
<path d="M19.9075 33.6004C28.8196 33.6004 33.6933 26.2143 33.6933 19.8094C33.6933 19.5997 33.689 19.3909 33.6796 19.1829C34.6279 18.4965 35.4463 17.6466 36.0965 16.673C35.2283 17.0591 34.2941 17.319 33.314 17.4362C34.3144 16.8361 35.0823 15.8868 35.4447 14.7553C34.4935 15.3197 33.453 15.7176 32.368 15.9318C31.4838 14.9896 30.2251 14.4004 28.8312 14.4004C26.1555 14.4004 23.9857 16.571 23.9857 19.2467C23.9857 19.6271 24.0283 19.997 24.1114 20.3519C20.0845 20.1492 16.5137 18.2205 14.1239 15.2877C13.6935 16.0274 13.4671 16.8681 13.4678 17.7239C13.4678 19.4055 14.3232 20.89 15.624 21.7586C14.8545 21.735 14.102 21.5271 13.4296 21.1523C13.4289 21.1727 13.4289 21.1925 13.4289 21.2142C13.4289 23.5616 15.099 25.5215 17.316 25.9656C16.8996 26.079 16.47 26.1364 16.0384 26.1361C15.7268 26.1361 15.423 26.1054 15.1278 26.0487C15.7447 27.9746 17.5333 29.3761 19.654 29.4152C17.9957 30.7155 15.9067 31.49 13.6362 31.49C13.25 31.4903 12.8641 31.4679 12.4805 31.4228C14.6248 32.7978 17.171 33.6001 19.9077 33.6001" fill="#C5C9D1"/>
</svg>
