<svg width="41" height="40" viewBox="0 0 41 40" fill="none" xmlns="http://www.w3.org/2000/svg">
<rect x="0.5" width="40" height="40" rx="8" fill="#13151C"/>
<path d="M15.7364 30C25.0199 30 30.0967 22.3062 30.0967 15.6344C30.0967 15.4159 30.0922 15.1984 30.0824 14.9818C31.0702 14.2668 31.9228 13.3814 32.6 12.3673C31.6956 12.7695 30.7225 13.0402 29.7016 13.1623C30.7436 12.5372 31.5436 11.5483 31.921 10.3697C30.9303 10.9576 29.8464 11.3721 28.7161 11.5952C27.7951 10.6138 26.4839 10 25.032 10C22.2448 10 19.9846 12.2611 19.9846 15.0482C19.9846 15.4445 20.029 15.8298 20.1156 16.1995C15.9208 15.9883 12.2012 13.9792 9.7119 10.9243C9.26354 11.6948 9.02772 12.5705 9.0285 13.462C9.0285 15.2137 9.9195 16.76 11.2745 17.6648C10.473 17.6403 9.6891 17.4237 8.9887 17.0332C8.98795 17.0544 8.98795 17.0751 8.98795 17.0978C8.98795 19.5429 10.7276 21.5844 13.037 22.047C12.6033 22.1652 12.1557 22.225 11.7062 22.2247C11.3815 22.2247 11.0651 22.1927 10.7576 22.1337C11.4002 24.1398 13.2634 25.5996 15.4724 25.6404C13.745 26.9949 11.5689 27.8016 9.2039 27.8016C8.80157 27.802 8.39958 27.7786 8 27.7317C10.2337 29.1639 12.886 29.9997 15.7367 29.9997" fill="white"/>
</svg>
