<svg width="32" height="32" viewBox="0 0 32 32" fill="none" xmlns="http://www.w3.org/2000/svg">
    <g clip-path="url(#clip0_8368_95430)">
        <path d="M16.0693 31.9253C24.8709 31.9253 32.0059 24.7903 32.0059 15.9888C32.0059 7.18727 24.8709 0.0522461 16.0693 0.0522461C7.26784 0.0522461 0.132812 7.18727 0.132812 15.9888C0.132812 24.7903 7.26784 31.9253 16.0693 31.9253Z" fill="#FAB425"/>
        <path d="M24.4063 23.975C17.3398 25.4026 10.436 20.8226 8.99985 13.7972C8.28146 10.393 9.01923 6.99301 10.7745 4.24737C5.45246 6.69331 2.30501 12.5476 3.52564 18.559C4.9618 25.5845 11.8656 30.1644 18.9321 28.7368C22.5746 28.0233 25.4931 25.8601 27.3943 22.9701C26.4466 23.4017 25.499 23.7609 24.4063 23.975Z" fill="url(#paint0_linear_8368_95430)"/>
        <path fill-rule="evenodd" clip-rule="evenodd" d="M28.5886 22.0315L29.4566 22.648C29.6521 22.7869 29.6317 23.0833 29.419 23.1941L26.6092 24.6581C26.3861 24.7743 26.1221 24.6003 26.141 24.3494L26.3884 21.0654C26.4071 20.8164 26.6906 20.6833 26.8941 20.8279L27.6724 21.3807C29.6592 16.8654 28.9249 11.4085 25.369 7.55076C20.617 2.3955 12.6106 2.03181 7.41191 6.70645C7.34602 6.7657 7.24407 6.76212 7.18402 6.69697L6.65417 6.12216C6.59412 6.05701 6.59872 5.95495 6.66455 5.89564C12.3111 0.808308 21.0151 1.20042 26.1798 6.80344C30.0977 11.0539 30.8606 17.0895 28.5886 22.0315Z" fill="white"/>
        <path fill-rule="evenodd" clip-rule="evenodd" d="M3.52465 10.1394L2.65671 9.52292C2.46118 9.38404 2.48157 9.08757 2.69426 8.97675L5.50406 7.51283C5.72717 7.39658 5.99119 7.57063 5.97229 7.8215L5.72492 11.1055C5.70616 11.3545 5.42271 11.4876 5.21914 11.343L4.4409 10.7902C2.45408 15.3055 3.18835 20.7624 6.74427 24.6201C11.4962 29.7754 19.5027 30.1391 24.7014 25.4644C24.7673 25.4052 24.8692 25.4088 24.9293 25.4739L25.4591 26.0487C25.5192 26.1139 25.5146 26.2159 25.4487 26.2753C19.8022 31.3626 11.0982 30.9705 5.93352 25.3675C2.01559 21.117 1.2527 15.0814 3.52465 10.1394Z" fill="white"/>
        <path d="M8.19096 20.1741H6.64273L6.6525 19.0312H8.19096C8.57517 19.0312 8.89914 18.945 9.16288 18.7724C9.42662 18.5966 9.62523 18.341 9.75873 18.0056C9.89548 17.6702 9.96386 17.2649 9.96386 16.7895V16.4427C9.96386 16.078 9.92478 15.7573 9.84664 15.4806C9.77175 15.2038 9.65942 14.971 9.50964 14.7822C9.35987 14.5933 9.1759 14.4517 8.95775 14.3572C8.7396 14.2596 8.48889 14.2107 8.20561 14.2107H6.61343V13.063H8.20561C8.68099 13.063 9.11567 13.1444 9.50964 13.3072C9.90688 13.4667 10.2504 13.6963 10.5402 13.9958C10.83 14.2954 11.053 14.6535 11.2093 15.0703C11.3688 15.4838 11.4486 15.9446 11.4486 16.4525V16.7895C11.4486 17.2942 11.3688 17.7549 11.2093 18.1717C11.053 18.5884 10.83 18.9466 10.5402 19.2461C10.2536 19.5424 9.91013 19.772 9.50964 19.9348C9.11241 20.0943 8.67285 20.1741 8.19096 20.1741ZM7.47301 13.063V20.1741H6.00781V13.063H7.47301Z" fill="white"/>
        <path d="M14.9846 14.2791L13.0505 20.1741H11.4926L14.1348 13.063H15.1262L14.9846 14.2791ZM16.5915 20.1741L14.6525 14.2791L14.4962 13.063H15.4974L18.1543 20.1741H16.5915ZM16.5035 17.527V18.6747H12.7477V17.527H16.5035Z" fill="white"/>
        <path d="M20.6842 13.063V20.1741H19.2239V13.063H20.6842Z" fill="white"/>
        <path d="M26.5695 16.2132V17.4391H21.6952V16.2132H26.5695ZM24.8015 14.284V19.461H23.4681V14.284H24.8015Z" fill="white"/>
    </g>
    <defs>
        <linearGradient id="paint0_linear_8368_95430" x1="2.56943" y1="31.8008" x2="17.3025" y2="14.6902" gradientUnits="userSpaceOnUse">
            <stop offset="0.0729167" stop-color="#FFD923"/>
            <stop offset="0.4775" stop-color="#F8E5C2"/>
            <stop offset="1" stop-color="#FAB223"/>
        </linearGradient>
        <clipPath id="clip0_8368_95430">
            <rect width="31.8222" height="32" fill="white" transform="translate(0.179688)"/>
        </clipPath>
    </defs>
</svg>
