<svg width="40" height="40" viewBox="0 0 40 40" fill="none" xmlns="http://www.w3.org/2000/svg">
<path d="M20 40C31.0457 40 40 31.0457 40 20C40 8.9543 31.0457 0 20 0C8.95431 0 0 8.9543 0 20C0 31.0457 8.95431 40 20 40Z" fill="#001845"/>
<path d="M28.6158 30.071C24.5417 29.392 14.0886 25.4221 11.9391 14.9071C10.8639 9.81214 11.8791 2.36 11.8791 2.36C3.91365 6.02084 -0.797145 14.7829 1.02976 23.7802C3.17927 34.2952 13.5122 41.15 24.0886 39.0134C29.5403 37.9455 33.9084 34.7078 36.754 30.3823C35.3356 31.0283 32.69 30.75 28.6158 30.071Z" fill="url(#paint0_linear_2693_159522)"/>
<path fill-rule="evenodd" clip-rule="evenodd" d="M19.7048 3.68604L5.66838 11.4277V11.4881L7.38633 12.5546V12.5441L19.7048 5.56602L32.0233 12.5441V18.8382C32.0233 21.0179 31.9145 22.4602 31.2785 24.1545L29.1074 22.7242L30.3715 28.4408L35.1844 25.5267L32.8734 24.8786C33.6025 22.9559 33.7413 21.2672 33.7413 18.8382V11.4277L19.7048 3.68604Z" fill="url(#paint1_linear_2693_159522)"/>
<path fill-rule="evenodd" clip-rule="evenodd" d="M9.8148 15.9599L7.20732 10.9741L3.16496 15.2093L5.7552 15.1107V18.8551C5.7552 27.323 11.5808 35.2767 19.508 37.2194L19.7106 37.269L19.9131 37.2194C24.9399 35.9875 29.2709 32.145 31.658 27.4806L30.2021 26.5749C28.0682 30.8208 24.1686 34.3395 19.7106 35.5029C12.7158 33.6776 7.46322 26.5301 7.46322 18.8551L7.46246 15.3061L9.8148 15.9599Z" fill="url(#paint2_linear_2693_159522)"/>
<path d="M18.7393 29.2425C15.6839 28.903 13.8168 26.7813 13.8168 23.9805H16.1083C16.1083 26.1023 17.3813 27.3754 19.7577 27.3754C22.1341 27.3754 23.4072 26.1023 23.4072 24.5746C23.4072 20.2462 13.9865 22.4529 13.9865 16.0876C13.9865 13.9658 15.9385 11.7591 18.7393 11.4197V8.87354H20.6913V11.4197C23.3223 11.844 25.1895 14.0507 25.1895 16.6817H22.898C22.898 14.7296 21.4551 13.2868 19.6729 13.2868C17.5511 13.2868 16.1932 14.7296 16.1932 16.0876C16.1932 20.416 25.6138 18.2093 25.6138 24.5746C25.6138 26.8661 23.7467 28.9031 20.6913 29.3274V31.8735H18.7393V29.2425Z" fill="white"/>
<defs>
<linearGradient id="paint0_linear_2693_159522" x1="6.59566" y1="33.1437" x2="22.8922" y2="19.2722" gradientUnits="userSpaceOnUse">
<stop stop-color="#8247E5"/>
<stop offset="1" stop-color="#8247E5" stop-opacity="0"/>
</linearGradient>
<linearGradient id="paint1_linear_2693_159522" x1="28.7523" y1="1.73688" x2="9.87669" y2="10.5874" gradientUnits="userSpaceOnUse">
<stop offset="0.445694" stop-color="white"/>
<stop offset="1" stop-color="white" stop-opacity="0"/>
</linearGradient>
<linearGradient id="paint2_linear_2693_159522" x1="9.96871" y1="42.5154" x2="30.4959" y2="30.5338" gradientUnits="userSpaceOnUse">
<stop offset="0.559619" stop-color="white"/>
<stop offset="0.918509" stop-color="white" stop-opacity="0"/>
</linearGradient>
</defs>
</svg>
