<svg width="200" height="200" viewBox="0 0 200 200" fill="none" xmlns="http://www.w3.org/2000/svg">
    <g clip-path="url(#clip0_254_13446)">
        <path d="M100.569 199.533C155.579 199.533 200.173 154.939 200.173 99.9295C200.173 44.9201 155.579 0.326172 100.569 0.326172C45.56 0.326172 0.966064 44.9201 0.966064 99.9295C0.966064 154.939 45.56 199.533 100.569 199.533Z" fill="#26A17B"/>
        <path d="M152.664 149.844C108.499 158.766 65.3501 130.142 56.3741 86.2326C51.8841 64.9567 56.4952 43.7067 67.4654 26.5464C34.2029 41.8336 14.5313 78.4226 22.1602 115.994C31.1362 159.903 74.2849 188.528 118.451 179.605C141.216 175.146 159.457 161.626 171.34 143.564C165.416 146.261 159.494 148.506 152.664 149.844Z" fill="url(#paint0_linear_254_13446)"/>
        <path fill-rule="evenodd" clip-rule="evenodd" d="M178.81 137.698L184.235 141.551C185.457 142.419 185.329 144.272 184 144.964L166.439 154.114C165.044 154.84 163.394 153.753 163.512 152.185L165.058 131.66C165.176 130.103 166.947 129.272 168.22 130.175L173.083 133.63C185.501 105.41 180.912 71.3037 158.687 47.1931C128.988 14.9727 78.9474 12.6996 46.4555 41.9162C46.0437 42.2865 45.4065 42.2641 45.0312 41.8569L41.7197 38.2643C41.3443 37.8571 41.3731 37.2193 41.7845 36.8486C77.0753 5.05276 131.475 7.50347 163.755 42.5224C188.242 69.0876 193.01 106.81 178.81 137.698Z" fill="white"/>
        <path fill-rule="evenodd" clip-rule="evenodd" d="M22.156 63.3722L16.7314 59.5191C15.5093 58.6511 15.6367 56.7982 16.9661 56.1056L34.5273 46.956C35.9218 46.2295 37.5719 47.3173 37.4538 48.8852L35.9077 69.4102C35.7905 70.9664 34.0189 71.7983 32.7466 70.8945L27.8826 67.4397C15.465 95.6599 20.0542 129.766 42.2786 153.877C71.9784 186.097 122.019 188.37 154.511 159.154C154.922 158.783 155.56 158.806 155.935 159.213L159.246 162.805C159.622 163.213 159.593 163.851 159.182 164.221C123.891 196.017 69.4909 193.566 37.2115 158.547C12.7244 131.982 7.95632 94.2595 22.156 63.3722Z" fill="white"/>
        <path fill-rule="evenodd" clip-rule="evenodd" d="M141.569 58H59V78.1835H89.2752V158H110.376V78.1835H141.569V58Z" fill="white"/>
        <rect x="71" y="112" width="58" height="4" fill="white"/>
        <rect width="51" height="4" rx="2" transform="matrix(1 0 0 -1 76 112)" fill="#26A17B"/>
    </g>
    <defs>
        <linearGradient id="paint0_linear_254_13446" x1="16.184" y1="198.755" x2="108.266" y2="91.8142" gradientUnits="userSpaceOnUse">
            <stop offset="0.0729167" stop-color="white" stop-opacity="0.81"/>
            <stop offset="0.4775" stop-color="white" stop-opacity="0.48"/>
            <stop offset="1" stop-color="white" stop-opacity="0"/>
        </linearGradient>
        <clipPath id="clip0_254_13446">
            <rect width="200" height="200" fill="white"/>
        </clipPath>
    </defs>
</svg>
