<svg width="41" height="40" viewBox="0 0 41 40" fill="none" xmlns="http://www.w3.org/2000/svg">
    <path d="M31.1471 23.36C31.8 21.7645 32.1357 20.0572 32.1354 18.3333C32.1361 15.4761 31.2189 12.6942 29.519 10.3976C27.8191 8.10102 25.4264 6.41126 22.6935 5.57734C19.9607 4.74343 17.0322 4.80946 14.3397 5.76572C11.6473 6.72197 9.33317 8.51786 7.73851 10.8887C6.14385 13.2596 5.35298 16.08 5.48245 18.9343C5.61192 21.7886 6.65488 24.5259 8.45762 26.7426C10.2604 28.9594 12.7275 30.5384 15.4955 31.247C18.2635 31.9556 21.186 31.7562 23.8321 30.6783" stroke="white" stroke-width="1.5" stroke-linecap="round" stroke-linejoin="round"/>
    <path d="M18.8018 13.5534V12.4917" stroke="white" stroke-width="1.5" stroke-linecap="round" stroke-linejoin="round"/>
    <path d="M18.8018 23.0984V24.1584" stroke="white" stroke-width="1.5" stroke-linecap="round" stroke-linejoin="round"/>
    <path d="M16.0408 21.96C16.4525 22.635 17.1558 23.1 18.0075 23.1H19.7508C20.2971 23.1017 20.825 22.9031 21.2347 22.5419C21.6444 22.1806 21.9075 21.6817 21.9743 21.1395C22.041 20.5973 21.9067 20.0495 21.5968 19.5997C21.2869 19.1499 20.8228 18.8292 20.2925 18.6984L17.3092 17.9484C16.7817 17.8148 16.3212 17.4934 16.014 17.0443C15.7069 16.5953 15.5742 16.0495 15.6409 15.5096C15.7076 14.9696 15.9691 14.4726 16.3763 14.1118C16.7835 13.751 17.3084 13.5512 17.8525 13.55H19.5975C20.4458 13.55 21.1492 14.015 21.5592 14.6884" stroke="white" stroke-width="1.5" stroke-linecap="round" stroke-linejoin="round"/>
</svg>
