<svg width="32" height="32" viewBox="0 0 32 32" fill="none" xmlns="http://www.w3.org/2000/svg">
<path d="M16.0918 31.9253C24.8933 31.9253 32.0283 24.7902 32.0283 15.9887C32.0283 7.18721 24.8933 0.0521851 16.0918 0.0521851C7.2903 0.0521851 0.155273 7.18721 0.155273 15.9887C0.155273 24.7902 7.2903 31.9253 16.0918 31.9253Z" fill="#001845"/>
<path d="M24.4268 23.975C17.3603 25.4026 10.4565 20.8227 9.02036 13.7972C8.30197 10.3931 9.03974 6.99307 10.795 4.24743C5.47297 6.69337 2.32552 12.5476 3.54614 18.5591C4.98231 25.5845 11.8861 30.1645 18.9526 28.7369C22.5951 28.0234 25.5136 25.8602 27.4148 22.9702C26.4671 23.4018 25.5195 23.761 24.4268 23.975Z" fill="url(#paint0_linear_6882_6651)"/>
<path d="M15.2564 23.1282C13.1389 22.8929 11.729 21.5963 11.3741 19.8029C11.275 19.3023 11.6999 18.8841 12.2102 18.8841C12.7206 18.8841 13.1141 19.3064 13.2488 19.7986C13.5653 20.9546 14.5322 21.6222 16.0778 21.6222C17.9945 21.6222 19.0213 20.5955 19.0213 19.3633C19.0213 15.8722 11.423 17.652 11.423 12.518C11.423 10.8067 12.9975 9.02692 15.2564 8.75311V7.48673C15.2564 7.05197 15.6088 6.69952 16.0436 6.69952C16.4784 6.69952 16.8308 7.05197 16.8308 7.48673V8.75311C18.6383 9.04464 19.9988 10.3791 20.3624 12.0796C20.4692 12.5787 20.0451 12.9972 19.5347 12.9972C19.0243 12.9972 18.6271 12.5732 18.4715 12.0871C18.1219 10.9945 17.1522 10.2591 16.0094 10.2591C14.2981 10.2591 13.2028 11.4228 13.2028 12.518C13.2028 16.0091 20.8011 14.2293 20.8011 19.3633C20.8011 21.2115 19.2951 22.8544 16.8308 23.1967V24.463C16.8308 24.8978 16.4784 25.2502 16.0436 25.2502C15.6088 25.2502 15.2564 24.8978 15.2564 24.463V23.1282Z" fill="white"/>
<path fill-rule="evenodd" clip-rule="evenodd" d="M28.3599 21.7341L29.1962 22.3281C29.3846 22.4619 29.365 22.7476 29.16 22.8544L26.4527 24.265C26.2377 24.377 25.9833 24.2093 26.0015 23.9675L26.2399 20.8032C26.2579 20.5633 26.5311 20.4351 26.7272 20.5744L27.4771 21.107C29.3915 16.7564 28.684 11.4983 25.2577 7.78123C20.6789 2.81389 12.9643 2.46345 7.95513 6.9677C7.89165 7.02479 7.79341 7.02134 7.73554 6.95856L7.22501 6.40471C7.16715 6.34193 7.17159 6.24359 7.23501 6.18644C12.6757 1.28455 21.0624 1.66237 26.0389 7.06116C29.814 11.1567 30.5491 16.9723 28.3599 21.7341Z" fill="#23DD00"/>
<path fill-rule="evenodd" clip-rule="evenodd" d="M4.20843 10.2752L3.37213 9.68121C3.18373 9.54739 3.20337 9.26172 3.40831 9.15495L6.11569 7.74439C6.33067 7.63238 6.58506 7.80008 6.56685 8.0418L6.32849 11.2061C6.31042 11.446 6.0373 11.5743 5.84115 11.4349L5.09128 10.9023C3.17689 15.253 3.88439 20.511 7.31069 24.2281C11.8894 29.1954 19.604 29.5459 24.6132 25.0416C24.6767 24.9846 24.7749 24.988 24.8328 25.0508L25.3433 25.6046C25.4012 25.6674 25.3968 25.7657 25.3333 25.8229C19.8927 30.7248 11.5059 30.347 6.5295 24.9482C2.75438 20.8527 2.0193 15.037 4.20843 10.2752Z" fill="#23DD00"/>
<defs>
<linearGradient id="paint0_linear_6882_6651" x1="2.58994" y1="31.8009" x2="17.323" y2="14.6903" gradientUnits="userSpaceOnUse">
<stop offset="0.0729167" stop-color="#FFD923"/>
<stop offset="0.4775" stop-color="#0466C8"/>
<stop offset="1" stop-color="#001845"/>
</linearGradient>
</defs>
</svg>
