<svg width="28" height="28" viewBox="0 0 28 28" fill="none" xmlns="http://www.w3.org/2000/svg">
<path d="M25.6667 5.83301V8.16634H22.1667V11.6663H19.8333V8.16634H16.3333V5.83301H19.8333V2.33301H22.1667V5.83301H25.6667ZM22.1667 22.1663H5.83333V5.83301H12.8333V3.49967H5.83333C4.55 3.49967 3.5 4.54967 3.5 5.83301V22.1663C3.5 23.4497 4.55 24.4997 5.83333 24.4997H22.1667C23.45 24.4997 24.5 23.4497 24.5 22.1663V15.1663H22.1667V22.1663ZM17.5 15.1663V19.833H19.8333V15.1663H17.5ZM12.8333 19.833H15.1667V10.4997H12.8333V19.833ZM10.5 19.833V12.833H8.16667V19.833H10.5Z" fill="#1C95E7"/>
</svg>
