<svg width="29" height="28" viewBox="0 0 29 28" fill="none" xmlns="http://www.w3.org/2000/svg">
<path d="M21.4993 16.3333H23.8327V19.8333H27.3327V22.1667H23.8327V25.6667H21.4993V22.1667H17.9993V19.8333H21.4993V16.3333ZM14.4993 3.5C19.656 3.5 23.8327 5.58833 23.8327 8.16667C23.8327 10.745 19.656 12.8333 14.4993 12.8333C9.34268 12.8333 5.16602 10.745 5.16602 8.16667C5.16602 5.58833 9.34268 3.5 14.4993 3.5ZM5.16602 10.5C5.16602 13.0783 9.34268 15.1667 14.4993 15.1667C19.656 15.1667 23.8327 13.0783 23.8327 10.5V14.0933L22.666 14C19.6443 14 17.066 15.9133 16.086 18.5967L14.4993 18.6667C9.34268 18.6667 5.16602 16.5783 5.16602 14V10.5ZM5.16602 16.3333C5.16602 18.9117 9.34268 21 14.4993 21H15.666C15.666 22.225 15.981 23.38 16.541 24.3833L14.4993 24.5C9.34268 24.5 5.16602 22.4117 5.16602 19.8333V16.3333Z" fill="#1C95E7"/>
</svg>
