<svg width="40" height="40" viewBox="0 0 40 40" fill="none" xmlns="http://www.w3.org/2000/svg">
<g clip-path="url(#clip0_6259_108301)">
<circle cx="20" cy="20" r="20" fill="black"/>
<path d="M8.6912 10.0096L11.1383 15.7938C11.2423 16.0396 11.2437 16.3168 11.1422 16.5637L8.65445 22.6136C8.31385 23.4418 9.15008 24.2658 9.97322 23.913L15.7568 21.4344C16.0704 21.2999 16.431 21.3347 16.7131 21.5267L27.9041 29.1388C28.8176 29.7601 29.9155 28.6596 29.292 27.7475L21.6875 16.6245C21.497 16.3459 21.4599 15.9899 21.5889 15.678L23.9449 9.9796C24.2869 9.15266 23.4537 8.32734 22.63 8.67702L16.6529 11.2145C16.402 11.321 16.1186 11.3205 15.8682 11.2132L10.0061 8.70085C9.17844 8.34615 8.34035 9.18035 8.6912 10.0096Z" fill="white"/>
</g>
<defs>
<clipPath id="clip0_6259_108301">
<rect width="40" height="40" fill="white"/>
</clipPath>
</defs>
</svg>
