<svg width="40" height="40" viewBox="0 0 40 40" fill="none" xmlns="http://www.w3.org/2000/svg">
<path d="M35.7575 29.8381C35.7342 29.8572 35.7109 29.8741 35.6876 29.8911C35.6643 29.908 35.6389 29.925 35.6156 29.9419C35.569 29.9737 35.5224 30.0054 35.4758 30.0351L35.4589 30.0457C35.4208 30.0711 35.3805 30.0944 35.3403 30.1177C35.281 30.1537 35.2238 30.1876 35.1624 30.2193C34.7537 30.4459 34.3259 30.6302 33.8875 30.7911C33.4745 30.9436 33.0552 31.0749 32.6338 31.1935C32.0281 31.3629 31.414 31.5027 30.7977 31.6255C30.1962 31.7462 29.5948 31.8479 28.9891 31.9368C28.3834 32.0258 27.7756 32.0978 27.1678 32.1613C26.9687 32.1825 26.7697 32.2016 26.5685 32.2206C26.1682 32.2566 25.768 32.2884 25.3677 32.3159C25.1665 32.3286 24.9675 32.3413 24.7663 32.354C24.3173 32.3795 23.8683 32.3985 23.4194 32.4133C23.3389 32.4155 23.2563 32.4197 23.1737 32.4218C23.0996 32.4239 23.0233 32.426 22.9492 32.4282C23.1335 32.2016 23.3177 31.975 23.485 31.7357C23.5083 31.706 23.5337 31.6764 23.557 31.6446C23.9361 31.1342 24.3004 30.6132 24.6477 30.0817C24.6837 30.0817 24.7176 30.0774 24.7536 30.0753C24.9738 30.0626 25.1941 30.0499 25.4164 30.033C25.5837 30.0224 25.751 30.0097 25.9183 29.997C27.0873 29.9059 28.2521 29.7767 29.4127 29.5946C29.7494 29.5416 30.0861 29.4845 30.4207 29.423C31.2022 29.2769 31.9794 29.1054 32.7439 28.8851C32.9112 28.8364 33.0785 28.7856 33.2458 28.7348C33.3305 28.7094 33.4131 28.6818 33.4957 28.6543C33.6207 28.6755 33.7371 28.7284 33.8536 28.7729C33.9574 28.811 34.0612 28.8513 34.1649 28.8915C34.4572 29.008 34.7452 29.1371 35.0248 29.2833C35.1349 29.3405 35.2429 29.4019 35.3488 29.4675C35.4907 29.5543 35.6283 29.6433 35.7575 29.7471C35.7956 29.7767 35.8062 29.7894 35.7914 29.8064C35.785 29.8148 35.7744 29.8233 35.7554 29.8381H35.7575Z" fill="#F1ECE2"/>
<path d="M24.9208 35.2236C24.8975 35.2385 24.8721 35.2385 24.8467 35.23C24.853 35.2258 24.8594 35.2236 24.8636 35.2215C24.8742 35.2173 24.8827 35.2173 24.8933 35.2173C24.9017 35.2173 24.9123 35.2194 24.9208 35.2236Z" fill="#5E93FF"/>
<path d="M24.8207 35.23C24.7911 35.2427 24.7593 35.2448 24.7275 35.2343C24.7572 35.2152 24.789 35.2173 24.8207 35.23Z" fill="#5E93FF"/>
<path d="M24.7024 35.2341C24.6727 35.2468 24.641 35.2489 24.6113 35.2404C24.641 35.2214 24.6727 35.2235 24.7024 35.2341Z" fill="#5E93FF"/>
<path d="M24.5862 35.2404C24.5565 35.2552 24.5248 35.2552 24.4951 35.2446C24.4951 35.2446 24.4972 35.2446 24.4994 35.2446C24.529 35.2298 24.5587 35.2298 24.5883 35.2404H24.5862Z" fill="#5E93FF"/>
<path d="M24.4058 35.2385C24.4249 35.2343 24.446 35.2385 24.4672 35.2449C24.4376 35.2597 24.4058 35.2597 24.374 35.2491C24.3846 35.2428 24.3931 35.2406 24.4037 35.2385H24.4058Z" fill="#5E93FF"/>
<path d="M24.3023 35.2427C24.3171 35.2427 24.3341 35.2448 24.3489 35.2511C24.3192 35.2639 24.2896 35.266 24.2578 35.2554C24.2726 35.2469 24.2875 35.2427 24.3023 35.2427Z" fill="#5E93FF"/>
<path d="M24.2095 35.2491C24.2095 35.2491 24.2244 35.2533 24.2307 35.2554C24.2011 35.2702 24.1714 35.2702 24.1396 35.2596C24.1608 35.2469 24.1841 35.2448 24.2053 35.2491H24.2095Z" fill="#5E93FF"/>
<path d="M24.1121 35.2597C24.0761 35.2745 24.0401 35.2745 24.002 35.2639C24.038 35.247 24.074 35.2491 24.1121 35.2597Z" fill="#5E93FF"/>
<path d="M23.9758 35.2639C23.9462 35.2788 23.9165 35.2766 23.8848 35.2682C23.9144 35.2512 23.9441 35.2512 23.9758 35.2639Z" fill="#5E93FF"/>
<path d="M31.797 28.1501C31.8119 28.1522 31.8288 28.1522 31.8436 28.1543C31.8648 28.1543 31.8839 28.1607 31.8987 28.1797C31.8585 28.1755 31.8182 28.167 31.7822 28.1479C31.7843 28.1479 31.7865 28.1479 31.7907 28.1479C31.7928 28.1479 31.7949 28.1479 31.797 28.1479V28.1501Z" fill="#5E93FF"/>
<path d="M14.8192 37.981C14.8192 37.981 14.8256 37.9937 14.8277 38H14.2051C14.2051 38 14.2114 37.9894 14.2157 37.981C14.2665 37.981 14.3152 37.981 14.366 37.981C14.5164 37.981 14.6668 37.981 14.8171 37.981H14.8192Z" fill="#3180F4"/>
<path d="M33.4955 28.6542C33.4129 28.6817 33.3282 28.7093 33.2456 28.7347C33.0783 28.7876 32.911 28.8384 32.7437 28.885C31.9792 29.1032 31.202 29.2768 30.4205 29.4229C30.0859 29.4844 29.7492 29.5415 29.4124 29.5945C28.254 29.7766 27.0893 29.9058 25.9181 29.9969C25.7508 30.0096 25.5835 30.0223 25.4162 30.0329C25.196 30.0477 24.9757 30.0625 24.7533 30.0752C24.7173 30.0752 24.6835 30.0795 24.6475 30.0816C24.8868 29.7152 25.1197 29.3446 25.3463 28.9676C25.6725 28.4234 25.9817 27.8706 26.2781 27.3115C26.8415 27.3602 27.4048 27.4174 27.9681 27.4873C28.0105 27.4915 28.0507 27.5 28.0931 27.5064C28.3451 27.5254 28.595 27.5635 28.8428 27.5995C29.1625 27.6461 29.4823 27.697 29.8021 27.752C30.232 27.824 30.6619 27.9045 31.0897 27.9977C31.3206 28.0485 31.5514 28.0993 31.7822 28.1502C31.8182 28.1692 31.8585 28.1777 31.8987 28.1819C32.3921 28.309 32.8835 28.4403 33.3663 28.6012C33.4108 28.6161 33.4616 28.6203 33.4955 28.6584V28.6542Z" fill="#FDBF41"/>
<path d="M17.1064 32.2842C17.3055 32.299 17.5046 32.3159 17.7037 32.3287C17.5046 32.3159 17.3055 32.299 17.1064 32.2842Z" fill="#F1ECE2"/>
<path d="M10.7422 36.7274C10.7274 36.7274 10.7147 36.7232 10.7041 36.7104C10.7041 36.7104 10.7062 36.7104 10.7083 36.7104C10.7083 36.7104 10.7126 36.7104 10.7147 36.7104C10.7147 36.7104 10.7189 36.7104 10.721 36.7104H10.7253C10.7253 36.7104 10.7295 36.7126 10.7316 36.7147H10.7338C10.7338 36.7147 10.738 36.721 10.7401 36.7232L10.7422 36.7274Z" fill="#404A5A"/>
<path d="M10.7041 36.7103C10.6893 36.7103 10.6745 36.7082 10.666 36.6934C10.666 36.6934 10.6745 36.6934 10.6766 36.6934C10.6766 36.6934 10.6957 36.6997 10.702 36.7103H10.7041Z" fill="#404A5A"/>
<path d="M10.6629 36.6908L10.6611 36.689L10.6629 36.6908Z" fill="#404A5A"/>
<path d="M10.6633 36.6909C10.6463 36.6909 10.6315 36.6909 10.623 36.6719C10.64 36.6719 10.6527 36.674 10.6612 36.6888L10.6633 36.6909Z" fill="#404A5A"/>
<path d="M10.6249 36.6717H10.623V36.6699L10.6249 36.6717Z" fill="#404A5A"/>
<path d="M10.6249 36.6717L10.623 36.6699H10.6249V36.6717Z" fill="#404A5A"/>
<path d="M10.626 36.6698C10.6091 36.6698 10.5921 36.6741 10.5879 36.6529C10.6048 36.6487 10.6197 36.6529 10.6281 36.6698H10.626Z" fill="#404A5A"/>
<path d="M10.4715 36.5728C10.4821 36.5791 10.4948 36.5855 10.5075 36.5918C10.516 36.596 10.5266 36.6003 10.5351 36.6045C10.5499 36.613 10.5647 36.6215 10.5753 36.6363C10.5795 36.6405 10.5817 36.6469 10.5859 36.6532C10.533 36.649 10.4885 36.6278 10.4482 36.5939L10.4737 36.5728H10.4715Z" fill="#404A5A"/>
<path d="M14.0462 34.8931C14.0038 34.8994 13.9593 34.9079 13.917 34.9121C13.7497 34.9354 13.5824 34.9481 13.4151 34.9524C13.3579 34.9524 13.3028 34.9524 13.2456 34.9524C13.1885 34.9524 13.1334 34.9502 13.0762 34.9481C13.0508 34.9481 13.0275 34.9439 13.0042 34.9418C12.9809 34.9397 12.9555 34.9354 12.9322 34.9333C12.9026 34.9312 12.8771 34.9185 12.8538 34.8973C12.7882 34.8359 12.7225 34.7745 12.6611 34.7109C13.1228 34.7787 13.5845 34.838 14.0462 34.8931Z" fill="#F1ECE2"/>
<path d="M21.3073 27.0996C20.9748 27.0996 20.6423 27.1038 20.312 27.1102C19.7592 27.9679 19.162 28.7938 18.5118 29.5816C18.3742 29.7468 18.2365 29.9099 18.0946 30.0708C17.7367 30.4775 17.3661 30.8692 16.9743 31.2441C16.6334 31.5723 16.2797 31.8858 15.9091 32.1801C15.6211 32.411 15.3246 32.6312 15.0154 32.8345C14.4457 33.2115 13.8506 33.5355 13.2089 33.7727C12.8828 33.8913 12.5503 33.9887 12.2094 34.0459C12.1903 34.0501 12.1712 34.0565 12.1543 34.0628C12.1543 34.0692 12.1564 34.0755 12.1585 34.0798C12.1585 34.084 12.1585 34.0861 12.1628 34.0904C12.1882 34.1285 12.2115 34.1645 12.2369 34.2005C12.2877 34.2725 12.3407 34.3445 12.3957 34.4144C12.4783 34.5182 12.5673 34.6177 12.6583 34.7151C13.12 34.7829 13.5817 34.8422 14.0433 34.8972C14.1662 34.8782 14.289 34.8549 14.4118 34.8252C14.6935 34.7575 14.9688 34.6706 15.2357 34.5669C15.3691 34.5139 15.5025 34.4589 15.6338 34.3996C15.7651 34.3403 15.8943 34.2746 16.0213 34.209C16.0764 34.1793 16.1315 34.1497 16.1865 34.12C16.5698 33.9082 16.9383 33.6732 17.2899 33.419C17.6436 33.1649 17.9824 32.8896 18.3107 32.6016C18.3572 32.5592 18.4038 32.519 18.4504 32.4766C18.4843 32.4449 18.5182 32.4131 18.5542 32.3813C18.766 32.1886 18.9714 31.9895 19.1726 31.7862C19.2509 31.7079 19.3272 31.6274 19.4055 31.5469C19.6576 31.2822 19.9053 31.0111 20.1446 30.7337C20.2887 30.5664 20.4284 30.3991 20.5682 30.2276C20.5851 30.2064 20.6021 30.1852 20.619 30.1661C20.7143 30.0475 20.8075 29.929 20.9007 29.8082C21.1929 29.4292 21.4767 29.0416 21.7478 28.6477C21.8939 28.4338 22.0379 28.2199 22.1798 28.0018C22.2582 27.8789 22.3365 27.7561 22.4128 27.6333C22.5187 27.4639 22.6224 27.2944 22.7262 27.1229C22.2518 27.1123 21.7796 27.106 21.3052 27.106L21.3073 27.0996Z" fill="#F1ECE2"/>
<path d="M8.66279 35.7997C8.64797 35.8018 8.63526 35.7997 8.62891 35.7828C8.64585 35.7785 8.65856 35.7828 8.66279 35.7997Z" fill="#C18B00"/>
<path d="M18.4927 27.1698C18.2555 27.1804 18.0183 27.1931 17.7811 27.2079C17.5206 27.5764 17.2517 27.9386 16.9721 28.2922C16.6968 28.6395 16.4151 28.9805 16.1186 29.3109C15.9513 29.4994 15.7798 29.6836 15.6083 29.8679C15.4854 29.997 15.3605 30.1262 15.2334 30.2512C14.723 30.7488 14.1894 31.2211 13.6154 31.6447C13.5201 31.7146 13.4248 31.7844 13.3253 31.8522C13.0034 32.0767 12.6688 32.2842 12.3236 32.4706C12.0737 32.6061 11.8153 32.7268 11.5527 32.837C11.5527 32.8497 11.5527 32.8624 11.557 32.8751C11.593 32.9767 11.6332 33.0763 11.6756 33.1737C11.7179 33.2732 11.7624 33.3685 11.809 33.4659C11.9022 33.6587 12.0059 33.845 12.1224 34.0272C12.1309 34.042 12.1436 34.0505 12.1542 34.061C12.1732 34.0547 12.1902 34.0483 12.2092 34.0441C12.5523 33.9869 12.8848 33.8895 13.2088 33.7709C13.8505 33.5358 14.4477 33.2097 15.0153 32.8327C15.3245 32.6273 15.621 32.4092 15.909 32.1783C16.2775 31.884 16.6312 31.5705 16.9742 31.2423C17.366 30.8674 17.7366 30.4757 18.0945 30.069C18.2364 29.9081 18.3741 29.745 18.5117 29.5798C19.1619 28.7941 19.7591 27.9661 20.3118 27.1084C19.7062 27.119 19.0984 27.138 18.4927 27.1677V27.1698Z" fill="#FDBF41"/>
<path d="M30.4163 18.0443C30.4354 18.0443 30.4566 18.0443 30.4439 18.0146C30.4523 18.0146 30.4629 18.0168 30.4714 18.0189C30.465 18.0189 30.4608 18.0189 30.4587 18.0231C30.4502 18.0295 30.4502 18.0422 30.4523 18.0549C30.4396 18.0549 30.429 18.0549 30.4163 18.0528C30.41 18.0528 30.4015 18.0528 30.3952 18.0528C30.3803 18.0528 30.3655 18.0506 30.3507 18.0485C30.3168 18.0443 30.2829 18.0379 30.249 18.0295C30.3062 18.0252 30.3613 18.0464 30.4163 18.0485V18.0443Z" fill="#E7AA24"/>
<path d="M13.1204 29.5351C13.1437 29.5393 13.1691 29.5435 13.1924 29.5478C12.7265 29.9967 12.2394 30.4182 11.7184 30.8036C11.5278 30.9434 11.3394 31.0853 11.1339 31.2039C11.0958 31.0387 11.0789 30.8714 11.0598 30.7062C10.9942 30.1725 10.9709 29.6388 10.9688 29.103C11.0979 29.1348 11.2271 29.1644 11.3584 29.1941C11.7375 29.2809 12.1187 29.3572 12.502 29.4292C12.7074 29.4673 12.915 29.5033 13.1204 29.5372V29.5351Z" fill="#F1ECE2"/>
<path d="M15.2488 27.4258C15.1937 27.4322 15.1387 27.4385 15.0836 27.4428C14.5351 28.1395 13.9485 28.8045 13.3153 29.4292C13.275 29.4695 13.2348 29.5076 13.1924 29.5478C13.2115 29.5499 13.2305 29.5542 13.2475 29.5584C13.2284 29.5563 13.2094 29.5521 13.1903 29.5499C12.7244 29.9989 12.2373 30.4203 11.7163 30.8058C11.5257 30.9456 11.3373 31.0874 11.1318 31.206C11.1318 31.2293 11.134 31.2505 11.1382 31.2738C11.1382 31.2802 11.1382 31.2865 11.1382 31.2929C11.1424 31.3183 11.1488 31.3437 11.153 31.3691C11.1572 31.3903 11.1594 31.4093 11.1636 31.4305C11.1742 31.4813 11.1827 31.5343 11.1933 31.5851C11.2525 31.8795 11.3224 32.1696 11.4114 32.4555C11.4516 32.5847 11.4834 32.716 11.5469 32.8346C11.8095 32.7245 12.0679 32.6038 12.3178 32.4682C12.6651 32.2819 12.9976 32.0743 13.3195 31.8498C13.4169 31.7821 13.5143 31.7143 13.6096 31.6423C14.1835 31.2187 14.7172 30.7486 15.2276 30.2488C15.3547 30.1239 15.4796 29.9947 15.6025 29.8655C15.7761 29.6834 15.9455 29.497 16.1128 29.3085C16.4093 28.9781 16.691 28.6372 16.9663 28.2899C17.2458 27.9362 17.5148 27.5741 17.7753 27.2056C16.9303 27.2564 16.0853 27.3284 15.2445 27.4216L15.2488 27.4258Z" fill="#FF1100"/>
<path d="M13.2476 29.5563C13.2285 29.5542 13.2095 29.55 13.1904 29.5479C13.2095 29.55 13.2285 29.5542 13.2455 29.5563H13.2476Z" fill="#F1ECE2"/>
<path d="M13.1921 29.5459C13.1688 29.5417 13.1455 29.5374 13.1201 29.5332L13.1921 29.5459Z" fill="#FF1100"/>
<path d="M12.502 29.4272C12.7074 29.4654 12.9149 29.5014 13.1203 29.5353C12.9149 29.5014 12.7074 29.4654 12.502 29.4272Z" fill="#FF1100"/>
<path d="M14.7214 27.4937C14.8422 27.4683 14.9629 27.4556 15.0836 27.4429C14.5351 28.1396 13.9485 28.8046 13.3152 29.4293C13.275 29.4696 13.2348 29.5077 13.1924 29.5479L13.1204 29.5352C12.915 29.5013 12.7074 29.4653 12.502 29.4272C12.1187 29.3573 11.7375 29.279 11.3584 29.1921C11.2292 29.1625 11.1001 29.1307 10.9688 29.1011C10.9688 28.8999 10.9709 28.6966 10.9772 28.4933C10.9815 28.3726 10.9857 28.254 10.992 28.1333C11.4325 28.0274 11.8752 27.9363 12.322 27.8516C13.0823 27.7076 13.8468 27.5911 14.6134 27.4958C14.6261 27.4958 14.6388 27.4916 14.6494 27.4916C14.6643 27.4916 14.677 27.4873 14.6918 27.4895C14.7003 27.4895 14.7087 27.4895 14.7172 27.4937H14.7214Z" fill="#FDBF41"/>
<path d="M28.2814 17.752C28.7261 17.807 29.1688 17.86 29.6135 17.915C29.6114 17.9193 29.6071 17.9235 29.6029 17.9277C29.3276 17.8938 29.0502 17.8621 28.7749 17.8261C28.6944 17.8155 28.6139 17.8091 28.5334 17.8007C28.453 17.7922 28.3725 17.7837 28.2941 17.7668C28.2899 17.7625 28.2857 17.7562 28.2793 17.752H28.2814Z" fill="#007FFF"/>
<path d="M26.1064 19.1305C26.1234 19.067 26.1382 19.0035 26.1552 18.9399C26.1382 19.0035 26.1234 19.067 26.1064 19.1305Z" fill="#F1ECE2"/>
<path d="M38.8596 28.0465C38.8596 27.4366 38.8596 26.8267 38.8596 26.2147C38.8193 26.0452 38.7685 25.8779 38.6732 25.7297C38.5207 25.4883 38.3386 25.2744 38.112 25.0986C37.8748 24.9143 37.6313 24.7407 37.3687 24.5946C37.0086 24.3934 36.6338 24.2218 36.259 24.0524C36.1912 24.0228 36.1234 24.0079 36.0556 23.9804C35.2064 23.6479 34.3318 23.398 33.4466 23.1841C32.879 23.0465 32.3093 22.9279 31.7354 22.8199C31.0916 22.6992 30.4457 22.5954 29.7976 22.5064C29.3508 22.445 28.9039 22.39 28.455 22.3391C28.2559 22.318 28.0568 22.2947 27.8556 22.2756C27.2902 22.2205 26.7269 22.1697 26.1614 22.1295C25.8268 22.1041 25.4943 22.0829 25.1597 22.0659C24.8759 22.0511 24.5922 22.0363 24.3084 22.0236C23.8615 22.0024 23.4147 21.9876 22.9678 21.977C22.9361 21.977 22.9022 21.977 22.8704 21.9749C22.1652 21.9601 21.4579 21.9558 20.7526 21.9601C20.742 21.9601 20.7293 21.9601 20.7188 21.9601C19.9924 21.9664 19.266 21.9833 18.5396 22.013C18.4951 22.013 18.4527 22.0172 18.4104 22.0194C17.5506 22.0554 16.6929 22.1104 15.8373 22.1824C14.5793 22.2883 13.3256 22.4323 12.0761 22.6293C12.0465 22.6335 12.0168 22.6377 11.9872 22.6441C11.9385 22.8135 11.8961 22.9851 11.8347 23.1502C11.7923 23.3197 11.75 23.4891 11.7076 23.6585C11.5933 24.1075 11.4895 24.5607 11.3984 25.0139L11.589 24.9821C11.6716 24.9673 11.7563 24.9546 11.8389 24.9398C11.9618 24.9186 12.0867 24.8995 12.2095 24.8805C12.6564 24.8106 13.1054 24.7492 13.5543 24.692C14.0033 24.6348 14.4523 24.5861 14.9033 24.5395C15.2041 24.5099 15.5048 24.4823 15.8055 24.4569C16.2608 24.4188 16.7162 24.387 17.1736 24.3574C17.6035 24.332 18.0313 24.3087 18.4612 24.2917C18.5713 24.2875 18.6815 24.2811 18.7916 24.2769C18.9546 24.2705 19.1198 24.2663 19.285 24.26C19.3909 24.2578 19.4968 24.2536 19.6027 24.2515C19.9902 24.243 20.3757 24.2367 20.7632 24.2324C20.9093 24.2324 21.0534 24.2324 21.1995 24.2303C21.4494 24.2303 21.6993 24.2303 21.9471 24.2324C22.0381 24.2324 22.1271 24.2324 22.2181 24.2345C22.3155 24.2345 22.413 24.2367 22.5104 24.2388C22.7751 24.243 23.0377 24.2494 23.3024 24.2578C23.5672 24.2663 23.8298 24.2748 24.0945 24.2854C24.139 24.2854 24.1813 24.2896 24.2258 24.2917C24.5096 24.3044 24.7912 24.3171 25.075 24.3341C25.2931 24.3468 25.5091 24.3595 25.7273 24.3743C26.0534 24.3955 26.3796 24.4188 26.7057 24.4463C27.0064 24.4717 27.305 24.4993 27.6057 24.5289C27.6163 24.5289 27.6269 24.5289 27.6375 24.531C27.8535 24.5522 28.0674 24.5734 28.2834 24.5946C28.6286 24.6284 28.9717 24.6708 29.3169 24.7153C29.66 24.7597 30.0031 24.8106 30.3461 24.8614C30.488 24.8826 30.632 24.9038 30.7739 24.9271C31.1996 24.9948 31.6274 25.0732 32.0509 25.1558C32.3008 25.2045 32.5486 25.2553 32.7985 25.3104C33.0463 25.3654 33.2941 25.4205 33.5419 25.4819C33.9167 25.5751 34.2915 25.6725 34.66 25.7826C35.1535 25.9288 35.6406 26.0897 36.1192 26.2803C36.2399 26.3269 36.3585 26.3777 36.4771 26.4286C36.6571 26.5069 36.835 26.5916 37.0108 26.6784C37.0531 26.6996 37.0976 26.7208 37.1399 26.7441C37.1738 26.761 37.2077 26.778 37.2416 26.7949C37.2861 26.8161 37.3305 26.8394 37.375 26.8648C37.4301 26.8945 37.4851 26.9262 37.5381 26.9622C37.7372 27.0999 37.9405 27.2291 38.1247 27.3858C38.1671 27.4218 38.2094 27.4599 38.2497 27.498C38.2984 27.5383 38.3428 27.5806 38.3873 27.6251C38.4593 27.6971 38.5271 27.7755 38.5864 27.858C38.616 27.8983 38.6436 27.9385 38.6669 27.983C38.688 28.019 38.7092 28.0571 38.7283 28.0952C38.7473 28.1334 38.7643 28.1736 38.7812 28.2138C38.7982 28.2541 38.813 28.2943 38.8257 28.3367C38.8342 28.3663 38.8448 28.396 38.8532 28.4256C38.8532 28.4256 38.8532 28.4256 38.8532 28.4298V28.4256C38.8765 28.3028 38.8617 28.1778 38.8638 28.0529L38.8596 28.0465Z" fill="#F1ECE2"/>
<path d="M38.8662 25.9731C38.8662 25.5114 38.8662 25.0476 38.8662 24.5859C38.8662 24.372 38.8641 24.1581 38.862 23.9463C38.826 23.8256 38.8006 23.7028 38.7434 23.5863C38.6036 23.2983 38.3961 23.0654 38.1547 22.8599C37.892 22.6333 37.5998 22.4448 37.2948 22.2775C36.8522 22.034 36.3927 21.8265 35.9204 21.6507C35.3719 21.4474 34.8149 21.2674 34.2516 21.1149C33.8196 20.9984 33.3875 20.8904 32.9513 20.7909C32.4557 20.6786 31.9559 20.5791 31.4561 20.4923C30.9352 20.4012 30.4163 20.3144 29.8911 20.2424C29.6433 20.2085 29.3956 20.1746 29.1478 20.1449C28.5929 20.0729 28.0359 20.0115 27.479 19.9628C27.3752 19.9543 27.2735 19.9374 27.1698 19.931C26.7483 19.8993 26.3269 19.8675 25.9076 19.8379C25.8483 19.8336 25.7869 19.8294 25.7276 19.8252C25.4459 19.804 25.1664 19.7849 24.8847 19.7701C24.5183 19.751 24.1541 19.7383 23.7877 19.7256C23.7835 19.7256 23.7813 19.7256 23.7771 19.7256C23.3959 19.7129 23.0126 19.6981 22.6314 19.6917C22.2947 19.6854 21.9579 19.6833 21.6212 19.6812C21.473 19.6812 21.3247 19.6812 21.1765 19.6812C20.5856 19.6812 19.9969 19.6896 19.406 19.7066C19.3976 19.7066 19.3891 19.7066 19.3806 19.7066C18.6881 19.7277 17.9956 19.7553 17.3052 19.7997C16.7736 19.8336 16.2421 19.8633 15.7105 19.9078C15.4966 19.9268 15.2806 19.9522 15.0667 19.9734C14.3191 20.0475 13.5737 20.1344 12.8282 20.2402C12.8198 20.2402 12.8113 20.2424 12.8028 20.2445C12.5063 21.0132 12.2374 21.7947 12.0023 22.5889C11.9959 22.6079 11.9917 22.6291 11.9854 22.6482C12.015 22.6439 12.0446 22.6376 12.0743 22.6333C13.3217 22.4364 14.5754 22.2924 15.8355 22.1865C16.6932 22.1145 17.5509 22.0615 18.4086 22.0234C18.4509 22.0234 18.4954 22.0192 18.5377 22.0171C19.2641 21.9874 19.9905 21.9705 20.7169 21.9641C20.7275 21.9641 20.7402 21.9641 20.7508 21.9641C21.4581 21.9578 22.1634 21.9641 22.8686 21.9789C22.9003 21.9789 22.9321 21.9789 22.966 21.9811C23.4128 21.9916 23.8597 22.0065 24.3065 22.0276C24.5903 22.0404 24.8741 22.0552 25.1579 22.07C25.4925 22.0891 25.825 22.1102 26.1596 22.1335C26.725 22.1738 27.2905 22.2246 27.8538 22.2797C28.0529 22.2987 28.252 22.3199 28.4531 22.3432C28.9021 22.394 29.349 22.4491 29.7958 22.5105C30.4438 22.5994 31.0898 22.7032 31.7336 22.8239C32.3075 22.9319 32.8772 23.0484 33.4447 23.1882C34.33 23.4042 35.2046 23.6541 36.0538 23.9845C36.1216 24.0099 36.1894 24.0268 36.2571 24.0565C36.632 24.2259 37.0068 24.3953 37.3668 24.5986C37.6294 24.7447 37.8709 24.9184 38.1102 25.1026C38.3368 25.2784 38.5189 25.4944 38.6714 25.7337C38.7667 25.8841 38.8196 26.0493 38.8578 26.2187C38.8726 26.1382 38.8641 26.0578 38.8641 25.9773L38.8662 25.9731Z" fill="#FDBF41"/>
<path d="M25.7611 8.49741C26.0682 8.97814 26.2906 9.497 26.46 10.0413C26.5129 10.2107 26.5595 10.3801 26.6019 10.5495C26.6718 10.8333 26.7268 11.1213 26.7713 11.4115C26.784 11.4962 26.7967 11.5809 26.8073 11.6656C26.8285 11.835 26.8476 12.0066 26.8624 12.1781C26.8687 12.2628 26.8772 12.3496 26.8814 12.4343C26.9132 12.9003 26.9259 13.3662 26.9132 13.8321C26.9005 14.3213 26.8708 14.8084 26.8221 15.2955C26.7734 15.7804 26.7057 16.2612 26.6252 16.7398C26.5765 17.0278 26.5235 17.3137 26.4664 17.5996C26.0047 17.5636 25.543 17.5318 25.0813 17.5085C24.859 17.4979 24.6366 17.4873 24.4142 17.4746C24.5646 16.8287 24.6917 16.1764 24.7912 15.5199C24.9013 14.7914 24.9776 14.0608 25.0072 13.328C25.0305 12.7033 25.0284 12.0786 24.9776 11.4538C24.9352 10.9328 24.8653 10.4182 24.7531 9.90784C24.6281 9.33393 24.4502 8.77695 24.1961 8.24539C24.0966 8.03362 23.978 7.83243 23.8594 7.63336C23.9568 7.60159 24.0584 7.59947 24.1559 7.58888C24.2088 7.58253 24.2596 7.5783 24.3126 7.57618C24.3571 7.57406 24.4015 7.57194 24.446 7.56982C24.518 7.56982 24.59 7.56982 24.662 7.56982C24.7128 7.56982 24.7637 7.57406 24.8145 7.57618C24.8526 7.57618 24.8928 7.58041 24.931 7.58253C24.9373 7.58253 24.9437 7.58253 24.95 7.58465C24.9627 7.58677 24.9733 7.591 24.9839 7.59524C24.9945 7.59947 25.0051 7.60583 25.0157 7.61218C25.0305 7.62065 25.0453 7.63336 25.058 7.64606C25.0919 7.67783 25.1258 7.7096 25.1576 7.74136C25.2232 7.80701 25.2868 7.87267 25.3482 7.94255C25.5006 8.11621 25.6383 8.30046 25.7633 8.49529L25.7611 8.49741Z" fill="#F1ECE2"/>
<path d="M24.7496 9.91008C24.8618 10.4205 24.9317 10.9351 24.974 11.456C25.0249 12.0808 25.0291 12.7055 25.0037 13.3303C24.9762 14.0651 24.8978 14.7958 24.7877 15.5222C24.6881 16.1808 24.5611 16.831 24.4107 17.4769C24.2413 17.4684 24.074 17.4599 23.9046 17.4536C23.5191 17.4388 23.1337 17.4303 22.7483 17.4218C22.6043 17.4197 22.4603 17.4155 22.3184 17.4133C22.4581 16.8839 22.5831 16.3502 22.689 15.8123C22.7694 15.4099 22.8393 15.0054 22.9007 14.5988C22.941 14.3277 22.977 14.0546 23.0066 13.7814C23.0384 13.4955 23.0638 13.2096 23.0829 12.9215C23.1019 12.6145 23.1146 12.3074 23.121 12.0003C23.1273 11.5895 23.1146 11.1786 23.085 10.7678C23.0659 10.4967 23.0384 10.2277 23.0045 9.95667C22.9579 9.58817 22.8902 9.2218 22.8033 8.86178C22.7334 8.57164 22.653 8.28575 22.5471 8.0062C22.6212 7.95961 22.7059 7.93631 22.7864 7.90666C22.9516 7.84525 23.1189 7.7923 23.2862 7.74571C23.4556 7.69912 23.6271 7.661 23.8008 7.63135C23.8135 7.62924 23.8241 7.62712 23.8368 7.625C23.8432 7.625 23.8516 7.625 23.858 7.62712C23.9766 7.82831 24.0952 8.02949 24.1947 8.23915C24.4488 8.77071 24.6267 9.32769 24.7517 9.90161L24.7496 9.91008Z" fill="#FDBF41"/>
<path d="M29.5941 8.96518C29.5941 8.96518 29.5898 8.96094 29.5898 8.95883C29.5898 8.95883 29.5898 8.95671 29.5898 8.95459L29.5962 8.95883V8.96518H29.5941Z" fill="#3180F4"/>
<path d="M38.8578 30.6175C38.8578 30.5879 38.8621 30.5603 38.8621 30.5307C38.8621 30.0542 38.8621 29.5756 38.8621 29.0991C38.8621 28.8936 38.8578 28.6861 38.8578 28.4807C38.8578 28.468 38.8642 28.4553 38.8621 28.4426C38.8621 28.4426 38.8536 28.4277 38.8515 28.4214C38.843 28.3917 38.8324 28.3621 38.824 28.3324C38.8112 28.2901 38.7964 28.2498 38.7795 28.2096C38.7625 28.1694 38.7456 28.1291 38.7265 28.091C38.7075 28.0529 38.6863 28.0148 38.6651 27.9788C38.6397 27.9364 38.6122 27.8941 38.5846 27.8538C38.5253 27.7712 38.4597 27.695 38.3856 27.6209C38.3411 27.5764 38.2966 27.534 38.2479 27.4938C38.2077 27.4536 38.1674 27.4176 38.123 27.3815C37.9387 27.2248 37.7354 27.0956 37.5364 26.958C37.4834 26.922 37.4305 26.8902 37.3733 26.8606C37.3288 26.8373 37.2865 26.814 37.2399 26.7907C37.206 26.7737 37.1721 26.7568 37.1382 26.7399C37.0959 26.7187 37.0514 26.6975 37.009 26.6742C36.8333 26.5874 36.6554 26.5027 36.4753 26.4243C36.3568 26.3735 36.2382 26.3248 36.1174 26.2761C35.6388 26.0855 35.1517 25.9224 34.6583 25.7784C34.2877 25.6683 33.915 25.5709 33.5401 25.4777C33.2923 25.4163 33.0467 25.3591 32.7968 25.3061C32.549 25.2532 32.2991 25.2002 32.0492 25.1515C31.6256 25.0668 31.1979 24.9906 30.7722 24.9228C30.6303 24.8995 30.4884 24.8783 30.3444 24.8572C30.0013 24.8063 29.6582 24.7555 29.3152 24.711C28.9721 24.6644 28.6269 24.6242 28.2817 24.5903C28.0657 24.5691 27.8518 24.548 27.6358 24.5268C27.6252 24.5268 27.6146 24.5268 27.604 24.5247C27.3033 24.495 27.0047 24.4675 26.7039 24.4421C26.3778 24.4167 26.0517 24.3934 25.7255 24.3701C25.5074 24.3553 25.2914 24.3425 25.0733 24.3298C24.7895 24.315 24.5078 24.3002 24.224 24.2875C24.1796 24.2875 24.1372 24.2832 24.0927 24.2811C23.828 24.2705 23.5654 24.26 23.3007 24.2536C23.036 24.2451 22.7734 24.2388 22.5086 24.2345C22.4112 24.2345 22.3138 24.2324 22.2164 24.2303C22.1253 24.2303 22.0364 24.2303 21.9453 24.2282C21.6954 24.2282 21.4455 24.2261 21.1977 24.2261C21.0516 24.2261 20.9055 24.2261 20.7615 24.2282C20.3739 24.2303 19.9885 24.2367 19.6009 24.2472C19.4951 24.2494 19.3892 24.2515 19.2833 24.2557C19.1181 24.26 18.955 24.2663 18.7898 24.2727C18.6797 24.2769 18.5696 24.2811 18.4595 24.2875C18.0296 24.3065 17.6018 24.3277 17.1719 24.3531C16.7165 24.3807 16.2591 24.4146 15.8038 24.4527C15.5031 24.4781 15.2023 24.5056 14.9016 24.5353C14.4505 24.5797 14.0016 24.6306 13.5526 24.6877C13.1036 24.7449 12.6547 24.8063 12.2078 24.8762C12.0829 24.8953 11.96 24.9165 11.8372 24.9355C11.7546 24.9482 11.6699 24.9631 11.5873 24.9779L11.3967 25.0096C11.4878 24.5543 11.5915 24.1032 11.7059 23.6543C11.7482 23.4848 11.7906 23.3154 11.833 23.146C11.8944 22.9808 11.9367 22.8093 11.9854 22.6399C11.9918 22.6208 11.996 22.5996 12.0024 22.5806C12.2374 21.7885 12.5064 21.0071 12.8029 20.2362C12.9914 19.747 13.1926 19.2641 13.4043 18.7855C13.5462 18.4636 13.6945 18.1459 13.847 17.8283C14.3531 16.7842 14.9122 15.7698 15.5348 14.785C16.1151 13.8638 16.7483 12.9807 17.4408 12.1399C17.4556 12.123 17.4662 12.1039 17.4789 12.0849C17.6865 11.8456 17.8919 11.6041 18.1058 11.3712C18.8004 10.6024 19.5459 9.89299 20.3739 9.26825C20.5772 9.11577 20.789 8.96964 20.9966 8.8214C21.0156 8.80869 21.0389 8.80657 21.0622 8.80446C21.0728 8.77481 21.1003 8.7621 21.1236 8.74516C21.5514 8.47197 21.994 8.22842 22.4621 8.03359C22.479 8.02723 22.4938 8.01876 22.5129 8.01241C22.5171 8.01241 22.5235 8.01029 22.5298 8.00817C22.5362 8.00817 22.5404 8.00817 22.5468 8.00817C22.6209 7.96158 22.7056 7.93829 22.7861 7.90864C22.9513 7.84722 23.1186 7.79428 23.2859 7.74769C23.4553 7.7011 23.6268 7.66298 23.8005 7.63333C23.8132 7.63121 23.8238 7.62909 23.8365 7.62697C23.8428 7.62697 23.8513 7.62697 23.8577 7.62909C23.9551 7.59733 24.0567 7.59521 24.1542 7.58462C24.2071 7.57827 24.2579 7.57403 24.3109 7.57191C24.3553 7.56979 24.3998 7.56768 24.4443 7.56556C24.5163 7.56556 24.5883 7.56556 24.6603 7.56556C24.7111 7.56556 24.762 7.56979 24.8128 7.57191C24.8509 7.57191 24.8911 7.57615 24.9293 7.57827C24.9356 7.57827 24.942 7.57827 24.9483 7.58038C24.961 7.5825 24.9716 7.58674 24.9822 7.59097C24.9928 7.59521 25.0034 7.60156 25.014 7.60791C25.0288 7.61639 25.0436 7.62909 25.0563 7.6418C25.0902 7.67357 25.1241 7.70533 25.1559 7.7371C25.2215 7.80275 25.285 7.8684 25.3465 7.93829C25.4989 8.11194 25.6366 8.29619 25.7615 8.49102C26.0686 8.97176 26.291 9.49061 26.4604 10.0349C26.5133 10.2043 26.5599 10.3737 26.6023 10.5431C26.6722 10.8269 26.7272 11.1149 26.7717 11.4051C26.7844 11.4898 26.7971 11.5745 26.8077 11.6592C26.8289 11.8286 26.848 12.0002 26.8628 12.1717C26.8691 12.2564 26.8776 12.3433 26.8818 12.428C26.9136 12.8939 26.9263 13.3598 26.9136 13.8257C26.9009 14.3149 26.8713 14.802 26.8225 15.2891C26.7738 15.774 26.7061 16.2548 26.6256 16.7334C26.5769 17.0214 26.5239 17.3073 26.4668 17.5932C26.5409 17.5996 26.615 17.6038 26.6912 17.6102C27.227 17.6546 27.7628 17.7076 28.2965 17.7584C28.2923 17.7542 28.288 17.7478 28.2817 17.7436C28.7264 17.7986 29.169 17.8516 29.6138 17.9066C29.6116 17.9109 29.6074 17.9151 29.6032 17.9193C29.6307 17.9236 29.6561 17.9278 29.6837 17.9299C29.7726 17.4916 29.8531 17.0511 29.9208 16.6084C29.9823 16.2124 30.0331 15.8143 30.0754 15.414C30.1157 15.0413 30.1496 14.6664 30.1665 14.2916C30.175 14.1116 30.1856 13.9295 30.1962 13.7495C30.1962 13.7262 30.1856 13.6944 30.2216 13.6838C30.2216 13.3471 30.2216 13.0104 30.2194 12.6736C30.2004 12.6673 30.2004 12.6503 30.1983 12.6334C30.194 12.5656 30.1856 12.4978 30.1834 12.4301C30.1707 11.9409 30.1242 11.4559 30.0585 10.9709C29.9865 10.4351 29.8785 9.9057 29.7302 9.38684C29.6942 9.25766 29.6625 9.12424 29.6053 9.00141L29.5926 8.95693C29.5926 8.95693 29.5884 8.9527 29.5884 8.95058C29.5884 8.95058 29.5884 8.94846 29.5884 8.94635C29.5841 8.93152 29.582 8.91458 29.5778 8.89976C29.3618 8.27925 29.0822 7.69051 28.6947 7.15471C28.3219 6.64009 27.873 6.20595 27.3202 5.88617C27.1127 5.76545 26.8882 5.68074 26.6743 5.57274C26.6552 5.56426 26.6298 5.56426 26.6086 5.56003C26.5896 5.53462 26.5599 5.52826 26.5345 5.51767C26.0326 5.29531 25.5307 5.07294 25.0267 4.85058C24.961 4.82304 24.9038 4.77857 24.8297 4.7701C24.817 4.76586 24.8064 4.76163 24.7937 4.75739C24.709 4.72986 24.6201 4.7108 24.5375 4.67056C24.5311 4.66845 24.5226 4.66633 24.5163 4.66209C24.5121 4.66209 24.5078 4.65998 24.5057 4.65786H24.5036C24.5036 4.65786 24.4888 4.65998 24.4824 4.65151C24.3215 4.61127 24.1584 4.5795 23.9953 4.55621C23.8767 4.53926 23.7581 4.52656 23.6395 4.5202C23.5993 4.51809 23.5591 4.51597 23.5209 4.51597C23.4023 4.51385 23.2837 4.51597 23.1652 4.5202C23.0084 4.52656 22.8517 4.54138 22.6971 4.56256C22.4239 4.60068 22.155 4.65786 21.8881 4.73198C21.85 4.74257 21.8119 4.75316 21.7738 4.76586C21.2719 4.91411 20.7911 5.11741 20.3295 5.35461C20.1749 5.43508 20.0224 5.51767 19.872 5.6045C19.7344 5.68286 19.5988 5.76545 19.4633 5.85016C19.4188 5.87769 19.3743 5.90734 19.3299 5.93487C19.2854 5.96452 19.2409 5.99205 19.1986 6.0217C19.1096 6.081 19.0228 6.1403 18.9381 6.20383C18.8957 6.2356 18.8534 6.26525 18.8089 6.29701C18.8089 6.29913 18.8089 6.30337 18.8089 6.30548C18.8089 6.3076 18.8068 6.30972 18.8047 6.31184C18.8025 6.31396 18.7962 6.31607 18.7898 6.31607V6.32243C18.7898 6.32243 18.7877 6.32878 18.7856 6.3309C18.7856 6.3309 18.7814 6.3309 18.7771 6.3309C18.7771 6.3309 18.775 6.3309 18.7729 6.3309C18.5844 6.4622 18.4002 6.60197 18.2202 6.74598C18.1397 6.80951 18.0613 6.87517 17.983 6.94082C17.9703 6.95141 17.9576 6.96199 17.947 6.97258C17.8665 7.04035 17.786 7.11024 17.7077 7.18012C17.7077 7.18012 17.7077 7.18436 17.7077 7.18648C17.7077 7.19071 17.7055 7.19495 17.7013 7.19918C17.7013 7.19918 17.7013 7.19918 17.6971 7.19918C17.6949 7.19918 17.6928 7.19918 17.6886 7.19918C17.6865 7.20342 17.6822 7.20766 17.6801 7.21189C17.6759 7.21613 17.6717 7.22036 17.6674 7.2246C17.6611 7.22883 17.6526 7.23307 17.6441 7.23519C17.6441 7.24578 17.642 7.25001 17.6378 7.25425C17.6314 7.25848 17.6187 7.25425 17.6102 7.25636C17.5806 7.28813 17.5488 7.31778 17.5192 7.34955C17.5192 7.35166 17.5149 7.35378 17.5128 7.3559C17.5128 7.3559 17.5128 7.35802 17.5128 7.36014C17.5128 7.36437 17.5107 7.36649 17.5086 7.37072C17.5086 7.37072 17.5022 7.37496 17.4959 7.37284C17.4683 7.39402 17.4408 7.4152 17.4133 7.43849C17.4112 7.43849 17.409 7.44273 17.4069 7.44485C17.3074 7.53803 17.21 7.63121 17.1126 7.72439C17.1062 7.73075 17.0999 7.7371 17.0935 7.74345C17.0639 7.7731 17.0321 7.80275 17.0003 7.83028C16.922 7.90228 16.8415 7.97217 16.7674 8.04841C16.7271 8.08865 16.6869 8.131 16.6467 8.17124C16.4137 8.40631 16.185 8.6435 15.9626 8.88917C15.6788 9.2026 15.4035 9.52026 15.1367 9.8464C15.0986 9.89299 15.0604 9.93958 15.0223 9.98617C15.016 9.99253 15.0096 10.001 15.0054 10.0095C14.9969 10.0201 14.9906 10.0328 14.9821 10.0434C14.9715 10.0582 14.963 10.0751 14.9524 10.0878C14.944 10.0984 14.9376 10.109 14.9291 10.1196C14.927 10.1217 14.9249 10.1259 14.9207 10.1281C14.908 10.1408 14.8953 10.1535 14.8804 10.1641C14.8804 10.1662 14.8804 10.1683 14.8783 10.1704C14.8783 10.1725 14.8783 10.1747 14.8762 10.1768C14.8762 10.1768 14.8741 10.1789 14.872 10.181C14.872 10.181 14.8677 10.1831 14.8635 10.1852C14.8571 10.217 14.8317 10.2318 14.8105 10.253C14.8105 10.253 14.8084 10.2551 14.8063 10.2572C14.8 10.2636 14.7957 10.27 14.7894 10.2763C14.7894 10.2805 14.7851 10.2827 14.7851 10.2869C14.7851 10.2911 14.7809 10.2954 14.7809 10.2996C14.7809 10.2996 14.7809 10.3038 14.7809 10.306C14.7809 10.3123 14.7788 10.3144 14.7745 10.3187H14.7682L14.764 10.3229C14.7152 10.3843 14.6644 10.4457 14.6157 10.5071C14.6136 10.5114 14.6115 10.5135 14.6072 10.5177C14.6072 10.5262 14.6072 10.5326 14.6072 10.5389C14.6072 10.5431 14.6051 10.5474 14.6009 10.5516V10.5559C14.6009 10.5559 14.5903 10.5643 14.5861 10.5664C14.5818 10.5707 14.5734 10.5728 14.567 10.5749C14.5585 10.5834 14.5522 10.5919 14.5437 10.6003C14.5416 10.6024 14.5373 10.6067 14.5352 10.6088C14.5289 10.6152 14.5225 10.6236 14.5162 10.63C14.3891 10.7994 14.2642 10.9688 14.1371 11.1382C14.1371 11.1425 14.135 11.1467 14.1307 11.1509H14.1286C14.1286 11.1509 14.1223 11.1573 14.1201 11.1573C14.0333 11.2801 13.9444 11.4008 13.8575 11.5258C13.8406 11.5512 13.8237 11.5745 13.8067 11.5999C13.6775 11.7884 13.5589 11.9811 13.4276 12.1696C13.3641 12.2628 13.3027 12.3581 13.2392 12.4534C13.1777 12.5487 13.1142 12.644 13.0464 12.735C12.9384 12.8833 12.8453 13.0442 12.75 13.2031C12.7097 13.2708 12.6674 13.3386 12.6271 13.4064C12.1697 14.1667 11.7249 14.9354 11.3459 15.738C11.3247 15.7846 11.2993 15.8291 11.2717 15.8715C11.2463 15.9159 11.2188 15.9583 11.1976 16.0049C11.0684 16.2654 10.9414 16.5259 10.8207 16.7885C10.7741 16.8859 10.7296 16.9854 10.6851 17.0828C10.6258 17.212 10.5686 17.3412 10.5115 17.4704C10.4395 17.6356 10.3675 17.7986 10.2955 17.9659C10.2658 18.0358 10.2362 18.1057 10.2065 18.1756C10.1684 18.2624 10.1324 18.3493 10.0964 18.4382C9.96932 18.7474 9.84649 19.0587 9.72789 19.3721C9.69401 19.4632 9.658 19.5564 9.62412 19.6474C9.54153 19.8698 9.46317 20.0943 9.38481 20.3167C9.36575 20.3696 9.34669 20.4226 9.32763 20.4776C9.31281 20.52 9.3001 20.5623 9.28528 20.6026C9.24927 20.7085 9.21327 20.8165 9.18151 20.9223C9.14127 21.0536 9.10103 21.1828 9.06079 21.3141C9.03114 21.4073 9.00361 21.5005 8.97185 21.5937C8.90408 21.8012 8.8236 22.0088 8.79819 22.229C8.79819 22.2396 8.78336 22.2502 8.77701 22.2608C8.74313 22.3518 8.72407 22.445 8.70077 22.5403C8.69018 22.5848 8.67536 22.6293 8.66265 22.6737C8.64994 22.7182 8.63512 22.7627 8.62241 22.8072C8.57159 22.9999 8.52076 23.1926 8.47417 23.3853C8.43181 23.559 8.38946 23.7347 8.34922 23.9105C8.30475 24.1075 8.26239 24.3044 8.22215 24.5035C8.18615 24.6772 8.15227 24.8487 8.1205 25.0245C8.09509 25.1621 8.06968 25.2998 8.04638 25.4374C8.0252 25.5581 8.00614 25.681 7.98708 25.8017C7.96167 25.9563 7.93837 26.1109 7.9172 26.2655C7.89814 26.4053 7.87908 26.5429 7.86213 26.6827C7.81554 27.0639 7.77742 27.4472 7.74777 27.8326C7.7393 27.9428 7.73295 28.0529 7.7266 28.163C7.72024 28.2731 7.71389 28.3833 7.70965 28.4934C7.70118 28.7136 7.69483 28.9339 7.68848 29.1541C7.68848 29.205 7.68848 29.2537 7.68848 29.3045C7.68848 29.3193 7.68848 29.3341 7.68848 29.3511C7.68848 29.6327 7.69907 29.9144 7.70754 30.194C7.70754 30.2067 7.70754 30.2194 7.70754 30.2321C7.70754 30.2829 7.71177 30.3316 7.71601 30.3824C7.7266 30.5857 7.74354 30.789 7.76472 30.9902C7.77954 31.1279 7.79437 31.2655 7.81343 31.4032C7.81554 31.4223 7.81978 31.4434 7.8219 31.4625C7.86002 31.7399 7.90237 32.0174 7.95743 32.2948C8.05909 32.8094 8.19462 33.3155 8.37887 33.8069C8.38099 33.8153 8.38522 33.8238 8.38946 33.8323C8.52711 34.1965 8.68806 34.5502 8.88502 34.8869C9.20904 35.4418 9.60506 35.931 10.1091 36.3228C10.1684 36.3694 10.2298 36.4138 10.2933 36.4583C10.3548 36.5007 10.4183 36.5367 10.4818 36.5748C10.4924 36.5811 10.5051 36.5875 10.5178 36.5939C10.5263 36.5981 10.5369 36.6023 10.5454 36.6066C10.5602 36.615 10.575 36.6235 10.5856 36.6383C10.5898 36.6426 10.5919 36.6489 10.5962 36.6553C10.6131 36.651 10.6279 36.6553 10.6364 36.6722C10.6534 36.6722 10.6661 36.6764 10.6745 36.6913C10.6788 36.6913 10.683 36.6913 10.6851 36.6913C10.6851 36.6913 10.7042 36.6976 10.7105 36.7082C10.7105 36.7082 10.7127 36.7082 10.7148 36.7082C10.7148 36.7082 10.719 36.7082 10.7211 36.7082C10.7211 36.7082 10.7254 36.7082 10.7275 36.7082H10.7317C10.7317 36.7082 10.7359 36.7103 10.7381 36.7125H10.7402C10.7402 36.7125 10.7444 36.7188 10.7465 36.7209C10.7677 36.7442 10.7974 36.7506 10.8228 36.7612C11.3798 37.0089 11.9367 37.2546 12.4937 37.5003C12.769 37.6231 13.0422 37.7502 13.3345 37.8306C13.6246 37.9111 13.9211 37.9641 14.2239 37.9768C14.2747 37.9768 14.3235 37.9768 14.3743 37.9768C14.5246 37.9768 14.675 37.9768 14.8254 37.9768C14.9715 37.9725 15.1155 37.9535 15.2595 37.9323C15.844 37.8455 16.4073 37.6718 16.9495 37.4388C17.9427 37.0111 18.8407 36.4287 19.6835 35.7531C19.8678 35.6049 20.0499 35.4524 20.2278 35.2978C20.8525 35.3084 21.4773 35.3126 22.102 35.3063C22.6971 35.2999 23.2943 35.2893 23.8894 35.266C23.9191 35.2491 23.9487 35.2491 23.9805 35.2618H24.008C24.044 35.2448 24.08 35.247 24.1181 35.2575H24.1457C24.1669 35.2448 24.1902 35.2427 24.2113 35.247H24.2156C24.2156 35.247 24.2304 35.2512 24.2367 35.2533H24.2643C24.2791 35.2448 24.2939 35.2406 24.3087 35.2406C24.3236 35.2406 24.3405 35.2427 24.3553 35.2491C24.3638 35.2491 24.3723 35.2491 24.3829 35.2491C24.3935 35.2427 24.4019 35.2406 24.4125 35.2385C24.4316 35.2342 24.4528 35.2385 24.4739 35.2448C24.4824 35.2448 24.4909 35.2448 24.4993 35.2448C24.4993 35.2448 24.5015 35.2448 24.5036 35.2448C24.5332 35.23 24.5629 35.23 24.5925 35.2406C24.601 35.2406 24.6095 35.2406 24.6179 35.2406C24.6476 35.2215 24.6794 35.2237 24.709 35.2342H24.7344C24.7641 35.2152 24.7958 35.2173 24.8276 35.23C24.8361 35.23 24.8445 35.23 24.853 35.23C24.8594 35.2258 24.8657 35.2237 24.87 35.2215C24.8805 35.2173 24.889 35.2173 24.8996 35.2173C24.9081 35.2173 24.9187 35.2194 24.9271 35.2237C25.0627 35.2173 25.1982 35.2131 25.3337 35.2046C26.3736 35.1432 27.4134 35.0606 28.449 34.9462C30.0225 34.7726 31.5875 34.5354 33.1314 34.1838C34.1839 33.9445 35.2216 33.6565 36.2255 33.252C36.7634 33.0339 37.2865 32.7861 37.7693 32.46C38.0616 32.263 38.3305 32.0428 38.5465 31.7611C38.6821 31.5811 38.7922 31.3884 38.8367 31.1639C38.8536 31.1469 38.86 31.1237 38.8621 31.1025C38.8727 30.9415 38.879 30.7806 38.8621 30.6196L38.8578 30.6175ZM24.8848 27.2079C24.5946 27.191 24.3066 27.174 24.0165 27.1613C24.3066 27.174 24.5946 27.191 24.8848 27.2079ZM18.4573 32.4706C18.4108 32.5129 18.3642 32.5531 18.3176 32.5955C17.9893 32.8835 17.6505 33.1588 17.2968 33.413C16.9431 33.6671 16.5768 33.9022 16.1934 34.1139C16.1384 34.1436 16.0833 34.1732 16.0283 34.2029C15.9012 34.2707 15.772 34.3342 15.6407 34.3935C15.5094 34.4528 15.3781 34.51 15.2426 34.5608C14.9736 34.6646 14.7004 34.7514 14.4188 34.8192C14.2959 34.8488 14.1731 34.8721 14.0503 34.8912C14.0079 34.8975 13.9634 34.906 13.9211 34.9102C13.7538 34.9335 13.5865 34.9462 13.4192 34.9505C13.362 34.9505 13.3069 34.9505 13.2497 34.9505C13.1926 34.9505 13.1375 34.9483 13.0803 34.9462C13.0549 34.9462 13.0316 34.942 13.0083 34.9399C12.985 34.9378 12.9596 34.9335 12.9363 34.9314C12.9067 34.9293 12.8813 34.9166 12.858 34.8954C12.7923 34.834 12.7267 34.7726 12.6652 34.709C12.5721 34.6137 12.4852 34.5121 12.4026 34.4083C12.3476 34.3384 12.2946 34.2664 12.2438 34.1944C12.2184 34.1584 12.193 34.1203 12.1697 34.0843C12.1676 34.0822 12.1676 34.0779 12.1654 34.0737C12.1654 34.0674 12.1633 34.061 12.1612 34.0568C12.1506 34.0462 12.1379 34.0377 12.1294 34.025C12.0151 33.8408 11.9113 33.6523 11.816 33.4617C11.7694 33.3643 11.7249 33.269 11.6826 33.1694C11.6402 33.0699 11.6 32.9703 11.564 32.8708C11.5598 32.8581 11.5598 32.8454 11.5598 32.8327C11.4962 32.712 11.4623 32.5807 11.4242 32.4536C11.3353 32.1677 11.2654 31.8755 11.2061 31.5832C11.1955 31.5303 11.1849 31.4794 11.1764 31.4286C11.1722 31.4074 11.1701 31.3884 11.1659 31.3672C11.1616 31.3418 11.1553 31.3164 11.151 31.291C11.151 31.2846 11.151 31.2782 11.151 31.2719C11.1489 31.2486 11.1468 31.2274 11.1447 31.2041C11.1066 31.0389 11.0896 30.8716 11.0706 30.7065C11.0049 30.1728 10.9816 29.6391 10.9795 29.1033C10.9795 28.9021 10.9816 28.6988 10.988 28.4955C10.9922 28.3748 10.9964 28.2562 11.0028 28.1355C11.4433 28.0296 11.8859 27.9385 12.3327 27.8538C13.093 27.7098 13.8575 27.5933 14.6242 27.498C14.6369 27.498 14.6496 27.4938 14.6602 27.4938C14.675 27.4938 14.6877 27.4896 14.7025 27.4917C14.711 27.4917 14.7195 27.4917 14.7279 27.4959C14.8487 27.4705 14.9694 27.4578 15.0901 27.4451C15.1452 27.4387 15.2002 27.4345 15.2553 27.4281C16.0981 27.335 16.941 27.263 17.786 27.2121C18.0232 27.1973 18.2604 27.1846 18.4976 27.174C19.1033 27.1444 19.7111 27.1253 20.3167 27.1147C20.6492 27.1084 20.9817 27.1041 21.3121 27.1041C21.7865 27.1041 22.2587 27.1105 22.7331 27.1211C22.6315 27.2926 22.5256 27.462 22.4197 27.6314C22.3435 27.7543 22.2651 27.8771 22.1867 27.9999C22.0449 28.2181 21.9008 28.432 21.7547 28.6459C21.4836 29.0398 21.1999 29.4273 20.9076 29.8064C20.8144 29.9271 20.7212 30.0457 20.6259 30.1643C20.609 30.1855 20.5921 30.2067 20.5751 30.2257C20.4375 30.3973 20.2956 30.5667 20.1516 30.7319C19.9123 31.0093 19.6666 31.2804 19.4125 31.5451C19.3362 31.6256 19.2579 31.706 19.1795 31.7844C18.9783 31.9877 18.7708 32.1847 18.5611 32.3795C18.6268 32.3816 18.6903 32.3858 18.756 32.388C18.6903 32.3858 18.6268 32.3816 18.5611 32.3795C18.5272 32.4113 18.4933 32.443 18.4573 32.4748V32.4706ZM19.584 32.4176C19.8297 32.4261 20.0753 32.4324 20.321 32.4367C20.0753 32.4324 19.8297 32.4261 19.584 32.4176ZM35.7934 29.8064C35.7934 29.8064 35.7765 29.8233 35.7574 29.8382C35.7341 29.8572 35.7108 29.8742 35.6875 29.8911C35.6642 29.9081 35.6388 29.925 35.6155 29.9419C35.5689 29.9737 35.5224 30.0055 35.4758 30.0351L35.4588 30.0457C35.4207 30.0711 35.3805 30.0944 35.3402 30.1177C35.2809 30.1537 35.2237 30.1876 35.1623 30.2194C34.7536 30.446 34.3258 30.6302 33.8874 30.7912C33.4745 30.9436 33.0551 31.0749 32.6337 31.1935C32.028 31.363 31.4139 31.5027 30.7976 31.6256C30.1962 31.7463 29.5947 31.8479 28.989 31.9369C28.3833 32.0258 27.7755 32.0978 27.1677 32.1614C26.9687 32.1825 26.7696 32.2016 26.5684 32.2207C26.1682 32.2567 25.7679 32.2884 25.3676 32.316C25.1664 32.3287 24.9674 32.3414 24.7662 32.3541C24.3172 32.3795 23.8683 32.3986 23.4193 32.4134C23.3388 32.4155 23.2562 32.4197 23.1736 32.4218C23.0995 32.424 23.0233 32.4261 22.9491 32.4282C23.1334 32.2016 23.3176 31.975 23.4849 31.7357C23.5082 31.706 23.5336 31.6764 23.5569 31.6446C23.917 31.1597 24.2622 30.6662 24.5946 30.1622C24.6137 30.1347 24.7048 29.9928 24.7323 29.9504C24.942 29.6264 25.1474 29.2981 25.3465 28.9656C25.6726 28.4214 25.9818 27.8686 26.2783 27.3095C26.8416 27.3583 27.4049 27.4154 27.9683 27.4853C28.0106 27.4896 28.0508 27.498 28.0932 27.5044C28.3452 27.5234 28.5951 27.5616 28.8429 27.5976C29.1627 27.6442 29.4825 27.695 29.8022 27.75C30.2322 27.822 30.6621 27.9025 31.0899 27.9957C31.3207 28.0465 31.5515 28.0974 31.7824 28.1482C31.7845 28.1482 31.7866 28.1482 31.7908 28.1482C31.793 28.1482 31.7951 28.1482 31.7972 28.1482C31.812 28.1503 31.829 28.1503 31.8438 28.1524C31.865 28.1524 31.884 28.1588 31.8988 28.1778C32.3923 28.3049 32.8836 28.4362 33.3665 28.5972C33.4109 28.612 33.4618 28.6162 33.4956 28.6543C33.6206 28.6755 33.7371 28.7285 33.8535 28.7729C33.9573 28.811 34.0611 28.8513 34.1649 28.8915C34.4571 29.008 34.7451 29.1372 35.0247 29.2833C35.1348 29.3405 35.2428 29.4019 35.3487 29.4676C35.4906 29.5544 35.6282 29.6433 35.7574 29.7471C35.7955 29.7768 35.8061 29.7895 35.7913 29.8064H35.7934Z" fill="#007FFF"/>
<path d="M38.8684 21.7717C38.8557 21.5049 38.7541 21.2698 38.5995 21.0559C38.3813 20.7509 38.0997 20.5137 37.7926 20.3041C37.2716 19.9483 36.7019 19.6857 36.1196 19.4506C35.7955 19.3214 35.4652 19.2028 35.1348 19.097C34.6286 18.9339 34.1161 18.7941 33.5994 18.6692C32.9535 18.5103 32.3054 18.3727 31.6511 18.2541C31.2529 18.1821 30.8548 18.1122 30.4545 18.0529C30.4418 18.0529 30.4312 18.0529 30.4185 18.0508C30.4122 18.0508 30.4037 18.0508 30.3973 18.0508C30.3825 18.0508 30.3677 18.0487 30.3529 18.0465C30.319 18.0423 30.2851 18.036 30.2512 18.0275C30.1326 18.0084 30.014 17.9894 29.8954 17.9703C29.8255 17.9618 29.7578 17.9512 29.6879 17.9406C29.6604 17.9364 29.6349 17.9322 29.6074 17.9301C29.3321 17.8962 29.0547 17.8644 28.7794 17.8284C28.6989 17.8178 28.6184 17.8115 28.5379 17.803C28.4575 17.7945 28.377 17.7861 28.2986 17.7691C27.7628 17.7204 27.2291 17.6653 26.6933 17.6209C26.6192 17.6145 26.543 17.6082 26.4689 17.6039C26.0072 17.5679 25.5455 17.5362 25.0838 17.5129C24.8615 17.5023 24.6391 17.4917 24.4167 17.479C24.2473 17.4705 24.08 17.462 23.9106 17.4557C23.5252 17.4409 23.1397 17.4324 22.7543 17.4239C22.6103 17.4218 22.4663 17.4176 22.3244 17.4154C22.083 17.4112 22.3244 17.4154 22.3244 17.4154C22.3244 17.4154 22.5891 16.3523 22.695 15.8144C22.7755 15.412 22.8454 15.0075 22.9068 14.6009C22.947 14.3298 22.983 14.0567 23.0127 13.7835C23.0444 13.4976 23.0698 13.2117 23.0889 12.9236C23.108 12.6166 23.1207 12.3095 23.127 12.0024C23.1334 11.5916 23.1207 11.1807 23.091 10.7699C23.072 10.4988 23.0444 10.2298 23.0105 9.95877C22.964 9.59028 22.8962 9.2239 22.8094 8.86388C22.7395 8.57375 22.659 8.28785 22.5531 8.0083C22.5468 8.0083 22.5425 8.0083 22.5362 8.0083C22.5298 8.0083 22.5256 8.0083 22.5192 8.01254C22.5023 8.01889 22.4853 8.02736 22.4684 8.03371C22.0004 8.23067 21.5578 8.47421 21.13 8.74529C21.1067 8.76011 21.0791 8.77282 21.0686 8.80458C21.1702 9.45262 21.2189 10.1028 21.2253 10.7593C21.2337 11.6975 21.1638 12.6293 21.0368 13.5569C20.9394 14.2557 20.8123 14.9504 20.6556 15.6365C20.52 16.2337 20.3633 16.8246 20.1897 17.4112C19.7682 17.4154 19.3489 17.4281 18.9275 17.443C18.3684 17.462 17.8093 17.4874 17.2502 17.5234C16.7568 17.5552 16.2633 17.587 15.772 17.6293C15.1324 17.6844 14.4929 17.7479 13.8575 17.8263C13.7051 18.1418 13.5568 18.4616 13.4149 18.7835C13.2031 19.2621 13.002 19.7471 12.8135 20.2342C12.8219 20.2342 12.8304 20.2321 12.8389 20.23C13.5822 20.1241 14.3277 20.0372 15.0774 19.9631C15.2913 19.9419 15.5052 19.9165 15.7212 19.8975C16.2506 19.853 16.7843 19.8233 17.3159 19.7895C18.0063 19.745 18.6988 19.7175 19.3913 19.6963C19.3997 19.6963 19.4082 19.6963 19.4167 19.6963C20.0075 19.6793 20.5963 19.6709 21.1871 19.6709C21.3354 19.6709 21.4836 19.6709 21.6319 19.6709C21.9686 19.6709 22.3053 19.6751 22.6421 19.6815C23.0233 19.6878 23.4066 19.7026 23.7878 19.7153C23.7899 19.7153 23.7941 19.7153 23.7984 19.7153C24.1647 19.7281 24.529 19.7408 24.8954 19.7598C25.177 19.7725 25.4587 19.7937 25.7382 19.8149C25.7975 19.8191 25.8589 19.8233 25.9182 19.8276C26.3397 19.8572 26.7611 19.889 27.1804 19.9208C27.2842 19.9292 27.3859 19.9441 27.4896 19.9525C28.0466 20.0012 28.6036 20.0648 29.1584 20.1347C29.4062 20.1664 29.654 20.1982 29.9018 20.2321C30.4249 20.3041 30.9458 20.3909 31.4668 20.482C31.9666 20.5688 32.4664 20.6683 32.962 20.7806C33.3982 20.8801 33.8302 20.9881 34.2623 21.1046C34.8277 21.2571 35.3826 21.4371 35.9311 21.6404C36.4055 21.8162 36.8629 22.0237 37.3055 22.2673C37.6105 22.4346 37.9006 22.623 38.1653 22.8496C38.4046 23.0572 38.6143 23.288 38.7541 23.576C38.8091 23.6904 38.8345 23.8153 38.8727 23.9361C38.8727 23.6968 38.8769 23.4574 38.8769 23.2181C38.8769 22.8624 38.8769 22.5066 38.8769 22.1508C38.8769 22.0216 38.8811 21.8924 38.8769 21.7632L38.8684 21.7717Z" fill="#FF1100"/>
<path d="M24.7953 4.76817C24.7106 4.74064 24.6217 4.72158 24.5391 4.68135C24.5391 4.67076 24.5391 4.65805 24.5412 4.64746C24.6428 4.67923 24.7403 4.72158 24.8313 4.78088C24.8186 4.77665 24.808 4.77241 24.7953 4.76817Z" fill="#404A5A"/>
<path d="M24.4971 4.66406C24.4971 4.66406 24.5034 4.6683 24.5077 4.67042H24.5056C24.5056 4.67042 24.4907 4.67253 24.4844 4.66406C24.4886 4.66406 24.4928 4.66406 24.4971 4.66406Z" fill="#404A5A"/>
<path d="M14.1322 11.1465C14.1322 11.1465 14.1301 11.155 14.1258 11.1592H14.1237C14.1237 11.1592 14.1174 11.1655 14.1152 11.1655V11.1613C14.1152 11.1613 14.1195 11.1507 14.1237 11.1486C14.1237 11.1486 14.1279 11.1486 14.1301 11.1465H14.1322Z" fill="#404A5A"/>
<path d="M14.5923 10.5624C14.5923 10.5624 14.5838 10.5708 14.5796 10.573C14.5754 10.5772 14.5669 10.5793 14.5605 10.5814C14.5605 10.5772 14.5605 10.5751 14.5605 10.5708C14.5605 10.5687 14.5605 10.5645 14.5605 10.5624C14.5605 10.5624 14.5648 10.5518 14.569 10.5475C14.5733 10.5433 14.5775 10.5391 14.5817 10.5348C14.586 10.5306 14.5923 10.5285 14.5987 10.5264C14.5987 10.5348 14.5987 10.5412 14.5987 10.5475C14.5987 10.5518 14.5965 10.556 14.5923 10.5603V10.5645V10.5624Z" fill="#404A5A"/>
<path d="M14.7684 10.325H14.762L14.7578 10.3293C14.7578 10.3293 14.7684 10.3145 14.7748 10.3081C14.7748 10.3081 14.7748 10.3123 14.7748 10.3145C14.7748 10.3208 14.7726 10.3229 14.7684 10.3272V10.325Z" fill="#215CB5"/>
<path d="M14.8566 10.1896C14.8566 10.1896 14.8608 10.179 14.8651 10.1769C14.8672 10.1769 14.8693 10.1769 14.8714 10.1748C14.8714 10.1769 14.8714 10.179 14.8693 10.1812C14.8693 10.1833 14.8693 10.1854 14.8672 10.1875C14.8672 10.1875 14.8651 10.1896 14.863 10.1917C14.863 10.1917 14.8587 10.1939 14.8545 10.196C14.8545 10.196 14.8545 10.1917 14.8545 10.1896H14.8566Z" fill="#215CB5"/>
<path d="M22.7715 3.87442C22.7927 3.86595 22.8075 3.87442 22.8181 3.89136C22.799 3.89559 22.78 3.89983 22.7715 3.87442Z" fill="#FEC35E"/>
<path d="M17.4873 7.3812C17.4873 7.3812 17.5 7.37061 17.5064 7.36426C17.5064 7.36426 17.5064 7.36638 17.5064 7.36849C17.5064 7.37273 17.5042 7.37485 17.5021 7.37908C17.5021 7.37908 17.4958 7.38332 17.4894 7.3812H17.4873Z" fill="#404A5A"/>
<path d="M17.6182 7.25001C17.6182 7.25001 17.6309 7.24577 17.6394 7.24365C17.6394 7.25424 17.6372 7.25848 17.633 7.26271C17.6266 7.26695 17.6139 7.26271 17.6055 7.26483C17.6097 7.25848 17.6139 7.25424 17.6203 7.25001H17.6182Z" fill="#404A5A"/>
<path d="M17.7007 7.19499C17.7007 7.19499 17.6986 7.20347 17.6943 7.2077C17.6943 7.2077 17.6943 7.2077 17.6901 7.2077C17.688 7.2077 17.6859 7.2077 17.6816 7.2077C17.688 7.20135 17.6943 7.19288 17.6986 7.18652C17.6986 7.18652 17.6986 7.19076 17.6986 7.19288L17.7007 7.19499Z" fill="#404A5A"/>
<path d="M18.8062 6.31999C18.8062 6.31999 18.8041 6.32423 18.8019 6.32635C18.7998 6.32847 18.7935 6.33058 18.7871 6.33058C18.7935 6.32423 18.7998 6.31788 18.8062 6.31152C18.8062 6.31364 18.8062 6.31788 18.8062 6.31999Z" fill="#404A5A"/>
<path d="M18.7874 6.33105V6.33529C18.7874 6.33529 18.7853 6.34164 18.7832 6.34376C18.7811 6.34588 18.779 6.34376 18.7747 6.34376C18.7747 6.34376 18.7726 6.34376 18.7705 6.34376C18.7769 6.33953 18.7832 6.33741 18.7896 6.33317L18.7874 6.33105Z" fill="#404A5A"/>
<path d="M24.535 4.6407C23.9844 4.39503 23.4317 4.15149 22.8811 3.90371C22.8599 3.89312 22.8366 3.90371 22.8175 3.88889C22.7985 3.89312 22.7794 3.89736 22.7709 3.87195C22.7476 3.88253 22.7265 3.87195 22.7053 3.86559C22.2224 3.71947 21.729 3.67499 21.2271 3.70252C20.5621 3.73641 19.9225 3.89948 19.3041 4.13878C19.1093 4.21291 18.9187 4.2955 18.7302 4.38445C18.6836 4.40774 18.637 4.42892 18.5905 4.45221C18.5354 4.47975 18.4825 4.50728 18.4274 4.53481C18.3554 4.57081 18.2834 4.60893 18.2114 4.64917C17.8344 4.85459 17.4723 5.08331 17.1186 5.32897C17.0445 5.3798 16.9725 5.43274 16.8984 5.48357L16.856 5.51534C16.6823 5.6424 16.5129 5.77159 16.3435 5.90501C15.9242 6.2375 15.5218 6.59328 15.1343 6.96389C14.0542 7.99525 13.0948 9.13249 12.216 10.3396C12.1927 10.3714 12.1715 10.4032 12.1482 10.4349C12.1482 10.4349 12.1482 10.4434 12.144 10.4455C12.1418 10.4476 12.1376 10.4497 12.1334 10.4497C12.055 10.562 11.9767 10.6742 11.8983 10.7865C11.767 10.9728 11.6378 11.1613 11.5107 11.3519C11.39 11.5319 11.2714 11.7162 11.1528 11.8983C11.0597 12.0444 10.9686 12.1906 10.8775 12.3367C10.7971 12.468 10.7166 12.5993 10.6382 12.7306C10.526 12.9169 10.4159 13.1054 10.3079 13.2939C10.2528 13.3892 10.1998 13.4824 10.1469 13.5777C10.1406 13.5883 10.1342 13.5989 10.1257 13.6095C10.1257 13.6222 10.1215 13.6328 10.1173 13.6412C10.113 13.6476 10.1088 13.6561 10.1045 13.6624C10.0537 13.7514 10.005 13.8424 9.9563 13.9314C9.77206 14.2702 9.58993 14.6112 9.41627 14.9542C9.34215 15.1004 9.27015 15.2444 9.19814 15.3905C8.81271 16.1804 8.4548 16.981 8.12655 17.7942C7.95077 18.2262 7.78559 18.6603 7.62676 19.0987C7.54416 19.3317 7.46157 19.5646 7.38109 19.7976C7.23497 20.2296 7.10155 20.6659 6.97025 21.1021C6.9173 21.2821 6.86436 21.4622 6.81353 21.6422C6.81353 21.6464 6.81141 21.6506 6.8093 21.6549C6.73094 21.9387 6.65682 22.2224 6.58693 22.5083C6.5234 22.7646 6.46198 23.023 6.4048 23.2813C6.35609 23.5016 6.31162 23.7239 6.26715 23.9463C6.25656 23.9992 6.24597 24.0522 6.2375 24.1051C6.23326 24.1263 6.22903 24.1475 6.22479 24.1687C6.22479 24.1771 6.22267 24.1856 6.22056 24.192C6.21208 24.2343 6.20361 24.2767 6.19514 24.319C6.13161 24.6663 6.07443 25.0137 6.02572 25.3631C5.97701 25.6998 5.93466 26.0387 5.90077 26.3775C5.8923 26.4537 5.88595 26.53 5.87959 26.6041C5.87959 26.6105 5.87959 26.6147 5.87959 26.621C5.87324 26.6782 5.87112 26.7206 5.86689 26.7608C5.85206 26.9493 5.83724 27.1378 5.82665 27.3263C5.81606 27.5147 5.80759 27.7053 5.80124 27.8938C5.80124 27.9192 5.80124 27.9425 5.79912 27.968C5.78853 28.3322 5.78641 28.6965 5.797 29.0586C5.80759 29.4017 5.82665 29.7448 5.85842 30.0857C5.89018 30.4267 5.93254 30.7676 5.99184 31.1065C6.01937 31.2717 6.05325 31.4369 6.08714 31.5999C6.20573 32.1527 6.36456 32.6948 6.58269 33.2179C6.59752 33.2539 6.61234 33.2899 6.62928 33.328C6.64411 33.364 6.66105 33.4 6.67799 33.436C6.71611 33.5208 6.75635 33.6055 6.79659 33.6881C6.86648 33.8257 6.93848 33.9612 7.01684 34.0925C7.23073 34.4526 7.48275 34.7893 7.78135 35.0921C7.85971 35.1726 7.94019 35.2489 8.0249 35.3209C8.18161 35.4585 8.34892 35.5835 8.52681 35.6957C8.56069 35.7169 8.59881 35.7296 8.62423 35.7614C8.62846 35.7656 8.63058 35.7719 8.6327 35.7762C8.64964 35.7719 8.66235 35.7762 8.66658 35.7931C8.73647 35.8101 8.79153 35.8567 8.85506 35.8842C9.19391 36.0345 9.53275 36.1849 9.86948 36.3353C10.0622 36.42 10.257 36.5047 10.4497 36.5894L10.4752 36.5682C10.4116 36.5301 10.3481 36.492 10.2867 36.4517C10.2231 36.4073 10.1617 36.3628 10.1024 36.3162C9.5984 35.9244 9.20238 35.4352 8.87836 34.8804C8.68141 34.5436 8.52045 34.19 8.3828 33.8257C8.37856 33.8172 8.37645 33.8088 8.37221 33.8003C8.18796 33.309 8.05243 32.8028 7.95077 32.2882C7.89571 32.0129 7.85336 31.7355 7.81524 31.4559C7.81312 31.4369 7.80888 31.4157 7.80677 31.3966C7.78771 31.259 7.77288 31.1213 7.75806 30.9837C7.73688 30.7804 7.71994 30.5792 7.70935 30.3759C7.70723 30.325 7.70299 30.2763 7.70088 30.2255C7.70088 30.2128 7.70088 30.2001 7.70088 30.1874C7.69029 29.9057 7.6797 29.6262 7.68182 29.3445C7.68182 29.3297 7.68182 29.3127 7.68182 29.2979C7.68182 29.2471 7.68182 29.1984 7.68182 29.1476C7.68817 28.9273 7.69452 28.7071 7.70299 28.4868C7.70723 28.3767 7.71358 28.2666 7.71994 28.1564C7.72629 28.0463 7.73264 27.9362 7.74111 27.8261C7.77076 27.4427 7.80888 27.0594 7.85547 26.6761C7.87242 26.5363 7.89148 26.3987 7.91054 26.2589C7.93171 26.1043 7.95501 25.9497 7.98042 25.7951C7.99948 25.6723 8.02066 25.5516 8.03972 25.4309C8.06302 25.2932 8.08843 25.1556 8.11384 25.0179C8.14561 24.8442 8.18161 24.6706 8.2155 24.4969C8.25573 24.3 8.29809 24.1009 8.34256 23.9039C8.3828 23.7282 8.42516 23.5545 8.46751 23.3787C8.5141 23.186 8.56493 22.9933 8.61575 22.8006C8.62846 22.7561 8.64117 22.7116 8.65599 22.6672C8.6687 22.6227 8.68352 22.5782 8.69411 22.5338C8.71741 22.4406 8.73647 22.3453 8.77035 22.2542C8.77882 22.2436 8.78941 22.2351 8.79153 22.2224C8.81906 22.0022 8.89742 21.7968 8.96519 21.5871C8.99484 21.4939 9.02448 21.4007 9.05413 21.3076C9.09437 21.1763 9.13461 21.0471 9.17485 20.9158C9.20873 20.8078 9.24261 20.7019 9.27862 20.596C9.29344 20.5536 9.30615 20.5113 9.32097 20.471C9.34003 20.4181 9.35909 20.363 9.37815 20.3101C9.45863 20.0877 9.53699 19.8632 9.61746 19.6409C9.65135 19.5498 9.68523 19.4566 9.72123 19.3656C9.83983 19.0521 9.96266 18.7408 10.0897 18.4316C10.1257 18.3427 10.1617 18.2559 10.1998 18.169C10.2295 18.0991 10.2591 18.0292 10.2888 17.9594C10.3608 17.7942 10.4328 17.629 10.5048 17.4638C10.562 17.3346 10.6192 17.2054 10.6785 17.0763C10.7229 16.9767 10.7674 16.8793 10.814 16.7819C10.9368 16.5193 11.0618 16.2567 11.191 15.9983C11.2143 15.9538 11.2397 15.9094 11.2651 15.8649C11.2905 15.8204 11.3159 15.7781 11.3392 15.7315C11.7183 14.9288 12.163 14.1601 12.6205 13.3998C12.6607 13.332 12.7031 13.2643 12.7433 13.1965C12.8386 13.0377 12.9297 12.8767 13.0398 12.7285C13.1075 12.6374 13.169 12.5421 13.2325 12.4468C13.2939 12.3515 13.3553 12.2562 13.421 12.163C13.5502 11.9745 13.6709 11.7818 13.8001 11.5933C13.817 11.57 13.8339 11.5446 13.8509 11.5192C13.9377 11.3964 14.0267 11.2736 14.1135 11.1507V11.1465C14.1135 11.1465 14.1177 11.1359 14.122 11.1338C14.122 11.1338 14.1262 11.1338 14.1283 11.1317C14.2533 10.9622 14.3803 10.7928 14.5074 10.6234C14.5137 10.6149 14.5201 10.6086 14.5265 10.6022C14.5286 10.6001 14.5328 10.5959 14.5349 10.5938C14.5434 10.5853 14.5497 10.5768 14.5582 10.5683C14.5582 10.5641 14.5582 10.562 14.5582 10.5578C14.5582 10.5556 14.5582 10.5514 14.5582 10.5493C14.5582 10.5493 14.5625 10.5387 14.5667 10.5345C14.5709 10.5302 14.5752 10.526 14.5794 10.5217C14.5836 10.5175 14.59 10.5154 14.5963 10.5133C14.5985 10.5112 14.6027 10.5069 14.6048 10.5027C14.6535 10.4413 14.7043 10.3799 14.7531 10.3184C14.7594 10.3121 14.7636 10.3036 14.77 10.2973C14.77 10.293 14.7721 10.2888 14.7742 10.2846C14.7742 10.2803 14.7785 10.2782 14.7785 10.274C14.7827 10.2676 14.7891 10.2613 14.7954 10.2549C14.7954 10.2549 14.7975 10.2528 14.7996 10.2507C14.8208 10.2316 14.8484 10.2147 14.8526 10.1829C14.8526 10.1829 14.8526 10.1787 14.8526 10.1766C14.8526 10.1702 14.8568 10.166 14.8611 10.1638C14.8632 10.1638 14.8653 10.1638 14.8674 10.1617C14.8822 10.1511 14.8949 10.1384 14.9077 10.1257C14.9098 10.1236 14.9119 10.1194 14.9161 10.1173C14.9246 10.1067 14.9331 10.0961 14.9394 10.0855C14.95 10.0707 14.9606 10.0558 14.9691 10.041C14.9775 10.0304 14.9839 10.0177 14.9924 10.0071C14.9987 9.99866 15.003 9.99231 15.0093 9.98383C15.0474 9.93724 15.0855 9.89065 15.1237 9.84406C15.3905 9.51792 15.6658 9.19814 15.9496 8.88683C16.172 8.64117 16.4007 8.40398 16.6336 8.1689C16.6739 8.12867 16.7141 8.08631 16.7543 8.04607C16.8306 7.96983 16.9089 7.89995 16.9873 7.82794C17.0191 7.80041 17.0487 7.77076 17.0805 7.74111C17.0868 7.73476 17.0932 7.72841 17.0995 7.72205C17.197 7.62887 17.2965 7.53569 17.3939 7.44251C17.3939 7.44251 17.3982 7.43827 17.4003 7.43616C17.4257 7.41286 17.4553 7.39168 17.4829 7.3705C17.4892 7.36415 17.4956 7.35992 17.5019 7.35356C17.5019 7.35356 17.5062 7.34933 17.5083 7.34721C17.5379 7.31544 17.5697 7.28579 17.5993 7.25403C17.6036 7.24767 17.6078 7.24344 17.6142 7.2392C17.6205 7.23497 17.6269 7.23497 17.6353 7.23285C17.6438 7.23285 17.6523 7.22861 17.6586 7.22226C17.6629 7.21802 17.6671 7.21379 17.6713 7.20955C17.6756 7.20532 17.6777 7.20108 17.6798 7.19685C17.6862 7.19049 17.6925 7.18202 17.6968 7.17567C17.7751 7.10578 17.8556 7.0359 17.9361 6.96813C17.9488 6.95754 17.9594 6.94695 17.9721 6.93636C18.0504 6.87071 18.1288 6.80506 18.2093 6.74153C18.3893 6.59752 18.5735 6.45774 18.762 6.32644C18.7684 6.32221 18.7747 6.32009 18.7811 6.31585C18.7811 6.31585 18.7938 6.30103 18.8001 6.29468C18.8425 6.26291 18.8848 6.23114 18.9293 6.20149C19.0161 6.14008 19.103 6.07866 19.1898 6.01937C19.2343 5.98972 19.2787 5.96007 19.3211 5.93254C19.3656 5.90289 19.41 5.87536 19.4545 5.84783C19.59 5.76312 19.7256 5.68052 19.8632 5.60216C20.0136 5.51534 20.1661 5.43063 20.3207 5.35227C20.7845 5.11296 21.2631 4.91177 21.765 4.76353C21.8031 4.75294 21.8412 4.74235 21.8794 4.72964C22.1462 4.65552 22.4152 4.59834 22.6883 4.56022C22.8429 4.53904 22.9997 4.52422 23.1564 4.51787C23.275 4.51151 23.3936 4.51151 23.5122 4.51363C23.5524 4.51363 23.5905 4.51575 23.6308 4.51787C23.7493 4.52422 23.8679 4.53693 23.9865 4.55387C24.1496 4.57716 24.3127 4.60681 24.4736 4.64917C24.4779 4.64917 24.4821 4.64917 24.4863 4.64917C24.4906 4.64917 24.4927 4.6534 24.4969 4.65552C24.5012 4.65552 24.5033 4.65764 24.5075 4.65976C24.5139 4.66187 24.5223 4.66399 24.5287 4.66823C24.5287 4.65764 24.5287 4.64493 24.5308 4.63434C24.5287 4.63223 24.5266 4.63011 24.5223 4.62799L24.535 4.6407Z" fill="#F1ECE2"/>
<path d="M22.7709 3.8742C22.7624 3.84031 22.7307 3.83608 22.7052 3.82549C22.2309 3.61371 21.7544 3.40405 21.2779 3.19439C21.1508 3.13933 21.028 3.07368 20.8967 3.02921C20.8818 3.03768 20.867 3.03768 20.8501 3.03132C20.5239 2.92332 20.1851 2.87037 19.842 2.84919C19.5286 2.83013 19.2152 2.84919 18.9038 2.89155C18.6476 2.92755 18.3956 2.9805 18.1457 3.04615C17.6607 3.17533 17.1948 3.35322 16.7458 3.57559C16.5722 3.6603 16.4049 3.75772 16.2354 3.84878C16.1783 3.87843 16.119 3.90596 16.0639 3.93773C15.5747 4.22786 15.1024 4.54129 14.6535 4.89073C14.5412 4.97756 14.4248 5.06227 14.321 5.15757C14.2532 5.21898 14.1876 5.2804 14.1134 5.33334C14.0986 5.34393 14.0859 5.3524 14.069 5.36299C14.0563 5.37358 14.0436 5.38417 14.033 5.39476C14.0287 5.4117 14.0224 5.4244 14.0139 5.43288C14.0097 5.43711 14.0033 5.43923 13.997 5.44135C13.9927 5.44135 13.9906 5.44135 13.9864 5.44135H13.9843C13.9843 5.44135 13.9779 5.44135 13.9737 5.43923C13.9694 5.43923 13.9673 5.44346 13.9652 5.44558C13.9271 5.47311 13.9038 5.52182 13.8699 5.54935C13.8635 5.55359 13.8593 5.55782 13.853 5.55994C13.7598 5.60865 13.7026 5.6976 13.62 5.75689C13.5395 5.81407 13.4739 5.89243 13.3997 5.9602C13.0355 6.29481 12.6903 6.65059 12.3493 7.01062C12.2456 7.12074 12.1503 7.23934 12.0507 7.35369C11.9935 7.41935 11.9279 7.47653 11.8707 7.54218C11.7161 7.72007 11.5658 7.90008 11.4133 8.08009C11.301 8.21351 11.193 8.34905 11.0914 8.49094C11.0109 8.60318 10.9156 8.70271 10.8309 8.81284C10.5704 9.14533 10.3247 9.48841 10.0791 9.83149C9.83554 10.1703 9.61317 10.5198 9.38234 10.8671C9.17479 11.1784 8.9842 11.5003 8.78724 11.818C8.71524 11.9366 8.64959 12.0594 8.57758 12.1759C8.45052 12.3792 8.33404 12.5867 8.22392 12.7985C8.15403 12.8811 8.11379 12.9806 8.06085 13.0738C7.95072 13.2665 7.84695 13.4635 7.75165 13.6647C7.722 13.7282 7.67753 13.7854 7.64576 13.8489C7.55682 14.0289 7.46787 14.2089 7.37681 14.3868C7.14597 14.8337 6.94266 15.2953 6.733 15.7528C6.50428 16.2483 6.3031 16.7545 6.10191 17.2627C5.96637 17.6058 5.82872 17.951 5.72071 18.3047C5.70377 18.3619 5.66988 18.4148 5.6487 18.472C5.54493 18.777 5.43905 19.0819 5.33951 19.389C5.24633 19.6707 5.1595 19.9544 5.07691 20.2403C4.99643 20.5135 4.92019 20.7888 4.84607 21.0641C4.70206 21.5978 4.57076 22.1357 4.45852 22.6758C4.42887 22.8198 4.40134 22.9638 4.37169 23.1078C4.27639 23.597 4.19168 24.0904 4.12179 24.5839C4.05614 25.054 4.0032 25.5263 3.96084 25.9986C3.95661 26.043 3.95449 26.0854 3.95025 26.1299C3.95025 26.1701 3.95025 26.2103 3.95025 26.2506C3.95025 26.2103 3.95025 26.1701 3.95025 26.1299C3.92907 26.3882 3.91425 26.6487 3.90366 26.9092C3.89095 27.2078 3.88884 27.5043 3.88672 27.8029C3.88672 27.9448 3.90154 28.0867 3.89943 28.2286C3.89943 28.4467 3.91637 28.6627 3.92907 28.8787C3.93331 28.9592 3.93755 29.0376 3.94602 29.118C3.94602 29.1329 3.94813 29.1456 3.95025 29.1604C3.97567 29.3679 3.99261 29.5776 4.02226 29.7851C4.04979 29.9863 4.07732 30.1875 4.11544 30.3887C4.16838 30.6661 4.21921 30.9457 4.30604 31.2167C4.33357 31.3015 4.34839 31.3904 4.37169 31.4772C4.42251 31.6678 4.48393 31.8542 4.5517 32.0384C4.64912 32.3032 4.75924 32.5615 4.88207 32.8157C5.06844 33.2053 5.29927 33.5696 5.57035 33.9063C5.8266 34.2261 6.11885 34.5078 6.45558 34.745C6.4704 34.7534 6.48311 34.764 6.49793 34.7725C6.52123 34.7894 6.54664 34.8042 6.57205 34.8191C6.58476 34.8275 6.59958 34.836 6.61441 34.8445C6.661 34.8741 6.70759 34.9038 6.75206 34.9356C6.76477 34.9483 6.77959 34.9567 6.7923 34.9673C6.7923 34.9694 6.79442 34.9716 6.79654 34.9737C6.80501 34.9843 6.81983 34.9864 6.83254 34.9906C7.41069 35.2469 7.99096 35.5031 8.57123 35.7594C8.59453 35.77 8.6157 35.7848 8.64535 35.7784C8.64323 35.7721 8.639 35.7678 8.63688 35.7636C8.61147 35.7318 8.57335 35.7191 8.53946 35.6979C8.36157 35.5857 8.19427 35.4586 8.03755 35.3231C7.95284 35.2511 7.87237 35.1749 7.79401 35.0944C7.4954 34.7915 7.24339 34.4548 7.02949 34.0948C6.95113 33.9635 6.87701 33.828 6.80924 33.6903C6.76689 33.6077 6.72877 33.5251 6.68853 33.4404C6.67159 33.4044 6.65676 33.3684 6.63982 33.3324C6.625 33.2964 6.60806 33.2604 6.59323 33.2223C6.3751 32.6992 6.21627 32.157 6.09767 31.6043C6.06167 31.4412 6.0299 31.276 6.00237 31.1109C5.94307 30.772 5.90072 30.4311 5.86895 30.0901C5.83719 29.7491 5.81813 29.406 5.80754 29.063C5.79695 28.6987 5.79907 28.3345 5.80966 27.9723C5.80966 27.9469 5.80966 27.9236 5.81177 27.8982C5.81813 27.7097 5.8266 27.5191 5.83719 27.3306C5.84778 27.1422 5.8626 26.9537 5.87742 26.7652C5.88166 26.725 5.8859 26.6826 5.89013 26.6254C5.89013 26.6191 5.89013 26.6148 5.89013 26.6085C5.89648 26.5322 5.90495 26.456 5.91131 26.3819C5.94731 26.043 5.98967 25.7063 6.03626 25.3675C6.08708 25.018 6.14215 24.6707 6.20568 24.3234C6.21415 24.281 6.22262 24.2387 6.23109 24.1963C6.23109 24.1879 6.23321 24.1794 6.23533 24.173C6.23956 24.1519 6.2438 24.1307 6.24803 24.1095C6.25862 24.0566 6.26709 24.0036 6.27768 23.9507C6.32216 23.7283 6.36663 23.5081 6.41534 23.2857C6.47252 23.0273 6.53393 22.769 6.59747 22.5127C6.66735 22.2268 6.74148 21.943 6.81983 21.6592C6.81983 21.655 6.81983 21.6508 6.82407 21.6465C6.87489 21.4665 6.92572 21.2865 6.98078 21.1065C7.11209 20.6681 7.2455 20.234 7.39163 19.802C7.46999 19.569 7.55258 19.336 7.63729 19.1031C7.79613 18.6647 7.96131 18.2306 8.13709 17.7985C8.46534 16.9853 8.82324 16.1848 9.20868 15.3949C9.28068 15.2487 9.35269 15.1026 9.42681 14.9586C9.60047 14.6155 9.78048 14.2746 9.96684 13.9357C10.0155 13.8447 10.0664 13.7557 10.1151 13.6668C10.1193 13.6604 10.1236 13.6519 10.1278 13.6456C10.1341 13.635 10.1384 13.6265 10.1363 13.6138C10.1426 13.6032 10.1511 13.5926 10.1574 13.5821C10.2104 13.4868 10.2654 13.3936 10.3184 13.2983C10.4264 13.1098 10.5365 12.9213 10.6488 12.735C10.7271 12.6037 10.8076 12.4723 10.8881 12.341C10.9791 12.1949 11.0702 12.0488 11.1634 11.9027C11.2799 11.7184 11.4006 11.5363 11.5213 11.3563C11.6484 11.1657 11.7775 10.9793 11.9088 10.7908C11.9872 10.6786 12.0656 10.5664 12.1439 10.4541C12.1439 10.452 12.1439 10.4499 12.1439 10.4478C12.1439 10.4478 12.1439 10.4456 12.146 10.4435C12.1481 10.4414 12.1524 10.4393 12.1566 10.4393C12.1799 10.4075 12.2011 10.3758 12.2244 10.344C13.1033 9.13686 14.0626 7.99961 15.1427 6.96826C15.5302 6.59765 15.9326 6.24186 16.3519 5.90937C16.5192 5.77595 16.6908 5.64677 16.8644 5.5197L16.9068 5.48794C16.9788 5.43499 17.0529 5.38417 17.127 5.33334C17.4807 5.08768 17.8449 4.85896 18.2198 4.65354C18.2918 4.61542 18.3638 4.5773 18.4358 4.53918C18.4909 4.51165 18.5438 4.48411 18.5989 4.45658C18.6455 4.43329 18.6921 4.41211 18.7387 4.38881C18.9271 4.29987 19.1177 4.21728 19.3126 4.14315C19.9331 3.90384 20.5705 3.74078 21.2355 3.70689C21.7374 3.67936 22.2309 3.72383 22.7137 3.86996C22.7349 3.87631 22.7561 3.8869 22.7794 3.87631L22.7709 3.8742ZM3.93755 28.5081C3.93755 28.5081 3.93755 28.5293 3.93755 28.5399C3.93755 28.5293 3.93755 28.5187 3.93755 28.5081Z" fill="#FDBF41"/>
<path d="M12.1331 10.4393C12.1331 10.4393 12.1395 10.4351 12.1437 10.4351C12.1437 10.4393 12.1437 10.4435 12.1395 10.4456C12.1374 10.4478 12.1331 10.4499 12.1289 10.4499C12.1289 10.4478 12.1289 10.4456 12.1289 10.4435C12.1289 10.4435 12.1289 10.4414 12.131 10.4393H12.1331Z" fill="#C18B00"/>
<path d="M13.9823 5.40773C13.9823 5.40773 13.9971 5.39502 14.0077 5.39502C14.014 5.39502 14.0225 5.39502 14.031 5.39714C14.0267 5.41408 14.0204 5.42679 14.0119 5.43526C14.0077 5.43949 14.0013 5.44161 13.995 5.44373C13.9907 5.44373 13.9886 5.44373 13.9844 5.44373H13.9823C13.9823 5.44373 13.9759 5.44373 13.9717 5.44161C13.9738 5.4289 13.978 5.41831 13.9844 5.40984L13.9823 5.40773Z" fill="#C18B00"/>
<path d="M20.7931 2.98458C20.3632 2.79186 19.9291 2.6055 19.4991 2.40855C19.0078 2.18406 18.4974 2.04641 17.9574 2.021C17.8219 2.021 17.6842 2.021 17.5487 2.021C17.4957 2.021 17.4428 2.021 17.3898 2.021C17.1188 2.03582 16.8498 2.07606 16.583 2.13324C15.7973 2.30054 15.0667 2.60762 14.3657 2.99305C13.6604 3.38061 13.0039 3.8444 12.3813 4.35266C12.3008 4.41831 12.2161 4.47761 12.1484 4.55385C12.142 4.55597 12.1378 4.5602 12.1335 4.56656V4.57291H12.1251C12.1081 4.58774 12.0891 4.60044 12.0721 4.61527C11.3817 5.20612 10.74 5.84781 10.1344 6.52338C9.41432 7.32813 8.74934 8.17736 8.12883 9.06047C7.20336 10.3756 6.38379 11.7564 5.65527 13.188C5.16395 14.1537 4.71498 15.1385 4.31049 16.1465C3.88905 17.1969 3.50574 18.2601 3.19442 19.3486C3.16054 19.4693 3.11818 19.5879 3.08218 19.7086C2.82805 20.6066 2.6078 21.5108 2.43626 22.4278C2.29013 23.2051 2.17154 23.9844 2.0953 24.7722C2.03812 25.344 2 25.9158 2 26.4897C2 26.7502 2 27.0107 2.00212 27.2733C2.00635 27.3093 2.00635 27.3453 2.00847 27.3813C2.00847 27.4364 2.00847 27.4914 2.00635 27.5465C2.00847 27.8642 2.036 28.1797 2.06565 28.4953C2.11648 29.0099 2.19483 29.5224 2.30708 30.0264C2.44897 30.6596 2.6438 31.2738 2.92335 31.8625C3.22195 32.4915 3.59892 33.0633 4.1093 33.5419C4.40579 33.8215 4.73404 34.0565 5.10254 34.2281C5.43079 34.3827 5.76328 34.5267 6.09365 34.6728C6.32025 34.7723 6.54474 34.8803 6.77769 34.9714C6.76499 34.9608 6.75016 34.9502 6.73745 34.9396C6.69298 34.9058 6.64639 34.8761 6.5998 34.8465C6.58498 34.838 6.57227 34.8295 6.55744 34.821C6.53203 34.8062 6.50874 34.7914 6.48332 34.7744C6.4685 34.766 6.45579 34.7554 6.44097 34.7469C6.10424 34.5097 5.81199 34.2281 5.55574 33.9083C5.28466 33.5716 5.05383 33.2073 4.86746 32.8176C4.74675 32.5635 4.63451 32.3051 4.53709 32.0404C4.51168 32.0171 4.48626 31.9917 4.46297 31.9684C4.48838 31.9938 4.51168 32.0171 4.53709 32.0404C4.46932 31.8562 4.40791 31.6698 4.35708 31.4792C4.33378 31.3924 4.31896 31.3034 4.29143 31.2187C4.2046 30.9476 4.15589 30.6681 4.10083 30.3907C4.06271 30.1916 4.03518 29.9883 4.00765 29.7871C3.978 29.5796 3.96106 29.3699 3.93564 29.1624C3.93564 29.1475 3.93353 29.1348 3.93141 29.12C3.93141 29.3868 3.93141 29.6537 3.93141 29.9184C3.93141 29.6516 3.93141 29.3847 3.93141 29.12C3.92294 29.0416 3.92082 28.9612 3.91447 28.8807C3.90388 28.6647 3.88482 28.4487 3.88482 28.2305C3.88482 28.0886 3.86999 27.9468 3.87211 27.8049C3.87423 27.5063 3.87635 27.2098 3.88905 26.9112C3.89964 26.6507 3.91447 26.3923 3.93564 26.1318C3.93988 26.0874 3.942 26.045 3.94623 26.0005C3.98859 25.5283 4.04153 25.056 4.10718 24.5859C4.17495 24.0903 4.26178 23.599 4.35708 23.1098C4.38461 22.9658 4.41426 22.8217 4.44391 22.6777C4.55615 22.1356 4.68745 21.5998 4.83146 21.0661C4.90558 20.7908 4.98182 20.5155 5.0623 20.2423C5.14489 19.9564 5.23384 19.6726 5.3249 19.391C5.42444 19.0839 5.53033 18.7789 5.6341 18.474C5.65316 18.4168 5.68704 18.3638 5.7061 18.3067C5.81622 17.953 5.95176 17.6078 6.0873 17.2647C6.28849 16.7586 6.48968 16.2503 6.7184 15.7547C6.92805 15.2973 7.13136 14.8356 7.3622 14.3888C7.45326 14.2109 7.54433 14.0309 7.63115 13.8509C7.66292 13.7873 7.70739 13.7323 7.73704 13.6666C7.83234 13.4654 7.93611 13.2685 8.04624 13.0758C8.09918 12.9826 8.13942 12.883 8.20931 12.8005C8.31943 12.5887 8.43591 12.3811 8.56297 12.1778C8.6371 12.0614 8.70063 11.9364 8.77263 11.8199C8.96959 11.5023 9.16019 11.1804 9.36773 10.869C9.59856 10.5217 9.82093 10.1723 10.0645 9.83346C10.3101 9.49038 10.5579 9.1473 10.8163 8.81481C10.901 8.7068 10.9963 8.60727 11.0768 8.49291C11.1784 8.35102 11.2843 8.21336 11.3987 8.08206C11.5511 7.90205 11.7015 7.72204 11.8561 7.54414C11.9133 7.47849 11.9768 7.42131 12.0361 7.35566C12.1357 7.2413 12.231 7.12271 12.3347 7.01258C12.6757 6.65256 13.0209 6.29678 13.3851 5.96217C13.4593 5.8944 13.5249 5.81816 13.6054 5.75886C13.688 5.69957 13.7452 5.61062 13.8383 5.56191C13.8447 5.55767 13.851 5.55556 13.8553 5.55132C13.8913 5.52379 13.9125 5.47508 13.9506 5.44755C13.9527 5.44543 13.9569 5.44332 13.9591 5.4412C13.9612 5.42849 13.9654 5.4179 13.9718 5.40943C13.9781 5.40096 13.9866 5.39672 13.9972 5.39672C14.0035 5.39672 14.012 5.39672 14.0205 5.39884C14.0332 5.38825 14.0459 5.37766 14.0565 5.36708C14.0734 5.35649 14.0861 5.3459 14.1009 5.33743C14.1751 5.28448 14.2407 5.22307 14.3085 5.16165C14.4144 5.06635 14.5287 4.98164 14.641 4.89481C15.0899 4.54538 15.5643 4.23195 16.0514 3.94181C16.1065 3.90793 16.1658 3.88252 16.223 3.85287C16.3924 3.7618 16.5597 3.66439 16.7333 3.57968C17.1823 3.35731 17.6482 3.17942 18.1332 3.05023C18.3831 2.98458 18.6351 2.93164 18.8913 2.89564C19.2027 2.85328 19.5161 2.83634 19.8295 2.85328C20.1705 2.87446 20.5093 2.9274 20.8376 3.03541C20.8545 3.03964 20.8693 3.04176 20.8842 3.03329C20.8566 3.00364 20.8143 3.00364 20.7804 2.9867L20.7931 2.98458Z" fill="#FF1100"/>
<path d="M13.9948 5.28272C13.9948 5.28272 13.9884 5.27848 13.9863 5.27637C13.9884 5.27637 13.9927 5.2806 13.9948 5.28272Z" fill="#FF1100"/>
<path d="M13.9355 5.24658C13.9483 5.25294 13.9588 5.25929 13.9694 5.26564C13.9588 5.25929 13.9461 5.25294 13.9355 5.24658Z" fill="#FF1100"/>
<path d="M17.9569 2.02118H17.5482C17.4952 2.02118 17.4423 2.02118 17.3893 2.02118C17.3872 2.01482 17.383 2.00847 17.3809 2C17.5757 2 17.7705 2 17.9632 2C17.9632 2.00635 17.959 2.01271 17.9569 2.02118Z" fill="#FEC35E"/>
<path d="M12.1273 4.57537H12.123V4.56689H12.1315V4.57325H12.1273V4.57537Z" fill="#C18B00"/>
<path opacity="0.48" d="M35.779 29.8211C35.8341 29.7788 35.8341 29.7745 35.779 29.7301C35.6498 29.6263 35.5122 29.5352 35.3703 29.4505C34.898 29.1646 34.394 28.9465 33.8751 28.7559C33.7565 28.7135 33.6422 28.6606 33.5172 28.6373C33.4834 28.5992 33.4325 28.5949 33.3881 28.5801C32.9052 28.4192 32.4139 28.2879 31.9204 28.1608C31.8802 28.1566 31.84 28.1481 31.804 28.129C31.5731 28.0782 31.3423 28.0274 31.1115 27.9787C30.6837 27.8855 30.2559 27.805 29.8238 27.733C29.5041 27.6801 29.1843 27.6292 28.8645 27.5826C28.6146 27.5466 28.3647 27.5085 28.1127 27.4895C28.0703 27.4831 28.0301 27.4746 27.9877 27.4704C27.1067 27.3624 26.2236 27.2798 25.3363 27.2205C24.7581 27.1803 24.1779 27.1506 23.5997 27.1273C22.8416 27.0977 22.0855 27.085 21.3273 27.085C20.3871 27.085 19.4489 27.1083 18.5107 27.1527C17.4264 27.2057 16.3463 27.2883 15.2684 27.409C15.0926 27.428 14.9147 27.4407 14.739 27.4768C14.703 27.4683 14.6691 27.4767 14.6331 27.481C13.8643 27.5763 13.0998 27.6928 12.3395 27.8368C11.8906 27.9215 11.4437 28.0147 10.999 28.1206L10.9905 28.1354C10.9905 28.1354 10.8761 29.7872 11.1303 31.401C11.5687 31.5048 12.0092 31.5979 12.4496 31.6805C12.8436 31.7546 13.2396 31.8245 13.6377 31.8817C14.1947 31.9622 14.7538 32.0427 15.315 32.102C15.8593 32.1591 16.4035 32.2184 16.9499 32.2566C17.2739 32.2799 17.5958 32.3074 17.9199 32.3264C18.3985 32.354 18.8771 32.3773 19.3557 32.3942C19.792 32.409 20.2303 32.4217 20.6666 32.4281C21.3655 32.4366 22.0643 32.4345 22.7653 32.4196C23.4388 32.4048 24.1122 32.3794 24.7835 32.3413C25.5862 32.2968 26.3846 32.2333 27.1851 32.1507C28.4028 32.0236 29.6142 31.8563 30.815 31.6149C31.8633 31.4052 32.901 31.149 33.9069 30.7784C34.3453 30.6174 34.7731 30.4353 35.1818 30.2066C35.3893 30.0922 35.5884 29.9672 35.7769 29.8211H35.779Z" fill="url(#paint0_linear_5102_40605)"/>
<defs>
<linearGradient id="paint0_linear_5102_40605" x1="23.4403" y1="27.7048" x2="23.2859" y2="31.703" gradientUnits="userSpaceOnUse">
<stop offset="0.16" stop-color="#191919"/>
<stop offset="0.97" stop-color="#191919" stop-opacity="0"/>
</linearGradient>
</defs>
</svg>
