<svg width="120" height="120" viewBox="0 0 120 120" fill="none" xmlns="http://www.w3.org/2000/svg">
<g clip-path="url(#clip0_4243_90144)">
<path fill-rule="evenodd" clip-rule="evenodd" d="M35.7529 102H19.8391C16.4952 102 14.8434 102 13.8362 101.356C12.7484 100.65 12.0837 99.4821 12.0031 98.1926C11.9426 97.0047 12.7686 95.5538 14.4204 92.653L53.7135 23.3936C55.3855 20.4525 56.2315 18.982 57.2991 18.4381C58.4473 17.854 59.8172 17.854 60.9654 18.4381C62.033 18.982 62.8791 20.4525 64.551 23.3936L72.6288 37.4944L72.67 37.5664C74.4758 40.7215 75.3916 42.3216 75.7914 44.0009C76.2345 45.834 76.2345 47.7678 75.7914 49.601C75.3885 51.293 74.4821 52.9046 72.6489 56.1075L52.0092 92.5927L51.9558 92.6861C50.1381 95.8673 49.2169 97.4797 47.9401 98.696C46.5502 100.026 44.8782 100.992 43.0451 101.537C41.3731 102 39.4998 102 35.7529 102ZM75.9405 102H98.7431C102.107 102 103.8 102 104.807 101.336C105.895 100.631 106.579 99.4418 106.641 98.1533C106.698 97.0036 105.89 95.6093 104.307 92.8771C104.253 92.7841 104.198 92.6894 104.142 92.5931L92.7203 73.0534L92.5904 72.8334C90.9854 70.1193 90.1752 68.7486 89.1346 68.2189C87.9871 67.6346 86.6364 67.6346 85.4888 68.2189C84.4412 68.7627 83.5953 70.193 81.9233 73.0735L70.5418 92.6133L70.5029 92.6806C68.8368 95.5566 68.0041 96.9938 68.0642 98.173C68.1448 99.4625 68.8095 100.65 69.8972 101.356C70.8844 102 72.5764 102 75.9405 102Z" fill="#E84142"/>
</g>
<defs>
<clipPath id="clip0_4243_90144">
<rect width="120" height="120" fill="white"/>
</clipPath>
</defs>
</svg>
