<svg width="120" height="120" viewBox="0 0 120 120" fill="none" xmlns="http://www.w3.org/2000/svg">
<g clip-path="url(#clip0_4243_90155)">
<g clip-path="url(#clip1_4243_90155)">
<path d="M23.6489 99.9677C17.58 100.296 11.5913 98.1133 6.58466 93.7476C4.42174 91.651 2.69383 88.9171 1.55039 85.7825C0.406943 82.6479 -0.117614 79.207 0.0220894 75.7574C0.0487514 73.7473 0.195124 71.7426 0.45997 69.7606C1.21846 64.4215 2.29757 58.017 3.69728 50.5472C7.6644 30.1859 17.9022 20.0052 34.4106 20.0052C38.5483 19.9192 42.6567 20.9018 46.486 22.8932C49.8851 24.5839 52.8097 27.5227 54.8861 31.3338C56.98 35.2606 58.0501 39.9224 57.9456 44.6621C57.9156 46.6349 57.7692 48.6021 57.5077 50.5472C56.632 57.1369 55.5822 63.5414 54.3584 69.7606C52.3187 79.9032 48.7895 87.492 43.7707 92.5269C38.757 97.4874 32.0497 99.9677 23.6489 99.9677ZM24.8746 83.9747C27.9054 84.0811 30.8623 82.7778 33.1887 80.3101C35.7598 77.3507 37.509 73.4164 38.1757 69.0932C39.518 62.1362 40.5378 56.065 41.2351 50.8797C41.4699 49.3051 41.587 47.706 41.5851 46.1036C41.5851 39.365 38.8143 35.9966 33.2729 35.9982C30.2176 35.9052 27.2372 37.2053 24.8727 39.6627C22.3491 42.6534 20.6339 46.5789 19.9718 50.8797C18.9214 55.8401 17.8716 61.9113 16.8224 69.0932C16.585 70.6296 16.4678 72.192 16.4725 73.7576C16.4725 80.569 19.2732 83.9747 24.8746 83.9747Z" fill="#FF0420"/>
<path d="M61.9777 98.8603C61.6997 98.8809 61.4216 98.8218 61.1641 98.6873C60.9066 98.5529 60.6762 98.3466 60.49 98.0837C60.1989 97.4868 60.1048 96.7684 60.2281 96.084L72.3034 23.8947C72.4103 23.0982 72.7522 22.3831 73.2595 21.895C73.7285 21.4039 74.3152 21.13 74.9231 21.1184H98.2C103.68 20.7771 109.113 22.5588 113.777 26.2269C115.694 27.821 117.251 30.0217 118.295 32.612C119.338 35.2023 119.832 38.093 119.727 40.9992C119.719 42.9431 119.543 44.88 119.201 46.7751C118.236 54.2579 115.08 61.0018 110.363 65.6561C105.988 69.7283 99.9796 71.7645 92.3373 71.7645H80.5258L76.5007 96.0864C76.3936 96.8829 76.0518 97.5978 75.5446 98.0861C75.0761 98.5767 74.4902 98.8506 73.8829 98.8627L61.9777 98.8603ZM92.9549 56.434C95.2477 56.4982 97.4932 55.6008 99.3435 53.881C101.247 52.1067 102.558 49.4919 103.019 46.5519C103.181 45.4528 103.269 44.338 103.281 43.2198C103.33 42.3165 103.223 41.4103 102.966 40.5656C102.709 39.7209 102.308 38.9584 101.793 38.3321C100.333 36.9634 98.5246 36.3304 96.7181 36.5556H86.2183L82.8931 56.434H92.9549Z" fill="#FF0420"/>
</g>
</g>
<defs>
<clipPath id="clip0_4243_90155">
<rect width="120" height="120" fill="white"/>
</clipPath>
<clipPath id="clip1_4243_90155">
<rect width="119.741" height="80" fill="white" transform="translate(0 20)"/>
</clipPath>
</defs>
</svg>
