<svg width="40" height="40" viewBox="0 0 40 40" fill="none" xmlns="http://www.w3.org/2000/svg">
<path d="M8.50475 29.9951C6.57884 30.0772 4.67838 29.5314 3.08958 28.4398C2.4032 27.9156 1.85486 27.232 1.492 26.4482C1.12914 25.6645 0.962676 24.8041 1.00701 23.9415C1.01547 23.4389 1.06192 22.9377 1.14597 22.4421C1.38667 21.1071 1.72911 19.5058 2.1733 17.638C3.43222 12.5469 6.68109 10.0013 11.9199 10.0013C13.233 9.9798 14.5367 10.2255 15.7519 10.7234C16.8306 11.1462 17.7587 11.881 18.4176 12.8339C19.0821 13.8157 19.4217 14.9814 19.3885 16.1665C19.379 16.6598 19.3325 17.1517 19.2495 17.638C18.9716 19.2857 18.6385 20.8871 18.2501 22.4421C17.6029 24.9782 16.4829 26.8757 14.8902 28.1346C13.2992 29.3749 11.1707 29.9951 8.50475 29.9951ZM8.89372 25.9962C9.85551 26.0228 10.7939 25.6969 11.5321 25.0799C12.348 24.3399 12.9031 23.3562 13.1147 22.2752C13.5407 20.5357 13.8643 19.0177 14.0856 17.7211C14.1601 17.3274 14.1972 16.9276 14.1966 16.5269C14.1966 14.842 13.3174 13.9998 11.5588 14.0002C10.5893 13.9769 9.64348 14.302 8.89311 14.9165C8.09227 15.6642 7.54798 16.6458 7.33786 17.7211C7.00452 18.9615 6.67137 20.4795 6.33844 22.2752C6.26309 22.6594 6.22589 23.0501 6.22739 23.4415C6.22739 25.1446 7.11617 25.9962 8.89372 25.9962Z" fill="#FF0420"/>
<path d="M20.6687 29.7174C20.5805 29.7226 20.4922 29.7078 20.4105 29.6742C20.3288 29.6406 20.2557 29.589 20.1966 29.5232C20.1042 29.374 20.0744 29.1943 20.1135 29.0232L23.9455 10.9731C23.9794 10.7739 24.0879 10.5951 24.2489 10.473C24.3977 10.3503 24.5839 10.2818 24.7768 10.2789H32.1635C33.9026 10.1935 35.6265 10.639 37.1066 11.5562C37.7151 11.9548 38.2092 12.505 38.5404 13.1527C38.8715 13.8004 39.0282 14.5232 38.995 15.2499C38.9923 15.7359 38.9363 16.2202 38.8281 16.6941C38.5219 18.5651 37.5201 20.2513 36.0234 21.415C34.635 22.4333 32.7282 22.9424 30.303 22.9424H26.5548L25.2774 29.0238C25.2434 29.223 25.135 29.4017 24.974 29.5238C24.8254 29.6465 24.6394 29.715 24.4467 29.718L20.6687 29.7174ZM30.499 19.1092C31.2266 19.1252 31.9392 18.9008 32.5264 18.4708C33.1305 18.0272 33.5466 17.3734 33.6927 16.6382C33.7442 16.3634 33.7721 16.0847 33.7758 15.8051C33.7916 15.5792 33.7575 15.3527 33.6759 15.1414C33.5943 14.9302 33.4672 14.7396 33.3037 14.583C32.8403 14.2407 32.2665 14.0825 31.6932 14.1388H28.3612L27.306 19.1092H30.499Z" fill="#FF0420"/>
</svg>
