<svg width="33" height="32" viewBox="0 0 33 32" fill="none" xmlns="http://www.w3.org/2000/svg">
    <g clip-path="url(#clip0_6700_126713)">
        <path d="M16.5 32C25.3366 32 32.5 24.8366 32.5 16C32.5 7.16344 25.3366 0 16.5 0C7.66344 0 0.5 7.16344 0.5 16C0.5 24.8366 7.66344 32 16.5 32Z" fill="#001845"/>
        <path d="M22.2781 22.3857C19.6017 21.9396 12.7345 19.3317 11.3224 12.4239C10.6161 9.07675 11.283 4.1811 11.283 4.1811C6.05014 6.58607 2.95541 12.3422 4.15559 18.253C5.5677 25.1608 12.3558 29.664 19.304 28.2603C22.8854 27.5588 25.7551 25.4318 27.6245 22.5902C26.6926 23.0146 24.9546 22.8318 22.2781 22.3857Z" fill="url(#paint0_linear_6700_126713)"/>
        <path fill-rule="evenodd" clip-rule="evenodd" d="M28.717 21.8135L29.5648 22.4156C29.7558 22.5513 29.7359 22.8409 29.5281 22.9491L26.7835 24.3791C26.5656 24.4926 26.3077 24.3226 26.3262 24.0776L26.5678 20.8698C26.5861 20.6266 26.863 20.4966 27.0618 20.6378L27.822 21.1778C29.7627 16.7673 29.0455 11.437 25.5721 7.66885C20.9304 2.63324 13.1098 2.27799 8.03179 6.84414C7.96743 6.90201 7.86785 6.89851 7.80919 6.83487L7.29164 6.27341C7.23298 6.20977 7.23748 6.11008 7.30178 6.05214C12.8172 1.08289 21.3192 1.4659 26.364 6.93887C30.191 11.0907 30.9362 16.9862 28.717 21.8135Z" fill="url(#paint1_linear_6700_126713)"/>
        <path fill-rule="evenodd" clip-rule="evenodd" d="M4.39148 10.087L3.55304 9.47188C3.36416 9.3333 3.38852 9.04405 3.59792 8.93901L6.36415 7.55142C6.58381 7.44124 6.83905 7.61519 6.81683 7.85992L6.52592 11.0636C6.50386 11.3065 6.22503 11.4322 6.02837 11.288L5.27659 10.7364C3.26833 15.1165 3.90354 20.4572 7.31859 24.2783C11.8823 29.3847 19.6965 30.0253 24.8442 25.5377C24.9094 25.4808 25.0089 25.4859 25.0666 25.5504L25.5754 26.1198C25.6331 26.1843 25.6271 26.2839 25.5619 26.3408C19.9707 31.2247 11.4757 30.5459 6.51554 24.996C2.75282 20.7859 2.09833 14.8796 4.39148 10.087Z" fill="url(#paint2_linear_6700_126713)"/>
        <path fill-rule="evenodd" clip-rule="evenodd" d="M16.4272 9.75977L21.4744 12.8255V16.0738C21.4744 18.9654 19.4897 21.7153 16.6928 22.3982L16.4272 22.4631L16.1615 22.3982C13.3646 21.7153 11.3799 18.9654 11.3799 16.0738V12.8255L16.4272 9.75977ZM16.4272 21.3102C14.1755 20.7604 12.4999 18.4956 12.4999 16.0738V13.4556L16.4272 11.0702L20.3544 13.4556V16.0738C20.3544 18.4956 18.6788 20.7604 16.4272 21.3102Z" fill="white"/>
        <path fill-rule="evenodd" clip-rule="evenodd" d="M16.3779 10.9422L16.4273 10.9102L20.3546 13.4556V16.0738C20.3546 18.4925 18.6833 20.7545 16.436 21.308V10.9422H16.3779Z" fill="white"/>
    </g>
    <defs>
        <linearGradient id="paint0_linear_6700_126713" x1="7.81208" y1="24.4043" x2="18.518" y2="15.2915" gradientUnits="userSpaceOnUse">
            <stop stop-color="#8247E5"/>
            <stop offset="1" stop-color="#8247E5" stop-opacity="0"/>
        </linearGradient>
        <linearGradient id="paint1_linear_6700_126713" x1="27.9568" y1="23.5567" x2="11.6022" y2="4.14599" gradientUnits="userSpaceOnUse">
            <stop stop-color="white"/>
            <stop offset="1" stop-color="white" stop-opacity="0"/>
        </linearGradient>
        <linearGradient id="paint2_linear_6700_126713" x1="5.68573" y1="23.7156" x2="20.623" y2="30.0583" gradientUnits="userSpaceOnUse">
            <stop stop-color="white"/>
            <stop offset="1" stop-color="white" stop-opacity="0"/>
        </linearGradient>
        <clipPath id="clip0_6700_126713">
            <rect x="0.5" width="32" height="32" rx="16" fill="white"/>
        </clipPath>
    </defs>
</svg>
