<svg width="41" height="40" viewBox="0 0 41 40" fill="none" xmlns="http://www.w3.org/2000/svg">
<rect x="0.5" width="40" height="40" rx="8" fill="#13151C"/>
<g clip-path="url(#clip0_5680_19874)">
<path d="M29.9227 11.6946C32.8847 16.0495 34.3475 20.9617 33.8007 26.6168C33.7984 26.6407 33.7859 26.6627 33.7662 26.6771C31.5232 28.3242 29.35 29.3237 27.2073 29.9866C27.1906 29.9917 27.1728 29.9914 27.1563 29.9858C27.1397 29.9802 27.1254 29.9696 27.1152 29.9555C26.6202 29.2667 26.1704 28.5405 25.7763 27.778C25.7537 27.7331 25.7744 27.679 25.8209 27.6613C26.5353 27.3921 27.2145 27.0695 27.8679 26.6876C27.9194 26.6575 27.9226 26.5837 27.8751 26.5483C27.7364 26.4454 27.5991 26.3372 27.4676 26.229C27.443 26.209 27.4099 26.2051 27.3821 26.2185C23.1402 28.1773 18.4936 28.1773 14.2016 26.2185C14.1737 26.206 14.1406 26.2103 14.1167 26.23C13.9855 26.3382 13.8479 26.4454 13.7105 26.5483C13.663 26.5837 13.6669 26.6575 13.7187 26.6876C14.3721 27.0623 15.0513 27.3921 15.7647 27.6626C15.8109 27.6803 15.8329 27.7331 15.8099 27.778C15.4244 28.5415 14.9746 29.2677 14.4704 29.9564C14.4484 29.9843 14.4124 29.9971 14.3783 29.9866C12.2457 29.3237 10.0725 28.3242 7.82952 26.6771C7.81083 26.6627 7.79739 26.6398 7.79543 26.6158C7.33843 21.7243 8.2698 16.7714 11.6697 11.6936C11.6779 11.6802 11.6904 11.6697 11.7048 11.6634C13.3777 10.8957 15.17 10.3308 17.0432 10.0082C17.0773 10.003 17.1114 10.0187 17.1291 10.0489C17.3606 10.4587 17.6251 10.9842 17.8041 11.4136C19.7787 11.112 21.784 11.112 23.7998 11.4136C23.9788 10.9934 24.2342 10.4587 24.4647 10.0489C24.4729 10.0339 24.4856 10.0219 24.501 10.0146C24.5165 10.0073 24.5338 10.0051 24.5506 10.0082C26.4248 10.3318 28.217 10.8966 29.8887 11.6634C29.9034 11.6697 29.9155 11.6802 29.9227 11.6946ZM18.8079 20.9952C18.8286 19.5491 17.7743 18.3525 16.4508 18.3525C15.1382 18.3525 14.0941 19.5386 14.0941 20.9952C14.0941 22.4514 15.1589 23.6375 16.4508 23.6375C17.7638 23.6375 18.8079 22.4514 18.8079 20.9952ZM27.5224 20.9952C27.543 19.5491 26.4887 18.3525 25.1656 18.3525C23.8526 18.3525 22.8085 19.5386 22.8085 20.9952C22.8085 22.4514 23.8733 23.6375 25.1656 23.6375C26.4887 23.6375 27.5224 22.4514 27.5224 20.9952Z" fill="white"/>
</g>
<defs>
<clipPath id="clip0_5680_19874">
<rect width="27.3523" height="20" fill="white" transform="translate(7.16675 10)"/>
</clipPath>
</defs>
</svg>
