<svg width="17" height="16" viewBox="0 0 17 16" fill="none" xmlns="http://www.w3.org/2000/svg">
<path d="M6.59726 11.266V14.8569H5.07129V4.20751C5.07129 3.26595 5.35051 2.52569 5.90246 1.97375C6.44791 1.4218 7.20765 1.14258 8.14272 1.14258C9.04531 1.14258 9.74012 1.36336 10.2596 1.79193C10.7726 2.23349 11.0258 2.84388 11.0258 3.6166C11.0258 4.14907 10.857 4.64907 10.5193 5.11011C10.1817 5.57115 9.74661 5.88933 9.20765 6.06466V6.09063C10.0193 6.2205 10.6492 6.51271 11.0778 6.98673C11.5064 7.44777 11.7206 8.03868 11.7206 8.76595C11.7206 9.6231 11.4219 10.3244 10.831 10.8634C10.2336 11.4023 9.45441 11.6686 8.48038 11.6686C7.79207 11.6686 7.1622 11.5322 6.59726 11.266ZM7.5648 6.8244V5.57764C8.12973 5.50621 8.59077 5.29842 8.9609 4.94777C9.32454 4.59063 9.50635 4.19453 9.50635 3.73998C9.50635 2.84388 9.04531 2.38933 8.13622 2.38933C7.64272 2.38933 7.2596 2.54518 6.99337 2.86336C6.72713 3.18154 6.59726 3.6231 6.59726 4.20102V9.90881C7.18817 10.253 7.76609 10.4218 8.32454 10.4218C8.86999 10.4218 9.29856 10.2789 9.60376 9.99972C9.90895 9.71401 10.0583 9.31141 10.0583 8.79842C10.0583 7.63608 9.22713 6.98673 7.5648 6.8244Z" fill="#FFFFFF" opacity="0.6"/>
</svg>
