<svg width="26" height="26" viewBox="0 0 26 26" fill="none" xmlns="http://www.w3.org/2000/svg">
<path d="M15.5466 10.4533C16.2221 11.1288 16.6015 12.0448 16.6015 13C16.6015 13.9552 16.2221 14.8712 15.5466 15.5467C14.8712 16.2221 13.9552 16.6015 13 16.6015C12.0448 16.6015 11.1287 16.2221 10.4533 15.5467C9.77788 14.8712 9.39844 13.9552 9.39844 13C9.39844 12.527 9.49159 12.0587 9.67259 11.6218C9.85358 11.1848 10.1189 10.7878 10.4533 10.4533C10.7877 10.1189 11.1848 9.85361 11.6217 9.67262C12.0587 9.49163 12.527 9.39847 13 9.39847C13.9552 9.39847 14.8712 9.77791 15.5466 10.4533" stroke="white" stroke-width="1.5" stroke-linecap="round" stroke-linejoin="round"/>
<path d="M3.99999 13C3.99999 13.396 4.03599 13.792 4.08399 14.176L1.96666 15.832C1.73956 16.0098 1.58431 16.2637 1.52944 16.5469C1.47456 16.8301 1.52376 17.1235 1.66799 17.3733L3.55066 20.6307C3.69484 20.8801 3.92413 21.0692 4.19647 21.1633C4.46882 21.2573 4.76594 21.25 5.03332 21.1427L6.92932 20.3813C7.11389 20.3099 7.31311 20.2846 7.50968 20.3076C7.70625 20.3306 7.89424 20.4012 8.05732 20.5133C8.35066 20.708 8.65466 20.8867 8.96932 21.0467C9.32932 21.2293 9.59066 21.556 9.64799 21.956L9.93732 23.9733C10.0213 24.5627 10.5267 25 11.1213 25H14.8773C15.1652 25 15.4434 24.8962 15.6609 24.7076C15.8784 24.519 16.0206 24.2583 16.0613 23.9733L16.3507 21.9573C16.3822 21.7616 16.4608 21.5765 16.5797 21.4178C16.6986 21.2592 16.8543 21.1318 17.0333 21.0467C17.3467 20.8893 17.6493 20.712 17.9413 20.5187C18.1048 20.4053 18.2936 20.3337 18.4911 20.3099C18.6886 20.2862 18.889 20.3112 19.0747 20.3827L20.9667 21.1427C21.2341 21.2497 21.5311 21.2569 21.8034 21.1629C22.0756 21.0688 22.3049 20.8799 22.4493 20.6307L24.332 17.3733C24.4762 17.1235 24.5254 16.8301 24.4705 16.5469C24.4157 16.2637 24.2604 16.0098 24.0333 15.832L21.916 14.176C21.964 13.792 22 13.396 22 13C22 12.604 21.964 12.208 21.916 11.824L24.0333 10.168C24.2604 9.99015 24.4157 9.7363 24.4705 9.45312C24.5254 9.16994 24.4762 8.87647 24.332 8.62667L22.4493 5.36933C22.3051 5.11988 22.0758 4.93078 21.8035 4.83674C21.5312 4.74269 21.234 4.75 20.9667 4.85733L19.0747 5.61733C18.8889 5.68845 18.6886 5.71323 18.4912 5.68953C18.2937 5.66584 18.105 5.59438 17.9413 5.48133C17.6494 5.2874 17.3462 5.11109 17.0333 4.95333C16.8543 4.86818 16.6986 4.7408 16.5797 4.58217C16.4608 4.42354 16.3822 4.2384 16.3507 4.04267L16.0627 2.02667C16.0219 1.7417 15.8797 1.48099 15.6622 1.2924C15.4447 1.10381 15.1665 0.999988 14.8787 1H11.1227C10.8348 0.999988 10.5566 1.10381 10.3391 1.2924C10.1216 1.48099 9.97942 1.7417 9.93866 2.02667L9.64799 4.04533C9.61645 4.24035 9.53828 4.42487 9.42012 4.58319C9.30196 4.74151 9.14731 4.86895 8.96932 4.95467C8.65466 5.11467 8.35066 5.29467 8.05732 5.488C7.89374 5.59961 7.70549 5.66981 7.50877 5.69258C7.31205 5.71534 7.11274 5.68997 6.92799 5.61867L5.03332 4.85733C4.76594 4.75 4.46882 4.74269 4.19647 4.83674C3.92413 4.93078 3.69484 5.11988 3.55066 5.36933L1.66799 8.62667C1.52376 8.87647 1.47456 9.16994 1.52944 9.45312C1.58431 9.7363 1.73956 9.99015 1.96666 10.168L4.08399 11.824C4.03171 12.2139 4.00366 12.6066 3.99999 13V13Z" stroke="white" stroke-width="1.5" stroke-linecap="round" stroke-linejoin="round"/>
</svg>
