<svg width="100" height="100" viewBox="0 0 100 100" fill="none" xmlns="http://www.w3.org/2000/svg">
<g clip-path="url(#clip0_5370_104648)">
<path d="M50 0C63.2608 0 75.9785 5.26784 85.3553 14.6447C94.7322 24.0215 100 36.7392 100 50C100 63.2608 94.7322 75.9785 85.3553 85.3553C75.9785 94.7322 63.2608 100 50 100C36.7392 100 24.0215 94.7322 14.6447 85.3553C5.26784 75.9785 0 63.2608 0 50C0 36.7392 5.26784 24.0215 14.6447 14.6447C24.0215 5.26784 36.7392 0 50 0M50 8.33333C44.5283 8.33333 39.1101 9.41107 34.0549 11.505C28.9996 13.599 24.4063 16.6681 20.5372 20.5372C12.7232 28.3512 8.33333 38.9493 8.33333 50C8.33333 60 11.875 69.1667 17.75 76.375L76.375 17.75C68.9359 11.6572 59.6158 8.32962 50 8.33333M50 91.6667C61.0507 91.6667 71.6488 87.2768 79.4628 79.4628C87.2768 71.6488 91.6667 61.0507 91.6667 50C91.6667 40 88.125 30.8333 82.25 23.625L23.625 82.25C31.0641 88.3428 40.3842 91.6704 50 91.6667V91.6667Z" fill="#CF3F92"/>
</g>
<defs>
<clipPath id="clip0_5370_104648">
<rect width="100" height="100" fill="white"/>
</clipPath>
</defs>
</svg>
