<svg width="80" height="80" viewBox="0 0 80 80" fill="none" xmlns="http://www.w3.org/2000/svg">
<path d="M32.5032 33.3533H46.6465V47.4966" stroke="#22ABAC" stroke-width="4" stroke-linecap="round" stroke-linejoin="round"/>
<path d="M46.6653 33.3333L21.582 58.4167C19.822 60.1767 16.9653 60.1767 15.2053 58.4167V58.4167C10.772 53.9833 8.2753 47.97 8.26196 41.7V41.7C8.26196 37.6 9.0553 33.5 10.632 29.6433C12.1853 25.8467 14.4953 22.29 17.5786 19.21C23.1086 13.68 30.7486 10.26 39.1853 10.26C47.622 10.26 55.262 13.68 60.792 19.21C66.322 24.74 69.742 32.3767 69.742 40.8167C69.742 49.2533 66.322 56.8933 60.792 62.4233C55.262 67.9533 47.6253 71.3733 39.1853 71.3733C35.8953 71.3733 32.612 70.8067 29.462 69.7467" stroke="#22ABAC" stroke-width="4" stroke-linecap="round" stroke-linejoin="round"/>
</svg>
