<svg width="150" height="150" viewBox="0 0 150 150" fill="none" xmlns="http://www.w3.org/2000/svg">
<g clip-path="url(#clip0_8258_113357)">
<path d="M75 150C116.421 150 150 116.421 150 75C150 33.5786 116.421 0 75 0C33.5786 0 0 33.5786 0 75C0 116.421 33.5786 150 75 150Z" fill="url(#paint0_radial_8258_113357)"/>
<path d="M107.308 113.516C92.0299 110.97 52.8308 96.083 44.7702 56.6518C40.7381 37.5455 44.5451 9.60001 44.5451 9.60001C14.6747 23.3282 -2.99079 56.1858 3.86012 89.9258C11.9208 129.357 50.6691 155.063 90.3307 147.05C110.775 143.046 127.155 130.904 137.826 114.684C132.507 117.106 122.586 116.063 107.308 113.516Z" fill="url(#paint1_linear_8258_113357)"/>
<path fill-rule="evenodd" clip-rule="evenodd" d="M74.6046 9.15625L18.7633 39.9548V40.1952L25.5979 44.4379V44.3964L74.6046 16.6354L123.611 44.3964V69.4361C123.611 78.1078 123.178 83.8456 120.648 90.5861L114.07 86.2523C113.32 85.7582 112.349 86.4264 112.543 87.3033L116.738 106.276C116.886 106.945 117.647 107.27 118.233 106.916L134.213 97.2401C134.962 96.7867 134.808 95.6581 133.965 95.4218L126.993 93.4667C129.894 85.8177 130.446 79.0994 130.446 69.4361V39.9548L74.6046 9.15625Z" fill="url(#paint2_linear_8258_113357)"/>
<path fill-rule="evenodd" clip-rule="evenodd" d="M25.5322 39.3863C25.2149 38.7796 24.3955 38.664 23.9227 39.1593L10.5064 53.2155C9.88634 53.8651 10.3704 54.9394 11.2678 54.9052L19.1092 54.6067V69.5032C19.1092 103.191 42.285 134.833 73.8219 142.562L74.6278 142.759L75.4338 142.562C95.4319 137.661 112.662 122.374 122.158 103.818L116.366 100.215C107.877 117.106 92.3634 131.105 74.6278 135.733C46.8006 128.471 25.9042 100.037 25.9042 69.5032L25.9012 55.3843L33.0358 57.3671C33.8792 57.6015 34.5954 56.7159 34.1897 55.9402L25.5322 39.3863Z" fill="url(#paint3_linear_8258_113357)"/>
<path d="M61.5062 78.4294V83.9995H43.0583V78.4294H61.5062ZM45.3911 49.3413V83.9995H38.25V49.3413H45.3911ZM59.1021 63.4569V68.8842H43.0583V63.4569H59.1021ZM61.4824 49.3413V54.9352H43.0583V49.3413H61.4824Z" fill="white"/>
<path d="M76.7692 49.3413V83.9995H69.6519V49.3413H76.7692ZM87.4332 49.3413V54.9352H59.1544V49.3413H87.4332Z" fill="white"/>
<path d="M104.291 74.9303C104.291 74.3114 104.196 73.756 104.005 73.264C103.831 72.7562 103.498 72.296 103.006 71.8834C102.514 71.455 101.823 71.0344 100.935 70.6218C100.046 70.2092 98.8955 69.7808 97.4832 69.3364C95.9121 68.8286 94.4204 68.2573 93.0081 67.6226C91.6116 66.9878 90.3738 66.2499 89.2947 65.4088C88.2314 64.5519 87.3904 63.5601 86.7715 62.4333C86.1685 61.3066 85.8669 59.9974 85.8669 58.5057C85.8669 57.0616 86.1843 55.7524 86.8191 54.5781C87.4539 53.3879 88.3425 52.3723 89.4851 51.5312C90.6277 50.6743 91.9766 50.0157 93.5317 49.5555C95.1028 49.0953 96.8246 48.8652 98.6971 48.8652C101.252 48.8652 103.482 49.3254 105.386 50.2458C107.29 51.1663 108.766 52.4279 109.813 54.0306C110.877 55.6334 111.408 57.4663 111.408 59.5293H104.315C104.315 58.5137 104.101 57.625 103.672 56.8633C103.26 56.0857 102.625 55.4747 101.768 55.0304C100.927 54.5861 99.8635 54.3639 98.5781 54.3639C97.3403 54.3639 96.3088 54.5543 95.4836 54.9352C94.6584 55.3002 94.0396 55.8 93.627 56.4348C93.2144 57.0537 93.0081 57.752 93.0081 58.5295C93.0081 59.1167 93.1509 59.6483 93.4365 60.1244C93.738 60.6005 94.1824 61.0448 94.7695 61.4574C95.3567 61.87 96.0787 62.2588 96.9357 62.6238C97.7926 62.9888 98.7844 63.3458 99.9111 63.6949C101.8 64.2662 103.458 64.9089 104.886 65.623C106.33 66.3372 107.536 67.1385 108.504 68.0272C109.472 68.9159 110.202 69.9236 110.694 71.0503C111.186 72.177 111.432 73.4545 111.432 74.8827C111.432 76.3903 111.139 77.7391 110.551 78.9293C109.964 80.1195 109.115 81.1272 108.004 81.9524C106.894 82.7776 105.568 83.4044 104.029 83.8329C102.49 84.2613 100.768 84.4756 98.8638 84.4756C97.1499 84.4756 95.4598 84.2534 93.7936 83.8091C92.1273 83.3489 90.6118 82.6586 89.2471 81.7382C87.8982 80.8177 86.8191 79.6434 86.0098 78.2152C85.2004 76.787 84.7958 75.0969 84.7958 73.145H91.9607C91.9607 74.2241 92.1273 75.1366 92.4606 75.8824C92.7938 76.6283 93.262 77.2313 93.865 77.6915C94.4839 78.1517 95.2139 78.485 96.0549 78.6913C96.9119 78.8976 97.8481 79.0007 98.8638 79.0007C100.102 79.0007 101.117 78.8262 101.911 78.477C102.72 78.1279 103.315 77.6439 103.696 77.025C104.093 76.4061 104.291 75.7079 104.291 74.9303Z" fill="white"/>
<path d="M74.0614 127.5C77.0443 127.5 78.7414 124.929 78.7414 120.531C78.7414 117.729 78.5357 114.334 78.0214 111.223L90.1071 91.5H83.1129L76.5043 103.894L76.0929 102.634C74.2414 97.1314 71.6443 91.5 66.1414 91.5C64.3929 91.5 62.9786 91.9629 61.8214 92.8886C59.25 95.0743 59.25 99.2143 59.25 100.5H61.59C61.7443 99.3686 62.3614 96.2057 65.0357 96.2057C69.5357 96.2057 71.5929 104.357 73.1357 110.58C70.8214 116.134 69.5357 120.146 69.5357 122.28C69.5357 124.8 70.9757 127.5 74.0614 127.5Z" fill="white"/>
</g>
<defs>
<radialGradient id="paint0_radial_8258_113357" cx="0" cy="0" r="1" gradientUnits="userSpaceOnUse" gradientTransform="translate(150 -21) rotate(131.262) scale(187.074)">
<stop stop-color="#FBFAF5"/>
<stop offset="0.289222" stop-color="#F3F3F3"/>
<stop offset="0.527498" stop-color="#98A2B0"/>
<stop offset="0.738019" stop-color="#232323"/>
</radialGradient>
<linearGradient id="paint1_linear_8258_113357" x1="24.7322" y1="125.039" x2="85.8442" y2="73.0209" gradientUnits="userSpaceOnUse">
<stop stop-color="#29A0F0"/>
<stop offset="1" stop-color="#29A0F0" stop-opacity="0"/>
</linearGradient>
<linearGradient id="paint2_linear_8258_113357" x1="109.431" y1="1.44738" x2="35.1088" y2="36.0562" gradientUnits="userSpaceOnUse">
<stop offset="0.445694" stop-color="white"/>
<stop offset="1" stop-color="white" stop-opacity="0"/>
</linearGradient>
<linearGradient id="paint3_linear_8258_113357" x1="36.9551" y1="163.491" x2="117.836" y2="116.561" gradientUnits="userSpaceOnUse">
<stop offset="0.559619" stop-color="white"/>
<stop offset="0.918509" stop-color="white" stop-opacity="0"/>
</linearGradient>
<clipPath id="clip0_8258_113357">
<rect width="150" height="150" rx="75" fill="white"/>
</clipPath>
</defs>
</svg>
