<svg width="150" height="150" viewBox="0 0 150 150" fill="none" xmlns="http://www.w3.org/2000/svg">
<g clip-path="url(#clip0_8137_93085)">
<path d="M75 150C116.421 150 150 116.421 150 75C150 33.5786 116.421 0 75 0C33.5786 0 0 33.5786 0 75C0 116.421 33.5786 150 75 150Z" fill="url(#paint0_radial_8137_93085)"/>
<path d="M107.309 113.516C92.0309 110.97 52.8318 96.083 44.7711 56.6518C40.7391 37.5455 44.5461 9.60001 44.5461 9.60001C14.6757 23.3282 -2.98981 56.1858 3.8611 89.9258C11.9217 129.357 50.6701 155.063 90.3317 147.05C110.776 143.046 127.156 130.904 137.827 114.684C132.508 117.106 122.587 116.063 107.309 113.516Z" fill="url(#paint1_linear_8137_93085)"/>
<path fill-rule="evenodd" clip-rule="evenodd" d="M74.6046 9.15625L18.7633 39.9548V40.1952L25.5979 44.4379V44.3964L74.6046 16.6354L123.611 44.3964V69.4361C123.611 78.1078 123.178 83.8456 120.648 90.5861L114.07 86.2523C113.32 85.7582 112.349 86.4264 112.543 87.3033L116.738 106.276C116.886 106.945 117.647 107.27 118.233 106.916L134.213 97.2401C134.962 96.7867 134.808 95.6581 133.965 95.4218L126.993 93.4667C129.894 85.8177 130.446 79.0994 130.446 69.4361V39.9548L74.6046 9.15625Z" fill="url(#paint2_linear_8137_93085)"/>
<path fill-rule="evenodd" clip-rule="evenodd" d="M25.5322 39.3843C25.2149 38.7776 24.3955 38.662 23.9227 39.1573L10.5064 53.2135C9.88634 53.8631 10.3704 54.9374 11.2678 54.9033L19.1092 54.6048V69.5013C19.1092 103.189 42.285 134.831 73.8219 142.56L74.6278 142.757L75.4338 142.56C95.4319 137.659 112.662 122.373 122.158 103.816L116.366 100.213C107.877 117.104 92.3634 131.103 74.6278 135.731C46.8006 128.469 25.9042 100.035 25.9042 69.5013L25.9012 55.3823L33.0358 57.3652C33.8792 57.5996 34.5954 56.7139 34.1897 55.9383L25.5322 39.3843Z" fill="url(#paint3_linear_8137_93085)"/>
<path d="M61.5062 78.4314V84.0015H43.0583V78.4314H61.5062ZM45.3911 49.3433V84.0015H38.25V49.3433H45.3911ZM59.1021 63.4589V68.8861H43.0583V63.4589H59.1021ZM61.4824 49.3433V54.9371H43.0583V49.3433H61.4824Z" fill="white"/>
<path d="M76.7692 49.3433V84.0015H69.6519V49.3433H76.7692ZM87.4332 49.3433V54.9371H59.1544V49.3433H87.4332Z" fill="white"/>
<path d="M104.291 74.9322C104.291 74.3134 104.196 73.7579 104.005 73.266C103.831 72.7582 103.498 72.298 103.006 71.8854C102.514 71.4569 101.823 71.0364 100.935 70.6238C100.046 70.2112 98.8955 69.7827 97.4832 69.3384C95.9121 68.8306 94.4204 68.2593 93.0081 67.6245C91.6116 66.9897 90.3738 66.2518 89.2947 65.4108C88.2314 64.5538 87.3904 63.562 86.7715 62.4353C86.1685 61.3086 85.8669 59.9994 85.8669 58.5077C85.8669 57.0636 86.1843 55.7544 86.8191 54.5801C87.4539 53.3899 88.3425 52.3743 89.4851 51.5332C90.6277 50.6763 91.9766 50.0177 93.5317 49.5575C95.1028 49.0973 96.8246 48.8672 98.6971 48.8672C101.252 48.8672 103.482 49.3274 105.386 50.2478C107.29 51.1682 108.766 52.4298 109.813 54.0326C110.877 55.6354 111.408 57.4683 111.408 59.5312H104.315C104.315 58.5156 104.101 57.627 103.672 56.8652C103.26 56.0876 102.625 55.4767 101.768 55.0323C100.927 54.588 99.8635 54.3658 98.5781 54.3658C97.3403 54.3658 96.3088 54.5563 95.4836 54.9371C94.6584 55.3021 94.0396 55.802 93.627 56.4368C93.2144 57.0557 93.0081 57.7539 93.0081 58.5315C93.0081 59.1187 93.1509 59.6503 93.4365 60.1263C93.738 60.6024 94.1824 61.0468 94.7695 61.4593C95.3567 61.8719 96.0787 62.2607 96.9357 62.6257C97.7926 62.9907 98.7844 63.3478 99.9111 63.6969C101.8 64.2682 103.458 64.9109 104.886 65.625C106.33 66.3391 107.536 67.1405 108.504 68.0292C109.472 68.9178 110.202 69.9255 110.694 71.0522C111.186 72.179 111.432 73.4564 111.432 74.8846C111.432 76.3922 111.139 77.7411 110.551 78.9313C109.964 80.1215 109.115 81.1291 108.004 81.9543C106.894 82.7795 105.568 83.4064 104.029 83.8348C102.49 84.2633 100.768 84.4775 98.8638 84.4775C97.1499 84.4775 95.4598 84.2554 93.7936 83.811C92.1273 83.3508 90.6118 82.6605 89.2471 81.7401C87.8982 80.8197 86.8191 79.6454 86.0098 78.2172C85.2004 76.7889 84.7958 75.0989 84.7958 73.147H91.9607C91.9607 74.2261 92.1273 75.1385 92.4606 75.8844C92.7938 76.6302 93.262 77.2333 93.865 77.6935C94.4839 78.1537 95.2139 78.4869 96.0549 78.6932C96.9119 78.8995 97.8481 79.0027 98.8638 79.0027C100.102 79.0027 101.117 78.8281 101.911 78.479C102.72 78.1299 103.315 77.6459 103.696 77.027C104.093 76.4081 104.291 75.7098 104.291 74.9322Z" fill="white"/>
<path d="M64.83 127.152C67.8128 127.152 69.51 124.581 69.51 120.184C69.51 117.381 69.3043 113.987 68.79 110.875L80.8757 91.1523H73.8814L67.2728 103.547L66.8614 102.287C65.01 96.7838 62.4128 91.1523 56.91 91.1523C55.1614 91.1523 53.7471 91.6152 52.59 92.5409C50.0186 94.7266 50.0186 98.8666 50.0186 100.152H52.3586C52.5128 99.0209 53.13 95.8581 55.8043 95.8581C60.3043 95.8581 62.3614 104.009 63.9043 110.232C61.59 115.787 60.3043 119.798 60.3043 121.932C60.3043 124.452 61.7443 127.152 64.83 127.152Z" fill="white"/>
<path d="M102.106 104.671V110.328H79.6152V104.671H102.106ZM93.9482 95.7695V119.658H87.7958V95.7695H93.9482Z" fill="white"/>
</g>
<defs>
<radialGradient id="paint0_radial_8137_93085" cx="0" cy="0" r="1" gradientUnits="userSpaceOnUse" gradientTransform="translate(150 -21) rotate(131.262) scale(187.074)">
<stop stop-color="#FBFAF5"/>
<stop offset="0.289222" stop-color="#F3F3F3"/>
<stop offset="0.527498" stop-color="#98A2B0"/>
<stop offset="0.738019" stop-color="#232323"/>
</radialGradient>
<linearGradient id="paint1_linear_8137_93085" x1="24.7332" y1="125.039" x2="85.8452" y2="73.0209" gradientUnits="userSpaceOnUse">
<stop stop-color="#8247E5"/>
<stop offset="1" stop-color="#8247E5" stop-opacity="0"/>
</linearGradient>
<linearGradient id="paint2_linear_8137_93085" x1="109.431" y1="1.44738" x2="35.1088" y2="36.0562" gradientUnits="userSpaceOnUse">
<stop offset="0.445694" stop-color="white"/>
<stop offset="1" stop-color="white" stop-opacity="0"/>
</linearGradient>
<linearGradient id="paint3_linear_8137_93085" x1="36.9551" y1="163.489" x2="117.836" y2="116.559" gradientUnits="userSpaceOnUse">
<stop offset="0.559619" stop-color="white"/>
<stop offset="0.918509" stop-color="white" stop-opacity="0"/>
</linearGradient>
<clipPath id="clip0_8137_93085">
<rect width="150" height="150" rx="75" fill="white"/>
</clipPath>
</defs>
</svg>
