<svg width="150" height="150" viewBox="0 0 150 150" fill="none" xmlns="http://www.w3.org/2000/svg">
<g clip-path="url(#clip0_8258_109057)">
<path d="M75 150C116.421 150 150 116.421 150 75C150 33.5786 116.421 0 75 0C33.5786 0 0 33.5786 0 75C0 116.421 33.5786 150 75 150Z" fill="url(#paint0_radial_8258_109057)"/>
<path d="M107.309 113.516C92.0309 110.97 52.8318 96.083 44.7711 56.6518C40.7391 37.5455 44.5461 9.60001 44.5461 9.60001C14.6757 23.3282 -2.98981 56.1858 3.8611 89.9258C11.9217 129.357 50.6701 155.063 90.3317 147.05C110.776 143.046 127.156 130.904 137.827 114.684C132.508 117.106 122.587 116.063 107.309 113.516Z" fill="url(#paint1_linear_8258_109057)"/>
<path fill-rule="evenodd" clip-rule="evenodd" d="M74.6041 9.15625L18.7628 39.9548V40.1952L25.5974 44.4379V44.3964L74.6041 16.6354L123.611 44.3964V69.4361C123.611 78.1078 123.178 83.8456 120.648 90.5861L114.069 86.2523C113.319 85.7582 112.349 86.4264 112.543 87.3033L116.738 106.276C116.886 106.945 117.647 107.27 118.232 106.916L134.212 97.2401C134.961 96.7867 134.807 95.6581 133.965 95.4218L126.993 93.4667C129.893 85.8177 130.445 79.0994 130.445 69.4361V39.9548L74.6041 9.15625Z" fill="url(#paint2_linear_8258_109057)"/>
<path fill-rule="evenodd" clip-rule="evenodd" d="M25.5318 39.3863C25.2144 38.7796 24.395 38.664 23.9222 39.1593L10.5059 53.2155C9.88586 53.8651 10.3699 54.9394 11.2673 54.9052L19.1087 54.6067V69.5032C19.1087 103.191 42.2846 134.833 73.8214 142.562L74.6273 142.759L75.4333 142.562C95.4314 137.661 112.661 122.374 122.158 103.818L116.366 100.215C107.877 117.106 92.3629 131.105 74.6273 135.733C46.8001 128.471 25.9038 100.037 25.9038 69.5032L25.9007 55.3843L33.0354 57.3671C33.8787 57.6015 34.5949 56.7159 34.1893 55.9402L25.5318 39.3863Z" fill="url(#paint3_linear_8258_109057)"/>
<path d="M61.5067 78.4294V83.9995H43.0588V78.4294H61.5067ZM45.3916 49.3413V83.9995H38.2505V49.3413H45.3916ZM59.1025 63.4569V68.8842H43.0588V63.4569H59.1025ZM61.4829 49.3413V54.9352H43.0588V49.3413H61.4829Z" fill="white"/>
<path d="M76.7697 49.3413V83.9995H69.6523V49.3413H76.7697ZM87.4337 49.3413V54.9352H59.1549V49.3413H87.4337Z" fill="white"/>
<path d="M104.292 74.9303C104.292 74.3114 104.196 73.756 104.006 73.264C103.831 72.7562 103.498 72.296 103.006 71.8834C102.514 71.455 101.824 71.0344 100.935 70.6218C100.047 70.2092 98.896 69.7808 97.4836 69.3364C95.9126 68.8286 94.4209 68.2573 93.0085 67.6226C91.6121 66.9878 90.3743 66.2499 89.2952 65.4088C88.2319 64.5519 87.3909 63.5601 86.772 62.4333C86.1689 61.3066 85.8674 59.9974 85.8674 58.5057C85.8674 57.0616 86.1848 55.7524 86.8196 54.5781C87.4543 53.3879 88.343 52.3723 89.4856 51.5312C90.6282 50.6743 91.9771 50.0157 93.5322 49.5555C95.1033 49.0953 96.8251 48.8652 98.6976 48.8652C101.253 48.8652 103.482 49.3254 105.386 50.2458C107.291 51.1663 108.767 52.4279 109.814 54.0306C110.877 55.6334 111.409 57.4663 111.409 59.5293H104.315C104.315 58.5137 104.101 57.625 103.673 56.8633C103.26 56.0857 102.625 55.4747 101.768 55.0304C100.927 54.5861 99.864 54.3639 98.5786 54.3639C97.3408 54.3639 96.3093 54.5543 95.4841 54.9352C94.6589 55.3002 94.04 55.8 93.6274 56.4348C93.2148 57.0537 93.0085 57.752 93.0085 58.5295C93.0085 59.1167 93.1514 59.6483 93.437 60.1244C93.7385 60.6005 94.1829 61.0448 94.77 61.4574C95.3572 61.87 96.0792 62.2588 96.9362 62.6238C97.7931 62.9888 98.7849 63.3458 99.9116 63.6949C101.8 64.2662 103.458 64.9089 104.887 65.623C106.331 66.3372 107.537 67.1385 108.505 68.0272C109.473 68.9159 110.203 69.9236 110.695 71.0503C111.187 72.177 111.433 73.4545 111.433 74.8827C111.433 76.3903 111.139 77.7391 110.552 78.9293C109.965 80.1195 109.116 81.1272 108.005 81.9524C106.894 82.7776 105.569 83.4044 104.03 83.8329C102.49 84.2613 100.769 84.4756 98.8643 84.4756C97.1504 84.4756 95.4603 84.2534 93.7941 83.8091C92.1278 83.3489 90.6123 82.6586 89.2476 81.7382C87.8987 80.8177 86.8196 79.6434 86.0103 78.2152C85.2009 76.787 84.7963 75.0969 84.7963 73.145H91.9612C91.9612 74.2241 92.1278 75.1366 92.4611 75.8824C92.7943 76.6283 93.2625 77.2313 93.8655 77.6915C94.4844 78.1517 95.2144 78.485 96.0554 78.6913C96.9124 78.8976 97.8486 79.0007 98.8643 79.0007C100.102 79.0007 101.118 78.8262 101.911 78.477C102.72 78.1279 103.316 77.6439 103.696 77.025C104.093 76.4061 104.292 75.7079 104.292 74.9303Z" fill="white"/>
<path d="M89.6051 121.252C88.4851 121.568 87.4869 121.739 86.6105 121.739C83.6889 121.739 81.7169 119.596 80.7187 115.287H80.5969C78.1867 119.937 74.8025 122.25 70.5419 122.25C67.3526 122.25 64.7962 121.057 62.8729 118.647C60.9495 116.236 60 113.218 60 109.566C60 105.305 61.0956 101.897 63.2624 99.2428C65.4292 96.589 68.3751 95.25 72.1001 95.25C74.0965 95.25 75.8981 95.81 77.4563 96.9055C79.0144 98.0255 80.2074 99.5836 81.0352 101.604H81.1326L82.8611 95.7613H89.0938L83.8837 108.713C84.468 111.732 85.0766 113.802 85.7583 114.897C86.3427 115.993 87.1704 116.553 88.193 116.553C88.7773 116.553 89.2399 116.456 89.6537 116.285L89.6051 121.252ZM79.2335 108.494C78.7223 105.743 77.8945 103.601 76.7746 102.14C75.679 100.655 74.3399 99.9245 72.8061 99.9245C70.8097 99.9245 69.2029 100.825 68.0099 102.603C66.817 104.404 66.2813 106.62 66.2813 109.225C66.2813 111.611 66.7439 113.583 67.7908 115.19C68.8133 116.796 70.2011 117.576 71.9297 117.576C73.3904 117.576 74.7295 116.869 75.9225 115.53C77.1398 114.143 78.138 112.122 78.9414 109.468L79.2335 108.494Z" fill="white"/>
</g>
<defs>
<radialGradient id="paint0_radial_8258_109057" cx="0" cy="0" r="1" gradientUnits="userSpaceOnUse" gradientTransform="translate(150 -21) rotate(131.262) scale(187.074)">
<stop stop-color="#FBFAF5"/>
<stop offset="0.289222" stop-color="#F3F3F3"/>
<stop offset="0.527498" stop-color="#98A2B0"/>
<stop offset="0.738019" stop-color="#232323"/>
</radialGradient>
<linearGradient id="paint1_linear_8258_109057" x1="24.7332" y1="125.039" x2="85.8452" y2="73.0209" gradientUnits="userSpaceOnUse">
<stop stop-color="#29A0F0"/>
<stop offset="1" stop-color="#29A0F0" stop-opacity="0"/>
</linearGradient>
<linearGradient id="paint2_linear_8258_109057" x1="109.431" y1="1.44738" x2="35.1083" y2="36.0562" gradientUnits="userSpaceOnUse">
<stop offset="0.445694" stop-color="white"/>
<stop offset="1" stop-color="white" stop-opacity="0"/>
</linearGradient>
<linearGradient id="paint3_linear_8258_109057" x1="36.9546" y1="163.491" x2="117.835" y2="116.561" gradientUnits="userSpaceOnUse">
<stop offset="0.559619" stop-color="white"/>
<stop offset="0.918509" stop-color="white" stop-opacity="0"/>
</linearGradient>
<clipPath id="clip0_8258_109057">
<rect width="150" height="150" rx="75" fill="white"/>
</clipPath>
</defs>
</svg>
