<svg width="29" height="32" viewBox="0 0 29 32" fill="none" xmlns="http://www.w3.org/2000/svg">
<path d="M26.4058 28.718L27.761 30.1128V28.718H28.7876V32H27.802L26.4468 30.5231V32H25.4613V28.718H26.4058ZM8.17224 28.718V32H7.22771V31.3026H5.87252V32H4.92799V28.718H8.17224ZM23.7775 28.6769V29.6205H21.4367V29.8667H23.7775V30.8103H21.4367V31.0564H23.7775V32H20.5333V28.718H20.8207V28.6769H23.7775ZM0.944532 28.718V29.8256H2.29973V28.718H3.32639V32H2.34079V30.8513H0.985597V32H0V28.718H0.944532ZM13.552 28.6769V29.6205H10.8826V31.0564H13.552V32H9.85597V28.718H10.3488V28.6769H13.552ZM16.2213 28.718V29.8256H17.8229V28.718H18.9317V29.8256L17.9461 30.8103H18.9317V32H17.8639V30.8513H16.2624V32H15.1946V28.718H16.2213ZM7.26877 29.6615H5.91358V30.318H7.26877V29.6615ZM1.64266 0L1.64254 12.7177H3.28508L3.28532 0H4.96905V12.6769H27.1037V11.0769H6.98131V0H8.62398V9.35385L27.1037 9.35357V7.38462H9.85597V0H11.5397V5.74359H16.8372L16.8373 0H18.4799L18.4798 5.74359H20.5333V0H22.1759L22.1758 5.74359H23.8183L23.8186 0H25.4613L25.4612 5.74359H27.1037L27.1039 0H28.7466V27.0769H27.1039L27.1037 14.359H25.4612L25.4613 27.0769H23.7775V14.4L1.64254 14.3997V15.9997L22.1759 16V27.0769H20.5333V17.7231L1.64254 17.7228V19.692L18.8906 19.6923V27.0769H17.2069V21.3333L11.909 21.3331L11.9093 27.0769H10.2666L10.2665 21.3331H8.21325L8.21331 27.0769H6.57065L6.57044 21.3331H4.9279L4.92799 27.0769H3.28532L3.28508 21.3331H1.64254L1.64266 27.0769H0V0H1.64266Z" fill="#76D9A9"/>
</svg>
