<svg width="24" height="24" viewBox="0 0 24 24" fill="none" xmlns="http://www.w3.org/2000/svg">
<path d="M12 24C18.6274 24 24 18.6274 24 12C24 5.37258 18.6274 0 12 0C5.37258 0 0 5.37258 0 12C0 18.6274 5.37258 24 12 24Z" fill="#FF0420"/>
<path d="M7.50158 16.2828C6.67632 16.318 5.86197 16.0841 5.18116 15.6164C4.88704 15.3917 4.65208 15.0988 4.49659 14.763C4.3411 14.4271 4.26977 14.0585 4.28877 13.6888C4.2924 13.4735 4.3123 13.2587 4.34831 13.0463C4.45146 12.4743 4.59819 11.7881 4.78853 10.9878C5.32798 8.80619 6.72013 7.7154 8.96497 7.7154C9.52763 7.70619 10.0863 7.81146 10.607 8.02482C11.0692 8.20598 11.4669 8.52084 11.7493 8.92917C12.034 9.3499 12.1795 9.84938 12.1653 10.3572C12.1612 10.5686 12.1413 10.7794 12.1058 10.9878C11.9867 11.6938 11.8439 12.38 11.6775 13.0463C11.4002 14.133 10.9202 14.9461 10.2378 15.4856C9.556 16.0171 8.64393 16.2828 7.50158 16.2828ZM7.66825 14.5693C8.08038 14.5807 8.48247 14.441 8.79882 14.1766C9.14845 13.8596 9.3863 13.438 9.47695 12.9748C9.65949 12.2294 9.79817 11.579 9.89299 11.0234C9.9249 10.8547 9.94083 10.6833 9.94057 10.5117C9.94057 9.78967 9.5638 9.42876 8.81026 9.42894C8.3948 9.41897 7.98953 9.55827 7.66799 9.82157C7.32483 10.142 7.0916 10.5626 7.00156 11.0234C6.85872 11.5549 6.71597 12.2053 6.57331 12.9748C6.54102 13.1394 6.52508 13.3068 6.52572 13.4746C6.52572 14.2044 6.90657 14.5693 7.66825 14.5693Z" fill="white"/>
<path d="M12.7137 16.164C12.6759 16.1662 12.6381 16.1599 12.6031 16.1455C12.5681 16.1311 12.5368 16.1089 12.5114 16.0808C12.4719 16.0168 12.4591 15.9399 12.4758 15.8665L14.1178 8.13196C14.1324 8.04662 14.1789 7.97001 14.2479 7.9177C14.3116 7.86509 14.3914 7.83574 14.4741 7.8345H17.6393C18.3845 7.79793 19.1232 7.98882 19.7574 8.38184C20.0182 8.55264 20.2299 8.78842 20.3718 9.06595C20.5137 9.34349 20.5808 9.65321 20.5666 9.96459C20.5655 10.1729 20.5415 10.3804 20.4951 10.5834C20.3639 11.3852 19.9346 12.1077 19.2933 12.6064C18.6984 13.0427 17.8813 13.2609 16.8421 13.2609H15.2359L14.6886 15.8668C14.674 15.9521 14.6276 16.0287 14.5586 16.081C14.4949 16.1336 14.4152 16.1629 14.3326 16.1642L12.7137 16.164ZM16.9261 11.6183C17.2379 11.6252 17.5432 11.529 17.7948 11.3448C18.0537 11.1547 18.232 10.8745 18.2946 10.5595C18.3167 10.4418 18.3286 10.3223 18.3302 10.2025C18.3369 10.1057 18.3223 10.0086 18.2874 9.91813C18.2524 9.82763 18.198 9.74593 18.1279 9.67882C17.9293 9.53217 17.6834 9.46436 17.4378 9.48849H16.01L15.5578 11.6183H16.9261Z" fill="white"/>
</svg>
