<svg width="24" height="24" viewBox="0 0 24 24" fill="none" xmlns="http://www.w3.org/2000/svg">
<circle cx="12" cy="12" r="12" fill="#F0B90B"/>
<path d="M7.9026 6.49776L11.8831 4.2002L15.8636 6.49776L14.4002 7.34654L11.8831 5.89776L9.36603 7.34654L7.9026 6.49776ZM15.8636 9.39533L14.4002 8.54654L11.8831 9.99533L9.36603 8.54654L7.9026 9.39533V11.0929L10.4197 12.5417V15.4392L11.8831 16.288L13.3465 15.4392V12.5417L15.8636 11.0929V9.39533ZM15.8636 13.9905V12.2929L14.4002 13.1417V14.8392L15.8636 13.9905ZM16.9026 14.5905L14.3855 16.0392V17.7368L18.366 15.4392V10.8441L16.9026 11.6929V14.5905ZM15.4392 7.94655L16.9026 8.79533V10.4929L18.366 9.6441V7.94655L16.9026 7.09777L15.4392 7.94655ZM10.4197 16.6539V18.3515L11.8831 19.2002L13.3465 18.3515V16.6539L11.8831 17.5027L10.4197 16.6539ZM7.9026 13.9905L9.36603 14.8392V13.1417L7.9026 12.2929V13.9905ZM10.4197 7.94655L11.8831 8.79533L13.3465 7.94655L11.8831 7.09777L10.4197 7.94655ZM6.86356 8.79533L8.32698 7.94655L6.86356 7.09777L5.40015 7.94655V9.6441L6.86356 10.4929V8.79533ZM6.86356 11.6929L5.40015 10.8441V15.4392L9.38064 17.7368V16.0392L6.86356 14.5905V11.6929Z" fill="white"/>
</svg>
