<svg width="55" height="55" viewBox="0 0 55 55" fill="none" xmlns="http://www.w3.org/2000/svg">
<circle cx="27.5" cy="27.5" r="27.5" fill="white"/>
<path d="M27.3059 0.00431305C23.2085 0.0474435 19.3376 0.942401 15.693 2.68919C12.0485 4.43597 8.93232 6.8405 6.34449 9.90276C3.6704 13.1375 1.83736 16.7821 0.845358 20.8363C-0.362296 25.667 -0.276035 30.4544 1.10414 35.1988C2.44119 39.8138 4.83493 43.8033 8.28537 47.1675C11.8221 50.6179 16.0057 52.947 20.8363 54.1546C25.667 55.3623 30.4544 55.276 35.1988 53.8959C39.8138 52.5157 43.8033 50.1219 47.1675 46.7146C50.6179 43.1779 52.947 38.9943 54.1546 34.1637C55.3623 29.333 55.276 24.524 53.8959 19.7365C52.5157 15.1647 50.1219 11.1967 46.7146 7.8325C43.1779 4.33893 38.9943 2.00988 34.1637 0.845358C31.8777 0.241531 29.5918 -0.0388174 27.3059 0.00431305ZM26.4002 9.57928L29.3762 10.3556L28.147 15.2078L30.6054 15.7254L31.7699 10.9379L34.8106 11.6495L33.5814 16.6311C35.6948 17.3643 37.2475 18.2269 38.2395 19.2189C39.404 20.4266 39.8569 21.8715 39.5981 23.5536C39.2531 26.012 37.9807 27.5 35.7811 28.0176C37.2044 28.7508 38.1532 29.6781 38.6277 30.7995C39.1884 32.0503 39.1668 33.5598 38.563 35.3282C37.7866 37.4847 36.4496 38.8649 34.5518 39.4687C32.956 39.9431 30.7348 39.9216 27.8882 39.404L26.659 44.3856L23.6183 43.6092L24.8475 38.6924L22.4537 38.1101L21.2245 43.027L18.1838 42.3153L19.4777 37.2691L13.3963 35.7164L14.8843 32.2875L15.9842 32.611C16.7174 32.7835 17.084 32.8482 17.084 32.805C17.7309 32.9776 18.1838 32.7404 18.4426 32.0934L20.4482 24.2005L20.7716 24.2652L20.4482 24.2005L21.8068 18.5073C21.893 17.6016 21.4402 17.0193 20.4482 16.7605L18.2485 16.2429L19.0249 13.0082L23.2301 14.0433H23.1654L25.1063 14.5609L26.4002 9.57928ZM27.3706 18.7661L25.8826 24.7828L26.3355 24.9122C28.1038 25.3866 29.484 25.6023 30.476 25.5591C32.2444 25.5591 33.301 24.869 33.6461 23.4889C33.9911 22.1087 33.4089 21.0089 31.8993 20.1894C31.0798 19.7149 29.7644 19.2836 27.9529 18.8955L27.3706 18.7661ZM25.1063 27.8235L23.4242 34.4224L24.0064 34.6165C26.163 35.1772 27.8235 35.4576 28.988 35.4576C31.1014 35.4576 32.3522 34.7028 32.7404 33.1932C33.1285 31.6837 32.3953 30.4544 30.5407 29.5056C29.5487 28.988 27.9744 28.4704 25.8179 27.9529L25.1063 27.8235Z" fill="#F7931A"/>
</svg>
