<svg width="32" height="32" viewBox="0 0 32 32" fill="none" xmlns="http://www.w3.org/2000/svg">
<g clip-path="url(#clip0_6734_14706)">
<path d="M16.0911 31.9258C24.8926 31.9258 32.0277 24.7908 32.0277 15.9893C32.0277 7.18776 24.8926 0.0527344 16.0911 0.0527344C7.28963 0.0527344 0.154602 7.18776 0.154602 15.9893C0.154602 24.7908 7.28963 31.9258 16.0911 31.9258Z" fill="#001845"/>
<path d="M24.4263 23.9755C17.3598 25.403 10.456 20.8231 9.01987 13.7977C8.30148 10.3935 9.03925 6.9935 10.7945 4.24786C5.47248 6.6938 2.32503 12.548 3.54566 18.5595C4.98182 25.5849 11.8856 30.1649 18.9521 28.7373C22.5946 28.0238 25.5131 25.8606 27.4143 22.9706C26.4666 23.4022 25.5191 23.7614 24.4263 23.9755Z" fill="url(#paint0_linear_6734_14706)"/>
<path d="M15.2553 23.1289C12.9048 22.8677 11.4262 21.2987 11.2946 19.1942C11.284 19.0237 11.4235 18.8848 11.5942 18.8848H12.8241C12.9949 18.8848 13.1318 19.0235 13.145 19.1937C13.2634 20.719 14.2784 21.6229 16.0768 21.6229C17.9934 21.6229 19.0202 20.5961 19.0202 19.364C19.0202 15.8729 11.422 17.6526 11.422 12.5187C11.422 10.8074 12.9964 9.02759 15.2553 8.75378V7.00937C15.2553 6.83862 15.3938 6.7002 15.5645 6.7002H16.5206C16.6913 6.7002 16.8297 6.83862 16.8297 7.00937V8.75378C18.8479 9.07928 20.3088 10.705 20.447 12.6887C20.4589 12.859 20.3193 12.9979 20.1486 12.9979H18.9187C18.7479 12.9979 18.6112 12.859 18.5943 12.689C18.4533 11.2736 17.3501 10.2598 16.0083 10.2598C14.297 10.2598 13.2017 11.4234 13.2017 12.5187C13.2017 16.0098 20.8 14.23 20.8 19.364C20.8 21.2122 19.294 22.8551 16.8297 23.1973V24.9417C16.8297 25.1125 16.6913 25.2509 16.5206 25.2509H15.5645C15.3938 25.2509 15.2553 25.1125 15.2553 24.9417L15.2553 23.1289Z" fill="#FCCA46"/>
<path fill-rule="evenodd" clip-rule="evenodd" d="M28.3591 21.7341L29.1954 22.3281C29.3838 22.4619 29.3641 22.7476 29.1592 22.8543L26.4518 24.2649C26.2368 24.3769 25.9824 24.2092 26.0007 23.9675L26.239 20.8032C26.2571 20.5633 26.5302 20.435 26.7264 20.5743L27.4762 21.107C29.3906 16.7563 28.6831 11.4983 25.2568 7.78117C20.6781 2.81383 12.9635 2.46339 7.95428 6.96764C7.89079 7.02473 7.79256 7.02128 7.73469 6.9585L7.22416 6.40465C7.1663 6.34187 7.17073 6.24353 7.23416 6.18638C12.6749 1.28449 21.0616 1.66231 26.038 7.06109C29.8131 11.1566 30.5482 16.9722 28.3591 21.7341Z" fill="#FCCA46"/>
<path fill-rule="evenodd" clip-rule="evenodd" d="M4.208 10.2757L3.3717 9.6817C3.1833 9.54788 3.20294 9.26221 3.40788 9.15544L6.11526 7.74487C6.33024 7.63287 6.58463 7.80057 6.56642 8.04229L6.32807 11.2066C6.30999 11.4465 6.03688 11.5747 5.84072 11.4354L5.09085 10.9028C3.17646 15.2534 3.88396 20.5115 7.31026 24.2286C11.889 29.1959 19.6036 29.5464 24.6128 25.0421C24.6763 24.985 24.7745 24.9885 24.8324 25.0513L25.3429 25.6051C25.4008 25.6679 25.3963 25.7662 25.3329 25.8234C19.8922 30.7253 11.5055 30.3475 6.52907 24.9487C2.75396 20.8532 2.01887 15.0375 4.208 10.2757Z" fill="#FCCA46"/>
</g>
<defs>
<linearGradient id="paint0_linear_6734_14706" x1="2.58945" y1="31.8013" x2="17.3225" y2="14.6907" gradientUnits="userSpaceOnUse">
<stop offset="0.0729167" stop-color="#FFD923"/>
<stop offset="0.4775" stop-color="#0466C8"/>
<stop offset="1" stop-color="#001845"/>
</linearGradient>
<clipPath id="clip0_6734_14706">
<rect width="32" height="32" fill="white"/>
</clipPath>
</defs>
</svg>
