<svg width="35" height="40" viewBox="0 0 35 40" fill="none" xmlns="http://www.w3.org/2000/svg">
<path d="M6.67321 6.12684L17.2879 0L27.9026 6.12684L24 8.39025L17.2879 4.52684L10.5757 8.39025L6.67321 6.12684ZM27.9026 13.8537L24 11.5903L17.2879 15.4537L10.5757 11.5903L6.67321 13.8537V18.3805L13.3854 22.2439V29.9707L17.2879 32.2342L21.1903 29.9707V22.2439L27.9026 18.3805V13.8537ZM27.9026 26.1075V21.5805L24 23.844V28.3707L27.9026 26.1075ZM30.6732 27.7075L23.961 31.5708V36.0977L34.5757 29.9707V17.7171L30.6732 19.9805V27.7075ZM26.7709 9.99027L30.6732 12.2537V16.7805L34.5757 14.5171V9.99027L30.6732 7.72686L26.7709 9.99027ZM13.3854 33.2098V37.7367L17.2879 40L21.1903 37.7367V33.2098L17.2879 35.4733L13.3854 33.2098ZM6.67321 26.1075L10.5757 28.3707V23.844L6.67321 21.5805V26.1075ZM13.3854 9.99027L17.2879 12.2537L21.1903 9.99027L17.2879 7.72686L13.3854 9.99027ZM3.90244 12.2537L7.80489 9.99027L3.90244 7.72686L0 9.99027V14.5171L3.90244 16.7805V12.2537ZM3.90244 19.9805L0 17.7171V29.9707L10.6146 36.0977V31.5708L3.90244 27.7075V19.9805Z" fill="#F0B90B"/>
</svg>
