<svg width="40" height="40" viewBox="0 0 40 40" fill="none" xmlns="http://www.w3.org/2000/svg">
<rect width="40" height="40" rx="20" fill="white"/>
<path d="M20.0299 4C15.6401 4 12.0875 7.5526 12.0875 11.9424V14.9192C10.546 15.1982 9 15.5703 9 16.0532V31.588C9 31.588 9 32.0177 9.48283 32.2215C11.2326 32.9302 18.1163 35.3666 19.6977 35.9247C19.9014 36 19.959 36 20.0122 36C20.0875 36 20.1229 36 20.3267 35.9247C21.9081 35.3666 28.8095 32.9302 30.5592 32.2215C31.0066 32.0354 31.0244 31.6058 31.0244 31.6058V16.0532C31.0244 15.5703 29.5006 15.1805 27.9546 14.9192V11.9424C27.9767 7.5526 24.402 4 20.0299 4ZM20.0299 7.79623C22.6168 7.79623 24.1805 9.35991 24.1805 11.9468V14.5338C21.2791 14.33 18.8029 14.33 15.8837 14.5338V11.9468C15.8837 9.35548 17.4474 7.79623 20.0299 7.79623ZM20.0122 18.3433C23.6224 18.3433 26.6523 18.6224 26.6523 19.1229V28.8151C26.6523 28.9657 26.6346 28.9834 26.5017 29.0365C26.3732 29.0941 20.3444 31.2691 20.3444 31.2691C20.3444 31.2691 20.1008 31.3444 20.0299 31.3444C19.9546 31.3444 19.7154 31.2514 19.7154 31.2514C19.7154 31.2514 13.6866 29.0764 13.5581 29.0188C13.4297 28.9612 13.4075 28.9435 13.4075 28.7973V19.1052C13.3721 18.6047 16.402 18.3433 20.0122 18.3433Z" fill="black"/>
</svg>
