<svg width="1114" height="305" viewBox="0 0 1114 305" fill="none" xmlns="http://www.w3.org/2000/svg">
<mask id="mask0_2478_158333" style="mask-type:alpha" maskUnits="userSpaceOnUse" x="0" y="0" width="1114" height="305">
<rect width="1114" height="305" rx="8" fill="url(#paint0_linear_2478_158333)" fill-opacity="0.95"/>
</mask>
<g mask="url(#mask0_2478_158333)">
<path d="M324.426 355.331C368.513 340.167 410.578 319.329 453.512 301.032C479.045 289.167 506.343 282.28 531.759 270.231C567.109 252.205 596.419 223.072 634.328 209.948C659.664 200.271 686.406 200.44 712.328 201.818C755.576 202.225 798.154 208.042 841.407 208.016C892.101 208.669 949.383 199.115 985.173 157.695C1019.25 123.123 1043.51 77.0957 1087.89 53.5814C1163.32 22.1691 1244.23 62.969 1321.17 41.4219" stroke="#8D95A3" stroke-width="0.9805" stroke-miterlimit="10" stroke-linecap="round" stroke-dasharray="2 6"/>
<path d="M324.866 365.709C368.903 350.319 410.156 327.764 452.6 308.403C477.877 295.842 505.102 288.4 530.685 276.761C568.702 257.639 599.812 225.9 640.566 212.254C663.219 203.941 687.108 203.004 710.289 203.892C756.763 202.762 802.295 210.136 848.594 210.492C898.251 211.719 954.224 202.31 989.539 162.051C1022.85 128.482 1046.54 84.7924 1088.07 59.7394C1161.38 23.2319 1249 63.1156 1325.9 40.4771" stroke="#8D95A3" stroke-width="0.9805" stroke-miterlimit="10" stroke-linecap="round" stroke-dasharray="2 6"/>
<path d="M325.557 376.784C393.36 351.599 453.743 308.879 522.57 286.479C563.24 268.591 594.913 234.946 636.035 218.06C699.37 192.022 785.702 211.673 851.643 212.935C901.484 215.333 957.947 206.988 993.844 166.616C1027.23 133.169 1050.88 89.8513 1091.84 64.0455C1164.98 25.6657 1253.29 62.3647 1330.33 38.7759" stroke="#8D95A3" stroke-width="0.9805" stroke-miterlimit="10" stroke-linecap="round" stroke-dasharray="2 6"/>
<path d="M326.465 388.492C391.921 364.027 447.678 318.15 514.137 296.14C559.924 278.949 593.909 240.567 638.612 221.23C709.316 191.793 787.162 213.234 858.78 215.782C907.529 218.961 962.905 210.963 998.132 171.448C1031.66 138.081 1055.36 94.9886 1095.75 68.43C1168.39 28.2248 1257.65 61.3016 1334.7 36.6826" stroke="#8D95A3" stroke-width="0.9805" stroke-miterlimit="10" stroke-linecap="round" stroke-dasharray="2 6"/>
<path d="M327.499 400.55C385.43 378.21 433.714 336.745 490.382 311.685C510.87 303.202 532.121 296.21 550.612 283.412C580.895 263.885 608.119 239.258 641.099 224.115C712.759 191.921 789.341 214.167 861.688 218.742C910.872 223.191 966.35 216.675 1002.44 176.61C1035.3 144.099 1058.64 102.785 1096.62 75.0922C1166.54 30.1729 1262.3 60.2353 1338.97 34.3037" stroke="#8D95A3" stroke-width="0.9805" stroke-miterlimit="10" stroke-linecap="round" stroke-dasharray="2 6"/>
<path d="M328.627 412.895C382.747 391.174 426.894 351.138 478.377 324.394C500.57 312.42 525.323 306.379 546.431 292.26C578.449 272.23 606.393 245.942 640.202 228.725C712.304 191.352 791.285 215.164 864.678 221.823C914.774 227.411 969.25 222.993 1006.74 182.039C1039.84 149.462 1063.28 108.167 1100.81 79.9051C1169.51 33.5225 1267 58.9609 1343.32 31.8813" stroke="#8D95A3" stroke-width="0.9805" stroke-miterlimit="10" stroke-linecap="round" stroke-dasharray="2 6"/>
<path d="M329.699 425.445C382.581 403.395 424.441 362.409 473.842 334.153C496.731 320.19 523.137 313.957 545.481 299.137C578.963 278.175 607.704 250.349 642.665 231.712C716.104 190.566 797.032 217.436 871.847 225.597C921.605 231.829 973.353 228.116 1011.05 187.633C1043.48 155.912 1066.68 116.145 1102.03 87.1162C1167.59 36.8097 1271.72 57.8506 1347.84 29.4351" stroke="#8D95A3" stroke-width="0.9805" stroke-miterlimit="10" stroke-linecap="round" stroke-dasharray="2 6"/>
<path d="M330.662 437.977C382.412 415.617 422.075 373.967 469.299 344.347C492.74 328.314 520.671 321.539 544.474 306.221C577.329 285.744 605.388 258.61 638.594 238.683C715.113 189.305 795.932 218.65 874.735 229.257C925.404 236.628 976.178 234.91 1015.2 193.579C1047.87 161.793 1071.24 122.003 1106.32 92.3811C1169.63 41.3497 1277.32 56.5202 1352.58 27.1919" stroke="#8D95A3" stroke-width="0.9805" stroke-miterlimit="10" stroke-linecap="round" stroke-dasharray="2 6"/>
<path d="M331.447 450.37C383.351 427.224 421.702 383.659 468.375 352.585C489.364 337.252 514.249 330.096 536.646 317.563C563.927 301.836 587.622 280.915 612.707 262.032C708.996 185.123 774.539 216.455 877.716 233.205C929.086 241.677 979.324 241.761 1019.44 199.649C1052.45 167.816 1075.96 127.941 1110.75 97.7267C1170.74 46.7512 1283.45 55.2847 1357.55 25.3164" stroke="#8D95A3" stroke-width="0.9805" stroke-miterlimit="10" stroke-linecap="round" stroke-dasharray="2 6"/>
<path d="M331.941 462.601C384.077 438.792 421.155 393.373 467.393 361.029C487.046 345.945 510.354 338.074 532.127 327.056C553.138 315.576 572.048 300.793 590.681 286.015C705.616 188.476 747.013 210.942 876.251 236.63C929.426 246.617 981.011 250.139 1023.73 205.945C1056 175.01 1079.36 136.518 1112.26 106.129C1138.54 80.3018 1175.15 70.5793 1209.5 61.6985C1260.67 49.1559 1313.31 43.162 1363.06 24.1318" stroke="#8D95A3" stroke-width="0.9805" stroke-miterlimit="10" stroke-linecap="round" stroke-dasharray="2 6"/>
<path d="M332.125 474.343C384.333 450.058 420.343 403.256 465.947 369.769C485.328 354.258 508.274 345.671 530.319 335.081C551.553 323.803 570.674 309.058 589.401 294.135C711.207 190.505 743.465 211.825 881.375 241.448C933.052 251.872 983.607 256.566 1026.03 214.107C1059.87 182.692 1083.72 142.935 1117.49 111.398C1144.47 84.3437 1182.4 74.4756 1217.84 64.3813C1268.22 50.8836 1319.97 42.6173 1369.07 23.5776" stroke="#8D95A3" stroke-width="0.9805" stroke-miterlimit="10" stroke-linecap="round" stroke-dasharray="2 6"/>
<path d="M331.886 485.577C384.321 461.062 419.276 413.041 464.429 378.552C483.576 362.673 506.267 353.391 528.556 343.332C548.843 332.915 567.277 319.294 585.123 305.189C713.504 197.204 734.111 210.643 882.18 245.658C935.641 257.268 986.792 264.074 1031.27 219.706C1065.11 188.291 1089.18 148.572 1122.82 116.852C1149.61 89.491 1187.3 79.256 1222.6 68.4842C1273.58 53.5753 1325.81 43.2815 1375.68 23.8374" stroke="#8D95A3" stroke-width="0.9805" stroke-miterlimit="10" stroke-linecap="round" stroke-dasharray="2 6"/>
<path d="M331.226 496.138C385.413 470.851 420.059 419.848 466.57 384.409C485.706 368.366 508.874 359.982 531.064 349.471C551.405 338.847 569.973 325.142 587.951 310.952C718.378 201.923 734.455 213.089 885.441 250.631C939.329 262.914 990.032 270.778 1035.5 226.208C1069.66 194.85 1094.04 155.187 1127.43 123.203C1154.95 94.3466 1194.19 83.9001 1230.73 72.1595C1281.46 56.5543 1333.1 44.3128 1382.86 25.2827" stroke="#8D95A3" stroke-width="0.9805" stroke-miterlimit="10" stroke-linecap="round" stroke-dasharray="2 6"/>
<path d="M329.949 505.886C385.883 480.261 420.137 426.586 468.162 390.441C490.446 371.708 518.931 364.924 543.584 350.354C580.854 328.443 612.377 298.674 646.968 273.14C673.096 254.28 701.67 235.153 733.703 229.979C786.991 224.427 836.512 244.386 886.426 255.417C941.808 268.725 993.512 278.015 1040.75 231.973C1077.04 198.827 1102.35 156.347 1138.9 123.465C1165.49 97.6942 1202.13 88.8985 1235.91 77.3691C1287.57 60.7385 1339.94 46.8366 1390.91 27.8066" stroke="#8D95A3" stroke-width="0.9805" stroke-miterlimit="10" stroke-linecap="round" stroke-dasharray="2 6"/>
<path d="M327.947 514.635C385.351 488.676 419.996 433.119 469.597 396.66C491.127 379.093 518.182 372.704 541.91 359.324C576.099 340.061 605.651 313.952 636.605 290.045C666.379 267.662 698.192 243.638 735.11 236.301C788.252 229.639 837.84 249.556 887.516 260.652C942.093 273.871 995.414 284.968 1042.98 240.176C1080.83 206.984 1106.93 163.398 1144.25 129.679C1171.73 102.658 1209.91 93.9186 1244.97 81.9143C1296.62 65.119 1348.71 50.1914 1399.82 31.6743" stroke="#8D95A3" stroke-width="0.9805" stroke-miterlimit="10" stroke-linecap="round" stroke-dasharray="2 6"/>
<path d="M325.243 522.284C382.081 496.171 418.182 442.609 467.505 406.154C491.064 386.78 520.886 379.748 546.708 364.519C585.825 341.691 618.999 310.7 655.62 284.39C679.836 267.52 705.773 250.414 734.753 244.261C790.484 236.381 842.808 257.221 895.235 267.941C950.932 280.276 1001.08 289.613 1049.06 244.732C1087.69 210.867 1114.76 166.75 1153.59 133.191C1181.62 107.19 1219.65 98.8041 1254.53 86.6587C1306.11 69.9057 1358.15 54.7524 1409.3 36.2964" stroke="#8D95A3" stroke-width="0.9805" stroke-miterlimit="10" stroke-linecap="round" stroke-dasharray="2 6"/>
<path d="M321.853 528.996C377.1 503.465 414.493 453.549 462.224 417.677C474.307 408.614 487.001 400.365 500.652 393.913C516.765 386.925 533.318 380.774 548.401 371.434C589.114 347.59 623.562 314.929 662.313 288.294C685.683 272.736 710.799 256.84 738.628 252.107C792.89 245.591 844.174 263.914 895.645 273.867C953.278 285.572 1004.11 295.845 1053.94 250.047C1093.63 215.938 1121.91 171.224 1162.37 137.74C1191.02 112.553 1228.99 104.374 1263.86 92.0641C1315.64 75.1842 1367.83 59.678 1419.22 41.1562" stroke="#8D95A3" stroke-width="0.9805" stroke-miterlimit="10" stroke-linecap="round" stroke-dasharray="2 6"/>
<path d="M318.033 535.036C374.367 509.157 413.935 459.576 463.642 424.165C484.443 408.094 508.731 398.826 532.412 388.311C552.56 378.412 571.207 365.859 589.204 352.431C726.406 244.504 733.298 245.789 895.587 280.092C955.21 290.959 1006.84 301.755 1058.64 255.388C1098.49 221.957 1127.64 178.319 1167.93 145.292C1197.77 119.344 1237.06 110.751 1273.23 97.9655C1325.27 80.9163 1377.67 65.015 1429.23 46.4697" stroke="#8D95A3" stroke-width="0.9805" stroke-miterlimit="10" stroke-linecap="round" stroke-dasharray="2 6"/>
<path d="M313.691 540.548C371.029 514.632 412.979 465.855 464.501 431.094C485.624 415.677 509.907 406.842 533.444 396.247C554.363 385.943 573.664 372.802 592.326 358.951C727.188 252.341 738.658 257.588 897.489 287.045C956.361 296.585 1009.85 306.629 1061.31 262.369C1102.58 229.408 1132.97 185.668 1174.23 152.707C1204.31 127.125 1243.24 118.25 1279.4 105.465C1332.79 87.7337 1386.57 71.2117 1439.59 52.168" stroke="#8D95A3" stroke-width="0.9805" stroke-miterlimit="10" stroke-linecap="round" stroke-dasharray="2 6"/>
<path d="M308.972 545.613C366.316 520.295 410.233 473.875 462.273 440.074C483.746 425.207 507.823 415.901 531.527 405.716C552.23 395.807 571.46 383.142 589.972 369.643C724.875 264.124 737.102 267.772 896.95 293.832C957.419 302.357 1013.03 311.912 1065.98 267.648C1108.43 234.791 1140.33 190.778 1183.2 158.428C1214.11 133.863 1253.05 125.152 1289.16 112.141C1342.88 94.1986 1396.95 77.2391 1450.34 58.0449" stroke="#8D95A3" stroke-width="0.9805" stroke-miterlimit="10" stroke-linecap="round" stroke-dasharray="2 6"/>
<path d="M303.992 550.416C361.248 525.841 407.011 482.028 459.512 449.393C482.217 434.258 507.67 424.765 532.516 414.024C551.678 404.924 569.666 393.392 586.832 381.009C720.745 277.752 733.777 277.966 893.77 300.583C954.542 307.969 1014.87 317.444 1068.64 274.465C1112.52 242.243 1145.86 198.433 1189.78 166.272C1220.98 142.299 1259.68 133.221 1295.82 120.107C1351.02 101.398 1406.46 83.8176 1461.34 64.0215" stroke="#8D95A3" stroke-width="0.9805" stroke-miterlimit="10" stroke-linecap="round" stroke-dasharray="2 6"/>
<path d="M298.759 555.12C356.033 531.307 403.574 490.142 456.644 458.693C478.657 445.116 502.411 435.156 526.344 425.77C545.551 417.329 563.623 406.517 580.85 394.524C710.184 297.876 723.247 287.416 880.927 306.692C942.585 312.827 1012.54 324.51 1068.2 283.333C1113.88 252.462 1148.77 209.037 1193.2 176.641C1225.41 151.765 1265.21 141.907 1302.61 128.421C1359.25 109.049 1416.23 90.6597 1472.6 70.2617" stroke="#8D95A3" stroke-width="0.9805" stroke-miterlimit="10" stroke-linecap="round" stroke-dasharray="2 6"/>
<path d="M293.319 559.787C350.849 536.67 400.225 497.947 454.111 467.783C491.148 445.504 533.983 435.863 569.79 411.359C619.795 378.767 664.51 335.363 722.407 317.082C760.158 306.207 799.259 308.909 837.083 311.22C876.223 313.984 915.116 318.709 954.558 319.303C994.123 320.679 1035.44 314.236 1069.8 290.828C1117.1 260.898 1153.71 217.671 1199.26 185.421C1233.04 160.23 1274.16 149.958 1312.88 135.894C1369.94 116.164 1427.32 97.3565 1484.08 76.7046" stroke="#8D95A3" stroke-width="0.9805" stroke-miterlimit="10" stroke-linecap="round" stroke-dasharray="2 6"/>
<path d="M287.793 564.762C345.513 542.384 396.523 506.23 451.055 477.374C488.437 456.079 530.928 446.484 567.069 422.799C663.502 358.601 695.653 313.224 819.323 320.028C862.045 321.371 904.416 325.687 947.253 326.184C989.953 327.198 1034.76 321.974 1072.56 297.664C1122.37 267.856 1161.23 223.623 1209.47 191.637C1242.91 168.553 1282.6 158.512 1320.04 144.654C1378.62 124.219 1437.5 104.541 1495.85 83.3062" stroke="#8D95A3" stroke-width="0.9805" stroke-miterlimit="10" stroke-linecap="round" stroke-dasharray="2 6"/>
<path d="M282.317 569.964C341.302 547.812 394.817 513.244 451.292 485.385C488.842 465.529 530.817 456.005 566.715 432.819C650.494 377.962 692.937 328.785 799.873 329.998C847.479 329.178 894.594 333.311 942.085 333.338C986.614 333.703 1033.22 329.397 1073.48 305.581C1131.63 273.305 1175.98 221.541 1234.36 189.632C1266.56 172.669 1301.88 163.256 1335.71 150.49C1393.17 130.341 1450.7 110.748 1507.96 89.8608" stroke="#8D95A3" stroke-width="0.9805" stroke-miterlimit="10" stroke-linecap="round" stroke-dasharray="2 6"/>
<path d="M277.583 574.866C336.841 553.142 391.678 520.654 448.815 493.834C486.766 474.755 528.596 465.151 564.817 442.619C643.992 391.981 689.191 341.995 789.419 339.57C838.721 337.156 887.721 340.434 936.882 339.999C983.424 339.857 1032.04 336.073 1074.75 312.422C1134.46 281.129 1180.64 229.747 1240.02 197.801C1273.61 180.381 1310.28 170.452 1345.5 157.065C1403.25 136.643 1461.14 116.735 1518.61 95.7207" stroke="#8D95A3" stroke-width="0.9805" stroke-miterlimit="10" stroke-linecap="round" stroke-dasharray="2 6"/>
<path d="M272.89 580.26C332.315 558.945 388.198 528.541 445.824 502.785C484.031 484.402 525.756 474.78 562.405 452.92C640.019 404.822 684.353 355.387 781.847 349.546C834.26 345.41 886.449 348.119 938.737 346.726C985.54 345.816 1034.11 341.374 1077.3 318.622C1138.27 287.988 1186.22 237.194 1246.49 205.459C1280.23 188.285 1316.75 178.111 1351.9 164.766C1411.03 143.724 1470.33 123.091 1529.39 101.494" stroke="#8D95A3" stroke-width="0.9805" stroke-miterlimit="10" stroke-linecap="round" stroke-dasharray="2 6"/>
<path d="M268.439 586.187C328.058 565.178 384.804 536.717 442.947 511.92C481.477 494.191 523.124 484.446 560.201 463.26C588.752 447.326 614.384 426.805 641.69 408.915C682.947 381.373 730.386 362.959 779.121 359.359C833.119 354.042 886.954 355.961 940.89 353.778C986.737 352.101 1034.06 347.598 1076.85 326.727C1140.52 296.955 1190.96 245.521 1253.28 213.34C1287.08 196.391 1323.51 186.095 1358.63 172.688C1419.2 150.983 1479.91 129.626 1540.39 107.47" stroke="#8D95A3" stroke-width="0.9805" stroke-miterlimit="10" stroke-linecap="round" stroke-dasharray="2 6"/>
<path d="M264.095 592.73C323.964 571.82 381.694 545.053 440.449 521.07C478.425 504.381 519.018 494.448 555.681 474.813C586.867 458.32 614.394 436.078 644.062 417.2C682.194 392.678 725.29 375.223 769.79 370.107C826.875 362.74 883.966 364.048 941.002 361.009C987.397 358.726 1035.06 354.175 1078.59 333.869C1143.72 304.793 1196 253.741 1259.42 221.377C1294.57 203.911 1332.36 193.097 1368.82 179.173C1429.73 157.257 1490.63 135.608 1551.41 113.343" stroke="#8D95A3" stroke-width="0.9805" stroke-miterlimit="10" stroke-linecap="round" stroke-dasharray="2 6"/>
<path d="M260.054 600.03C320.028 579.138 378.454 553.905 437.61 530.699C476.945 514.09 518.692 503.766 556.535 483.638C588.065 467.098 615.925 444.644 646.12 425.86C683.327 402.528 724.976 385.736 767.977 380.027C826.514 371.564 885.225 372.186 943.802 368.338C989.186 365.495 1035.67 361.005 1078.6 342.11C1146.35 313.608 1201.12 261.917 1266.58 228.941C1301.73 211.64 1339.45 200.704 1375.87 186.719C1438.16 164.182 1500.51 141.87 1562.75 119.107" stroke="#8D95A3" stroke-width="0.9805" stroke-miterlimit="10" stroke-linecap="round" stroke-dasharray="2 6"/>
<path d="M256.272 608.192C317.56 586.722 377.946 562.218 438.71 539.191C477.149 523.668 517.524 513.1 554.576 494.077C588.518 476.775 618.273 452.6 650.842 432.993C685.284 412.366 723.168 396.852 762.412 390.527C823.782 380.348 885.443 380.466 946.948 375.786C992.432 372.364 1038.99 367.832 1082.11 349.243C1151 320.784 1207.44 269.662 1273.86 236.423C1310.26 218.586 1349.26 207.175 1386.91 192.757C1449.41 170.258 1511.87 147.697 1574.18 124.891" stroke="#8D95A3" stroke-width="0.9805" stroke-miterlimit="10" stroke-linecap="round" stroke-dasharray="2 6"/>
<path d="M252.84 617.336C314.145 595.599 374.992 572.261 436.029 549.662C474.834 534.422 515.309 523.275 552.805 504.657C587.657 487.463 618.089 463.03 651.361 443.061C685.576 422.664 723.038 407.075 761.877 400.406C824.577 389.38 887.752 388.793 950.677 383.554C996.232 379.657 1042.82 375.186 1086.07 356.945C1156 328.345 1214.14 277.689 1281.54 244.083C1319.15 225.648 1359.41 213.866 1398.41 198.932C1460.86 176.206 1523.35 153.542 1585.83 130.712" stroke="#8D95A3" stroke-width="0.9805" stroke-miterlimit="10" stroke-linecap="round" stroke-dasharray="2 6"/>
<path d="M249.815 627.422C312.333 604.654 374.879 581.782 437.397 559.015C475.282 544.532 514.375 532.975 551.029 515.236C586.009 498.391 616.779 474.343 649.83 454.172C684.566 433.271 722.354 416.874 761.896 409.843C827.447 397.862 893.651 396.895 959.438 390.865C1003.37 386.625 1048.41 382.201 1090.18 364.726C1162.38 335.285 1222.81 283.683 1292.67 249.542C1330.48 231.413 1370.72 219.466 1409.79 204.489C1472.39 181.843 1534.93 158.972 1597.45 136.204" stroke="#8D95A3" stroke-width="0.9805" stroke-miterlimit="10" stroke-linecap="round" stroke-dasharray="2 6"/>
</g>
<defs>
<linearGradient id="paint0_linear_2478_158333" x1="0" y1="0" x2="304.043" y2="696.677" gradientUnits="userSpaceOnUse">
<stop stop-color="#011845"/>
<stop offset="1" stop-color="#15141D"/>
</linearGradient>
</defs>
</svg>
