<svg width="1114" height="193" viewBox="0 0 1114 193" fill="none" xmlns="http://www.w3.org/2000/svg">
<g clip-path="url(#clip0_4365_90626)">
<rect y="21" width="782" height="172" rx="12" fill="url(#paint0_linear_4365_90626)"/>
<mask id="mask0_4365_90626" style="mask-type:alpha" maskUnits="userSpaceOnUse" x="-42" y="31" width="1114" height="170">
<rect x="-42" y="31" width="1114" height="170" rx="8" fill="url(#paint1_linear_4365_90626)" fill-opacity="0.95"/>
</mask>
<g mask="url(#mask0_4365_90626)">
<path d="M-26.7199 189.197C19.9372 183.843 65.8033 172.492 111.988 163.819C139.662 157.697 168.022 156.834 195.62 150.507C234.273 140.465 269.326 118.233 309.463 113.546C336.48 109.526 362.798 115.459 388.052 122.4C430.585 132.126 471.313 147.009 513.943 156.312C563.762 167.885 622.235 170.874 666.276 137.998C707.174 111.464 740.828 71.5858 789.543 58.1113C870.526 43.592 941.625 101.029 1022.01 96.5039" stroke="#707A8B" stroke-width="0.9805" stroke-miterlimit="10" stroke-linecap="round" stroke-dasharray="2 6"/>
<path d="M-28.5123 199.446C18.1442 193.86 63.5744 180.65 109.503 170.828C137.072 163.968 165.479 162.545 193.155 156.655C234.67 146.112 272.049 121.713 315.101 117.128C339.186 113.865 362.927 118.099 385.583 123.969C431.623 132.884 474.933 149.932 520.485 160.267C569.162 172.178 626.315 175.028 669.642 143.186C709.577 117.468 742.177 79.7557 788.411 64.1577C868.386 44.1858 946.288 102.174 1026.87 96.5703" stroke="#707A8B" stroke-width="0.9805" stroke-miterlimit="10" stroke-linecap="round" stroke-dasharray="2 6"/>
<path d="M-30.204 210.436C41.9495 200.373 110.504 171.523 183.078 164.411C226.948 155.649 265.286 129.501 309.388 121.818C377.32 109.956 458.241 147.838 522.959 163.298C571.571 176.398 628.983 180.396 672.909 148.566C712.896 122.982 745.374 85.6223 791.206 69.1616C871.417 47.3173 950.67 102.335 1031.59 95.8301" stroke="#707A8B" stroke-width="0.9805" stroke-miterlimit="10" stroke-linecap="round" stroke-dasharray="2 6"/>
<path d="M-31.8157 222.094C37.8755 212.229 102.542 179.283 172.7 172.042C221.466 165.065 263.089 134.771 311.24 125.457C387.155 111.851 459.336 149.66 529.379 167.605C576.751 181.237 633.019 185.341 676.105 154.203C716.218 128.726 748.7 91.5952 794.127 74.2715C874.228 50.5262 955.202 102.206 1036.34 94.6895" stroke="#707A8B" stroke-width="0.9805" stroke-miterlimit="10" stroke-linecap="round" stroke-dasharray="2 6"/>
<path d="M-33.3771 234.125C28.4488 224.719 84.8179 194.483 145.975 182.139C167.964 178.242 190.389 175.971 211.324 167.413C245.305 154.802 277.352 136.53 313.063 128.799C390.507 112.694 461.273 151.023 531.607 171.114C579.14 186.085 635.197 191.665 679.252 160.171C718.525 135.386 750.273 99.9166 793.573 80.9607C871.994 52.0047 960.007 102.134 1041.07 93.25" stroke="#707A8B" stroke-width="0.9805" stroke-miterlimit="10" stroke-linecap="round" stroke-dasharray="2 6"/>
<path d="M-34.9118 246.453C23.0288 236.832 75.0196 207.102 131.426 191.986C155.835 185.034 181.511 184.45 205.305 175.161C241.105 162.429 274.213 142.683 311.181 133.095C390.161 112.006 462.961 152.391 533.887 174.753C582.078 191.039 636.705 198.459 682.327 166.392C721.85 141.592 753.699 106.16 796.672 86.5454C874.212 55.8902 964.912 101.863 1045.86 91.7754" stroke="#707A8B" stroke-width="0.9805" stroke-miterlimit="10" stroke-linecap="round" stroke-dasharray="2 6"/>
<path d="M-36.5436 258.975C20.2487 248.763 70.1882 217.604 124.863 200.555C150.381 191.802 177.728 191.386 202.89 181.675C240.33 168.344 274.551 147.259 312.957 136.527C394.055 112.024 468.128 155.831 540.14 179.973C587.863 196.819 639.653 204.343 685.38 172.778C724.062 148.67 755.35 114.682 796.347 93.8446C871.615 58.6587 969.794 101.756 1050.84 90.3145" stroke="#707A8B" stroke-width="0.9805" stroke-miterlimit="10" stroke-linecap="round" stroke-dasharray="2 6"/>
<path d="M-38.2656 271.465C17.4775 260.703 65.3923 228.417 118.212 209.56C144.713 198.895 173.677 198.277 200.383 188.392C237.104 175.4 270.507 154.845 307.457 142.468C393.336 110.556 466.78 156.769 542.204 184.172C590.585 202.331 640.993 211.6 688.212 179.491C727.144 155.368 758.607 121.392 799.451 99.9108C872.669 63.5291 975.595 101.638 1055.99 89.1152" stroke="#707A8B" stroke-width="0.9805" stroke-miterlimit="10" stroke-linecap="round" stroke-dasharray="2 6"/>
<path d="M-40.1377 283.777C15.9247 272.277 62.953 237.828 115.538 217.425C139.475 206.917 165.518 205.269 190.249 197.81C220.469 188.273 248.256 172.869 276.981 159.763C388.179 105.115 446.145 149.982 544.295 188.67C593.133 208.061 642.633 218.982 691.094 186.34C730.376 162.245 761.988 128.212 802.679 106.087C872.605 69.04 981.896 101.727 1061.28 88.3262" stroke="#707A8B" stroke-width="0.9805" stroke-miterlimit="10" stroke-linecap="round" stroke-dasharray="2 6"/>
<path d="M-42.2564 295.869C14.1759 283.768 60.3426 247.225 112.769 225.482C135.336 214.929 159.977 212.239 183.771 206.131C206.913 199.406 228.684 188.988 250.179 178.516C384.128 107.657 420.173 138.62 542.117 191.697C592.414 212.964 642.514 227.548 693.979 193.423C732.345 170.048 763.519 137.339 802.387 114.635C833.756 94.975 871.905 93.3401 907.641 92.0414C960.74 90.7821 1013.89 96.2595 1066.96 88.332" stroke="#707A8B" stroke-width="0.9805" stroke-miterlimit="10" stroke-linecap="round" stroke-dasharray="2 6"/>
<path d="M-44.5778 307.411C12.0262 294.859 57.4347 256.728 109.479 233.726C131.868 222.695 156.304 219.225 180.277 213.595C203.595 207.116 225.566 196.781 247.185 186.185C389.199 110.832 416.478 138.702 546.137 197.509C594.866 218.882 643.702 234.393 694.507 201.905C734.516 178.397 766.455 144.553 806.413 120.909C838.746 100.198 878.217 98.7025 915.292 96.4501C967.809 94.0825 1020.57 97.1403 1072.99 89.0605" stroke="#707A8B" stroke-width="0.9805" stroke-miterlimit="10" stroke-linecap="round" stroke-dasharray="2 6"/>
<path d="M-47.2055 318.361C9.6717 305.631 54.2982 266.076 106.111 241.993C128.348 230.551 152.679 226.343 176.781 221.287C198.983 215.448 220.039 206.066 240.617 196.083C390.034 117.875 407.499 135.502 546.031 201.791C596.267 224.712 645.244 242.424 698.48 208.505C738.49 184.996 770.628 151.234 810.511 127.383C842.717 106.33 882.036 104.424 919.106 101.474C972.512 97.8514 1026.18 99.0254 1079.45 90.7148" stroke="#707A8B" stroke-width="0.9805" stroke-miterlimit="10" stroke-linecap="round" stroke-dasharray="2 6"/>
<path d="M-50.1124 328.555C8.65559 315.447 53.6095 272.899 106.963 248.176C129.223 236.57 153.836 233.346 177.934 227.825C200.235 221.795 221.44 212.359 242.167 202.321C393.823 123.528 407.305 137.949 548.176 207.346C598.691 231.019 647.002 249.672 701.261 215.768C741.571 192.383 774.009 158.744 813.691 134.578C846.933 112.215 887.823 110.435 926.333 106.805C979.634 102.444 1033.14 101.581 1086.21 93.6523" stroke="#707A8B" stroke-width="0.9805" stroke-miterlimit="10" stroke-linecap="round" stroke-dasharray="2 6"/>
<path d="M-53.4537 337.81C7.10854 324.746 52.2426 279.493 107.238 254.404C133.171 240.838 162.686 240.331 190.072 231.36C231.451 217.911 268.828 195.516 308.334 177.935C338.083 165.075 370.301 152.48 402.972 154.317C456.672 160.369 501.256 190.629 548.119 212.217C599.89 237.219 648.885 257.486 705.204 222.521C747.996 197.842 781.936 161.637 824.929 137.273C856.598 117.734 894.581 117.014 930.324 112.995C984.765 107.829 1039.33 105.493 1093.6 97.8262" stroke="#707A8B" stroke-width="0.9805" stroke-miterlimit="10" stroke-linecap="round" stroke-dasharray="2 6"/>
<path d="M-57.3012 345.929C4.7806 332.855 50.6994 285.84 107.314 260.782C132.258 248.197 160.279 247.769 186.502 239.765C224.282 228.248 258.943 209.017 294.518 192.248C328.608 176.719 365.056 160.02 403 160.788C456.792 165.72 501.451 195.953 548.065 217.554C599.061 242.294 649.268 264.682 705.645 231.014C749.984 206.626 784.939 169.507 828.875 144.489C861.682 123.914 901.163 123.58 938.274 119.372C992.739 114.043 1047.24 110.64 1101.55 103.506" stroke="#707A8B" stroke-width="0.9805" stroke-miterlimit="10" stroke-linecap="round" stroke-dasharray="2 6"/>
<path d="M-61.6082 352.812C-0.0514751 339.462 46.8804 294.718 103.221 269.605C130.546 255.687 161.432 255.223 190.111 245.858C233.504 231.908 272.769 208.669 314.439 190.766C341.883 179.444 371.072 168.263 400.942 168.481C457.544 172.776 504.704 204.504 554.11 226.329C606.396 250.443 653.845 270.419 710.647 236.753C755.904 211.874 791.928 174.444 837.312 149.907C870.452 130.454 909.71 130.433 946.67 126.047C1001.06 120.744 1055.56 117.109 1109.89 110.043" stroke="#707A8B" stroke-width="0.9805" stroke-miterlimit="10" stroke-linecap="round" stroke-dasharray="2 6"/>
<path d="M-66.3934 358.624C-6.52885 345.503 40.9043 304.613 95.5524 279.729C109.382 273.446 123.642 268.094 138.464 264.711C155.827 261.334 173.446 258.872 190.293 252.966C235.474 238.363 276.349 213.762 320.188 196C346.519 185.783 374.644 175.61 403.076 176.972C457.943 182.288 504.61 211.322 553.236 232.189C607.564 256.102 655.494 277.145 714.309 242.977C760.662 218.087 798.004 180.332 844.986 156.222C878.556 137.699 917.716 137.869 954.7 133.32C1009.31 127.935 1064.04 123.985 1118.62 116.906" stroke="#707A8B" stroke-width="0.9805" stroke-miterlimit="10" stroke-linecap="round" stroke-dasharray="2 6"/>
<path d="M-71.4598 363.684C-10.4502 350.456 39.0565 310.364 95.5543 286.358C119.462 275.083 145.365 271.233 170.936 266.029C192.893 260.666 213.932 252.378 234.516 243.091C392.62 166.838 399.141 169.586 551.838 238.239C608.305 261.76 656.912 283.487 717.795 249.187C764.153 224.994 802.127 188.484 848.837 164.784C883.749 145.772 924.303 145.822 962.656 141.084C1017.57 135.59 1072.59 131.3 1127.34 124.234" stroke="#707A8B" stroke-width="0.9805" stroke-miterlimit="10" stroke-linecap="round" stroke-dasharray="2 6"/>
<path d="M-76.9258 368.113C-14.9187 355.065 36.7644 316.277 94.9136 293.3C119 282.736 144.808 279.309 170.252 273.995C193.055 268.403 214.863 259.679 236.192 250.12C391.711 174.655 401.904 182.275 552.219 245.428C608.226 267.485 658.824 288.873 718.923 256.567C766.582 233.143 805.803 196.8 853.462 173.376C888.526 154.775 928.779 154.468 967.131 149.73C1023.51 143.857 1080.02 139.255 1136.32 132.016" stroke="#707A8B" stroke-width="0.9805" stroke-miterlimit="10" stroke-linecap="round" stroke-dasharray="2 6"/>
<path d="M-82.6691 372.022C-20.7826 359.561 32.34 323.51 90.7956 301.585C115.111 291.637 140.815 287.704 166.337 282.828C188.843 277.577 210.48 269.303 231.587 260.058C386.914 185.674 398.193 191.889 550.228 251.927C608.024 273.331 660.813 294.697 722.385 262.709C771.192 239.643 811.957 203.359 861.068 180.881C896.738 163.456 936.967 163.313 975.317 158.343C1032.07 152.334 1088.95 147.364 1145.65 140.057" stroke="#707A8B" stroke-width="0.9805" stroke-miterlimit="10" stroke-linecap="round" stroke-dasharray="2 6"/>
<path d="M-88.6158 375.618C-26.9736 363.867 27.4159 330.77 86.0795 310.09C111.665 300.145 138.765 296.324 165.53 291.151C186.346 286.36 206.519 278.93 226.062 270.488C379.933 198.11 392.734 201.131 545.641 257.821C603.977 278.173 661.43 300.478 723.535 269.926C773.619 247.792 815.758 212.018 865.868 189.952C901.692 173.17 941.768 172.617 980.168 167.551C1038.54 161.108 1096.91 155.827 1155.2 148.25" stroke="#707A8B" stroke-width="0.9805" stroke-miterlimit="10" stroke-linecap="round" stroke-dasharray="2 6"/>
<path d="M-94.7784 379.066C-33.2809 368.067 22.3001 337.953 81.2711 318.559C105.845 309.992 131.369 305.348 156.947 301.306C177.667 297.171 197.771 290.466 217.292 282.42C365.247 215.538 380.339 208.098 531.672 261.01C591.145 280.325 657.621 306.87 721.21 278.496C772.776 258.074 816.365 223.015 867.021 200.829C904.036 183.381 945.353 182.298 985.071 177.139C1045.01 170.358 1105.07 164.616 1164.95 156.77" stroke="#707A8B" stroke-width="0.9805" stroke-miterlimit="10" stroke-linecap="round" stroke-dasharray="2 6"/>
<path d="M-101.136 382.434C-39.5349 372.174 17.3357 344.852 76.8393 326.894C118.064 313.036 162.326 312.82 202.811 296.515C259.004 275.34 312.272 242.422 373.211 236.982C412.724 234.46 450.69 245.543 487.481 255.967C525.473 267.118 562.806 280.139 601.556 289.228C640.261 299.11 682.351 301.703 721.173 286.159C774.142 267.013 819.378 232.519 871.107 210.719C909.741 193.303 952.451 192.1 993.587 186.658C1054.02 179.619 1114.55 173.55 1174.87 165.541" stroke="#707A8B" stroke-width="0.9805" stroke-miterlimit="10" stroke-linecap="round" stroke-dasharray="2 6"/>
<path d="M-107.641 386.087C-46.0105 376.591 11.9262 352.142 71.7878 335.607C113.144 322.789 157.057 322.544 197.696 307.115C306.345 264.963 347.648 227.403 468.098 260.744C509.92 271.274 550.767 284.644 592.883 294.369C634.754 304.571 680.021 309.111 722.428 293.426C777.842 274.941 825.515 239.95 879.84 218.99C917.69 203.568 958.93 202.279 998.769 196.766C1060.84 189.362 1123.04 182.765 1185.05 174.527" stroke="#707A8B" stroke-width="0.9805" stroke-miterlimit="10" stroke-linecap="round" stroke-dasharray="2 6"/>
<path d="M-114.148 389.972C-51.3186 380.972 8.74948 358.618 70.3141 343.482C111.531 332.111 154.919 331.825 195.213 316.832C289.409 281.112 341.661 242.048 446.799 266.296C493.895 275.758 539.455 289.971 586.257 300.238C630.068 310.198 676.913 316.025 721.642 301.357C785.794 282.251 840.471 241.061 904.775 222.365C940.1 212.675 976.903 211.062 1012.96 205.842C1073.86 198.477 1134.71 191.671 1195.58 183.541" stroke="#707A8B" stroke-width="0.9805" stroke-miterlimit="10" stroke-linecap="round" stroke-dasharray="2 6"/>
<path d="M-119.857 393.727C-56.8511 385.205 4.07986 365.177 66.0756 351.203C107.522 340.681 150.785 340.284 191.257 326.003C280.02 293.428 335.159 254.167 434.457 273.402C483.56 281.665 531.159 295.444 579.704 305.619C625.606 315.515 674.325 322.289 721.426 308.309C786.906 290.504 843.306 250.085 908.607 231.569C945.401 221.733 983.647 219.905 1021.19 214.374C1082.44 206.804 1143.71 199.768 1204.8 191.557" stroke="#707A8B" stroke-width="0.9805" stroke-miterlimit="10" stroke-linecap="round" stroke-dasharray="2 6"/>
<path d="M-125.637 397.973C-62.554 389.889 -1.03442 372.13 61.218 359.304C102.769 349.52 145.931 349.083 186.683 335.554C273.368 305.134 327.537 266.227 424.863 281.522C477.396 288.768 528.258 302.677 580.088 312.585C626.408 321.785 675.221 327.903 722.603 314.908C789.185 298.021 847.211 258.563 913.336 240.446C950.23 230.883 988.374 228.782 1025.85 223.278C1088.58 215.398 1151.4 207.955 1214.18 199.516" stroke="#707A8B" stroke-width="0.9805" stroke-miterlimit="10" stroke-linecap="round" stroke-dasharray="2 6"/>
<path d="M-131.29 402.794C-68.0803 395.052 -6.12296 379.385 56.4353 367.612C98.1652 358.538 141.276 357.964 182.307 345.187C213.822 335.723 243.432 321.132 274.134 309.48C320.631 291.374 371.287 283.55 420.082 290.528C474.426 296.958 527.078 310.447 580.698 319.935C626.239 328.176 673.829 333.963 720.425 322.729C789.483 307.268 850.098 267.722 918.339 249.61C955.235 240.28 993.328 238.042 1030.77 232.47C1095.08 224.252 1159.43 216.403 1223.73 207.721" stroke="#707A8B" stroke-width="0.9805" stroke-miterlimit="10" stroke-linecap="round" stroke-dasharray="2 6"/>
<path d="M-136.967 408.241C-73.5323 400.65 -10.9642 386.856 52.0236 376.013C92.9875 367.839 135.099 366.853 175.392 355.509C209.622 346.064 241.465 330.194 274.704 318.084C317.481 302.266 363.653 294.445 408.594 299.024C466.416 304.109 522.405 317.7 579.261 327.017C625.47 334.782 673.409 340.596 720.608 330.074C790.967 315.614 853.306 276.837 922.668 258.782C961.007 249.237 1000.54 246.784 1039.43 240.996C1104.11 232.643 1168.71 224.549 1233.33 215.826" stroke="#707A8B" stroke-width="0.9805" stroke-miterlimit="10" stroke-linecap="round" stroke-dasharray="2 6"/>
<path d="M-142.511 414.491C-78.9768 406.941 -16.0486 394.8 47.169 384.805C89.4554 377.003 132.786 375.882 174.348 364.31C208.926 354.893 241.141 338.888 274.88 326.984C316.493 312.133 361.098 304.65 404.687 308.324C464.172 312.648 521.902 325.914 580.448 334.77C625.779 341.767 672.546 347.388 718.857 338.12C791.664 324.785 856.593 285.92 928.095 267.706C966.41 258.325 1005.89 255.735 1044.76 249.879C1110.92 241.214 1177.09 232.782 1243.26 223.886" stroke="#707A8B" stroke-width="0.9805" stroke-miterlimit="10" stroke-linecap="round" stroke-dasharray="2 6"/>
<path d="M-147.981 421.647C-83.0298 413.813 -18.3254 402.809 46.4399 393.336C87.6115 386.406 129.643 384.75 170.19 374.09C207.307 364.447 241.754 347.163 278.006 334.964C316.321 322.168 356.944 315.128 396.961 317.387C459.601 320.638 520.346 334.047 581.953 342.718C627.505 349.169 674.346 354.762 720.783 345.836C794.714 332.79 861.168 294.844 933.666 276.578C973.324 266.94 1014.18 264.162 1054.33 258.145C1120.7 249.563 1187.04 240.912 1253.28 231.988" stroke="#707A8B" stroke-width="0.9805" stroke-miterlimit="10" stroke-linecap="round" stroke-dasharray="2 6"/>
<path d="M-153.321 429.836C-88.2966 421.743 -23.3841 411.983 41.5587 402.988C83.0316 396.413 125.283 394.211 166.182 384.043C204.173 374.703 239.342 357.311 276.364 344.909C314.407 332.291 354.63 325.085 394.32 326.92C458.45 329.628 520.835 342.671 583.96 351.099C629.683 357.099 676.548 362.76 723.038 354.202C798.015 341.241 866.044 304.118 939.587 285.704C980.563 275.742 1022.73 272.87 1064.33 266.638C1130.7 257.823 1197.09 249.077 1263.5 240.167" stroke="#707A8B" stroke-width="0.9805" stroke-miterlimit="10" stroke-linecap="round" stroke-dasharray="2 6"/>
<path d="M-158.456 439.036C-92.0174 430.194 -25.53 421.257 40.9082 412.415C81.314 406.384 122.29 403.483 162.173 393.996C200.216 385.024 235.637 368.083 272.484 355.435C311.146 342.435 351.862 334.507 392.323 336.139C459.464 338.525 524.915 351.847 591.027 360.117C635.225 365.43 680.545 370.801 725.419 362.677C802.809 349.379 873.301 311.824 949.384 293.416C990.487 283.795 1032.68 280.759 1074.36 274.499C1140.85 265.794 1207.33 256.857 1273.77 248.015" stroke="#707A8B" stroke-width="0.9805" stroke-miterlimit="10" stroke-linecap="round" stroke-dasharray="2 6"/>
</g>
<path d="M96.6279 78.3584V81.7861H85.4951V78.3584H96.6279ZM86.7988 69.6719V91H82.4043V69.6719H86.7988ZM99.7627 69.6719V91H95.3828V69.6719H99.7627ZM109.159 69.6719V91H104.779V69.6719H109.159ZM131.079 79.8525V88.3047C130.747 88.7051 130.235 89.1396 129.541 89.6084C128.848 90.0674 127.954 90.4629 126.861 90.7949C125.767 91.127 124.444 91.293 122.891 91.293C121.514 91.293 120.259 91.0684 119.126 90.6191C117.993 90.1602 117.017 89.4912 116.196 88.6123C115.386 87.7334 114.761 86.6592 114.321 85.3896C113.882 84.1104 113.662 82.6504 113.662 81.0098V79.6768C113.662 78.0361 113.872 76.5762 114.292 75.2969C114.722 74.0176 115.332 72.9385 116.123 72.0596C116.914 71.1807 117.857 70.5117 118.95 70.0527C120.044 69.5938 121.26 69.3643 122.598 69.3643C124.453 69.3643 125.977 69.667 127.168 70.2725C128.36 70.8682 129.268 71.6982 129.893 72.7627C130.528 73.8174 130.918 75.0283 131.065 76.3955H126.802C126.695 75.6729 126.489 75.043 126.187 74.5059C125.884 73.9688 125.449 73.5488 124.883 73.2461C124.326 72.9434 123.604 72.792 122.715 72.792C121.983 72.792 121.328 72.9434 120.752 73.2461C120.186 73.5391 119.707 73.9736 119.317 74.5498C118.926 75.126 118.628 75.8389 118.423 76.6885C118.218 77.5381 118.115 78.5244 118.115 79.6475V81.0098C118.115 82.123 118.223 83.1094 118.438 83.9688C118.653 84.8184 118.97 85.5361 119.39 86.1221C119.82 86.6982 120.347 87.1328 120.972 87.4258C121.597 87.7188 122.324 87.8652 123.154 87.8652C123.848 87.8652 124.424 87.8066 124.883 87.6895C125.352 87.5723 125.728 87.4307 126.011 87.2646C126.304 87.0889 126.529 86.9229 126.685 86.7666V82.9873H122.671V79.8525H131.079ZM149.748 78.3584V81.7861H138.615V78.3584H149.748ZM139.919 69.6719V91H135.524V69.6719H139.919ZM152.883 69.6719V91H148.503V69.6719H152.883ZM174.648 73.3193L168.848 91H164.175L172.1 69.6719H175.073L174.648 73.3193ZM179.468 91L173.652 73.3193L173.184 69.6719H176.187L184.155 91H179.468ZM179.204 83.0605V86.5029H167.939V83.0605H179.204ZM195.338 83.3975H189.904V79.9697H195.338C196.178 79.9697 196.862 79.833 197.389 79.5596C197.917 79.2764 198.302 78.8857 198.546 78.3877C198.791 77.8896 198.913 77.3281 198.913 76.7031C198.913 76.0684 198.791 75.4775 198.546 74.9307C198.302 74.3838 197.917 73.9443 197.389 73.6123C196.862 73.2803 196.178 73.1143 195.338 73.1143H191.427V91H187.033V69.6719H195.338C197.008 69.6719 198.439 69.9746 199.63 70.5801C200.832 71.1758 201.75 72.001 202.384 73.0557C203.019 74.1104 203.337 75.3164 203.337 76.6738C203.337 78.0508 203.019 79.2422 202.384 80.248C201.75 81.2539 200.832 82.0303 199.63 82.5771C198.439 83.124 197.008 83.3975 195.338 83.3975ZM210.198 69.6719L214.652 79.3984L219.105 69.6719H223.895L216.878 83.2363V91H212.425V83.2363L205.394 69.6719H210.198Z" fill="#FCCA46"/>
<path d="M100.816 122.803V115.49H102.451V125H100.896L100.816 122.803ZM101.124 120.799L101.801 120.781C101.801 121.414 101.733 122 101.599 122.539C101.47 123.072 101.259 123.535 100.966 123.928C100.673 124.32 100.289 124.628 99.8145 124.851C99.3398 125.067 98.7627 125.176 98.083 125.176C97.6201 125.176 97.1953 125.108 96.8086 124.974C96.4277 124.839 96.0996 124.631 95.8242 124.35C95.5488 124.068 95.335 123.702 95.1826 123.251C95.0361 122.8 94.9629 122.258 94.9629 121.625V115.49H96.5889V121.643C96.5889 122.07 96.6357 122.425 96.7295 122.706C96.8291 122.981 96.9609 123.201 97.125 123.365C97.2949 123.523 97.4824 123.635 97.6875 123.699C97.8984 123.764 98.1152 123.796 98.3379 123.796C99.0293 123.796 99.5771 123.664 99.9814 123.4C100.386 123.131 100.676 122.771 100.852 122.319C101.033 121.862 101.124 121.355 101.124 120.799ZM106.556 117.318V128.656H104.921V115.49H106.415L106.556 117.318ZM112.963 120.166V120.351C112.963 121.042 112.881 121.684 112.717 122.275C112.553 122.861 112.312 123.371 111.996 123.805C111.686 124.238 111.302 124.575 110.845 124.815C110.388 125.056 109.863 125.176 109.271 125.176C108.668 125.176 108.135 125.076 107.672 124.877C107.209 124.678 106.816 124.388 106.494 124.007C106.172 123.626 105.914 123.169 105.721 122.636C105.533 122.103 105.404 121.502 105.334 120.834V119.85C105.404 119.146 105.536 118.517 105.729 117.96C105.923 117.403 106.178 116.929 106.494 116.536C106.816 116.138 107.206 115.836 107.663 115.631C108.12 115.42 108.647 115.314 109.245 115.314C109.843 115.314 110.373 115.432 110.836 115.666C111.299 115.895 111.688 116.223 112.005 116.65C112.321 117.078 112.559 117.591 112.717 118.188C112.881 118.78 112.963 119.439 112.963 120.166ZM111.328 120.351V120.166C111.328 119.691 111.278 119.246 111.179 118.83C111.079 118.408 110.924 118.039 110.713 117.723C110.508 117.4 110.244 117.148 109.922 116.967C109.6 116.779 109.216 116.686 108.771 116.686C108.36 116.686 108.003 116.756 107.698 116.896C107.399 117.037 107.145 117.228 106.934 117.468C106.723 117.702 106.55 117.972 106.415 118.276C106.286 118.575 106.189 118.886 106.125 119.208V121.484C106.242 121.895 106.406 122.281 106.617 122.645C106.828 123.002 107.109 123.292 107.461 123.515C107.812 123.731 108.255 123.84 108.788 123.84C109.228 123.84 109.605 123.749 109.922 123.567C110.244 123.38 110.508 123.125 110.713 122.803C110.924 122.48 111.079 122.111 111.179 121.695C111.278 121.273 111.328 120.825 111.328 120.351ZM123.483 115.49V116.738H118.342V115.49H123.483ZM120.082 113.179H121.708V122.645C121.708 122.967 121.758 123.21 121.857 123.374C121.957 123.538 122.086 123.646 122.244 123.699C122.402 123.752 122.572 123.778 122.754 123.778C122.889 123.778 123.029 123.767 123.176 123.743C123.328 123.714 123.442 123.69 123.519 123.673L123.527 125C123.398 125.041 123.229 125.079 123.018 125.114C122.812 125.155 122.563 125.176 122.271 125.176C121.872 125.176 121.506 125.097 121.172 124.938C120.838 124.78 120.571 124.517 120.372 124.147C120.179 123.772 120.082 123.269 120.082 122.636V113.179ZM124.784 120.351V120.148C124.784 119.463 124.884 118.827 125.083 118.241C125.282 117.649 125.569 117.137 125.944 116.703C126.319 116.264 126.773 115.924 127.307 115.684C127.84 115.438 128.438 115.314 129.1 115.314C129.768 115.314 130.368 115.438 130.901 115.684C131.44 115.924 131.897 116.264 132.272 116.703C132.653 117.137 132.943 117.649 133.143 118.241C133.342 118.827 133.441 119.463 133.441 120.148V120.351C133.441 121.036 133.342 121.672 133.143 122.258C132.943 122.844 132.653 123.356 132.272 123.796C131.897 124.229 131.443 124.569 130.91 124.815C130.383 125.056 129.785 125.176 129.117 125.176C128.449 125.176 127.849 125.056 127.315 124.815C126.782 124.569 126.325 124.229 125.944 123.796C125.569 123.356 125.282 122.844 125.083 122.258C124.884 121.672 124.784 121.036 124.784 120.351ZM126.41 120.148V120.351C126.41 120.825 126.466 121.273 126.577 121.695C126.688 122.111 126.855 122.48 127.078 122.803C127.307 123.125 127.591 123.38 127.931 123.567C128.271 123.749 128.666 123.84 129.117 123.84C129.562 123.84 129.952 123.749 130.286 123.567C130.626 123.38 130.907 123.125 131.13 122.803C131.353 122.48 131.52 122.111 131.631 121.695C131.748 121.273 131.807 120.825 131.807 120.351V120.148C131.807 119.68 131.748 119.237 131.631 118.821C131.52 118.399 131.35 118.027 131.121 117.705C130.898 117.377 130.617 117.119 130.277 116.932C129.943 116.744 129.551 116.65 129.1 116.65C128.654 116.65 128.262 116.744 127.922 116.932C127.588 117.119 127.307 117.377 127.078 117.705C126.855 118.027 126.688 118.399 126.577 118.821C126.466 119.237 126.41 119.68 126.41 120.148Z" fill="white"/>
<path d="M144.488 127.004H147.066C148.329 127.004 149.371 126.796 150.191 126.379C151.025 125.949 151.643 125.37 152.047 124.641C152.464 123.898 152.672 123.065 152.672 122.141C152.672 121.047 152.49 120.129 152.125 119.387C151.76 118.645 151.214 118.085 150.484 117.707C149.755 117.329 148.831 117.141 147.711 117.141C146.695 117.141 145.797 117.342 145.016 117.746C144.247 118.137 143.642 118.697 143.199 119.426C142.77 120.155 142.555 121.014 142.555 122.004H138.941C138.941 120.559 139.306 119.243 140.035 118.059C140.764 116.874 141.786 115.93 143.102 115.227C144.43 114.523 145.966 114.172 147.711 114.172C149.43 114.172 150.934 114.478 152.223 115.09C153.512 115.689 154.514 116.587 155.23 117.785C155.947 118.97 156.305 120.448 156.305 122.219C156.305 122.935 156.135 123.703 155.797 124.523C155.471 125.331 154.957 126.086 154.254 126.789C153.564 127.492 152.665 128.072 151.559 128.527C150.452 128.97 149.124 129.191 147.574 129.191H144.488V127.004ZM144.488 129.973V127.805H147.574C149.384 127.805 150.882 128.02 152.066 128.449C153.251 128.879 154.182 129.452 154.859 130.168C155.549 130.884 156.031 131.672 156.305 132.531C156.591 133.378 156.734 134.224 156.734 135.07C156.734 136.398 156.507 137.577 156.051 138.605C155.608 139.634 154.977 140.507 154.156 141.223C153.349 141.939 152.398 142.479 151.305 142.844C150.211 143.208 149.02 143.391 147.73 143.391C146.493 143.391 145.328 143.215 144.234 142.863C143.154 142.512 142.197 142.004 141.363 141.34C140.53 140.663 139.879 139.836 139.41 138.859C138.941 137.87 138.707 136.743 138.707 135.48H142.32C142.32 136.47 142.535 137.336 142.965 138.078C143.408 138.82 144.033 139.4 144.84 139.816C145.66 140.22 146.624 140.422 147.73 140.422C148.837 140.422 149.788 140.233 150.582 139.855C151.389 139.465 152.008 138.879 152.438 138.098C152.88 137.316 153.102 136.333 153.102 135.148C153.102 133.964 152.854 132.993 152.359 132.238C151.865 131.47 151.161 130.904 150.25 130.539C149.352 130.161 148.29 129.973 147.066 129.973H144.488ZM166.285 129.465L163.395 128.723L164.82 114.562H179.41V117.902H167.887L167.027 125.637C167.548 125.337 168.206 125.057 169 124.797C169.807 124.536 170.732 124.406 171.773 124.406C173.089 124.406 174.267 124.634 175.309 125.09C176.35 125.533 177.236 126.171 177.965 127.004C178.707 127.837 179.273 128.84 179.664 130.012C180.055 131.184 180.25 132.492 180.25 133.938C180.25 135.305 180.061 136.561 179.684 137.707C179.319 138.853 178.766 139.855 178.023 140.715C177.281 141.561 176.344 142.219 175.211 142.688C174.091 143.156 172.77 143.391 171.246 143.391C170.1 143.391 169.013 143.234 167.984 142.922C166.969 142.596 166.057 142.108 165.25 141.457C164.456 140.793 163.805 139.973 163.297 138.996C162.802 138.007 162.49 136.848 162.359 135.52H165.797C165.953 136.587 166.266 137.486 166.734 138.215C167.203 138.944 167.815 139.497 168.57 139.875C169.339 140.24 170.23 140.422 171.246 140.422C172.105 140.422 172.867 140.272 173.531 139.973C174.195 139.673 174.755 139.243 175.211 138.684C175.667 138.124 176.012 137.447 176.246 136.652C176.493 135.858 176.617 134.966 176.617 133.977C176.617 133.078 176.493 132.245 176.246 131.477C175.999 130.708 175.628 130.038 175.133 129.465C174.651 128.892 174.059 128.449 173.355 128.137C172.652 127.811 171.845 127.648 170.934 127.648C169.723 127.648 168.805 127.811 168.18 128.137C167.568 128.462 166.936 128.905 166.285 129.465ZM183.902 121.535V120.031C183.902 118.951 184.137 117.967 184.605 117.082C185.074 116.197 185.745 115.487 186.617 114.953C187.49 114.419 188.525 114.152 189.723 114.152C190.947 114.152 191.988 114.419 192.848 114.953C193.72 115.487 194.391 116.197 194.859 117.082C195.328 117.967 195.562 118.951 195.562 120.031V121.535C195.562 122.59 195.328 123.56 194.859 124.445C194.404 125.331 193.74 126.04 192.867 126.574C192.008 127.108 190.973 127.375 189.762 127.375C188.551 127.375 187.503 127.108 186.617 126.574C185.745 126.04 185.074 125.331 184.605 124.445C184.137 123.56 183.902 122.59 183.902 121.535ZM186.617 120.031V121.535C186.617 122.134 186.728 122.701 186.949 123.234C187.184 123.768 187.535 124.204 188.004 124.543C188.473 124.868 189.059 125.031 189.762 125.031C190.465 125.031 191.044 124.868 191.5 124.543C191.956 124.204 192.294 123.768 192.516 123.234C192.737 122.701 192.848 122.134 192.848 121.535V120.031C192.848 119.419 192.73 118.846 192.496 118.312C192.275 117.766 191.93 117.329 191.461 117.004C191.005 116.665 190.426 116.496 189.723 116.496C189.033 116.496 188.453 116.665 187.984 117.004C187.529 117.329 187.184 117.766 186.949 118.312C186.728 118.846 186.617 119.419 186.617 120.031ZM197.75 137.551V136.027C197.75 134.96 197.984 133.983 198.453 133.098C198.922 132.212 199.592 131.503 200.465 130.969C201.337 130.435 202.372 130.168 203.57 130.168C204.794 130.168 205.836 130.435 206.695 130.969C207.568 131.503 208.238 132.212 208.707 133.098C209.176 133.983 209.41 134.96 209.41 136.027V137.551C209.41 138.618 209.176 139.595 208.707 140.48C208.251 141.366 207.587 142.076 206.715 142.609C205.855 143.143 204.82 143.41 203.609 143.41C202.398 143.41 201.357 143.143 200.484 142.609C199.612 142.076 198.935 141.366 198.453 140.48C197.984 139.595 197.75 138.618 197.75 137.551ZM200.465 136.027V137.551C200.465 138.15 200.576 138.723 200.797 139.27C201.031 139.803 201.383 140.24 201.852 140.578C202.32 140.904 202.906 141.066 203.609 141.066C204.312 141.066 204.892 140.904 205.348 140.578C205.816 140.24 206.161 139.803 206.383 139.27C206.604 138.736 206.715 138.163 206.715 137.551V136.027C206.715 135.415 206.598 134.842 206.363 134.309C206.142 133.775 205.797 133.345 205.328 133.02C204.872 132.681 204.286 132.512 203.57 132.512C202.88 132.512 202.301 132.681 201.832 133.02C201.376 133.345 201.031 133.775 200.797 134.309C200.576 134.842 200.465 135.415 200.465 136.027ZM204.469 118.605L190.582 140.832L188.551 139.543L202.438 117.316L204.469 118.605Z" fill="white"/>
<line x1="326" y1="57" x2="326" y2="157" stroke="white" stroke-opacity="0.4" stroke-width="3"/>
<path d="M440.628 78.3584V81.7861H429.495V78.3584H440.628ZM430.799 69.6719V91H426.404V69.6719H430.799ZM443.763 69.6719V91H439.383V69.6719H443.763ZM453.159 69.6719V91H448.779V69.6719H453.159ZM475.079 79.8525V88.3047C474.747 88.7051 474.235 89.1396 473.541 89.6084C472.848 90.0674 471.954 90.4629 470.861 90.7949C469.767 91.127 468.444 91.293 466.891 91.293C465.514 91.293 464.259 91.0684 463.126 90.6191C461.993 90.1602 461.017 89.4912 460.196 88.6123C459.386 87.7334 458.761 86.6592 458.321 85.3896C457.882 84.1104 457.662 82.6504 457.662 81.0098V79.6768C457.662 78.0361 457.872 76.5762 458.292 75.2969C458.722 74.0176 459.332 72.9385 460.123 72.0596C460.914 71.1807 461.857 70.5117 462.95 70.0527C464.044 69.5938 465.26 69.3643 466.598 69.3643C468.453 69.3643 469.977 69.667 471.168 70.2725C472.36 70.8682 473.268 71.6982 473.893 72.7627C474.528 73.8174 474.918 75.0283 475.065 76.3955H470.802C470.695 75.6729 470.489 75.043 470.187 74.5059C469.884 73.9688 469.449 73.5488 468.883 73.2461C468.326 72.9434 467.604 72.792 466.715 72.792C465.983 72.792 465.328 72.9434 464.752 73.2461C464.186 73.5391 463.707 73.9736 463.317 74.5498C462.926 75.126 462.628 75.8389 462.423 76.6885C462.218 77.5381 462.115 78.5244 462.115 79.6475V81.0098C462.115 82.123 462.223 83.1094 462.438 83.9688C462.653 84.8184 462.97 85.5361 463.39 86.1221C463.82 86.6982 464.347 87.1328 464.972 87.4258C465.597 87.7188 466.324 87.8652 467.154 87.8652C467.848 87.8652 468.424 87.8066 468.883 87.6895C469.352 87.5723 469.728 87.4307 470.011 87.2646C470.304 87.0889 470.529 86.9229 470.685 86.7666V82.9873H466.671V79.8525H475.079ZM493.748 78.3584V81.7861H482.615V78.3584H493.748ZM483.919 69.6719V91H479.524V69.6719H483.919ZM496.883 69.6719V91H492.503V69.6719H496.883ZM515.917 87.5723V91H504.565V87.5723H515.917ZM506 69.6719V91H501.606V69.6719H506ZM514.438 78.3584V81.6982H504.565V78.3584H514.438ZM515.903 69.6719V73.1143H504.565V69.6719H515.903ZM519.381 69.6719H527.335C528.966 69.6719 530.367 69.916 531.539 70.4043C532.721 70.8926 533.629 71.6152 534.264 72.5723C534.898 73.5293 535.216 74.7061 535.216 76.1025C535.216 77.2451 535.021 78.2266 534.63 79.0469C534.249 79.8574 533.707 80.5361 533.004 81.083C532.311 81.6201 531.495 82.0498 530.558 82.3721L529.166 83.1045H522.252L522.223 79.6768H527.364C528.136 79.6768 528.775 79.54 529.283 79.2666C529.791 78.9932 530.172 78.6123 530.426 78.124C530.689 77.6357 530.821 77.0693 530.821 76.4248C530.821 75.7412 530.694 75.1504 530.44 74.6523C530.187 74.1543 529.801 73.7734 529.283 73.5098C528.766 73.2461 528.116 73.1143 527.335 73.1143H523.775V91H519.381V69.6719ZM531.305 91L526.441 81.4932L531.085 81.4639L536.007 90.7949V91H531.305ZM560.234 83.9248H564.613C564.526 85.3604 564.13 86.6348 563.427 87.748C562.734 88.8613 561.762 89.7305 560.512 90.3555C559.272 90.9805 557.778 91.293 556.029 91.293C554.662 91.293 553.437 91.0586 552.353 90.5898C551.269 90.1113 550.341 89.4277 549.57 88.5391C548.808 87.6504 548.227 86.5762 547.826 85.3164C547.426 84.0566 547.226 82.6455 547.226 81.083V79.6035C547.226 78.041 547.431 76.6299 547.841 75.3701C548.261 74.1006 548.857 73.0215 549.628 72.1328C550.409 71.2441 551.342 70.5605 552.426 70.082C553.51 69.6035 554.721 69.3643 556.059 69.3643C557.836 69.3643 559.335 69.6865 560.556 70.3311C561.786 70.9756 562.738 71.8643 563.412 72.9971C564.096 74.1299 564.506 75.4189 564.643 76.8643H560.248C560.199 76.0049 560.029 75.2773 559.736 74.6816C559.443 74.0762 558.998 73.6221 558.403 73.3193C557.817 73.0068 557.035 72.8506 556.059 72.8506C555.326 72.8506 554.687 72.9873 554.14 73.2607C553.593 73.5342 553.134 73.9492 552.763 74.5059C552.392 75.0625 552.113 75.7656 551.928 76.6152C551.752 77.4551 551.664 78.4414 551.664 79.5742V81.083C551.664 82.1865 551.747 83.1582 551.913 83.998C552.079 84.8281 552.333 85.5312 552.675 86.1074C553.027 86.6738 553.476 87.1035 554.023 87.3965C554.579 87.6797 555.248 87.8213 556.029 87.8213C556.947 87.8213 557.704 87.6748 558.3 87.3818C558.896 87.0889 559.35 86.6543 559.662 86.0781C559.985 85.502 560.175 84.7842 560.234 83.9248ZM577.071 73.3193L571.27 91H566.597L574.522 69.6719H577.496L577.071 73.3193ZM581.89 91L576.075 73.3193L575.606 69.6719H578.609L586.578 91H581.89ZM581.627 83.0605V86.5029H570.362V83.0605H581.627ZM597.761 83.3975H592.327V79.9697H597.761C598.601 79.9697 599.285 79.833 599.812 79.5596C600.339 79.2764 600.725 78.8857 600.969 78.3877C601.213 77.8896 601.335 77.3281 601.335 76.7031C601.335 76.0684 601.213 75.4775 600.969 74.9307C600.725 74.3838 600.339 73.9443 599.812 73.6123C599.285 73.2803 598.601 73.1143 597.761 73.1143H593.85V91H589.455V69.6719H597.761C599.431 69.6719 600.862 69.9746 602.053 70.5801C603.254 71.1758 604.172 72.001 604.807 73.0557C605.442 74.1104 605.759 75.3164 605.759 76.6738C605.759 78.0508 605.442 79.2422 604.807 80.248C604.172 81.2539 603.254 82.0303 602.053 82.5771C600.862 83.124 599.431 83.3975 597.761 83.3975ZM615.932 73.3193L610.131 91H605.458L613.383 69.6719H616.356L615.932 73.3193ZM620.751 91L614.936 73.3193L614.467 69.6719H617.47L625.438 91H620.751ZM620.487 83.0605V86.5029H609.223V83.0605H620.487ZM640.416 83.9248H644.796C644.708 85.3604 644.312 86.6348 643.609 87.748C642.916 88.8613 641.944 89.7305 640.694 90.3555C639.454 90.9805 637.96 91.293 636.212 91.293C634.844 91.293 633.619 91.0586 632.535 90.5898C631.451 90.1113 630.523 89.4277 629.752 88.5391C628.99 87.6504 628.409 86.5762 628.008 85.3164C627.608 84.0566 627.408 82.6455 627.408 81.083V79.6035C627.408 78.041 627.613 76.6299 628.023 75.3701C628.443 74.1006 629.039 73.0215 629.81 72.1328C630.591 71.2441 631.524 70.5605 632.608 70.082C633.692 69.6035 634.903 69.3643 636.241 69.3643C638.018 69.3643 639.517 69.6865 640.738 70.3311C641.968 70.9756 642.921 71.8643 643.594 72.9971C644.278 74.1299 644.688 75.4189 644.825 76.8643H640.43C640.381 76.0049 640.211 75.2773 639.918 74.6816C639.625 74.0762 639.18 73.6221 638.585 73.3193C637.999 73.0068 637.217 72.8506 636.241 72.8506C635.508 72.8506 634.869 72.9873 634.322 73.2607C633.775 73.5342 633.316 73.9492 632.945 74.5059C632.574 75.0625 632.296 75.7656 632.11 76.6152C631.934 77.4551 631.846 78.4414 631.846 79.5742V81.083C631.846 82.1865 631.929 83.1582 632.095 83.998C632.261 84.8281 632.515 85.5312 632.857 86.1074C633.209 86.6738 633.658 87.1035 634.205 87.3965C634.761 87.6797 635.43 87.8213 636.212 87.8213C637.129 87.8213 637.886 87.6748 638.482 87.3818C639.078 87.0889 639.532 86.6543 639.844 86.0781C640.167 85.502 640.357 84.7842 640.416 83.9248ZM653.254 69.6719V91H648.874V69.6719H653.254ZM667.367 69.6719V91H662.987V69.6719H667.367ZM673.929 69.6719V73.1143H656.527V69.6719H673.929ZM680.498 69.6719L684.952 79.3984L689.405 69.6719H694.195L687.178 83.2363V91H682.725V83.2363L675.694 69.6719H680.498Z" fill="#FCCA46"/>
<path d="M447.82 109.953V115.91H444.891V109.953H447.82ZM447.469 141.848V147.062H444.559V141.848H447.469ZM451.375 135.676C451.375 134.895 451.199 134.191 450.848 133.566C450.496 132.941 449.917 132.368 449.109 131.848C448.302 131.327 447.221 130.845 445.867 130.402C444.227 129.895 442.807 129.276 441.609 128.547C440.424 127.818 439.507 126.913 438.855 125.832C438.217 124.751 437.898 123.443 437.898 121.906C437.898 120.305 438.243 118.924 438.934 117.766C439.624 116.607 440.6 115.715 441.863 115.09C443.126 114.465 444.611 114.152 446.316 114.152C447.645 114.152 448.829 114.354 449.871 114.758C450.913 115.148 451.792 115.734 452.508 116.516C453.237 117.297 453.79 118.254 454.168 119.387C454.559 120.52 454.754 121.828 454.754 123.312H451.16C451.16 122.44 451.056 121.639 450.848 120.91C450.639 120.181 450.327 119.549 449.91 119.016C449.493 118.469 448.986 118.052 448.387 117.766C447.788 117.466 447.098 117.316 446.316 117.316C445.223 117.316 444.318 117.505 443.602 117.883C442.898 118.26 442.378 118.794 442.039 119.484C441.701 120.161 441.531 120.949 441.531 121.848C441.531 122.681 441.701 123.41 442.039 124.035C442.378 124.66 442.951 125.227 443.758 125.734C444.578 126.229 445.704 126.717 447.137 127.199C448.816 127.733 450.242 128.365 451.414 129.094C452.586 129.81 453.478 130.695 454.09 131.75C454.702 132.792 455.008 134.087 455.008 135.637C455.008 137.316 454.63 138.736 453.875 139.895C453.12 141.04 452.059 141.913 450.691 142.512C449.324 143.111 447.723 143.41 445.887 143.41C444.78 143.41 443.686 143.26 442.605 142.961C441.525 142.661 440.548 142.173 439.676 141.496C438.803 140.806 438.107 139.901 437.586 138.781C437.065 137.648 436.805 136.262 436.805 134.621H440.438C440.438 135.728 440.594 136.646 440.906 137.375C441.232 138.091 441.661 138.664 442.195 139.094C442.729 139.51 443.315 139.81 443.953 139.992C444.604 140.161 445.249 140.246 445.887 140.246C447.059 140.246 448.048 140.064 448.855 139.699C449.676 139.322 450.301 138.788 450.73 138.098C451.16 137.408 451.375 136.6 451.375 135.676ZM464.09 129.465L461.199 128.723L462.625 114.562H477.215V117.902H465.691L464.832 125.637C465.353 125.337 466.01 125.057 466.805 124.797C467.612 124.536 468.536 124.406 469.578 124.406C470.893 124.406 472.072 124.634 473.113 125.09C474.155 125.533 475.04 126.171 475.77 127.004C476.512 127.837 477.078 128.84 477.469 130.012C477.859 131.184 478.055 132.492 478.055 133.938C478.055 135.305 477.866 136.561 477.488 137.707C477.124 138.853 476.57 139.855 475.828 140.715C475.086 141.561 474.148 142.219 473.016 142.688C471.896 143.156 470.574 143.391 469.051 143.391C467.905 143.391 466.818 143.234 465.789 142.922C464.773 142.596 463.862 142.108 463.055 141.457C462.26 140.793 461.609 139.973 461.102 138.996C460.607 138.007 460.294 136.848 460.164 135.52H463.602C463.758 136.587 464.07 137.486 464.539 138.215C465.008 138.944 465.62 139.497 466.375 139.875C467.143 140.24 468.035 140.422 469.051 140.422C469.91 140.422 470.672 140.272 471.336 139.973C472 139.673 472.56 139.243 473.016 138.684C473.471 138.124 473.816 137.447 474.051 136.652C474.298 135.858 474.422 134.966 474.422 133.977C474.422 133.078 474.298 132.245 474.051 131.477C473.803 130.708 473.432 130.038 472.938 129.465C472.456 128.892 471.863 128.449 471.16 128.137C470.457 127.811 469.65 127.648 468.738 127.648C467.527 127.648 466.609 127.811 465.984 128.137C465.372 128.462 464.741 128.905 464.09 129.465ZM500.262 126.516V130.852C500.262 133.182 500.053 135.148 499.637 136.75C499.22 138.352 498.621 139.641 497.84 140.617C497.059 141.594 496.115 142.303 495.008 142.746C493.914 143.176 492.677 143.391 491.297 143.391C490.203 143.391 489.194 143.254 488.27 142.98C487.345 142.707 486.512 142.271 485.77 141.672C485.04 141.06 484.415 140.266 483.895 139.289C483.374 138.312 482.977 137.128 482.703 135.734C482.43 134.341 482.293 132.714 482.293 130.852V126.516C482.293 124.185 482.501 122.232 482.918 120.656C483.348 119.081 483.953 117.818 484.734 116.867C485.516 115.904 486.453 115.214 487.547 114.797C488.654 114.38 489.891 114.172 491.258 114.172C492.365 114.172 493.38 114.309 494.305 114.582C495.242 114.842 496.076 115.266 496.805 115.852C497.534 116.424 498.152 117.193 498.66 118.156C499.181 119.107 499.578 120.272 499.852 121.652C500.125 123.033 500.262 124.654 500.262 126.516ZM496.629 131.438V125.91C496.629 124.634 496.551 123.514 496.395 122.551C496.251 121.574 496.036 120.741 495.75 120.051C495.464 119.361 495.099 118.801 494.656 118.371C494.227 117.941 493.725 117.629 493.152 117.434C492.592 117.225 491.961 117.121 491.258 117.121C490.398 117.121 489.637 117.284 488.973 117.609C488.309 117.922 487.749 118.423 487.293 119.113C486.85 119.803 486.512 120.708 486.277 121.828C486.043 122.948 485.926 124.309 485.926 125.91V131.438C485.926 132.714 485.997 133.84 486.141 134.816C486.297 135.793 486.525 136.639 486.824 137.355C487.124 138.059 487.488 138.638 487.918 139.094C488.348 139.549 488.842 139.888 489.402 140.109C489.975 140.318 490.607 140.422 491.297 140.422C492.182 140.422 492.957 140.253 493.621 139.914C494.285 139.576 494.839 139.048 495.281 138.332C495.737 137.603 496.076 136.672 496.297 135.539C496.518 134.393 496.629 133.026 496.629 131.438ZM523.543 126.516V130.852C523.543 133.182 523.335 135.148 522.918 136.75C522.501 138.352 521.902 139.641 521.121 140.617C520.34 141.594 519.396 142.303 518.289 142.746C517.195 143.176 515.958 143.391 514.578 143.391C513.484 143.391 512.475 143.254 511.551 142.98C510.626 142.707 509.793 142.271 509.051 141.672C508.322 141.06 507.697 140.266 507.176 139.289C506.655 138.312 506.258 137.128 505.984 135.734C505.711 134.341 505.574 132.714 505.574 130.852V126.516C505.574 124.185 505.783 122.232 506.199 120.656C506.629 119.081 507.234 117.818 508.016 116.867C508.797 115.904 509.734 115.214 510.828 114.797C511.935 114.38 513.172 114.172 514.539 114.172C515.646 114.172 516.661 114.309 517.586 114.582C518.523 114.842 519.357 115.266 520.086 115.852C520.815 116.424 521.434 117.193 521.941 118.156C522.462 119.107 522.859 120.272 523.133 121.652C523.406 123.033 523.543 124.654 523.543 126.516ZM519.91 131.438V125.91C519.91 124.634 519.832 123.514 519.676 122.551C519.533 121.574 519.318 120.741 519.031 120.051C518.745 119.361 518.38 118.801 517.938 118.371C517.508 117.941 517.007 117.629 516.434 117.434C515.874 117.225 515.242 117.121 514.539 117.121C513.68 117.121 512.918 117.284 512.254 117.609C511.59 117.922 511.03 118.423 510.574 119.113C510.132 119.803 509.793 120.708 509.559 121.828C509.324 122.948 509.207 124.309 509.207 125.91V131.438C509.207 132.714 509.279 133.84 509.422 134.816C509.578 135.793 509.806 136.639 510.105 137.355C510.405 138.059 510.77 138.638 511.199 139.094C511.629 139.549 512.124 139.888 512.684 140.109C513.257 140.318 513.888 140.422 514.578 140.422C515.464 140.422 516.238 140.253 516.902 139.914C517.566 139.576 518.12 139.048 518.562 138.332C519.018 137.603 519.357 136.672 519.578 135.539C519.799 134.393 519.91 133.026 519.91 131.438ZM532.254 138.703V141.613C532.254 142.798 531.954 144.048 531.355 145.363C530.757 146.691 529.917 147.798 528.836 148.684L526.785 147.258C527.202 146.685 527.553 146.099 527.84 145.5C528.126 144.914 528.341 144.302 528.484 143.664C528.641 143.039 528.719 142.375 528.719 141.672V138.703H532.254ZM554.715 126.516V130.852C554.715 133.182 554.507 135.148 554.09 136.75C553.673 138.352 553.074 139.641 552.293 140.617C551.512 141.594 550.568 142.303 549.461 142.746C548.367 143.176 547.13 143.391 545.75 143.391C544.656 143.391 543.647 143.254 542.723 142.98C541.798 142.707 540.965 142.271 540.223 141.672C539.493 141.06 538.868 140.266 538.348 139.289C537.827 138.312 537.43 137.128 537.156 135.734C536.883 134.341 536.746 132.714 536.746 130.852V126.516C536.746 124.185 536.954 122.232 537.371 120.656C537.801 119.081 538.406 117.818 539.188 116.867C539.969 115.904 540.906 115.214 542 114.797C543.107 114.38 544.344 114.172 545.711 114.172C546.818 114.172 547.833 114.309 548.758 114.582C549.695 114.842 550.529 115.266 551.258 115.852C551.987 116.424 552.605 117.193 553.113 118.156C553.634 119.107 554.031 120.272 554.305 121.652C554.578 123.033 554.715 124.654 554.715 126.516ZM551.082 131.438V125.91C551.082 124.634 551.004 123.514 550.848 122.551C550.704 121.574 550.49 120.741 550.203 120.051C549.917 119.361 549.552 118.801 549.109 118.371C548.68 117.941 548.178 117.629 547.605 117.434C547.046 117.225 546.414 117.121 545.711 117.121C544.852 117.121 544.09 117.284 543.426 117.609C542.762 117.922 542.202 118.423 541.746 119.113C541.303 119.803 540.965 120.708 540.73 121.828C540.496 122.948 540.379 124.309 540.379 125.91V131.438C540.379 132.714 540.451 133.84 540.594 134.816C540.75 135.793 540.978 136.639 541.277 137.355C541.577 138.059 541.941 138.638 542.371 139.094C542.801 139.549 543.296 139.888 543.855 140.109C544.428 140.318 545.06 140.422 545.75 140.422C546.635 140.422 547.41 140.253 548.074 139.914C548.738 139.576 549.292 139.048 549.734 138.332C550.19 137.603 550.529 136.672 550.75 135.539C550.971 134.393 551.082 133.026 551.082 131.438ZM577.996 126.516V130.852C577.996 133.182 577.788 135.148 577.371 136.75C576.954 138.352 576.355 139.641 575.574 140.617C574.793 141.594 573.849 142.303 572.742 142.746C571.648 143.176 570.411 143.391 569.031 143.391C567.938 143.391 566.928 143.254 566.004 142.98C565.079 142.707 564.246 142.271 563.504 141.672C562.775 141.06 562.15 140.266 561.629 139.289C561.108 138.312 560.711 137.128 560.438 135.734C560.164 134.341 560.027 132.714 560.027 130.852V126.516C560.027 124.185 560.236 122.232 560.652 120.656C561.082 119.081 561.688 117.818 562.469 116.867C563.25 115.904 564.188 115.214 565.281 114.797C566.388 114.38 567.625 114.172 568.992 114.172C570.099 114.172 571.115 114.309 572.039 114.582C572.977 114.842 573.81 115.266 574.539 115.852C575.268 116.424 575.887 117.193 576.395 118.156C576.915 119.107 577.312 120.272 577.586 121.652C577.859 123.033 577.996 124.654 577.996 126.516ZM574.363 131.438V125.91C574.363 124.634 574.285 123.514 574.129 122.551C573.986 121.574 573.771 120.741 573.484 120.051C573.198 119.361 572.833 118.801 572.391 118.371C571.961 117.941 571.46 117.629 570.887 117.434C570.327 117.225 569.695 117.121 568.992 117.121C568.133 117.121 567.371 117.284 566.707 117.609C566.043 117.922 565.483 118.423 565.027 119.113C564.585 119.803 564.246 120.708 564.012 121.828C563.777 122.948 563.66 124.309 563.66 125.91V131.438C563.66 132.714 563.732 133.84 563.875 134.816C564.031 135.793 564.259 136.639 564.559 137.355C564.858 138.059 565.223 138.638 565.652 139.094C566.082 139.549 566.577 139.888 567.137 140.109C567.71 140.318 568.341 140.422 569.031 140.422C569.917 140.422 570.691 140.253 571.355 139.914C572.02 139.576 572.573 139.048 573.016 138.332C573.471 137.603 573.81 136.672 574.031 135.539C574.253 134.393 574.363 133.026 574.363 131.438ZM601.277 126.516V130.852C601.277 133.182 601.069 135.148 600.652 136.75C600.236 138.352 599.637 139.641 598.855 140.617C598.074 141.594 597.13 142.303 596.023 142.746C594.93 143.176 593.693 143.391 592.312 143.391C591.219 143.391 590.21 143.254 589.285 142.98C588.361 142.707 587.527 142.271 586.785 141.672C586.056 141.06 585.431 140.266 584.91 139.289C584.389 138.312 583.992 137.128 583.719 135.734C583.445 134.341 583.309 132.714 583.309 130.852V126.516C583.309 124.185 583.517 122.232 583.934 120.656C584.363 119.081 584.969 117.818 585.75 116.867C586.531 115.904 587.469 115.214 588.562 114.797C589.669 114.38 590.906 114.172 592.273 114.172C593.38 114.172 594.396 114.309 595.32 114.582C596.258 114.842 597.091 115.266 597.82 115.852C598.549 116.424 599.168 117.193 599.676 118.156C600.197 119.107 600.594 120.272 600.867 121.652C601.141 123.033 601.277 124.654 601.277 126.516ZM597.645 131.438V125.91C597.645 124.634 597.566 123.514 597.41 122.551C597.267 121.574 597.052 120.741 596.766 120.051C596.479 119.361 596.115 118.801 595.672 118.371C595.242 117.941 594.741 117.629 594.168 117.434C593.608 117.225 592.977 117.121 592.273 117.121C591.414 117.121 590.652 117.284 589.988 117.609C589.324 117.922 588.764 118.423 588.309 119.113C587.866 119.803 587.527 120.708 587.293 121.828C587.059 122.948 586.941 124.309 586.941 125.91V131.438C586.941 132.714 587.013 133.84 587.156 134.816C587.312 135.793 587.54 136.639 587.84 137.355C588.139 138.059 588.504 138.638 588.934 139.094C589.363 139.549 589.858 139.888 590.418 140.109C590.991 140.318 591.622 140.422 592.312 140.422C593.198 140.422 593.973 140.253 594.637 139.914C595.301 139.576 595.854 139.048 596.297 138.332C596.753 137.603 597.091 136.672 597.312 135.539C597.534 134.393 597.645 133.026 597.645 131.438ZM606.766 141.086C606.766 140.474 606.954 139.96 607.332 139.543C607.723 139.113 608.283 138.898 609.012 138.898C609.741 138.898 610.294 139.113 610.672 139.543C611.062 139.96 611.258 140.474 611.258 141.086C611.258 141.685 611.062 142.193 610.672 142.609C610.294 143.026 609.741 143.234 609.012 143.234C608.283 143.234 607.723 143.026 607.332 142.609C606.954 142.193 606.766 141.685 606.766 141.086ZM635.105 126.516V130.852C635.105 133.182 634.897 135.148 634.48 136.75C634.064 138.352 633.465 139.641 632.684 140.617C631.902 141.594 630.958 142.303 629.852 142.746C628.758 143.176 627.521 143.391 626.141 143.391C625.047 143.391 624.038 143.254 623.113 142.98C622.189 142.707 621.355 142.271 620.613 141.672C619.884 141.06 619.259 140.266 618.738 139.289C618.217 138.312 617.82 137.128 617.547 135.734C617.273 134.341 617.137 132.714 617.137 130.852V126.516C617.137 124.185 617.345 122.232 617.762 120.656C618.191 119.081 618.797 117.818 619.578 116.867C620.359 115.904 621.297 115.214 622.391 114.797C623.497 114.38 624.734 114.172 626.102 114.172C627.208 114.172 628.224 114.309 629.148 114.582C630.086 114.842 630.919 115.266 631.648 115.852C632.378 116.424 632.996 117.193 633.504 118.156C634.025 119.107 634.422 120.272 634.695 121.652C634.969 123.033 635.105 124.654 635.105 126.516ZM631.473 131.438V125.91C631.473 124.634 631.395 123.514 631.238 122.551C631.095 121.574 630.88 120.741 630.594 120.051C630.307 119.361 629.943 118.801 629.5 118.371C629.07 117.941 628.569 117.629 627.996 117.434C627.436 117.225 626.805 117.121 626.102 117.121C625.242 117.121 624.48 117.284 623.816 117.609C623.152 117.922 622.592 118.423 622.137 119.113C621.694 119.803 621.355 120.708 621.121 121.828C620.887 122.948 620.77 124.309 620.77 125.91V131.438C620.77 132.714 620.841 133.84 620.984 134.816C621.141 135.793 621.368 136.639 621.668 137.355C621.967 138.059 622.332 138.638 622.762 139.094C623.191 139.549 623.686 139.888 624.246 140.109C624.819 140.318 625.451 140.422 626.141 140.422C627.026 140.422 627.801 140.253 628.465 139.914C629.129 139.576 629.682 139.048 630.125 138.332C630.581 137.603 630.919 136.672 631.141 135.539C631.362 134.393 631.473 133.026 631.473 131.438ZM658.387 126.516V130.852C658.387 133.182 658.178 135.148 657.762 136.75C657.345 138.352 656.746 139.641 655.965 140.617C655.184 141.594 654.24 142.303 653.133 142.746C652.039 143.176 650.802 143.391 649.422 143.391C648.328 143.391 647.319 143.254 646.395 142.98C645.47 142.707 644.637 142.271 643.895 141.672C643.165 141.06 642.54 140.266 642.02 139.289C641.499 138.312 641.102 137.128 640.828 135.734C640.555 134.341 640.418 132.714 640.418 130.852V126.516C640.418 124.185 640.626 122.232 641.043 120.656C641.473 119.081 642.078 117.818 642.859 116.867C643.641 115.904 644.578 115.214 645.672 114.797C646.779 114.38 648.016 114.172 649.383 114.172C650.49 114.172 651.505 114.309 652.43 114.582C653.367 114.842 654.201 115.266 654.93 115.852C655.659 116.424 656.277 117.193 656.785 118.156C657.306 119.107 657.703 120.272 657.977 121.652C658.25 123.033 658.387 124.654 658.387 126.516ZM654.754 131.438V125.91C654.754 124.634 654.676 123.514 654.52 122.551C654.376 121.574 654.161 120.741 653.875 120.051C653.589 119.361 653.224 118.801 652.781 118.371C652.352 117.941 651.85 117.629 651.277 117.434C650.717 117.225 650.086 117.121 649.383 117.121C648.523 117.121 647.762 117.284 647.098 117.609C646.434 117.922 645.874 118.423 645.418 119.113C644.975 119.803 644.637 120.708 644.402 121.828C644.168 122.948 644.051 124.309 644.051 125.91V131.438C644.051 132.714 644.122 133.84 644.266 134.816C644.422 135.793 644.65 136.639 644.949 137.355C645.249 138.059 645.613 138.638 646.043 139.094C646.473 139.549 646.967 139.888 647.527 140.109C648.1 140.318 648.732 140.422 649.422 140.422C650.307 140.422 651.082 140.253 651.746 139.914C652.41 139.576 652.964 139.048 653.406 138.332C653.862 137.603 654.201 136.672 654.422 135.539C654.643 134.393 654.754 133.026 654.754 131.438ZM681.668 126.516V130.852C681.668 133.182 681.46 135.148 681.043 136.75C680.626 138.352 680.027 139.641 679.246 140.617C678.465 141.594 677.521 142.303 676.414 142.746C675.32 143.176 674.083 143.391 672.703 143.391C671.609 143.391 670.6 143.254 669.676 142.98C668.751 142.707 667.918 142.271 667.176 141.672C666.447 141.06 665.822 140.266 665.301 139.289C664.78 138.312 664.383 137.128 664.109 135.734C663.836 134.341 663.699 132.714 663.699 130.852V126.516C663.699 124.185 663.908 122.232 664.324 120.656C664.754 119.081 665.359 117.818 666.141 116.867C666.922 115.904 667.859 115.214 668.953 114.797C670.06 114.38 671.297 114.172 672.664 114.172C673.771 114.172 674.786 114.309 675.711 114.582C676.648 114.842 677.482 115.266 678.211 115.852C678.94 116.424 679.559 117.193 680.066 118.156C680.587 119.107 680.984 120.272 681.258 121.652C681.531 123.033 681.668 124.654 681.668 126.516ZM678.035 131.438V125.91C678.035 124.634 677.957 123.514 677.801 122.551C677.658 121.574 677.443 120.741 677.156 120.051C676.87 119.361 676.505 118.801 676.062 118.371C675.633 117.941 675.132 117.629 674.559 117.434C673.999 117.225 673.367 117.121 672.664 117.121C671.805 117.121 671.043 117.284 670.379 117.609C669.715 117.922 669.155 118.423 668.699 119.113C668.257 119.803 667.918 120.708 667.684 121.828C667.449 122.948 667.332 124.309 667.332 125.91V131.438C667.332 132.714 667.404 133.84 667.547 134.816C667.703 135.793 667.931 136.639 668.23 137.355C668.53 138.059 668.895 138.638 669.324 139.094C669.754 139.549 670.249 139.888 670.809 140.109C671.382 140.318 672.013 140.422 672.703 140.422C673.589 140.422 674.363 140.253 675.027 139.914C675.691 139.576 676.245 139.048 676.688 138.332C677.143 137.603 677.482 136.672 677.703 135.539C677.924 134.393 678.035 133.026 678.035 131.438Z" fill="white"/>
</g>
<rect width="120" height="32" rx="4" fill="#FCCA46"/>
<path d="M14.3047 18.6514C14.3047 18.4229 14.2695 18.2178 14.1992 18.0361C14.1348 17.8486 14.0117 17.6787 13.8301 17.5264C13.6484 17.3682 13.3936 17.2129 13.0654 17.0605C12.7373 16.9082 12.3125 16.75 11.791 16.5859C11.2109 16.3984 10.6602 16.1875 10.1387 15.9531C9.62305 15.7188 9.16602 15.4463 8.76758 15.1357C8.375 14.8193 8.06445 14.4531 7.83594 14.0371C7.61328 13.6211 7.50195 13.1377 7.50195 12.5869C7.50195 12.0537 7.61914 11.5703 7.85352 11.1367C8.08789 10.6973 8.41602 10.3223 8.83789 10.0117C9.25977 9.69531 9.75781 9.45215 10.332 9.28223C10.9121 9.1123 11.5479 9.02734 12.2393 9.02734C13.1826 9.02734 14.0059 9.19727 14.709 9.53711C15.4121 9.87695 15.957 10.3428 16.3438 10.9346C16.7363 11.5264 16.9326 12.2031 16.9326 12.9648H14.3135C14.3135 12.5898 14.2344 12.2617 14.0762 11.9805C13.9238 11.6934 13.6895 11.4678 13.373 11.3037C13.0625 11.1396 12.6699 11.0576 12.1953 11.0576C11.7383 11.0576 11.3574 11.1279 11.0527 11.2686C10.748 11.4033 10.5195 11.5879 10.3672 11.8223C10.2148 12.0508 10.1387 12.3086 10.1387 12.5957C10.1387 12.8125 10.1914 13.0088 10.2969 13.1846C10.4082 13.3604 10.5723 13.5244 10.7891 13.6768C11.0059 13.8291 11.2725 13.9727 11.5889 14.1074C11.9053 14.2422 12.2715 14.374 12.6875 14.5029C13.3848 14.7139 13.9971 14.9512 14.5244 15.2148C15.0576 15.4785 15.5029 15.7744 15.8604 16.1025C16.2178 16.4307 16.4873 16.8027 16.6689 17.2188C16.8506 17.6348 16.9414 18.1064 16.9414 18.6338C16.9414 19.1904 16.833 19.6885 16.6162 20.1279C16.3994 20.5674 16.0859 20.9395 15.6758 21.2441C15.2656 21.5488 14.7764 21.7803 14.208 21.9385C13.6396 22.0967 13.0039 22.1758 12.3008 22.1758C11.668 22.1758 11.0439 22.0938 10.4287 21.9297C9.81348 21.7598 9.25391 21.5049 8.75 21.165C8.25195 20.8252 7.85352 20.3916 7.55469 19.8643C7.25586 19.3369 7.10645 18.7129 7.10645 17.9922H9.75195C9.75195 18.3906 9.81348 18.7275 9.93652 19.0029C10.0596 19.2783 10.2324 19.501 10.4551 19.6709C10.6836 19.8408 10.9531 19.9639 11.2637 20.04C11.5801 20.1162 11.9258 20.1543 12.3008 20.1543C12.7578 20.1543 13.1328 20.0898 13.4258 19.9609C13.7246 19.832 13.9443 19.6533 14.085 19.4248C14.2314 19.1963 14.3047 18.9385 14.3047 18.6514ZM22.0781 9.20312V22H19.4502V9.20312H22.0781ZM35.5029 9.20312V22H32.8661L27.7245 13.4219V22H25.0878V9.20312H27.7245L32.8749 17.79V9.20312H35.5029ZM45.7548 17.7549H48.3827C48.33 18.6162 48.0927 19.3809 47.6708 20.0488C47.2548 20.7168 46.6718 21.2383 45.9218 21.6133C45.1776 21.9883 44.2811 22.1758 43.2323 22.1758C42.412 22.1758 41.6766 22.0352 41.0263 21.7539C40.3759 21.4668 39.8192 21.0566 39.3563 20.5234C38.8993 19.9902 38.5507 19.3457 38.3104 18.5898C38.0702 17.834 37.9501 16.9873 37.9501 16.0498V15.1621C37.9501 14.2246 38.0731 13.3779 38.3192 12.6221C38.5712 11.8604 38.9286 11.2129 39.3915 10.6797C39.8602 10.1465 40.4198 9.73633 41.0702 9.44922C41.7206 9.16211 42.4471 9.01855 43.2499 9.01855C44.3163 9.01855 45.2157 9.21191 45.9481 9.59863C46.6864 9.98535 47.2577 10.5186 47.662 11.1982C48.0721 11.8779 48.3182 12.6514 48.4003 13.5186H45.7636C45.7343 13.0029 45.6317 12.5664 45.4559 12.209C45.2802 11.8457 45.0136 11.5732 44.6561 11.3916C44.3046 11.2041 43.8358 11.1104 43.2499 11.1104C42.8104 11.1104 42.4266 11.1924 42.0985 11.3564C41.7704 11.5205 41.495 11.7695 41.2723 12.1035C41.0497 12.4375 40.8827 12.8594 40.7714 13.3691C40.6659 13.873 40.6132 14.4648 40.6132 15.1445V16.0498C40.6132 16.7119 40.663 17.2949 40.7626 17.7988C40.8622 18.2969 41.0145 18.7188 41.2196 19.0645C41.4305 19.4043 41.7001 19.6621 42.0282 19.8379C42.3622 20.0078 42.7636 20.0928 43.2323 20.0928C43.7831 20.0928 44.2372 20.0049 44.5946 19.8291C44.952 19.6533 45.2245 19.3926 45.412 19.0469C45.6054 18.7012 45.7196 18.2705 45.7548 17.7549ZM59.2411 19.9434V22H52.4295V19.9434H59.2411ZM53.2909 9.20312V22H50.6541V9.20312H53.2909ZM58.3534 14.415V16.4189H52.4295V14.415H58.3534ZM59.2323 9.20312V11.2686H52.4295V9.20312H59.2323ZM71.6853 9.17676V22H69.1541V12.0947L66.113 13.0615V11.0664L71.4129 9.17676H71.6853ZM80.8913 9.17676V22H78.3601V12.0947L75.3191 13.0615V11.0664L80.6189 9.17676H80.8913ZM90.0622 9.20312L85.3688 23.0986H83.488L88.1813 9.20312H90.0622ZM100.499 14.4766V16.6914C100.499 17.6523 100.396 18.4814 100.191 19.1787C99.986 19.8701 99.6901 20.4385 99.3034 20.8838C98.9225 21.3232 98.4684 21.6484 97.9411 21.8594C97.4137 22.0703 96.8278 22.1758 96.1832 22.1758C95.6676 22.1758 95.1871 22.1113 94.7418 21.9824C94.2965 21.8477 93.8952 21.6396 93.5377 21.3584C93.1862 21.0771 92.8815 20.7227 92.6237 20.2949C92.3717 19.8613 92.1784 19.3457 92.0436 18.748C91.9088 18.1504 91.8414 17.4648 91.8414 16.6914V14.4766C91.8414 13.5156 91.944 12.6924 92.1491 12.0068C92.36 11.3154 92.6559 10.75 93.0368 10.3105C93.4235 9.87109 93.8805 9.54883 94.4079 9.34375C94.9352 9.13281 95.5211 9.02734 96.1657 9.02734C96.6813 9.02734 97.1588 9.09473 97.5983 9.22949C98.0436 9.3584 98.445 9.56055 98.8024 9.83594C99.1598 10.1113 99.4645 10.4658 99.7164 10.8994C99.9684 11.3271 100.162 11.8398 100.297 12.4375C100.431 13.0293 100.499 13.709 100.499 14.4766ZM97.9586 17.0254V14.1338C97.9586 13.6709 97.9323 13.2666 97.8795 12.9209C97.8327 12.5752 97.7594 12.2822 97.6598 12.042C97.5602 11.7959 97.4371 11.5967 97.2907 11.4443C97.1442 11.292 96.9772 11.1807 96.7897 11.1104C96.6022 11.04 96.3942 11.0049 96.1657 11.0049C95.8786 11.0049 95.6237 11.0605 95.401 11.1719C95.1842 11.2832 94.9996 11.4619 94.8473 11.708C94.695 11.9482 94.5778 12.2705 94.4957 12.6748C94.4196 13.0732 94.3815 13.5596 94.3815 14.1338V17.0254C94.3815 17.4883 94.4049 17.8955 94.4518 18.2471C94.5045 18.5986 94.5807 18.9004 94.6803 19.1523C94.7858 19.3984 94.9088 19.6006 95.0495 19.7588C95.1959 19.9111 95.3629 20.0225 95.5504 20.0928C95.7438 20.1631 95.9547 20.1982 96.1832 20.1982C96.4645 20.1982 96.7135 20.1426 96.9303 20.0312C97.153 19.9141 97.3405 19.7324 97.4928 19.4863C97.651 19.2344 97.7682 18.9062 97.8444 18.502C97.9205 18.0977 97.9586 17.6055 97.9586 17.0254ZM104.73 20.0752H104.897C105.6 20.0752 106.204 19.9902 106.708 19.8203C107.217 19.6445 107.636 19.3926 107.964 19.0645C108.293 18.7363 108.536 18.335 108.694 17.8604C108.852 17.3799 108.931 16.835 108.931 16.2256V13.7998C108.931 13.3369 108.884 12.9297 108.791 12.5781C108.703 12.2266 108.574 11.9365 108.404 11.708C108.24 11.4736 108.046 11.2979 107.824 11.1807C107.607 11.0635 107.367 11.0049 107.103 11.0049C106.822 11.0049 106.573 11.0752 106.356 11.2158C106.139 11.3506 105.955 11.5352 105.802 11.7695C105.656 12.0039 105.542 12.2734 105.46 12.5781C105.383 12.877 105.345 13.1904 105.345 13.5186C105.345 13.8467 105.383 14.1602 105.46 14.459C105.536 14.752 105.65 15.0127 105.802 15.2412C105.955 15.4639 106.145 15.6426 106.374 15.7773C106.602 15.9062 106.872 15.9707 107.182 15.9707C107.481 15.9707 107.748 15.915 107.982 15.8037C108.222 15.6865 108.424 15.5342 108.588 15.3467C108.758 15.1592 108.887 14.9512 108.975 14.7227C109.069 14.4941 109.116 14.2627 109.116 14.0283L109.951 14.4854C109.951 14.8955 109.863 15.2998 109.687 15.6982C109.511 16.0967 109.265 16.46 108.949 16.7881C108.638 17.1104 108.278 17.3682 107.868 17.5615C107.458 17.7549 107.018 17.8516 106.549 17.8516C105.952 17.8516 105.421 17.7432 104.959 17.5264C104.496 17.3037 104.103 16.999 103.781 16.6123C103.464 16.2197 103.224 15.7627 103.06 15.2412C102.896 14.7197 102.814 14.1543 102.814 13.5449C102.814 12.9238 102.914 12.3408 103.113 11.7959C103.318 11.251 103.608 10.7705 103.983 10.3545C104.364 9.93848 104.818 9.61328 105.345 9.37891C105.879 9.13867 106.47 9.01855 107.121 9.01855C107.771 9.01855 108.363 9.14453 108.896 9.39648C109.429 9.64844 109.886 10.0059 110.267 10.4688C110.648 10.9258 110.941 11.4736 111.146 12.1123C111.357 12.751 111.463 13.46 111.463 14.2393V15.1182C111.463 15.9502 111.372 16.7236 111.19 17.4385C111.014 18.1533 110.748 18.8008 110.39 19.3809C110.039 19.9551 109.599 20.4473 109.072 20.8574C108.55 21.2676 107.944 21.5811 107.253 21.7979C106.561 22.0146 105.788 22.123 104.932 22.123H104.73V20.0752Z" fill="url(#paint2_linear_4365_90626)"/>
<g clip-path="url(#clip1_4365_90626)">
<rect x="794" y="21" width="320" height="172" rx="12" fill="url(#paint3_linear_4365_90626)"/>
<mask id="mask1_4365_90626" style="mask-type:alpha" maskUnits="userSpaceOnUse" x="-36" y="23" width="1150" height="170">
<rect x="-36" y="23" width="1150" height="170" rx="8" fill="url(#paint4_linear_4365_90626)" fill-opacity="0.95"/>
</mask>
<g mask="url(#mask1_4365_90626)">
<path d="M-20.3472 182.321C27.4512 176.871 74.455 165.448 121.778 156.691C150.137 150.523 179.184 149.594 207.465 143.221C247.079 133.119 283.036 110.879 324.155 106.11C351.835 102.038 378.773 107.885 404.62 114.74C448.157 124.328 489.831 139.059 533.468 148.225C584.461 159.635 644.339 162.471 689.528 129.602C731.484 103.061 766.053 63.2391 815.98 49.6924C898.957 35.0254 971.627 92.0869 1053.97 87.3809" stroke="#707A8B" stroke-width="0.9805" stroke-miterlimit="10" stroke-linecap="round" stroke-dasharray="2 6"/>
<path d="M-22.1832 192.555C25.614 186.874 72.175 173.6 119.237 163.701C147.49 156.798 176.586 155.31 204.946 149.373C247.49 138.767 285.834 114.363 329.938 109.689C354.612 106.379 378.915 110.54 402.104 116.334C449.233 125.104 493.545 141.986 540.171 152.172C589.993 163.922 648.519 166.622 692.973 134.787C733.937 109.062 767.421 71.4047 814.812 55.7492C896.768 35.6527 976.404 93.244 1058.94 87.4629" stroke="#707A8B" stroke-width="0.9805" stroke-miterlimit="10" stroke-linecap="round" stroke-dasharray="2 6"/>
<path d="M-23.9161 203.525C50.0033 193.322 120.285 164.409 194.627 157.146C239.578 148.308 278.908 122.162 324.093 114.4C393.693 102.415 476.469 139.962 542.709 155.207C592.461 168.141 651.247 171.984 696.314 140.163C737.33 114.574 770.687 77.2705 817.666 60.7577C899.868 38.7969 980.892 93.4214 1063.78 86.7422" stroke="#707A8B" stroke-width="0.9805" stroke-miterlimit="10" stroke-linecap="round" stroke-dasharray="2 6"/>
<path d="M-25.5674 215.159C45.8279 205.161 112.136 172.18 184.003 164.795C233.962 157.725 276.664 127.442 325.999 118.046C403.778 104.305 477.601 141.798 549.286 159.505C597.765 172.971 655.379 176.923 699.581 145.795C740.726 120.316 774.084 83.2432 820.65 65.8731C902.741 42.0209 985.535 93.3112 1068.65 85.625" stroke="#707A8B" stroke-width="0.9805" stroke-miterlimit="10" stroke-linecap="round" stroke-dasharray="2 6"/>
<path d="M-27.1667 227.163C36.1708 217.642 93.973 187.384 156.633 174.938C179.161 171.002 202.132 168.686 223.592 160.11C258.423 147.463 291.287 129.183 327.877 121.395C407.225 105.163 479.597 143.174 551.573 163.018C600.211 177.816 657.602 183.238 702.798 151.757C743.079 126.971 775.68 91.5592 820.07 72.5701C900.452 43.5335 990.456 93.258 1073.49 84.2109" stroke="#707A8B" stroke-width="0.9805" stroke-miterlimit="10" stroke-linecap="round" stroke-dasharray="2 6"/>
<path d="M-28.7389 239.463C30.6185 229.738 83.9341 199.998 141.734 184.804C166.747 177.819 193.042 177.176 217.431 167.865C254.124 155.096 288.078 135.346 325.959 125.706C406.889 104.508 481.338 144.559 553.912 166.662C603.219 182.767 659.141 190.026 705.94 157.973C746.476 133.174 779.18 97.8026 823.235 78.1603C902.716 47.4364 995.48 93.0101 1078.4 82.7656" stroke="#707A8B" stroke-width="0.9805" stroke-miterlimit="10" stroke-linecap="round" stroke-dasharray="2 6"/>
<path d="M-30.4106 251.955C27.7706 241.646 78.9876 210.49 135.018 193.377C161.17 184.597 189.174 184.117 214.965 174.383C253.338 161.015 288.433 139.932 327.788 129.149C410.895 104.548 486.636 148.001 560.315 171.873C609.141 188.536 662.155 195.904 709.059 164.355C748.731 140.25 780.855 106.321 822.89 85.4677C900.053 50.2399 1000.48 92.9276 1083.5 81.3359" stroke="#707A8B" stroke-width="0.9805" stroke-miterlimit="10" stroke-linecap="round" stroke-dasharray="2 6"/>
<path d="M-32.1861 264.407C24.9212 253.554 74.0666 221.283 128.201 202.374C155.364 191.688 185.025 191.004 212.396 181.093C250.031 168.065 284.287 147.513 322.154 135.097C410.174 103.107 485.262 148.955 562.427 176.065C611.922 194.034 663.517 203.144 711.949 171.05C751.875 146.932 784.178 113.016 826.056 91.5237C901.122 55.1124 1006.42 92.819 1088.77 80.1523" stroke="#707A8B" stroke-width="0.9805" stroke-miterlimit="10" stroke-linecap="round" stroke-dasharray="2 6"/>
<path d="M-34.1165 276.681C23.3188 265.093 71.5609 230.672 125.458 210.225C149.995 199.703 176.666 197.998 202.009 190.511C232.978 180.94 261.469 165.532 290.916 152.41C404.917 97.7177 464.159 142.262 564.565 180.554C614.525 199.748 665.184 210.505 714.889 177.88C755.173 153.789 787.628 119.819 829.35 97.6867C901.046 60.6226 1012.87 92.9124 1094.2 79.375" stroke="#707A8B" stroke-width="0.9805" stroke-miterlimit="10" stroke-linecap="round" stroke-dasharray="2 6"/>
<path d="M-36.3011 288.739C21.5137 276.552 68.8783 240.049 122.616 218.269C145.749 207.706 170.988 204.967 195.367 198.827C219.081 192.074 241.399 181.647 263.436 171.166C400.772 100.277 437.603 131.026 562.335 183.59C613.785 204.648 665.048 219.052 717.832 184.943C757.176 161.573 789.178 128.923 829.036 106.22C861.205 86.5656 900.273 84.8456 936.868 83.4662C991.242 82.0843 1045.65 87.4112 1100.02 79.3887" stroke="#707A8B" stroke-width="0.9805" stroke-miterlimit="10" stroke-linecap="round" stroke-dasharray="2 6"/>
<path d="M-38.6915 300.252C19.2997 287.616 65.8913 249.534 119.24 226.502C142.193 215.463 167.223 211.949 191.784 206.285C215.677 199.777 238.199 189.432 260.364 178.828C405.967 103.448 433.83 131.136 566.447 189.387C616.29 210.554 666.256 225.883 718.36 193.407C759.386 169.901 792.174 136.122 833.149 112.479C866.308 91.7771 906.728 90.193 944.697 87.8609C998.478 85.3769 1052.49 88.2951 1106.19 80.123" stroke="#707A8B" stroke-width="0.9805" stroke-miterlimit="10" stroke-linecap="round" stroke-dasharray="2 6"/>
<path d="M-41.3928 311.178C16.8781 298.365 62.672 258.869 115.786 234.762C138.583 223.314 163.508 219.065 188.199 213.973C210.948 208.105 232.531 198.712 253.627 188.721C406.818 110.482 424.657 127.993 566.34 193.672C617.721 216.377 667.826 233.897 722.422 199.992C763.448 176.486 796.441 142.788 837.338 118.941C870.368 97.899 910.633 95.9068 948.598 92.8806C1003.29 89.1445 1058.24 90.1848 1112.81 81.7812" stroke="#707A8B" stroke-width="0.9805" stroke-miterlimit="10" stroke-linecap="round" stroke-dasharray="2 6"/>
<path d="M-44.377 321.358C15.8305 308.164 61.9667 265.687 116.659 240.941C139.481 229.33 164.691 226.061 189.38 220.505C212.23 214.447 233.966 205 255.215 194.954C410.698 116.13 424.466 130.457 568.536 199.225C620.201 222.678 669.622 241.137 725.264 207.246C766.597 183.862 799.897 150.287 840.588 126.127C874.683 103.778 916.556 101.908 955.996 98.2013C1010.58 93.7305 1065.37 92.7432 1119.73 84.7207" stroke="#707A8B" stroke-width="0.9805" stroke-miterlimit="10" stroke-linecap="round" stroke-dasharray="2 6"/>
<path d="M-47.8014 330.611C14.2428 317.458 60.5698 272.287 116.944 247.172C143.531 233.602 173.754 233.026 201.818 224.027C244.22 210.536 282.549 188.146 323.043 170.545C353.537 157.668 386.557 145.049 420.005 146.8C474.976 152.698 520.552 182.724 568.482 204.109C621.429 228.882 671.547 248.947 729.301 213.994C773.178 189.317 808.021 153.183 852.104 128.819C884.58 109.287 923.474 108.479 960.081 104.392C1015.84 99.1177 1071.71 96.6606 1127.3 88.8965" stroke="#707A8B" stroke-width="0.9805" stroke-miterlimit="10" stroke-linecap="round" stroke-dasharray="2 6"/>
<path d="M-51.7404 338.736C11.8597 325.569 58.9943 278.642 117.026 253.555C142.598 240.964 171.291 240.47 198.161 232.438C236.875 220.879 272.413 201.647 308.881 184.863C343.825 169.318 381.187 152.603 420.037 153.278C475.104 158.06 520.757 188.059 568.433 209.458C620.587 233.972 671.94 256.146 729.751 222.486C775.211 198.094 811.095 161.048 856.144 136.031C889.788 115.465 930.215 115.037 968.224 110.759C1024.01 105.322 1079.82 101.804 1135.44 94.5703" stroke="#707A8B" stroke-width="0.9805" stroke-miterlimit="10" stroke-linecap="round" stroke-dasharray="2 6"/>
<path d="M-56.1465 345.637C6.91657 332.197 55.0826 287.529 112.834 262.388C140.848 248.463 172.474 247.928 201.862 238.534C246.328 224.539 286.591 201.305 329.303 183.378C357.432 172.039 387.347 160.835 417.93 160.981C475.877 165.123 524.087 196.605 574.621 218.221C628.099 242.109 676.634 261.888 734.879 228.228C781.28 203.347 818.259 165.988 864.79 141.446C898.772 121.996 938.97 121.882 976.825 117.427C1032.53 112.017 1088.35 108.267 1143.99 101.102" stroke="#707A8B" stroke-width="0.9805" stroke-miterlimit="10" stroke-linecap="round" stroke-dasharray="2 6"/>
<path d="M-61.0395 351.473C0.290278 338.265 48.9599 297.435 104.977 272.525C119.154 266.236 133.768 260.873 148.953 257.469C166.74 254.064 184.787 251.571 202.051 245.65C248.35 231.001 290.264 206.406 335.196 188.614C362.183 178.377 391.006 168.181 420.116 169.47C476.282 174.633 523.994 203.435 573.733 224.098C629.301 247.782 678.326 268.622 738.635 234.458C786.158 209.563 824.488 171.878 872.653 147.758C907.073 129.233 947.17 129.309 985.05 124.691C1040.98 119.199 1097.03 115.136 1152.93 107.957" stroke="#707A8B" stroke-width="0.9805" stroke-miterlimit="10" stroke-linecap="round" stroke-dasharray="2 6"/>
<path d="M-66.2183 356.564C-3.71573 343.247 47.0748 303.205 104.984 279.166C129.492 267.882 156.025 263.986 182.22 258.744C204.716 253.352 226.279 245.048 247.379 235.751C409.455 159.443 416.126 162.164 572.308 230.168C630.069 253.457 679.786 274.978 742.21 240.677C789.737 216.476 828.711 180.029 876.597 156.317C912.392 137.302 953.917 137.255 993.199 132.446C1049.44 126.846 1105.79 122.443 1161.87 115.277" stroke="#707A8B" stroke-width="0.9805" stroke-miterlimit="10" stroke-linecap="round" stroke-dasharray="2 6"/>
<path d="M-71.8067 361.027C-8.28303 347.886 44.7329 309.138 104.331 286.118C129.02 275.542 155.454 272.068 181.521 266.717C204.883 261.093 227.235 252.354 249.098 242.785C408.525 167.266 418.944 174.831 572.702 237.365C629.996 259.198 681.752 280.378 743.37 248.065C792.227 224.625 832.477 188.341 881.334 164.902C917.283 146.295 958.5 145.895 997.783 141.086C1055.53 135.104 1113.4 130.387 1171.06 123.045" stroke="#707A8B" stroke-width="0.9805" stroke-miterlimit="10" stroke-linecap="round" stroke-dasharray="2 6"/>
<path d="M-77.6782 364.974C-14.2791 352.419 40.2041 316.391 100.113 294.42C125.035 284.455 151.364 280.478 177.51 275.562C200.568 270.279 222.743 261.989 244.378 252.733C403.607 178.289 415.141 184.452 570.669 243.884C629.796 265.063 683.797 286.216 746.921 254.215C796.954 231.129 838.785 194.899 889.126 172.399C925.693 154.962 966.886 154.725 1006.17 149.685C1064.29 143.567 1122.55 138.483 1180.62 131.072" stroke="#707A8B" stroke-width="0.9805" stroke-miterlimit="10" stroke-linecap="round" stroke-dasharray="2 6"/>
<path d="M-83.7574 368.609C-20.6099 356.761 35.1633 323.673 95.2827 302.94C121.506 292.975 149.263 289.107 176.683 283.891C198.008 279.071 218.683 271.625 238.715 263.172C396.449 190.729 409.549 193.707 565.979 249.804C625.662 269.936 684.437 292.014 748.104 261.441C799.442 239.281 842.678 203.554 894.042 181.462C930.765 164.664 971.803 164.019 1011.13 158.884C1070.92 152.33 1130.7 146.933 1190.4 139.25" stroke="#707A8B" stroke-width="0.9805" stroke-miterlimit="10" stroke-linecap="round" stroke-dasharray="2 6"/>
<path d="M-90.0658 372.094C-27.0677 360.994 29.9189 330.872 90.3506 311.418C115.534 302.828 141.681 298.144 167.882 294.058C189.109 289.891 209.711 283.166 229.719 275.107C381.384 208.149 396.855 200.703 551.685 253.045C612.537 272.142 680.54 298.424 745.723 270.015C798.574 249.555 843.293 214.536 895.218 192.321C933.162 174.857 975.472 173.681 1016.16 168.449C1077.54 161.555 1139.06 155.696 1200.39 147.74" stroke="#707A8B" stroke-width="0.9805" stroke-miterlimit="10" stroke-linecap="round" stroke-dasharray="2 6"/>
<path d="M-96.579 375.498C-33.4752 365.134 24.8259 337.787 85.8004 319.762C128.048 305.863 173.372 305.544 214.867 289.208C272.459 267.986 327.085 235.074 389.499 229.514C429.965 226.909 468.815 237.858 506.463 248.154C545.339 259.171 583.535 272.053 623.191 281.015C662.801 290.766 705.894 293.251 745.684 277.678C799.97 258.483 846.375 224.022 899.398 202.187C939.001 184.75 982.739 183.451 1024.87 177.934C1086.77 170.782 1148.77 164.595 1210.56 156.477" stroke="#707A8B" stroke-width="0.9805" stroke-miterlimit="10" stroke-linecap="round" stroke-dasharray="2 6"/>
<path d="M-103.243 379.185C-40.1096 369.583 19.277 345.094 80.6155 328.484C122.995 315.619 167.962 315.273 209.615 299.808C320.973 257.568 363.359 220.059 486.618 252.986C529.418 263.377 571.213 276.598 614.316 286.186C657.166 296.25 703.508 300.666 746.971 284.943C803.759 266.401 852.662 231.436 908.342 210.431C947.138 194.981 989.37 193.601 1030.18 188.016C1093.76 180.496 1157.46 173.778 1220.99 165.428" stroke="#707A8B" stroke-width="0.9805" stroke-miterlimit="10" stroke-linecap="round" stroke-dasharray="2 6"/>
<path d="M-109.908 383.106C-45.548 373.993 16.017 351.586 79.0968 336.364C121.331 324.941 165.762 324.554 207.06 309.525C303.605 273.723 357.206 234.689 464.81 258.597C513.013 267.911 559.632 281.962 607.533 292.08C652.372 301.898 700.327 307.593 746.167 292.877C811.905 273.695 867.996 232.537 933.889 213.762C970.086 204.028 1007.78 202.335 1044.71 197.05C1107.09 189.571 1169.42 182.65 1231.77 174.408" stroke="#707A8B" stroke-width="0.9805" stroke-miterlimit="10" stroke-linecap="round" stroke-dasharray="2 6"/>
<path d="M-115.757 386.889C-51.216 378.253 11.2275 358.159 74.7466 344.094C117.214 333.515 161.517 333.019 202.997 318.697C293.972 286.04 350.531 246.8 452.167 265.729C502.43 273.846 551.139 287.46 600.825 297.483C647.805 307.233 697.679 313.867 745.945 299.83C813.041 281.941 870.896 241.544 937.81 222.947C975.512 213.062 1014.68 211.152 1053.14 205.554C1115.88 197.87 1178.64 190.718 1241.22 182.395" stroke="#707A8B" stroke-width="0.9805" stroke-miterlimit="10" stroke-linecap="round" stroke-dasharray="2 6"/>
<path d="M-121.678 391.163C-57.0585 382.962 5.98295 365.127 69.7628 352.204C112.336 342.36 156.537 341.823 198.301 328.25C287.144 297.743 342.71 258.858 442.337 273.867C496.115 280.963 548.166 294.7 601.217 304.449C648.628 313.506 698.6 319.486 747.152 306.43C815.375 289.451 874.892 250.008 942.65 231.804C980.455 222.192 1019.52 220.009 1057.91 214.439C1122.17 206.442 1186.51 198.881 1250.82 190.326" stroke="#707A8B" stroke-width="0.9805" stroke-miterlimit="10" stroke-linecap="round" stroke-dasharray="2 6"/>
<path d="M-127.468 396.009C-62.7197 388.148 0.765518 372.395 64.8566 360.52C107.612 351.383 151.761 350.711 193.809 337.886C226.105 328.383 256.463 313.778 287.932 302.098C335.591 283.952 387.484 276.039 437.434 282.877C493.07 289.156 546.956 302.471 601.841 311.798C648.457 319.902 697.177 325.556 744.921 314.255C815.677 298.692 877.846 259.152 947.772 240.949C985.578 231.568 1024.59 229.249 1062.95 223.61C1128.82 215.273 1194.74 207.304 1260.61 198.504" stroke="#707A8B" stroke-width="0.9805" stroke-miterlimit="10" stroke-linecap="round" stroke-dasharray="2 6"/>
<path d="M-133.283 401.48C-68.3046 393.769 -4.19791 379.88 60.3314 368.931C102.3 360.692 145.427 359.611 186.718 348.216C221.794 338.726 254.441 322.841 288.509 310.698C332.353 294.839 379.655 286.94 425.666 291.397C484.866 296.329 542.17 309.738 600.37 318.888C647.672 326.516 696.75 332.197 745.109 321.604C817.196 307.033 881.129 268.256 952.204 250.107C991.488 240.508 1031.98 237.971 1071.82 232.114C1138.07 223.641 1204.24 215.427 1270.44 206.586" stroke="#707A8B" stroke-width="0.9805" stroke-miterlimit="10" stroke-linecap="round" stroke-dasharray="2 6"/>
<path d="M-138.963 407.752C-73.8817 400.082 -9.40984 387.84 55.3531 377.734C98.6759 369.863 143.052 368.645 185.642 357.018C221.075 347.556 254.104 331.535 288.683 319.596C331.334 304.703 377.03 297.145 421.659 300.704C482.565 304.873 541.652 317.956 601.585 326.643C647.99 333.509 695.868 339 743.316 329.658C817.908 316.203 884.493 277.33 957.76 259.017C997.02 249.582 1037.46 246.909 1077.27 240.984C1145.05 232.198 1212.83 223.643 1280.61 214.625" stroke="#707A8B" stroke-width="0.9805" stroke-miterlimit="10" stroke-linecap="round" stroke-dasharray="2 6"/>
<path d="M-144.566 414.927C-78.0329 406.971 -11.7445 395.858 54.6025 386.268C96.7817 379.268 139.829 377.521 181.377 366.805C219.411 357.111 254.729 339.811 291.884 327.572C331.152 314.735 372.769 307.626 413.744 309.784C477.883 312.878 540.058 326.096 603.127 334.592C649.759 340.913 697.714 346.377 745.29 337.376C821.032 324.207 889.177 286.245 963.465 267.878C1004.1 258.183 1045.94 255.32 1087.08 249.232C1155.06 240.527 1223.02 231.754 1290.88 222.709" stroke="#707A8B" stroke-width="0.9805" stroke-miterlimit="10" stroke-linecap="round" stroke-dasharray="2 6"/>
<path d="M-150.036 423.132C-83.4273 414.917 -16.9288 405.042 49.5991 395.93C92.0862 389.283 135.36 386.991 177.268 376.766C216.196 367.371 252.254 349.962 290.197 337.519C329.186 324.858 370.395 317.586 411.036 319.322C476.703 321.871 540.559 334.722 605.183 342.973C651.991 348.845 699.971 354.377 747.601 345.743C824.414 332.655 894.171 295.51 969.528 276.993C1011.51 266.972 1054.71 264.013 1097.32 257.707C1165.31 248.771 1233.32 239.902 1301.35 230.871" stroke="#707A8B" stroke-width="0.9805" stroke-miterlimit="10" stroke-linecap="round" stroke-dasharray="2 6"/>
<path d="M-155.296 432.344C-87.2374 423.381 -19.1279 414.322 48.9311 405.359C90.3241 399.257 132.294 396.271 173.159 386.726C212.14 377.699 248.455 360.739 286.219 348.051C325.843 335.009 367.558 327.016 408.989 328.548C477.741 330.77 544.736 343.892 612.42 351.98C657.669 357.172 704.066 362.418 750.04 354.22C829.326 340.792 901.605 303.21 979.565 284.693C1021.68 275.012 1064.9 271.89 1107.59 265.556C1175.7 256.729 1243.81 247.67 1311.87 238.707" stroke="#707A8B" stroke-width="0.9805" stroke-miterlimit="10" stroke-linecap="round" stroke-dasharray="2 6"/>
</g>
<path d="M906.615 87.5723V91H895.878V87.5723H906.615ZM897.299 69.6719V91H892.904V69.6719H897.299ZM926.587 79.8379V80.8486C926.587 82.4697 926.368 83.9248 925.928 85.2139C925.489 86.5029 924.869 87.6016 924.068 88.5098C923.267 89.4082 922.31 90.0967 921.197 90.5752C920.093 91.0537 918.868 91.293 917.52 91.293C916.182 91.293 914.957 91.0537 913.843 90.5752C912.74 90.0967 911.783 89.4082 910.972 88.5098C910.162 87.6016 909.532 86.5029 909.083 85.2139C908.643 83.9248 908.423 82.4697 908.423 80.8486V79.8379C908.423 78.207 908.643 76.752 909.083 75.4727C909.522 74.1836 910.142 73.085 910.943 72.1768C911.754 71.2686 912.711 70.5752 913.814 70.0967C914.927 69.6182 916.153 69.3789 917.491 69.3789C918.838 69.3789 920.064 69.6182 921.168 70.0967C922.281 70.5752 923.238 71.2686 924.039 72.1768C924.849 73.085 925.474 74.1836 925.914 75.4727C926.363 76.752 926.587 78.207 926.587 79.8379ZM922.149 80.8486V79.8086C922.149 78.6758 922.046 77.6797 921.841 76.8203C921.636 75.9609 921.334 75.2383 920.933 74.6523C920.533 74.0664 920.045 73.627 919.468 73.334C918.892 73.0312 918.233 72.8799 917.491 72.8799C916.749 72.8799 916.089 73.0312 915.513 73.334C914.947 73.627 914.463 74.0664 914.063 74.6523C913.672 75.2383 913.375 75.9609 913.17 76.8203C912.964 77.6797 912.862 78.6758 912.862 79.8086V80.8486C912.862 81.9717 912.964 82.9678 913.17 83.8369C913.375 84.6963 913.677 85.4238 914.078 86.0195C914.478 86.6055 914.966 87.0498 915.543 87.3525C916.119 87.6553 916.778 87.8066 917.52 87.8066C918.262 87.8066 918.921 87.6553 919.498 87.3525C920.074 87.0498 920.557 86.6055 920.948 86.0195C921.338 85.4238 921.636 84.6963 921.841 83.8369C922.046 82.9678 922.149 81.9717 922.149 80.8486ZM935.793 87.6162L940.041 69.6719H942.414L942.956 72.6602L938.43 91H935.881L935.793 87.6162ZM933.611 69.6719L937.126 87.6162L936.833 91H933.991L929.26 69.6719H933.611ZM946.692 87.543L950.163 69.6719H954.514L949.797 91H946.955L946.692 87.543ZM943.747 69.6719L948.025 87.6895L947.907 91H945.359L940.803 72.6455L941.389 69.6719H943.747ZM970.567 69.6719V91H966.172V69.6719H970.567ZM979.063 78.7832V82.2109H969.366V78.7832H979.063ZM980.088 69.6719V73.1143H969.366V69.6719H980.088ZM997.849 87.5723V91H986.496V87.5723H997.849ZM987.932 69.6719V91H983.537V69.6719H987.932ZM996.369 78.3584V81.6982H986.496V78.3584H996.369ZM997.834 69.6719V73.1143H986.496V69.6719H997.834ZM1015.62 87.5723V91H1004.27V87.5723H1015.62ZM1005.71 69.6719V91H1001.31V69.6719H1005.71ZM1014.14 78.3584V81.6982H1004.27V78.3584H1014.14ZM1015.61 69.6719V73.1143H1004.27V69.6719H1015.61Z" fill="#FCCA46"/>
<path d="M921.871 126.516V130.852C921.871 133.182 921.663 135.148 921.246 136.75C920.829 138.352 920.23 139.641 919.449 140.617C918.668 141.594 917.724 142.303 916.617 142.746C915.523 143.176 914.286 143.391 912.906 143.391C911.812 143.391 910.803 143.254 909.879 142.98C908.954 142.707 908.121 142.271 907.379 141.672C906.65 141.06 906.025 140.266 905.504 139.289C904.983 138.312 904.586 137.128 904.312 135.734C904.039 134.341 903.902 132.714 903.902 130.852V126.516C903.902 124.185 904.111 122.232 904.527 120.656C904.957 119.081 905.562 117.818 906.344 116.867C907.125 115.904 908.062 115.214 909.156 114.797C910.263 114.38 911.5 114.172 912.867 114.172C913.974 114.172 914.99 114.309 915.914 114.582C916.852 114.842 917.685 115.266 918.414 115.852C919.143 116.424 919.762 117.193 920.27 118.156C920.79 119.107 921.188 120.272 921.461 121.652C921.734 123.033 921.871 124.654 921.871 126.516ZM918.238 131.438V125.91C918.238 124.634 918.16 123.514 918.004 122.551C917.861 121.574 917.646 120.741 917.359 120.051C917.073 119.361 916.708 118.801 916.266 118.371C915.836 117.941 915.335 117.629 914.762 117.434C914.202 117.225 913.57 117.121 912.867 117.121C912.008 117.121 911.246 117.284 910.582 117.609C909.918 117.922 909.358 118.423 908.902 119.113C908.46 119.803 908.121 120.708 907.887 121.828C907.652 122.948 907.535 124.309 907.535 125.91V131.438C907.535 132.714 907.607 133.84 907.75 134.816C907.906 135.793 908.134 136.639 908.434 137.355C908.733 138.059 909.098 138.638 909.527 139.094C909.957 139.549 910.452 139.888 911.012 140.109C911.585 140.318 912.216 140.422 912.906 140.422C913.792 140.422 914.566 140.253 915.23 139.914C915.895 139.576 916.448 139.048 916.891 138.332C917.346 137.603 917.685 136.672 917.906 135.539C918.128 134.393 918.238 133.026 918.238 131.438ZM930.582 138.703V141.613C930.582 142.798 930.283 144.048 929.684 145.363C929.085 146.691 928.245 147.798 927.164 148.684L925.113 147.258C925.53 146.685 925.882 146.099 926.168 145.5C926.454 144.914 926.669 144.302 926.812 143.664C926.969 143.039 927.047 142.375 927.047 141.672V138.703H930.582ZM953.434 140.031V143H934.82V140.402L944.137 130.031C945.283 128.755 946.168 127.674 946.793 126.789C947.431 125.891 947.874 125.09 948.121 124.387C948.382 123.671 948.512 122.941 948.512 122.199C948.512 121.262 948.316 120.415 947.926 119.66C947.548 118.892 946.988 118.28 946.246 117.824C945.504 117.368 944.605 117.141 943.551 117.141C942.288 117.141 941.233 117.388 940.387 117.883C939.553 118.365 938.928 119.042 938.512 119.914C938.095 120.786 937.887 121.789 937.887 122.922H934.273C934.273 121.32 934.625 119.855 935.328 118.527C936.031 117.199 937.073 116.145 938.453 115.363C939.833 114.569 941.533 114.172 943.551 114.172C945.348 114.172 946.884 114.491 948.16 115.129C949.436 115.754 950.413 116.639 951.09 117.785C951.78 118.918 952.125 120.246 952.125 121.77C952.125 122.603 951.982 123.449 951.695 124.309C951.422 125.155 951.038 126.001 950.543 126.848C950.061 127.694 949.495 128.527 948.844 129.348C948.206 130.168 947.522 130.975 946.793 131.77L939.176 140.031H953.434ZM961.871 129.465L958.98 128.723L960.406 114.562H974.996V117.902H963.473L962.613 125.637C963.134 125.337 963.792 125.057 964.586 124.797C965.393 124.536 966.318 124.406 967.359 124.406C968.674 124.406 969.853 124.634 970.895 125.09C971.936 125.533 972.822 126.171 973.551 127.004C974.293 127.837 974.859 128.84 975.25 130.012C975.641 131.184 975.836 132.492 975.836 133.938C975.836 135.305 975.647 136.561 975.27 137.707C974.905 138.853 974.352 139.855 973.609 140.715C972.867 141.561 971.93 142.219 970.797 142.688C969.677 143.156 968.355 143.391 966.832 143.391C965.686 143.391 964.599 143.234 963.57 142.922C962.555 142.596 961.643 142.108 960.836 141.457C960.042 140.793 959.391 139.973 958.883 138.996C958.388 138.007 958.076 136.848 957.945 135.52H961.383C961.539 136.587 961.852 137.486 962.32 138.215C962.789 138.944 963.401 139.497 964.156 139.875C964.924 140.24 965.816 140.422 966.832 140.422C967.691 140.422 968.453 140.272 969.117 139.973C969.781 139.673 970.341 139.243 970.797 138.684C971.253 138.124 971.598 137.447 971.832 136.652C972.079 135.858 972.203 134.966 972.203 133.977C972.203 133.078 972.079 132.245 971.832 131.477C971.585 130.708 971.214 130.038 970.719 129.465C970.237 128.892 969.645 128.449 968.941 128.137C968.238 127.811 967.431 127.648 966.52 127.648C965.309 127.648 964.391 127.811 963.766 128.137C963.154 128.462 962.522 128.905 961.871 129.465ZM979.488 121.535V120.031C979.488 118.951 979.723 117.967 980.191 117.082C980.66 116.197 981.331 115.487 982.203 114.953C983.076 114.419 984.111 114.152 985.309 114.152C986.533 114.152 987.574 114.419 988.434 114.953C989.306 115.487 989.977 116.197 990.445 117.082C990.914 117.967 991.148 118.951 991.148 120.031V121.535C991.148 122.59 990.914 123.56 990.445 124.445C989.99 125.331 989.326 126.04 988.453 126.574C987.594 127.108 986.559 127.375 985.348 127.375C984.137 127.375 983.089 127.108 982.203 126.574C981.331 126.04 980.66 125.331 980.191 124.445C979.723 123.56 979.488 122.59 979.488 121.535ZM982.203 120.031V121.535C982.203 122.134 982.314 122.701 982.535 123.234C982.77 123.768 983.121 124.204 983.59 124.543C984.059 124.868 984.645 125.031 985.348 125.031C986.051 125.031 986.63 124.868 987.086 124.543C987.542 124.204 987.88 123.768 988.102 123.234C988.323 122.701 988.434 122.134 988.434 121.535V120.031C988.434 119.419 988.316 118.846 988.082 118.312C987.861 117.766 987.516 117.329 987.047 117.004C986.591 116.665 986.012 116.496 985.309 116.496C984.618 116.496 984.039 116.665 983.57 117.004C983.115 117.329 982.77 117.766 982.535 118.312C982.314 118.846 982.203 119.419 982.203 120.031ZM993.336 137.551V136.027C993.336 134.96 993.57 133.983 994.039 133.098C994.508 132.212 995.178 131.503 996.051 130.969C996.923 130.435 997.958 130.168 999.156 130.168C1000.38 130.168 1001.42 130.435 1002.28 130.969C1003.15 131.503 1003.82 132.212 1004.29 133.098C1004.76 133.983 1005 134.96 1005 136.027V137.551C1005 138.618 1004.76 139.595 1004.29 140.48C1003.84 141.366 1003.17 142.076 1002.3 142.609C1001.44 143.143 1000.41 143.41 999.195 143.41C997.984 143.41 996.943 143.143 996.07 142.609C995.198 142.076 994.521 141.366 994.039 140.48C993.57 139.595 993.336 138.618 993.336 137.551ZM996.051 136.027V137.551C996.051 138.15 996.161 138.723 996.383 139.27C996.617 139.803 996.969 140.24 997.438 140.578C997.906 140.904 998.492 141.066 999.195 141.066C999.898 141.066 1000.48 140.904 1000.93 140.578C1001.4 140.24 1001.75 139.803 1001.97 139.27C1002.19 138.736 1002.3 138.163 1002.3 137.551V136.027C1002.3 135.415 1002.18 134.842 1001.95 134.309C1001.73 133.775 1001.38 133.345 1000.91 133.02C1000.46 132.681 999.872 132.512 999.156 132.512C998.466 132.512 997.887 132.681 997.418 133.02C996.962 133.345 996.617 133.775 996.383 134.309C996.161 134.842 996.051 135.415 996.051 136.027ZM1000.05 118.605L986.168 140.832L984.137 139.543L998.023 117.316L1000.05 118.605Z" fill="white"/>
</g>
<rect x="794" width="80" height="32" rx="4" fill="#FCCA46"/>
<path d="M824.558 9.20312V22H821.921L816.779 13.4219V22H814.143V9.20312H816.779L821.93 17.79V9.20312H824.558ZM837.903 15.3027V15.9092C837.903 16.8818 837.771 17.7549 837.508 18.5283C837.244 19.3018 836.872 19.9609 836.392 20.5059C835.911 21.0449 835.337 21.458 834.669 21.7451C834.007 22.0322 833.271 22.1758 832.463 22.1758C831.66 22.1758 830.925 22.0322 830.257 21.7451C829.595 21.458 829.02 21.0449 828.534 20.5059C828.048 19.9609 827.67 19.3018 827.4 18.5283C827.137 17.7549 827.005 16.8818 827.005 15.9092V15.3027C827.005 14.3242 827.137 13.4512 827.4 12.6836C827.664 11.9102 828.036 11.251 828.517 10.7061C829.003 10.1611 829.577 9.74512 830.239 9.45801C830.907 9.1709 831.643 9.02734 832.445 9.02734C833.254 9.02734 833.989 9.1709 834.651 9.45801C835.319 9.74512 835.894 10.1611 836.374 10.7061C836.86 11.251 837.235 11.9102 837.499 12.6836C837.769 13.4512 837.903 14.3242 837.903 15.3027ZM835.24 15.9092V15.2852C835.24 14.6055 835.179 14.0078 835.056 13.4922C834.933 12.9766 834.751 12.543 834.511 12.1914C834.27 11.8398 833.977 11.5762 833.632 11.4004C833.286 11.2188 832.891 11.1279 832.445 11.1279C832 11.1279 831.604 11.2188 831.259 11.4004C830.919 11.5762 830.629 11.8398 830.389 12.1914C830.154 12.543 829.976 12.9766 829.852 13.4922C829.729 14.0078 829.668 14.6055 829.668 15.2852V15.9092C829.668 16.583 829.729 17.1807 829.852 17.7021C829.976 18.2178 830.157 18.6543 830.397 19.0117C830.638 19.3633 830.931 19.6299 831.276 19.8115C831.622 19.9932 832.018 20.084 832.463 20.084C832.908 20.084 833.304 19.9932 833.649 19.8115C833.995 19.6299 834.285 19.3633 834.519 19.0117C834.754 18.6543 834.933 18.2178 835.056 17.7021C835.179 17.1807 835.24 16.583 835.24 15.9092ZM843.427 19.9697L845.976 9.20312H847.399L847.725 10.9961L845.009 22H843.479L843.427 19.9697ZM842.117 9.20312L844.226 19.9697L844.051 22H842.346L839.507 9.20312H842.117ZM849.966 19.9258L852.049 9.20312H854.659L851.829 22H850.124L849.966 19.9258ZM848.199 9.20312L850.766 20.0137L850.695 22H849.166L846.433 10.9873L846.784 9.20312H848.199Z" fill="url(#paint5_linear_4365_90626)"/>
<defs>
<linearGradient id="paint0_linear_4365_90626" x1="0" y1="21" x2="146.028" y2="437.512" gradientUnits="userSpaceOnUse">
<stop stop-color="#011845"/>
<stop offset="1" stop-color="#15141D"/>
</linearGradient>
<linearGradient id="paint1_linear_4365_90626" x1="-42" y1="31" x2="64.1653" y2="467.446" gradientUnits="userSpaceOnUse">
<stop stop-color="#011845"/>
<stop offset="1" stop-color="#15141D"/>
</linearGradient>
<linearGradient id="paint2_linear_4365_90626" x1="6.5" y1="4" x2="27.1886" y2="61.8649" gradientUnits="userSpaceOnUse">
<stop stop-color="#011845"/>
<stop offset="1" stop-color="#15141D"/>
</linearGradient>
<linearGradient id="paint3_linear_4365_90626" x1="581" y1="-79.5" x2="967.617" y2="347.536" gradientUnits="userSpaceOnUse">
<stop stop-color="#011845"/>
<stop offset="1" stop-color="#15141D"/>
</linearGradient>
<linearGradient id="paint4_linear_4365_90626" x1="-36" y1="23" x2="67.1971" y2="460.954" gradientUnits="userSpaceOnUse">
<stop stop-color="#011845"/>
<stop offset="1" stop-color="#15141D"/>
</linearGradient>
<linearGradient id="paint5_linear_4365_90626" x1="813" y1="4" x2="845.489" y2="39.6687" gradientUnits="userSpaceOnUse">
<stop stop-color="#011845"/>
<stop offset="1" stop-color="#15141D"/>
</linearGradient>
<clipPath id="clip0_4365_90626">
<rect y="21" width="782" height="172" rx="12" fill="white"/>
</clipPath>
<clipPath id="clip1_4365_90626">
<rect x="794" y="21" width="320" height="172" rx="12" fill="white"/>
</clipPath>
</defs>
</svg>
