<svg width="1492" height="200" viewBox="0 0 1492 200" fill="none" xmlns="http://www.w3.org/2000/svg">
<mask id="mask0_2478_157426" style="mask-type:alpha" maskUnits="userSpaceOnUse" x="0" y="0" width="1492" height="200">
<rect width="1492" height="200" fill="#E5E7EA"/>
</mask>
<g mask="url(#mask0_2478_157426)">
<path d="M-1.18874 157.165C63.4903 148.399 126.945 131.29 190.898 117.906C229.2 108.597 268.565 106.604 306.756 97.0112C360.222 81.927 408.432 49.9395 464.071 42.286C501.504 35.9263 538.176 43.4706 573.391 52.4507C632.661 64.8349 689.532 84.4639 748.927 96.2552C818.352 111.013 899.615 113.557 960.082 66.4716C1016.32 28.321 1062.22 -28.2433 1129.58 -48.3943C1241.74 -70.9002 1341.68 7.24371 1453.21 -1.30371" stroke="#8D95A3" stroke-width="0.9805" stroke-miterlimit="10" stroke-linecap="round" stroke-dasharray="2 6"/>
<path d="M-3.42909 171.533C61.2427 162.443 124.052 142.754 187.623 127.776C225.764 117.441 265.18 114.667 303.489 105.681C360.917 89.8218 412.31 54.7485 471.998 47.1566C505.374 41.9358 538.431 47.1813 570.016 54.7394C634.137 65.8945 694.638 88.4699 758.111 101.618C825.956 116.88 905.382 119.266 964.878 73.6459C1019.79 36.662 1064.27 -16.8476 1128.14 -39.8901C1238.78 -69.9718 1348.18 8.74791 1459.96 -1.30908" stroke="#8D95A3" stroke-width="0.9805" stroke-miterlimit="10" stroke-linecap="round" stroke-dasharray="2 6"/>
<path d="M-5.50927 186.928C94.4722 170.887 189.061 128.743 289.688 116.806C350.422 103.365 403.11 65.8298 464.189 53.8881C558.269 35.4557 671.434 86.0421 761.628 105.806C829.406 122.726 909.214 126.706 969.54 81.0905C1024.53 44.2958 1068.84 -8.71548 1132.14 -32.9482C1243.06 -65.6453 1354.27 8.88854 1466.5 -2.43408" stroke="#8D95A3" stroke-width="0.9805" stroke-miterlimit="10" stroke-linecap="round" stroke-dasharray="2 6"/>
<path d="M-7.4596 203.254C89.1043 187.559 178.205 139.815 275.473 127.766C343.041 116.681 400.2 73.2744 466.865 58.9474C571.993 37.8614 673.016 88.5865 770.654 111.667C836.72 129.361 914.94 133.522 974.112 88.898C1029.28 52.2527 1073.6 -0.434875 1136.31 -25.8577C1247.04 -61.1999 1360.56 8.62478 1473.08 -4.11279" stroke="#8D95A3" stroke-width="0.9805" stroke-miterlimit="10" stroke-linecap="round" stroke-dasharray="2 6"/>
<path d="M-9.33382 220.093C76.3156 205.259 153.95 161.528 238.609 142.614C269.06 136.569 300.15 132.78 329.038 120.264C375.957 101.733 420.071 75.3625 469.493 63.589C576.688 38.9796 675.755 90.4634 773.84 116.527C840.155 136.085 918.11 142.308 978.62 97.1648C1032.63 61.5116 1075.97 11.1661 1135.69 -16.4712C1243.97 -59.0297 1367.24 8.4314 1479.6 -6.20898" stroke="#8D95A3" stroke-width="0.9805" stroke-miterlimit="10" stroke-linecap="round" stroke-dasharray="2 6"/>
<path d="M-11.1641 237.35C69.0835 222.325 140.647 179.426 218.648 156.781C252.394 146.409 288.032 144.883 320.875 131.269C370.314 112.521 415.87 84.0677 466.998 69.6727C576.216 38.0727 678.15 92.3639 777.101 121.576C844.356 142.945 920.362 151.775 983.033 105.794C1037.39 70.1154 1080.86 19.8246 1140.12 -8.71899C1247.14 -53.6178 1374.04 7.96735 1486.23 -8.34668" stroke="#8D95A3" stroke-width="0.9805" stroke-miterlimit="10" stroke-linecap="round" stroke-dasharray="2 6"/>
<path d="M-13.125 254.876C65.5134 239.06 134.196 194.23 209.751 168.942C244.997 156.028 282.958 154.69 317.689 140.451C369.393 120.825 416.463 90.4777 469.562 74.4473C581.648 38.033 685.417 97.0552 785.91 128.717C852.526 150.879 924.592 159.931 987.418 114.652C1040.62 79.9656 1083.34 31.7078 1139.83 1.51741C1243.59 -49.6307 1380.82 7.73236 1493.1 -10.4697" stroke="#8D95A3" stroke-width="0.9805" stroke-miterlimit="10" stroke-linecap="round" stroke-dasharray="2 6"/>
<path d="M-15.225 272.347C61.9437 255.796 127.79 209.453 200.73 181.696C237.299 166.092 277.502 164.428 314.372 149.904C365.084 130.772 411.029 101.187 462.071 82.9065C580.635 36.0314 683.58 98.4216 788.878 134.533C856.434 158.508 926.618 170.032 991.502 123.954C1045.05 89.2428 1088.02 40.9998 1144.27 9.91788C1245.16 -42.8371 1388.87 7.43743 1500.23 -12.2534" stroke="#8D95A3" stroke-width="0.9805" stroke-miterlimit="10" stroke-linecap="round" stroke-dasharray="2 6"/>
<path d="M-17.5401 289.576C60.0553 271.988 124.624 222.657 197.204 192.754C230.217 177.441 266.34 174.42 300.52 163.335C342.278 149.201 380.533 126.955 420.139 107.886C573.376 28.6151 654.801 89.557 791.889 140.768C860.105 166.446 929.061 180.297 995.657 133.446C1049.69 98.7646 1092.86 50.4417 1148.89 18.4683C1245.2 -35.1201 1397.63 7.41659 1507.57 -13.4688" stroke="#8D95A3" stroke-width="0.9805" stroke-miterlimit="10" stroke-linecap="round" stroke-dasharray="2 6"/>
<path d="M-20.2079 306.505C57.8876 288.069 121.215 235.846 193.546 204.079C224.655 188.743 258.81 184.308 291.717 175.133C323.706 165.116 353.712 149.989 383.336 134.794C567.817 32.2954 618.514 74.4603 788.939 145.069C859.219 173.321 929.085 192.263 999.819 143.262C1052.59 109.612 1095.19 63.1476 1148.67 30.4189C1191.81 2.1415 1244.74 -1.19607 1294.33 -3.99808C1368.03 -7.22671 1441.93 -1.06542 1515.45 -13.5894" stroke="#8D95A3" stroke-width="0.9805" stroke-miterlimit="10" stroke-linecap="round" stroke-dasharray="2 6"/>
<path d="M-23.1666 322.677C55.1569 303.609 117.398 249.194 189.171 215.685C220.022 199.686 253.876 194.171 287.04 185.658C319.279 175.979 349.565 160.962 379.358 145.592C574.939 36.6096 613.4 74.7038 794.655 153.086C862.761 181.528 930.891 201.797 1000.74 155.097C1055.8 121.217 1099.43 73.1527 1154.4 39.0829C1198.86 9.315 1253.63 6.13545 1305.05 1.96713C1377.92 -2.7902 1451.23 0.00903815 1523.85 -12.7085" stroke="#8D95A3" stroke-width="0.9805" stroke-miterlimit="10" stroke-linecap="round" stroke-dasharray="2 6"/>
<path d="M-26.5605 338.037C52.138 318.715 113.262 262.338 184.69 227.329C215.322 210.763 249.015 204.222 282.37 196.505C313.072 187.75 342.107 174.088 370.467 159.601C576.265 46.4364 600.885 70.5232 794.616 159.088C864.845 189.646 933.216 212.978 1006.41 164.219C1061.47 130.338 1105.37 82.3832 1160.24 48.0296C1204.51 17.7886 1259.06 14.0413 1310.47 8.90165C1384.54 2.37002 1459.07 2.51819 1532.86 -10.5439" stroke="#8D95A3" stroke-width="0.9805" stroke-miterlimit="10" stroke-linecap="round" stroke-dasharray="2 6"/>
<path d="M-30.3575 352.356C50.9576 332.454 112.473 271.898 186.025 235.956C216.686 219.16 250.79 213.984 284.13 205.619C314.965 196.595 344.206 182.854 372.772 168.286C581.665 54.2478 600.686 73.9751 797.73 166.806C868.362 198.405 935.829 223.068 1010.44 174.303C1065.92 140.586 1110.24 92.7954 1164.83 58.0085C1210.51 25.9134 1267.24 22.299 1320.63 16.1715C1394.54 8.61381 1468.8 5.92774 1542.32 -6.59619" stroke="#8D95A3" stroke-width="0.9805" stroke-miterlimit="10" stroke-linecap="round" stroke-dasharray="2 6"/>
<path d="M-34.775 365.393C49.0316 345.503 110.739 281.171 186.563 244.674C222.281 225.045 263.248 223.52 301.081 210.256C358.246 190.362 409.667 158.108 464.144 132.507C505.176 113.756 549.64 95.3057 595.037 96.9603C669.721 103.908 732.258 144.854 797.776 173.647C870.179 207.063 938.63 233.956 1016.08 183.655C1074.97 148.068 1121.33 96.6591 1180.51 61.5051C1224.06 33.3918 1276.78 31.3346 1326.32 24.7417C1401.8 16.0321 1477.5 11.2627 1552.69 -0.928711" stroke="#8D95A3" stroke-width="0.9805" stroke-miterlimit="10" stroke-linecap="round" stroke-dasharray="2 6"/>
<path d="M-39.9126 376.858C46.0033 356.912 108.763 290.103 186.836 253.605C221.201 235.372 260.095 233.998 296.333 222.115C348.543 205.014 396.259 177.246 445.296 152.885C492.297 130.293 542.547 106.006 595.244 106.026C670.031 111.409 732.671 152.315 797.843 181.133C869.166 214.207 939.343 244.023 1016.91 195.53C1077.95 160.304 1125.7 107.594 1186.17 71.503C1231.28 41.9139 1286.09 40.3533 1337.52 33.4602C1413.03 24.5214 1488.63 18.2676 1563.87 6.81836" stroke="#8D95A3" stroke-width="0.9805" stroke-miterlimit="10" stroke-linecap="round" stroke-dasharray="2 6"/>
<path d="M-45.7191 386.622C39.462 366.308 103.676 302.636 181.366 266.069C219.01 245.91 261.881 244.408 301.5 230.56C361.45 209.912 415.474 176.43 472.949 150.319C510.813 133.777 551.101 117.382 592.575 116.858C671.25 121.277 737.395 164.198 806.448 193.252C879.55 225.418 945.848 251.949 1024 203.445C1086.31 167.512 1135.53 114.338 1198.02 78.8772C1243.62 50.842 1298.13 49.725 1349.35 42.5879C1424.75 33.6891 1500.34 27.1114 1575.62 15.7568" stroke="#8D95A3" stroke-width="0.9805" stroke-miterlimit="10" stroke-linecap="round" stroke-dasharray="2 6"/>
<path d="M-52.2097 394.91C30.6268 374.961 95.6177 316.649 170.963 280.447C190.031 271.307 209.716 263.451 230.223 258.325C254.258 253.136 278.667 249.217 301.932 240.517C364.352 218.91 420.581 183.484 481.07 157.51C517.411 142.538 556.244 127.58 595.748 128.691C672.034 134.581 737.438 173.761 805.389 201.502C881.32 233.331 948.309 261.336 1029.24 212.078C1093.07 176.099 1144.12 122.435 1208.84 87.5258C1255.06 60.7754 1309.43 59.9275 1360.68 52.5612C1436.39 43.5426 1512.28 36.5214 1587.91 25.1416" stroke="#8D95A3" stroke-width="0.9805" stroke-miterlimit="10" stroke-linecap="round" stroke-dasharray="2 6"/>
<path d="M-59.1048 402.159C25.3192 382.03 93.2055 324.772 171.138 289.743C204.092 273.364 239.974 267.28 275.365 259.317C305.736 251.235 334.771 239.098 363.153 225.582C581.048 114.909 590.16 118.558 803.609 210.032C882.502 241.256 950.445 270.197 1034.25 220.698C1098.1 185.69 1150.05 133.744 1214.4 99.4132C1262.47 71.944 1318.77 70.8904 1371.92 63.2238C1448.04 54.0455 1524.34 46.5408 1600.21 35.1758" stroke="#8D95A3" stroke-width="0.9805" stroke-miterlimit="10" stroke-linecap="round" stroke-dasharray="2 6"/>
<path d="M-66.5735 408.54C19.2395 388.634 90.1751 333.132 170.422 299.491C203.64 284.099 239.398 278.607 274.612 270.496C306.152 262.068 336.246 249.303 365.656 235.387C579.979 125.883 594.292 136.223 804.319 220.098C882.544 249.295 953.244 277.711 1036 231.012C1101.67 197.039 1155.36 145.291 1221.03 111.318C1269.32 84.4164 1325.2 82.875 1378.35 75.2084C1456.5 65.4606 1534.86 57.4811 1612.87 45.8306" stroke="#8D95A3" stroke-width="0.9805" stroke-miterlimit="10" stroke-linecap="round" stroke-dasharray="2 6"/>
<path d="M-74.4389 414.205C11.2195 395.121 84.2116 343.393 164.906 311.212C198.455 296.671 234.058 290.477 269.39 282.973C300.526 275.029 330.391 262.897 359.5 249.425C573.58 141.43 589.371 149.782 801.722 229.271C882.417 257.51 956.159 285.834 1040.97 239.537C1108.24 206.031 1164.07 154.321 1231.78 121.627C1280.94 96.3485 1336.79 95.0362 1389.93 87.0458C1468.59 77.0984 1547.46 68.5954 1626.02 56.8398" stroke="#8D95A3" stroke-width="0.9805" stroke-miterlimit="10" stroke-linecap="round" stroke-dasharray="2 6"/>
<path d="M-82.5924 419.437C2.74219 401.35 77.5556 353.705 158.566 323.252C193.878 308.68 231.422 302.604 268.474 294.651C297.272 287.396 325.123 276.481 352.078 264.171C564.18 159.012 582.016 162.869 795.508 237.67C876.931 264.429 957.17 293.933 1042.75 249.624C1111.82 217.381 1169.57 166.343 1238.67 134.195C1288.05 109.808 1343.68 107.928 1396.89 99.8033C1477.79 89.2066 1558.73 80.2289 1639.49 68.0532" stroke="#8D95A3" stroke-width="0.9805" stroke-miterlimit="10" stroke-linecap="round" stroke-dasharray="2 6"/>
<path d="M-91.063 424.465C-5.91244 407.429 70.6192 363.908 152.084 335.238C186.022 322.614 221.361 315.434 256.788 309.091C285.468 302.753 313.238 292.849 340.171 281.092C544.178 183.755 564.974 172.964 776.204 242.546C859.186 267.83 952.042 302.999 1039.73 261.681C1110.89 231.784 1170.67 181.7 1240.53 149.367C1291.55 124.018 1348.89 121.365 1403.93 113.074C1487 101.962 1570.27 92.2955 1653.24 79.6997" stroke="#8D95A3" stroke-width="0.9805" stroke-miterlimit="10" stroke-linecap="round" stroke-dasharray="2 6"/>
<path d="M-99.8107 429.383C-14.4988 413.374 63.8835 373.707 146.12 347.024C203.064 326.562 264.514 325.036 320.379 301.183C397.95 270.105 471.212 222.736 555.706 213.466C610.513 208.857 663.461 223.259 714.764 236.775C767.749 251.271 819.858 268.393 873.851 279.994C927.799 292.701 986.293 295.153 1039.86 272.407C1113 244.246 1175.08 194.903 1246.44 163.077C1299.71 137.726 1358.99 134.867 1415.99 126.142C1499.74 114.656 1583.66 104.52 1667.24 91.6851" stroke="#8D95A3" stroke-width="0.9805" stroke-miterlimit="10" stroke-linecap="round" stroke-dasharray="2 6"/>
<path d="M-108.756 434.705C-23.3857 419.761 56.5387 384.069 139.303 359.358C196.453 340.34 257.418 338.785 313.518 316.147C463.478 254.369 520.03 200.855 687.973 244.013C746.265 257.538 803.261 275.05 861.943 287.445C920.293 300.512 983.24 305.591 1041.79 282.547C1118.34 255.241 1183.79 205.133 1258.77 174.406C1311 151.855 1368.23 148.918 1423.43 140.129C1509.45 128.089 1595.67 117.169 1681.6 103.968" stroke="#8D95A3" stroke-width="0.9805" stroke-miterlimit="10" stroke-linecap="round" stroke-dasharray="2 6"/>
<path d="M-117.693 440.35C-30.6476 426.063 52.2817 393.232 137.442 370.423C194.429 353.428 254.666 351.828 310.295 329.808C440.328 277.395 512.05 221.479 658.544 252.383C724.135 264.275 787.694 282.833 852.894 295.855C913.935 308.532 979.101 315.362 1040.9 293.671C1129.56 265.255 1204.61 206.307 1293.5 178.459C1342.34 163.971 1393.41 160.704 1443.36 152.427C1527.76 140.473 1612.1 129.301 1696.44 116.281" stroke="#8D95A3" stroke-width="0.9805" stroke-miterlimit="10" stroke-linecap="round" stroke-dasharray="2 6"/>
<path d="M-125.534 445.787C-38.2312 432.162 45.9463 402.549 131.73 381.348C189.055 365.528 249.116 363.779 305.01 342.745C427.566 294.866 503.293 238.593 641.574 262.669C709.928 272.835 776.31 290.733 843.928 303.579C907.872 316.109 975.661 324.208 1040.76 303.411C1131.3 276.772 1208.76 218.849 1299.04 191.223C1349.92 176.49 1402.98 172.883 1455 164.131C1539.87 151.883 1624.8 140.376 1709.45 127.236" stroke="#8D95A3" stroke-width="0.9805" stroke-miterlimit="10" stroke-linecap="round" stroke-dasharray="2 6"/>
<path d="M-133.456 451.909C-46.0361 438.892 39.0076 412.426 125.173 392.819C182.659 378.025 242.581 376.222 298.878 356.229C418.596 311.41 492.986 255.656 628.446 274.295C701.541 282.947 772.458 300.937 844.633 313.321C909.143 324.87 977.05 332.052 1042.56 312.619C1134.66 287.229 1214.39 230.6 1305.82 203.506C1356.85 189.151 1409.76 185.166 1461.68 176.454C1548.62 163.731 1635.68 151.615 1722.67 138.11" stroke="#8D95A3" stroke-width="0.9805" stroke-miterlimit="10" stroke-linecap="round" stroke-dasharray="2 6"/>
<path d="M-141.189 458.829C-53.5856 446.285 32.111 422.723 118.725 404.575C176.475 390.767 236.323 388.775 293.024 369.822C336.582 355.752 377.387 334.585 419.771 317.486C483.949 290.951 554.12 278.639 622.019 287.022C697.614 294.487 771.007 311.842 845.66 323.592C909.068 333.826 975.27 340.581 1039.73 323.625C1135.29 300.155 1218.62 243.329 1312.99 216.184C1364.02 202.152 1416.87 197.978 1468.74 189.171C1557.85 175.933 1647.04 163.208 1736.14 149.323" stroke="#8D95A3" stroke-width="0.9805" stroke-miterlimit="10" stroke-linecap="round" stroke-dasharray="2 6"/>
<path d="M-148.941 466.627C-61.0215 454.286 25.5636 433.319 112.794 416.456C169.5 403.924 227.952 401.385 283.66 384.451C330.989 370.332 374.867 347.32 420.764 329.511C479.825 306.268 543.771 294.085 606.269 299.229C686.664 304.723 764.695 322.129 843.838 333.552C908.165 343.103 974.852 349.887 1040.17 333.907C1137.56 311.796 1223.29 255.994 1319.22 228.897C1372.25 214.526 1427.1 210.011 1480.97 200.864C1570.6 187.427 1660.13 174.353 1749.67 160.402" stroke="#8D95A3" stroke-width="0.9805" stroke-miterlimit="10" stroke-linecap="round" stroke-dasharray="2 6"/>
<path d="M-156.488 475.544C-68.4288 463.258 18.692 444.587 106.26 428.899C164.811 416.849 224.953 414.089 282.418 396.8C330.232 382.711 374.624 359.499 421.219 341.964C478.685 320.102 540.462 308.434 601.065 312.354C683.753 316.74 764.195 333.646 845.676 344.38C908.768 352.886 973.824 359.432 1037.93 345.227C1138.75 324.617 1228.08 268.618 1326.98 241.24C1379.98 227.098 1434.75 222.394 1488.59 213.152C1580.28 199.24 1671.97 185.651 1763.66 171.415" stroke="#8D95A3" stroke-width="0.9805" stroke-miterlimit="10" stroke-linecap="round" stroke-dasharray="2 6"/>
<path d="M-163.91 485.717C-73.8886 472.996 15.7231 455.862 105.452 440.86C162.473 430.057 220.8 426.586 276.876 410.598C328.21 396.123 375.675 371.066 425.754 353.05C478.685 334.145 534.942 323.203 590.555 325.249C677.602 328.053 762.233 345.076 847.962 355.467C911.349 363.206 976.508 369.712 1040.8 355.98C1143.18 335.743 1234.65 280.982 1334.93 253.504C1389.79 238.966 1446.46 233.962 1502.09 224.46C1594.06 210.657 1685.99 196.76 1777.78 182.483" stroke="#8D95A3" stroke-width="0.9805" stroke-miterlimit="10" stroke-linecap="round" stroke-dasharray="2 6"/>
<path d="M-171.125 497.334C-81.0075 484.249 8.91961 468.844 98.9051 454.504C156.353 444.189 214.974 439.951 271.549 424.64C324.103 410.562 372.568 385.335 423.713 367.014C476.269 348.364 531.967 337.203 587.118 338.666C676.223 340.671 763.125 357.14 850.956 367.151C914.571 374.257 979.766 380.858 1044.14 367.638C1147.97 347.49 1241.65 293.834 1343.37 266.12C1400.06 251.093 1458.56 245.923 1516.19 236.081C1608.15 221.954 1700.15 207.922 1792.18 193.661" stroke="#8D95A3" stroke-width="0.9805" stroke-miterlimit="10" stroke-linecap="round" stroke-dasharray="2 6"/>
<path d="M-178.032 510.355C-85.9666 496.189 6.16495 481.887 98.2303 467.72C154.208 458.194 211.044 453.015 266.222 438.682C318.857 425.117 367.681 400.512 418.576 381.853C471.985 362.654 528.353 350.472 584.569 351.63C677.849 353.104 769.014 369.878 860.99 379.587C922.474 385.778 985.516 392.017 1047.65 379.447C1154.83 358.763 1251.92 304.437 1357.17 276.66C1414.04 262.107 1472.57 256.708 1530.3 246.826C1622.44 232.848 1714.57 218.547 1806.64 204.38" stroke="#8D95A3" stroke-width="0.9805" stroke-miterlimit="10" stroke-linecap="round" stroke-dasharray="2 6"/>
</g>
</svg>
