<svg width="782" height="193" viewBox="0 0 782 193" fill="none" xmlns="http://www.w3.org/2000/svg">
<g clip-path="url(#clip0_4481_94302)">
<rect y="21" width="553" height="172" rx="12" fill="url(#paint0_linear_4481_94302)"/>
<mask id="mask0_4481_94302" style="mask-type:alpha" maskUnits="userSpaceOnUse" x="-42" y="31" width="1114" height="170">
<rect x="-42" y="31" width="1114" height="170" rx="8" fill="url(#paint1_linear_4481_94302)" fill-opacity="0.95"/>
</mask>
<g mask="url(#mask0_4481_94302)">
<path d="M-18.8954 236.743C14.1815 227.34 47.1079 212.911 80.0772 200.73C99.8949 192.643 119.839 188.965 139.617 180.711C167.398 168.145 193.475 145.567 221.935 137.41C241.151 131.182 259.205 133.505 276.446 136.798C305.615 140.671 333.171 149.125 362.436 152.627C396.59 157.317 437.39 153.797 470.487 121.218C500.953 94.3696 527.238 56.9036 562.305 40.3696C620.07 19.5971 666.054 61.1526 722.725 48.957" stroke="#707A8B" stroke-width="0.9805" stroke-miterlimit="10" stroke-linecap="round" stroke-dasharray="2 6"/>
<path d="M-20.1629 246.214C12.9005 236.648 45.6172 220.731 78.4551 207.641C98.2318 198.965 118.229 194.822 138.015 186.959C167.81 173.713 195.638 149.119 226.109 140.777C243.202 135.517 259.55 136.663 275.029 139.311C306.686 142.132 335.884 152.146 367.103 156.223C400.406 161.318 440.257 157.838 472.752 126.305C502.459 100.326 527.833 64.9132 561.274 46.8839C618.647 21.6533 669.33 62.8842 726.159 49.8008" stroke="#707A8B" stroke-width="0.9805" stroke-miterlimit="10" stroke-linecap="round" stroke-dasharray="2 6"/>
<path d="M-21.3591 256.213C29.8175 240.276 79.7343 208.793 131.007 195.313C162.3 183.383 190.887 157.293 222.27 146.254C270.612 129.227 324.712 153.008 368.974 159.457C402.121 165.563 442.037 163.052 474.915 131.574C504.618 105.792 529.854 70.8048 563.036 52.1516C620.642 25.406 672.426 63.8761 729.501 50.0527" stroke="#707A8B" stroke-width="0.9805" stroke-miterlimit="10" stroke-linecap="round" stroke-dasharray="2 6"/>
<path d="M-22.499 266.714C26.8876 251.268 74.303 216.847 123.841 203.569C158.404 192.699 189.53 162.869 223.819 150.088C277.808 130.848 325.75 155.402 373.524 163.402C405.736 170.074 444.804 167.794 477.009 137.103C506.758 111.496 531.95 76.8272 564.87 57.5612C622.463 29.3326 675.626 64.7002 732.861 50.0684" stroke="#707A8B" stroke-width="0.9805" stroke-miterlimit="10" stroke-linecap="round" stroke-dasharray="2 6"/>
<path d="M-23.603 277.456C20.2044 263.269 61.5879 232.111 105.124 215.52C120.741 210.01 136.555 205.824 151.746 196.5C176.319 182.442 199.919 163.818 225.375 153.69C280.537 132.283 327.409 157.349 375.195 167.116C407.396 174.889 446.176 173.895 479.043 142.928C508.123 118.092 532.659 85.0284 564.163 64.6868C620.863 32.3682 678.996 65.6128 736.201 49.9141" stroke="#707A8B" stroke-width="0.9805" stroke-miterlimit="10" stroke-linecap="round" stroke-dasharray="2 6"/>
<path d="M-24.6884 288.407C16.3731 274.502 54.6184 244.342 94.9741 225.986C112.465 217.698 130.417 214.621 147.634 204.436C173.455 190.156 197.864 170.267 224.292 158.505C280.792 132.868 328.902 159.381 376.9 170.975C409.44 179.768 447.059 180.482 481.016 149.005C510.236 124.234 534.807 91.3242 566.09 70.5519C622.221 37.041 682.447 66.4333 739.594 49.8184" stroke="#707A8B" stroke-width="0.9805" stroke-miterlimit="10" stroke-linecap="round" stroke-dasharray="2 6"/>
<path d="M-25.8447 299.488C14.4095 285.275 51.2735 254.257 90.5044 234.547C108.867 224.683 127.952 221.598 146.13 210.971C173.104 196.091 198.347 175.059 225.822 162.252C283.961 133.673 332.685 162.838 381.274 175.788C413.418 185.077 449.013 186.175 482.968 155.24C511.52 131.237 535.573 99.7231 565.522 78.2194C620.304 41.3031 685.875 67.462 743.112 49.7949" stroke="#707A8B" stroke-width="0.9805" stroke-miterlimit="10" stroke-linecap="round" stroke-dasharray="2 6"/>
<path d="M-27.3659 310.33C12.1663 295.809 47.6668 264.137 85.6973 243.162C104.857 231.636 125.07 228.235 144.321 217.338C170.753 202.855 195.373 182.402 221.923 168.409C283.839 133.264 331.939 164.442 382.659 179.753C415.155 190.059 449.65 192.757 484.654 161.301C513.36 137.325 537.514 105.884 567.378 83.9179C620.77 46.3117 689.938 67.8007 746.752 49.3555" stroke="#707A8B" stroke-width="0.9805" stroke-miterlimit="10" stroke-linecap="round" stroke-dasharray="2 6"/>
<path d="M-29.0238 321.036C10.7561 305.909 45.7591 272.599 83.705 250.415C101.058 239.302 119.294 235.346 136.999 226.689C158.663 215.76 179.018 200.194 199.876 186.446C280.875 129.971 318.267 161.519 384.037 183.94C416.755 195.213 450.49 199.378 486.371 167.428C515.3 143.495 539.545 112.061 569.326 89.627C620.438 51.8832 694.357 68.209 750.499 49.1855" stroke="#707A8B" stroke-width="0.9805" stroke-miterlimit="10" stroke-linecap="round" stroke-dasharray="2 6"/>
<path d="M-30.8908 331.647C9.16869 316.015 43.6924 281.109 81.5987 257.869C97.9934 246.875 115.315 242.203 132.272 234.777C148.816 226.904 164.647 216.101 180.292 205.279C278.148 133.196 301.191 155.334 382.547 187.331C416.144 200.009 450.043 207.159 488.095 173.735C516.325 150.532 540.165 120.291 568.702 97.5962C591.819 78.1702 618.47 73.0374 643.42 68.4226C680.447 62.1224 717.065 61.4101 754.514 49.5762" stroke="#707A8B" stroke-width="0.9805" stroke-miterlimit="10" stroke-linecap="round" stroke-dasharray="2 6"/>
<path d="M-32.8583 341.922C7.33545 325.928 41.4209 289.829 79.1291 265.619C95.4251 254.263 112.649 248.974 129.692 241.94C146.336 234.267 162.296 223.529 178.028 212.61C281.748 136.113 298.893 156.532 385.216 192.503C417.706 205.418 450.655 213.461 488.124 181.508C517.494 158.067 541.929 126.852 571.274 103.302C595.121 82.9383 622.673 77.8036 648.607 72.2778C685.291 65.1325 721.784 62.4626 758.778 50.5898" stroke="#707A8B" stroke-width="0.9805" stroke-miterlimit="10" stroke-linecap="round" stroke-dasharray="2 6"/>
<path d="M-34.962 351.896C5.42017 335.755 39.0412 298.597 76.6458 273.549C92.857 261.883 110.051 256.003 127.141 249.444C142.961 242.422 158.216 232.579 173.179 222.285C282.196 142.798 293.185 155.681 385.168 196.967C418.597 211.013 451.492 220.867 490.73 187.531C520.09 164.12 544.648 132.99 573.942 109.308C597.715 88.6996 625.179 83.2525 651.148 77.1623C688.52 68.9069 725.758 64.5999 763.344 52.4746" stroke="#707A8B" stroke-width="0.9805" stroke-miterlimit="10" stroke-linecap="round" stroke-dasharray="2 6"/>
<path d="M-37.1873 361.47C4.52441 344.852 38.5575 305.216 77.2643 279.514C93.4983 267.721 110.82 262.637 127.933 255.702C143.831 248.522 159.189 238.629 174.255 228.285C284.835 148.174 293.264 158.79 386.659 202.422C420.228 217.065 452.594 227.767 492.53 194.375C522.082 171.06 546.832 140.028 575.998 116.128C600.57 94.3517 629.113 88.8666 656.121 82.0832C693.461 73.2428 730.71 67.2794 768.126 55.5078" stroke="#707A8B" stroke-width="0.9805" stroke-miterlimit="10" stroke-linecap="round" stroke-dasharray="2 6"/>
<path d="M-39.5923 370.55C3.35524 353.813 37.6795 311.947 77.5419 285.804C96.4525 272.04 117.001 268.733 136.622 258.629C166.26 243.451 193.702 221.261 222.308 202.847C243.825 189.294 267.04 175.718 289.629 174.042C326.56 173.796 355.575 194.476 386.739 207.756C421.092 223.381 453.825 235.359 495.252 200.913C526.606 176.303 552.559 143.021 584.032 118.652C607.319 99.3843 633.767 95.0718 658.873 88.2489C697.051 78.6475 735.127 71.3755 773.352 59.7207" stroke="#707A8B" stroke-width="0.9805" stroke-miterlimit="10" stroke-linecap="round" stroke-dasharray="2 6"/>
<path d="M-42.2499 378.991C1.75029 362.112 36.7267 318.721 77.7073 292.458C95.8636 279.609 115.367 276.519 134.114 267.336C161.122 254.117 186.465 234.819 212.283 217.469C236.987 201.29 263.407 183.913 289.729 180.846C326.795 179.677 355.866 200.339 386.857 213.666C420.69 229.163 454.128 242.791 495.504 209.426C527.909 184.915 554.621 150.784 586.787 125.791C610.929 105.562 638.391 101.432 664.458 94.3279C702.66 84.6013 740.764 76.4656 778.971 65.2617" stroke="#707A8B" stroke-width="0.9805" stroke-miterlimit="10" stroke-linecap="round" stroke-dasharray="2 6"/>
<path d="M-45.1393 386.6C-1.48762 369.554 34.0394 327.942 74.8299 301.665C94.7268 287.481 116.223 284.09 136.765 273.545C167.831 257.77 196.632 234.708 226.758 215.828C246.568 203.783 267.582 191.684 288.328 188.956C327.39 187 358.106 208.674 391.027 221.932C425.801 236.803 457.481 248.72 499.148 215.318C532.22 190.314 559.691 155.819 592.829 131.086C617.126 111.755 644.414 107.914 670.387 100.684C708.536 90.998 746.653 82.681 784.872 71.541" stroke="#707A8B" stroke-width="0.9805" stroke-miterlimit="10" stroke-linecap="round" stroke-dasharray="2 6"/>
<path d="M-48.2911 393.426C-5.83057 376.742 29.7902 338.266 69.3879 312.345C79.4078 305.798 89.6664 299.979 100.188 295.737C112.476 291.253 124.881 287.502 136.974 280.973C169.325 264.488 199.331 240.141 230.954 221.169C249.918 210.148 270.126 198.99 289.801 197.356C327.591 196.428 358.145 215.941 390.59 228.499C426.801 243.027 458.75 255.798 501.847 221.784C535.679 196.665 564.083 161.765 598.301 137.231C622.836 118.627 650.044 114.963 676.045 107.601C714.355 97.835 752.648 89.2465 791.042 78.0801" stroke="#707A8B" stroke-width="0.9805" stroke-miterlimit="10" stroke-linecap="round" stroke-dasharray="2 6"/>
<path d="M-51.5769 399.725C-8.31275 382.848 28.694 344.823 69.5195 319.45C86.8672 307.789 105.122 302.086 123.233 295.295C138.843 288.722 154.003 279.813 168.912 270.121C283.746 191.599 288.101 193.244 389.799 235.336C427.527 249.354 459.908 262.647 504.448 228.319C538.237 203.775 566.996 169.836 600.998 145.667C626.496 126.526 654.682 122.635 681.648 114.991C720.173 105.114 758.696 96.2241 797.212 85.0605" stroke="#707A8B" stroke-width="0.9805" stroke-miterlimit="10" stroke-linecap="round" stroke-dasharray="2 6"/>
<path d="M-55.1599 405.573C-11.2086 388.747 27.2279 351.568 69.1384 326.878C86.5663 315.783 104.729 310.443 122.762 303.572C138.976 296.725 154.701 287.377 170.147 277.383C283.141 199.728 289.735 205.063 390.158 242.901C427.67 255.777 461.465 268.622 505.334 236.005C539.981 211.96 569.595 178.016 604.241 153.971C629.82 135.146 657.824 130.996 684.794 123.353C724.369 113.024 763.955 103.736 803.56 92.2812" stroke="#707A8B" stroke-width="0.9805" stroke-miterlimit="10" stroke-linecap="round" stroke-dasharray="2 6"/>
<path d="M-58.9069 411.045C-15.0708 394.716 24.1922 359.643 66.2527 335.786C83.8018 325.174 101.928 319.424 119.99 312.908C135.978 306.372 151.557 297.41 166.829 287.692C279.631 210.907 287.074 214.978 388.92 250.143C427.729 262.332 463.058 274.973 507.934 242.458C543.359 218.585 574.045 184.514 609.643 161.1C635.57 143.182 663.552 139.176 690.539 131.341C730.389 120.866 770.263 111.241 810.156 99.6934" stroke="#707A8B" stroke-width="0.9805" stroke-miterlimit="10" stroke-linecap="round" stroke-dasharray="2 6"/>
<path d="M-62.7812 416.296C-19.1534 400.577 20.8038 367.812 62.9345 344.957C81.3691 334.219 100.462 328.427 119.411 321.543C134.196 315.551 148.704 307.427 162.84 298.522C274.513 223.497 283.221 224.773 385.918 257.149C425.181 268.44 463.704 281.439 508.863 250.045C545.121 226.809 576.73 193 613.001 169.818C638.996 152.409 666.904 148.081 693.937 140.163C734.946 129.174 775.885 119.149 816.909 107.225" stroke="#707A8B" stroke-width="0.9805" stroke-miterlimit="10" stroke-linecap="round" stroke-dasharray="2 6"/>
<path d="M-67.0237 421.342C-23.5256 406.24 17.0848 375.783 59.3648 353.931C77.0146 344.42 95.0731 338.087 113.131 332.249C127.814 326.803 142.233 319.276 156.334 310.688C263.584 240.678 274.563 233.022 376.46 262.493C416.601 272.842 461.149 288.539 507.22 258.759C544.413 236.765 576.997 203.347 613.671 179.971C640.548 161.86 669.367 156.967 697.335 148.834C739.474 137.397 781.638 126.813 823.805 114.494" stroke="#707A8B" stroke-width="0.9805" stroke-miterlimit="10" stroke-linecap="round" stroke-dasharray="2 6"/>
<path d="M-71.5196 426.278C-27.971 411.749 13.3809 383.427 55.9638 362.673C85.5568 347.11 116.387 342.648 145.623 325.113C186.107 301.991 225.311 269.343 268.088 258.906C295.76 252.977 321.481 258.562 346.426 263.711C372.161 269.35 397.316 276.616 423.71 280.46C450.023 284.97 479.16 283.066 507.189 266.327C545.298 245.211 579.011 212.025 616.428 188.812C644.446 170.528 674.26 165.392 703.25 156.868C745.775 145.144 788.312 134.22 830.825 121.695" stroke="#707A8B" stroke-width="0.9805" stroke-miterlimit="10" stroke-linecap="round" stroke-dasharray="2 6"/>
<path d="M-76.12 431.486C-32.575 417.565 9.35774 391.481 52.1227 371.838C81.7571 357.098 112.364 352.64 141.667 335.784C220.066 289.965 251.254 254.514 333.021 270.765C361.479 275.531 389.076 282.769 417.79 286.833C446.303 291.32 477.546 290.737 508.097 273.496C547.888 252.65 583.349 218.733 622.541 195.921C649.9 179.341 678.713 174.267 706.821 165.792C750.537 153.58 794.292 142.031 838.023 129.127" stroke="#707A8B" stroke-width="0.9805" stroke-miterlimit="10" stroke-linecap="round" stroke-dasharray="2 6"/>
<path d="M-80.7211 436.893C-36.3487 423.246 6.95722 398.659 50.8425 379.984C80.3025 366.444 110.564 361.996 139.614 345.504C207.567 306.389 246.498 268.535 318.225 278.69C350.444 282.064 381.287 289.574 413.25 293.652C443.148 297.763 475.426 298.111 507.546 281.461C553.49 259.204 594.249 219.331 640.272 197.403C665.518 185.844 691.274 180.922 716.741 173.043C759.662 160.955 802.516 149.342 845.465 136.615" stroke="#707A8B" stroke-width="0.9805" stroke-miterlimit="10" stroke-linecap="round" stroke-dasharray="2 6"/>
<path d="M-84.7585 441.937C-40.2732 428.655 3.50396 405.899 47.6348 388.13C77.2136 375.259 107.409 370.726 136.55 354.788C200.542 318.779 241.515 280.412 309.526 286.948C343.238 289.131 375.546 296.097 408.745 299.942C440.12 303.808 473.659 304.775 507.403 288.447C554.21 267.118 596.138 227.655 642.865 205.746C669.155 193.903 695.944 188.653 722.482 180.357C765.678 168.047 808.86 156.183 851.989 143.348" stroke="#707A8B" stroke-width="0.9805" stroke-miterlimit="10" stroke-linecap="round" stroke-dasharray="2 6"/>
<path d="M-88.8461 447.393C-44.3168 434.456 -0.257421 413.522 43.9965 396.672C73.6127 384.394 103.753 379.834 133.052 364.479C195.481 330.434 235.77 292.399 302.688 295.831C338.872 296.833 373.463 303.61 408.986 306.924C440.711 310.175 474.373 310.588 508.263 295.039C555.798 274.347 598.813 235.473 646.108 213.789C672.462 202.15 699.208 196.676 725.704 188.4C769.978 175.669 814.278 163.299 858.62 150.092" stroke="#707A8B" stroke-width="0.9805" stroke-miterlimit="10" stroke-linecap="round" stroke-dasharray="2 6"/>
<path d="M-92.8434 453.367C-48.231 440.694 -3.98428 421.456 40.432 405.445C70.1384 393.735 100.264 389.063 129.72 374.296C152.322 363.249 173.924 348.06 196.099 335.246C229.712 315.452 265.568 303.929 299.175 305.077C336.691 305.224 372.573 311.491 409.387 314.289C440.642 316.819 473.485 317.079 506.727 303.073C555.916 283.319 600.758 244.062 649.547 222.15C675.896 210.694 702.626 205.105 729.118 196.765C774.523 183.585 819.941 170.711 865.374 157.139" stroke="#707A8B" stroke-width="0.9805" stroke-miterlimit="10" stroke-linecap="round" stroke-dasharray="2 6"/>
<path d="M-96.8578 459.873C-52.0837 447.297 -7.51694 429.564 37.1537 414.284C66.2769 403.398 95.7407 398.475 124.599 384.976C149.102 373.67 172.351 357.167 196.333 343.705C227.212 326.184 259.949 315.091 291.032 314.595C331.075 313.277 369.293 319.324 408.391 321.675C440.155 323.748 473.251 324.006 506.878 310.53C556.927 291.478 602.935 252.656 652.518 230.663C679.896 218.873 707.656 212.96 735.177 204.292C780.866 190.952 826.487 177.838 872.162 164.191" stroke="#707A8B" stroke-width="0.9805" stroke-miterlimit="10" stroke-linecap="round" stroke-dasharray="2 6"/>
<path d="M-100.778 467.07C-55.9255 454.516 -11.2021 438.136 33.5862 423.543C63.6166 412.838 93.9485 407.685 123.714 393.859C148.465 382.535 171.987 365.867 196.311 352.52C226.322 335.916 257.951 325.256 288.157 324.134C329.422 322.019 368.889 327.64 409.208 329.452C440.418 330.972 472.717 331.189 505.652 318.853C557.351 300.504 605.182 261.318 656.283 238.967C683.641 227.311 711.38 221.288 738.896 212.561C785.658 198.808 832.406 185.252 879.182 171.303" stroke="#707A8B" stroke-width="0.9805" stroke-miterlimit="10" stroke-linecap="round" stroke-dasharray="2 6"/>
<path d="M-104.647 475.057C-58.7767 462.125 -12.8767 446.533 32.968 432.23C62.1697 422.369 91.6348 416.892 120.639 403.932C147.182 392.166 172.348 374.187 198.45 360.34C226.032 345.787 254.857 335.886 282.665 333.921C326.212 330.602 367.786 336.071 410.265 337.444C441.671 338.492 474.032 338.689 507.04 326.627C559.515 308.41 608.359 269.827 660.167 247.327C688.484 235.32 717.198 229.006 745.633 220.017C792.538 206.314 839.431 192.556 886.269 178.576" stroke="#707A8B" stroke-width="0.9805" stroke-miterlimit="10" stroke-linecap="round" stroke-dasharray="2 6"/>
<path d="M-108.422 483.948C-62.4788 470.795 -16.507 456.239 29.4372 442.329C58.8304 432.742 88.4887 426.787 117.71 414.209C144.847 402.614 170.526 384.467 197.182 370.37C224.564 355.991 253.125 345.99 280.736 343.705C325.366 339.795 368.118 344.816 411.681 345.853C443.241 346.516 475.621 346.78 508.646 335.027C561.853 316.783 611.748 278.728 664.301 256C693.563 243.589 723.208 237.074 752.668 227.764C799.594 213.87 846.533 200.031 893.498 186.051" stroke="#707A8B" stroke-width="0.9805" stroke-miterlimit="10" stroke-linecap="round" stroke-dasharray="2 6"/>
<path d="M-112.054 493.672C-65.0723 479.759 -18.0506 465.759 28.9307 451.845C57.5449 442.829 86.3585 436.412 114.827 424.514C141.978 413.231 167.804 395.441 194.352 381.154C222.192 366.394 251.144 355.739 279.308 353.217C326.067 348.761 370.948 353.744 416.613 354.379C447.155 354.62 478.476 354.802 510.345 343.578C565.262 324.827 616.903 286.164 671.232 263.204C700.561 251.074 730.235 244.426 759.75 235.093C806.759 221.29 853.78 207.291 900.762 193.377" stroke="#707A8B" stroke-width="0.9805" stroke-miterlimit="10" stroke-linecap="round" stroke-dasharray="2 6"/>
</g>
<path d="M58.6279 78.3584V81.7861H47.4951V78.3584H58.6279ZM48.7988 69.6719V91H44.4043V69.6719H48.7988ZM61.7627 69.6719V91H57.3828V69.6719H61.7627ZM71.1588 69.6719V91H66.7789V69.6719H71.1588ZM93.0793 79.8525V88.3047C92.7473 88.7051 92.2346 89.1396 91.5412 89.6084C90.8479 90.0674 89.9543 90.4629 88.8605 90.7949C87.7668 91.127 86.4436 91.293 84.8908 91.293C83.5139 91.293 82.259 91.0684 81.1262 90.6191C79.9934 90.1602 79.0168 89.4912 78.1965 88.6123C77.3859 87.7334 76.7609 86.6592 76.3215 85.3896C75.882 84.1104 75.6623 82.6504 75.6623 81.0098V79.6768C75.6623 78.0361 75.8723 76.5762 76.2922 75.2969C76.7219 74.0176 77.3322 72.9385 78.1232 72.0596C78.9143 71.1807 79.8566 70.5117 80.9504 70.0527C82.0441 69.5938 83.26 69.3643 84.5979 69.3643C86.4533 69.3643 87.9768 69.667 89.1682 70.2725C90.3596 70.8682 91.2678 71.6982 91.8928 72.7627C92.5275 73.8174 92.9182 75.0283 93.0646 76.3955H88.802C88.6945 75.6729 88.4895 75.043 88.1867 74.5059C87.884 73.9688 87.4494 73.5488 86.883 73.2461C86.3264 72.9434 85.6037 72.792 84.715 72.792C83.9826 72.792 83.3283 72.9434 82.7521 73.2461C82.1857 73.5391 81.7072 73.9736 81.3166 74.5498C80.926 75.126 80.6281 75.8389 80.423 76.6885C80.218 77.5381 80.1154 78.5244 80.1154 79.6475V81.0098C80.1154 82.123 80.2229 83.1094 80.4377 83.9688C80.6525 84.8184 80.9699 85.5361 81.3898 86.1221C81.8195 86.6982 82.3469 87.1328 82.9719 87.4258C83.5969 87.7188 84.3244 87.8652 85.1545 87.8652C85.8479 87.8652 86.424 87.8066 86.883 87.6895C87.3518 87.5723 87.7277 87.4307 88.0109 87.2646C88.3039 87.0889 88.5285 86.9229 88.6848 86.7666V82.9873H84.6711V79.8525H93.0793ZM111.748 78.3584V81.7861H100.615V78.3584H111.748ZM101.919 69.6719V91H97.5242V69.6719H101.919ZM114.883 69.6719V91H110.503V69.6719H114.883ZM136.648 73.3193L130.848 91H126.175L134.1 69.6719H137.073L136.648 73.3193ZM141.468 91L135.652 73.3193L135.184 69.6719H138.187L146.155 91H141.468ZM141.204 83.0605V86.5029H129.939V83.0605H141.204ZM157.338 83.3975H151.904V79.9697H157.338C158.178 79.9697 158.862 79.833 159.389 79.5596C159.917 79.2764 160.302 78.8857 160.546 78.3877C160.791 77.8896 160.913 77.3281 160.913 76.7031C160.913 76.0684 160.791 75.4775 160.546 74.9307C160.302 74.3838 159.917 73.9443 159.389 73.6123C158.862 73.2803 158.178 73.1143 157.338 73.1143H153.427V91H149.033V69.6719H157.338C159.008 69.6719 160.439 69.9746 161.63 70.5801C162.832 71.1758 163.75 72.001 164.384 73.0557C165.019 74.1104 165.337 75.3164 165.337 76.6738C165.337 78.0508 165.019 79.2422 164.384 80.248C163.75 81.2539 162.832 82.0303 161.63 82.5771C160.439 83.124 159.008 83.3975 157.338 83.3975ZM172.198 69.6719L176.652 79.3984L181.105 69.6719H185.895L178.878 83.2363V91H174.425V83.2363L167.394 69.6719H172.198Z" fill="#FCCA46"/>
<path d="M62.8164 122.803V115.49H64.4512V125H62.8955L62.8164 122.803ZM63.124 120.799L63.8008 120.781C63.8008 121.414 63.7334 122 63.5986 122.539C63.4697 123.072 63.2588 123.535 62.9658 123.928C62.6729 124.32 62.2891 124.628 61.8145 124.851C61.3398 125.067 60.7627 125.176 60.083 125.176C59.6201 125.176 59.1953 125.108 58.8086 124.974C58.4277 124.839 58.0996 124.631 57.8242 124.35C57.5488 124.068 57.335 123.702 57.1826 123.251C57.0361 122.8 56.9629 122.258 56.9629 121.625V115.49H58.5889V121.643C58.5889 122.07 58.6357 122.425 58.7295 122.706C58.8291 122.981 58.9609 123.201 59.125 123.365C59.2949 123.523 59.4824 123.635 59.6875 123.699C59.8984 123.764 60.1152 123.796 60.3379 123.796C61.0293 123.796 61.5771 123.664 61.9814 123.4C62.3857 123.131 62.6758 122.771 62.8516 122.319C63.0332 121.862 63.124 121.355 63.124 120.799ZM68.5557 117.318V128.656H66.9209V115.49H68.415L68.5557 117.318ZM74.9629 120.166V120.351C74.9629 121.042 74.8809 121.684 74.7168 122.275C74.5527 122.861 74.3125 123.371 73.9961 123.805C73.6855 124.238 73.3018 124.575 72.8447 124.815C72.3877 125.056 71.8633 125.176 71.2715 125.176C70.668 125.176 70.1348 125.076 69.6719 124.877C69.209 124.678 68.8164 124.388 68.4941 124.007C68.1719 123.626 67.9141 123.169 67.7207 122.636C67.5332 122.103 67.4043 121.502 67.334 120.834V119.85C67.4043 119.146 67.5361 118.517 67.7295 117.96C67.9229 117.403 68.1777 116.929 68.4941 116.536C68.8164 116.138 69.2061 115.836 69.6631 115.631C70.1201 115.42 70.6475 115.314 71.2451 115.314C71.8428 115.314 72.373 115.432 72.8359 115.666C73.2988 115.895 73.6885 116.223 74.0049 116.65C74.3213 117.078 74.5586 117.591 74.7168 118.188C74.8809 118.78 74.9629 119.439 74.9629 120.166ZM73.3281 120.351V120.166C73.3281 119.691 73.2783 119.246 73.1787 118.83C73.0791 118.408 72.9238 118.039 72.7129 117.723C72.5078 117.4 72.2441 117.148 71.9219 116.967C71.5996 116.779 71.2158 116.686 70.7705 116.686C70.3604 116.686 70.0029 116.756 69.6982 116.896C69.3994 117.037 69.1445 117.228 68.9336 117.468C68.7227 117.702 68.5498 117.972 68.415 118.276C68.2861 118.575 68.1895 118.886 68.125 119.208V121.484C68.2422 121.895 68.4062 122.281 68.6172 122.645C68.8281 123.002 69.1094 123.292 69.4609 123.515C69.8125 123.731 70.2549 123.84 70.7881 123.84C71.2275 123.84 71.6055 123.749 71.9219 123.567C72.2441 123.38 72.5078 123.125 72.7129 122.803C72.9238 122.48 73.0791 122.111 73.1787 121.695C73.2783 121.273 73.3281 120.825 73.3281 120.351ZM85.4834 115.49V116.738H80.3418V115.49H85.4834ZM82.082 113.179H83.708V122.645C83.708 122.967 83.7578 123.21 83.8574 123.374C83.957 123.538 84.0859 123.646 84.2441 123.699C84.4023 123.752 84.5723 123.778 84.7539 123.778C84.8887 123.778 85.0293 123.767 85.1758 123.743C85.3281 123.714 85.4424 123.69 85.5186 123.673L85.5273 125C85.3984 125.041 85.2285 125.079 85.0176 125.114C84.8125 125.155 84.5635 125.176 84.2705 125.176C83.8721 125.176 83.5059 125.097 83.1719 124.938C82.8379 124.78 82.5713 124.517 82.3721 124.147C82.1787 123.772 82.082 123.269 82.082 122.636V113.179ZM86.7842 120.351V120.148C86.7842 119.463 86.8838 118.827 87.083 118.241C87.2822 117.649 87.5693 117.137 87.9443 116.703C88.3193 116.264 88.7734 115.924 89.3066 115.684C89.8398 115.438 90.4375 115.314 91.0996 115.314C91.7676 115.314 92.3682 115.438 92.9014 115.684C93.4404 115.924 93.8975 116.264 94.2725 116.703C94.6533 117.137 94.9434 117.649 95.1426 118.241C95.3418 118.827 95.4414 119.463 95.4414 120.148V120.351C95.4414 121.036 95.3418 121.672 95.1426 122.258C94.9434 122.844 94.6533 123.356 94.2725 123.796C93.8975 124.229 93.4434 124.569 92.9102 124.815C92.3828 125.056 91.7852 125.176 91.1172 125.176C90.4492 125.176 89.8486 125.056 89.3154 124.815C88.7822 124.569 88.3252 124.229 87.9443 123.796C87.5693 123.356 87.2822 122.844 87.083 122.258C86.8838 121.672 86.7842 121.036 86.7842 120.351ZM88.4102 120.148V120.351C88.4102 120.825 88.4658 121.273 88.5771 121.695C88.6885 122.111 88.8555 122.48 89.0781 122.803C89.3066 123.125 89.5908 123.38 89.9307 123.567C90.2705 123.749 90.666 123.84 91.1172 123.84C91.5625 123.84 91.9521 123.749 92.2861 123.567C92.626 123.38 92.9072 123.125 93.1299 122.803C93.3525 122.48 93.5195 122.111 93.6309 121.695C93.748 121.273 93.8066 120.825 93.8066 120.351V120.148C93.8066 119.68 93.748 119.237 93.6309 118.821C93.5195 118.399 93.3496 118.027 93.1211 117.705C92.8984 117.377 92.6172 117.119 92.2773 116.932C91.9434 116.744 91.5508 116.65 91.0996 116.65C90.6543 116.65 90.2617 116.744 89.9219 116.932C89.5879 117.119 89.3066 117.377 89.0781 117.705C88.8555 118.027 88.6885 118.399 88.5771 118.821C88.4658 119.237 88.4102 119.68 88.4102 120.148Z" fill="white"/>
<path d="M106.488 127.004H109.066C110.329 127.004 111.371 126.796 112.191 126.379C113.025 125.949 113.643 125.37 114.047 124.641C114.464 123.898 114.672 123.065 114.672 122.141C114.672 121.047 114.49 120.129 114.125 119.387C113.76 118.645 113.214 118.085 112.484 117.707C111.755 117.329 110.831 117.141 109.711 117.141C108.695 117.141 107.797 117.342 107.016 117.746C106.247 118.137 105.642 118.697 105.199 119.426C104.77 120.155 104.555 121.014 104.555 122.004H100.941C100.941 120.559 101.306 119.243 102.035 118.059C102.764 116.874 103.786 115.93 105.102 115.227C106.43 114.523 107.966 114.172 109.711 114.172C111.43 114.172 112.934 114.478 114.223 115.09C115.512 115.689 116.514 116.587 117.23 117.785C117.947 118.97 118.305 120.448 118.305 122.219C118.305 122.935 118.135 123.703 117.797 124.523C117.471 125.331 116.957 126.086 116.254 126.789C115.564 127.492 114.665 128.072 113.559 128.527C112.452 128.97 111.124 129.191 109.574 129.191H106.488V127.004ZM106.488 129.973V127.805H109.574C111.384 127.805 112.882 128.02 114.066 128.449C115.251 128.879 116.182 129.452 116.859 130.168C117.549 130.884 118.031 131.672 118.305 132.531C118.591 133.378 118.734 134.224 118.734 135.07C118.734 136.398 118.507 137.577 118.051 138.605C117.608 139.634 116.977 140.507 116.156 141.223C115.349 141.939 114.398 142.479 113.305 142.844C112.211 143.208 111.02 143.391 109.73 143.391C108.493 143.391 107.328 143.215 106.234 142.863C105.154 142.512 104.197 142.004 103.363 141.34C102.53 140.663 101.879 139.836 101.41 138.859C100.941 137.87 100.707 136.743 100.707 135.48H104.32C104.32 136.47 104.535 137.336 104.965 138.078C105.408 138.82 106.033 139.4 106.84 139.816C107.66 140.22 108.624 140.422 109.73 140.422C110.837 140.422 111.788 140.233 112.582 139.855C113.389 139.465 114.008 138.879 114.438 138.098C114.88 137.316 115.102 136.333 115.102 135.148C115.102 133.964 114.854 132.993 114.359 132.238C113.865 131.47 113.161 130.904 112.25 130.539C111.352 130.161 110.29 129.973 109.066 129.973H106.488ZM128.285 129.465L125.395 128.723L126.82 114.562H141.41V117.902H129.887L129.027 125.637C129.548 125.337 130.206 125.057 131 124.797C131.807 124.536 132.732 124.406 133.773 124.406C135.089 124.406 136.267 124.634 137.309 125.09C138.35 125.533 139.236 126.171 139.965 127.004C140.707 127.837 141.273 128.84 141.664 130.012C142.055 131.184 142.25 132.492 142.25 133.938C142.25 135.305 142.061 136.561 141.684 137.707C141.319 138.853 140.766 139.855 140.023 140.715C139.281 141.561 138.344 142.219 137.211 142.688C136.091 143.156 134.77 143.391 133.246 143.391C132.1 143.391 131.013 143.234 129.984 142.922C128.969 142.596 128.057 142.108 127.25 141.457C126.456 140.793 125.805 139.973 125.297 138.996C124.802 138.007 124.49 136.848 124.359 135.52H127.797C127.953 136.587 128.266 137.486 128.734 138.215C129.203 138.944 129.815 139.497 130.57 139.875C131.339 140.24 132.23 140.422 133.246 140.422C134.105 140.422 134.867 140.272 135.531 139.973C136.195 139.673 136.755 139.243 137.211 138.684C137.667 138.124 138.012 137.447 138.246 136.652C138.493 135.858 138.617 134.966 138.617 133.977C138.617 133.078 138.493 132.245 138.246 131.477C137.999 130.708 137.628 130.038 137.133 129.465C136.651 128.892 136.059 128.449 135.355 128.137C134.652 127.811 133.845 127.648 132.934 127.648C131.723 127.648 130.805 127.811 130.18 128.137C129.568 128.462 128.936 128.905 128.285 129.465ZM145.902 121.535V120.031C145.902 118.951 146.137 117.967 146.605 117.082C147.074 116.197 147.745 115.487 148.617 114.953C149.49 114.419 150.525 114.152 151.723 114.152C152.947 114.152 153.988 114.419 154.848 114.953C155.72 115.487 156.391 116.197 156.859 117.082C157.328 117.967 157.562 118.951 157.562 120.031V121.535C157.562 122.59 157.328 123.56 156.859 124.445C156.404 125.331 155.74 126.04 154.867 126.574C154.008 127.108 152.973 127.375 151.762 127.375C150.551 127.375 149.503 127.108 148.617 126.574C147.745 126.04 147.074 125.331 146.605 124.445C146.137 123.56 145.902 122.59 145.902 121.535ZM148.617 120.031V121.535C148.617 122.134 148.728 122.701 148.949 123.234C149.184 123.768 149.535 124.204 150.004 124.543C150.473 124.868 151.059 125.031 151.762 125.031C152.465 125.031 153.044 124.868 153.5 124.543C153.956 124.204 154.294 123.768 154.516 123.234C154.737 122.701 154.848 122.134 154.848 121.535V120.031C154.848 119.419 154.73 118.846 154.496 118.312C154.275 117.766 153.93 117.329 153.461 117.004C153.005 116.665 152.426 116.496 151.723 116.496C151.033 116.496 150.453 116.665 149.984 117.004C149.529 117.329 149.184 117.766 148.949 118.312C148.728 118.846 148.617 119.419 148.617 120.031ZM159.75 137.551V136.027C159.75 134.96 159.984 133.983 160.453 133.098C160.922 132.212 161.592 131.503 162.465 130.969C163.337 130.435 164.372 130.168 165.57 130.168C166.794 130.168 167.836 130.435 168.695 130.969C169.568 131.503 170.238 132.212 170.707 133.098C171.176 133.983 171.41 134.96 171.41 136.027V137.551C171.41 138.618 171.176 139.595 170.707 140.48C170.251 141.366 169.587 142.076 168.715 142.609C167.855 143.143 166.82 143.41 165.609 143.41C164.398 143.41 163.357 143.143 162.484 142.609C161.612 142.076 160.935 141.366 160.453 140.48C159.984 139.595 159.75 138.618 159.75 137.551ZM162.465 136.027V137.551C162.465 138.15 162.576 138.723 162.797 139.27C163.031 139.803 163.383 140.24 163.852 140.578C164.32 140.904 164.906 141.066 165.609 141.066C166.312 141.066 166.892 140.904 167.348 140.578C167.816 140.24 168.161 139.803 168.383 139.27C168.604 138.736 168.715 138.163 168.715 137.551V136.027C168.715 135.415 168.598 134.842 168.363 134.309C168.142 133.775 167.797 133.345 167.328 133.02C166.872 132.681 166.286 132.512 165.57 132.512C164.88 132.512 164.301 132.681 163.832 133.02C163.376 133.345 163.031 133.775 162.797 134.309C162.576 134.842 162.465 135.415 162.465 136.027ZM166.469 118.605L152.582 140.832L150.551 139.543L164.438 117.316L166.469 118.605Z" fill="white"/>
<line x1="228" y1="57" x2="228" y2="157" stroke="white" stroke-opacity="0.4" stroke-width="3"/>
<path d="M270.411 69.6719H274.132L279.61 85.3311L285.089 69.6719H288.81L281.104 91H278.116L270.411 69.6719ZM268.404 69.6719H272.11L272.784 84.9355V91H268.404V69.6719ZM287.11 69.6719H290.831V91H286.437V84.9355L287.11 69.6719ZM313.103 79.8379V80.8486C313.103 82.4697 312.883 83.9248 312.444 85.2139C312.004 86.5029 311.384 87.6016 310.584 88.5098C309.783 89.4082 308.826 90.0967 307.712 90.5752C306.609 91.0537 305.383 91.293 304.036 91.293C302.698 91.293 301.472 91.0537 300.359 90.5752C299.255 90.0967 298.298 89.4082 297.488 88.5098C296.677 87.6016 296.047 86.5029 295.598 85.2139C295.159 83.9248 294.939 82.4697 294.939 80.8486V79.8379C294.939 78.207 295.159 76.752 295.598 75.4727C296.038 74.1836 296.658 73.085 297.459 72.1768C298.269 71.2686 299.226 70.5752 300.33 70.0967C301.443 69.6182 302.669 69.3789 304.006 69.3789C305.354 69.3789 306.58 69.6182 307.683 70.0967C308.796 70.5752 309.754 71.2686 310.554 72.1768C311.365 73.085 311.99 74.1836 312.429 75.4727C312.879 76.752 313.103 78.207 313.103 79.8379ZM308.665 80.8486V79.8086C308.665 78.6758 308.562 77.6797 308.357 76.8203C308.152 75.9609 307.849 75.2383 307.449 74.6523C307.048 74.0664 306.56 73.627 305.984 73.334C305.408 73.0312 304.749 72.8799 304.006 72.8799C303.264 72.8799 302.605 73.0312 302.029 73.334C301.462 73.627 300.979 74.0664 300.579 74.6523C300.188 75.2383 299.89 75.9609 299.685 76.8203C299.48 77.6797 299.378 78.6758 299.378 79.8086V80.8486C299.378 81.9717 299.48 82.9678 299.685 83.8369C299.89 84.6963 300.193 85.4238 300.593 86.0195C300.994 86.6055 301.482 87.0498 302.058 87.3525C302.634 87.6553 303.294 87.8066 304.036 87.8066C304.778 87.8066 305.437 87.6553 306.013 87.3525C306.589 87.0498 307.073 86.6055 307.463 86.0195C307.854 85.4238 308.152 84.6963 308.357 83.8369C308.562 82.9678 308.665 81.9717 308.665 80.8486ZM317.167 69.6719H325.121C326.752 69.6719 328.154 69.916 329.325 70.4043C330.507 70.8926 331.415 71.6152 332.05 72.5723C332.685 73.5293 333.002 74.7061 333.002 76.1025C333.002 77.2451 332.807 78.2266 332.416 79.0469C332.035 79.8574 331.493 80.5361 330.79 81.083C330.097 81.6201 329.281 82.0498 328.344 82.3721L326.952 83.1045H320.038L320.009 79.6768H325.151C325.922 79.6768 326.562 79.54 327.07 79.2666C327.577 78.9932 327.958 78.6123 328.212 78.124C328.476 77.6357 328.608 77.0693 328.608 76.4248C328.608 75.7412 328.481 75.1504 328.227 74.6523C327.973 74.1543 327.587 73.7734 327.07 73.5098C326.552 73.2461 325.903 73.1143 325.121 73.1143H321.562V91H317.167V69.6719ZM329.091 91L324.228 81.4932L328.871 81.4639L333.793 90.7949V91H329.091ZM351.597 87.5723V91H340.245V87.5723H351.597ZM341.68 69.6719V91H337.286V69.6719H341.68ZM350.118 78.3584V81.6982H340.245V78.3584H350.118ZM351.583 69.6719V73.1143H340.245V69.6719H351.583ZM375.795 83.9248H380.175C380.087 85.3604 379.691 86.6348 378.988 87.748C378.295 88.8613 377.323 89.7305 376.073 90.3555C374.833 90.9805 373.339 91.293 371.591 91.293C370.224 91.293 368.998 91.0586 367.914 90.5898C366.83 90.1113 365.902 89.4277 365.131 88.5391C364.369 87.6504 363.788 86.5762 363.388 85.3164C362.987 84.0566 362.787 82.6455 362.787 81.083V79.6035C362.787 78.041 362.992 76.6299 363.402 75.3701C363.822 74.1006 364.418 73.0215 365.189 72.1328C365.971 71.2441 366.903 70.5605 367.987 70.082C369.071 69.6035 370.282 69.3643 371.62 69.3643C373.397 69.3643 374.896 69.6865 376.117 70.3311C377.348 70.9756 378.3 71.8643 378.974 72.9971C379.657 74.1299 380.067 75.4189 380.204 76.8643H375.81C375.761 76.0049 375.59 75.2773 375.297 74.6816C375.004 74.0762 374.56 73.6221 373.964 73.3193C373.378 73.0068 372.597 72.8506 371.62 72.8506C370.888 72.8506 370.248 72.9873 369.701 73.2607C369.154 73.5342 368.695 73.9492 368.324 74.5059C367.953 75.0625 367.675 75.7656 367.489 76.6152C367.313 77.4551 367.226 78.4414 367.226 79.5742V81.083C367.226 82.1865 367.309 83.1582 367.475 83.998C367.641 84.8281 367.895 85.5312 368.236 86.1074C368.588 86.6738 369.037 87.1035 369.584 87.3965C370.141 87.6797 370.81 87.8213 371.591 87.8213C372.509 87.8213 373.266 87.6748 373.861 87.3818C374.457 87.0889 374.911 86.6543 375.224 86.0781C375.546 85.502 375.736 84.7842 375.795 83.9248ZM392.632 73.3193L386.832 91H382.159L390.084 69.6719H393.057L392.632 73.3193ZM397.452 91L391.636 73.3193L391.168 69.6719H394.171L402.139 91H397.452ZM397.188 83.0605V86.5029H385.923V83.0605H397.188ZM413.322 83.3975H407.888V79.9697H413.322C414.162 79.9697 414.846 79.833 415.373 79.5596C415.901 79.2764 416.286 78.8857 416.53 78.3877C416.775 77.8896 416.897 77.3281 416.897 76.7031C416.897 76.0684 416.775 75.4775 416.53 74.9307C416.286 74.3838 415.901 73.9443 415.373 73.6123C414.846 73.2803 414.162 73.1143 413.322 73.1143H409.411V91H405.017V69.6719H413.322C414.992 69.6719 416.423 69.9746 417.614 70.5801C418.816 71.1758 419.734 72.001 420.368 73.0557C421.003 74.1104 421.321 75.3164 421.321 76.6738C421.321 78.0508 421.003 79.2422 420.368 80.248C419.734 81.2539 418.816 82.0303 417.614 82.5771C416.423 83.124 414.992 83.3975 413.322 83.3975ZM431.493 73.3193L425.692 91H421.019L428.944 69.6719H431.918L431.493 73.3193ZM436.312 91L430.497 73.3193L430.028 69.6719H433.031L441 91H436.312ZM436.049 83.0605V86.5029H424.784V83.0605H436.049ZM455.977 83.9248H460.357C460.269 85.3604 459.873 86.6348 459.17 87.748C458.477 88.8613 457.505 89.7305 456.255 90.3555C455.015 90.9805 453.521 91.293 451.773 91.293C450.406 91.293 449.18 91.0586 448.096 90.5898C447.012 90.1113 446.084 89.4277 445.313 88.5391C444.551 87.6504 443.97 86.5762 443.57 85.3164C443.169 84.0566 442.969 82.6455 442.969 81.083V79.6035C442.969 78.041 443.174 76.6299 443.584 75.3701C444.004 74.1006 444.6 73.0215 445.371 72.1328C446.153 71.2441 447.085 70.5605 448.169 70.082C449.253 69.6035 450.464 69.3643 451.802 69.3643C453.579 69.3643 455.079 69.6865 456.299 70.3311C457.53 70.9756 458.482 71.8643 459.156 72.9971C459.839 74.1299 460.249 75.4189 460.386 76.8643H455.992C455.943 76.0049 455.772 75.2773 455.479 74.6816C455.186 74.0762 454.742 73.6221 454.146 73.3193C453.56 73.0068 452.779 72.8506 451.802 72.8506C451.07 72.8506 450.43 72.9873 449.883 73.2607C449.336 73.5342 448.877 73.9492 448.506 74.5059C448.135 75.0625 447.857 75.7656 447.671 76.6152C447.496 77.4551 447.408 78.4414 447.408 79.5742V81.083C447.408 82.1865 447.491 83.1582 447.657 83.998C447.823 84.8281 448.077 85.5312 448.418 86.1074C448.77 86.6738 449.219 87.1035 449.766 87.3965C450.323 87.6797 450.992 87.8213 451.773 87.8213C452.691 87.8213 453.448 87.6748 454.043 87.3818C454.639 87.0889 455.093 86.6543 455.406 86.0781C455.728 85.502 455.918 84.7842 455.977 83.9248ZM468.815 69.6719V91H464.436V69.6719H468.815ZM482.928 69.6719V91H478.548V69.6719H482.928ZM489.491 69.6719V73.1143H472.088V69.6719H489.491ZM496.06 69.6719L500.513 79.3984L504.966 69.6719H509.756L502.739 83.2363V91H498.286V83.2363L491.255 69.6719H496.06Z" fill="#FCCA46"/>
<path d="M303.988 109.953V115.91H301.059V109.953H303.988ZM303.637 141.848V147.062H300.727V141.848H303.637ZM307.543 135.676C307.543 134.895 307.367 134.191 307.016 133.566C306.664 132.941 306.085 132.368 305.277 131.848C304.47 131.327 303.389 130.845 302.035 130.402C300.395 129.895 298.975 129.276 297.777 128.547C296.592 127.818 295.674 126.913 295.023 125.832C294.385 124.751 294.066 123.443 294.066 121.906C294.066 120.305 294.411 118.924 295.102 117.766C295.792 116.607 296.768 115.715 298.031 115.09C299.294 114.465 300.779 114.152 302.484 114.152C303.812 114.152 304.997 114.354 306.039 114.758C307.081 115.148 307.96 115.734 308.676 116.516C309.405 117.297 309.958 118.254 310.336 119.387C310.727 120.52 310.922 121.828 310.922 123.312H307.328C307.328 122.44 307.224 121.639 307.016 120.91C306.807 120.181 306.495 119.549 306.078 119.016C305.661 118.469 305.154 118.052 304.555 117.766C303.956 117.466 303.266 117.316 302.484 117.316C301.391 117.316 300.486 117.505 299.77 117.883C299.066 118.26 298.546 118.794 298.207 119.484C297.868 120.161 297.699 120.949 297.699 121.848C297.699 122.681 297.868 123.41 298.207 124.035C298.546 124.66 299.118 125.227 299.926 125.734C300.746 126.229 301.872 126.717 303.305 127.199C304.984 127.733 306.41 128.365 307.582 129.094C308.754 129.81 309.646 130.695 310.258 131.75C310.87 132.792 311.176 134.087 311.176 135.637C311.176 137.316 310.798 138.736 310.043 139.895C309.288 141.04 308.227 141.913 306.859 142.512C305.492 143.111 303.891 143.41 302.055 143.41C300.948 143.41 299.854 143.26 298.773 142.961C297.693 142.661 296.716 142.173 295.844 141.496C294.971 140.806 294.275 139.901 293.754 138.781C293.233 137.648 292.973 136.262 292.973 134.621H296.605C296.605 135.728 296.762 136.646 297.074 137.375C297.4 138.091 297.829 138.664 298.363 139.094C298.897 139.51 299.483 139.81 300.121 139.992C300.772 140.161 301.417 140.246 302.055 140.246C303.227 140.246 304.216 140.064 305.023 139.699C305.844 139.322 306.469 138.788 306.898 138.098C307.328 137.408 307.543 136.6 307.543 135.676ZM325.922 114.406V143H322.309V118.918L315.023 121.574V118.312L325.355 114.406H325.922ZM336.742 138.703V141.613C336.742 142.798 336.443 144.048 335.844 145.363C335.245 146.691 334.405 147.798 333.324 148.684L331.273 147.258C331.69 146.685 332.042 146.099 332.328 145.5C332.615 144.914 332.829 144.302 332.973 143.664C333.129 143.039 333.207 142.375 333.207 141.672V138.703H336.742ZM359.203 126.516V130.852C359.203 133.182 358.995 135.148 358.578 136.75C358.161 138.352 357.562 139.641 356.781 140.617C356 141.594 355.056 142.303 353.949 142.746C352.855 143.176 351.618 143.391 350.238 143.391C349.145 143.391 348.135 143.254 347.211 142.98C346.286 142.707 345.453 142.271 344.711 141.672C343.982 141.06 343.357 140.266 342.836 139.289C342.315 138.312 341.918 137.128 341.645 135.734C341.371 134.341 341.234 132.714 341.234 130.852V126.516C341.234 124.185 341.443 122.232 341.859 120.656C342.289 119.081 342.895 117.818 343.676 116.867C344.457 115.904 345.395 115.214 346.488 114.797C347.595 114.38 348.832 114.172 350.199 114.172C351.306 114.172 352.322 114.309 353.246 114.582C354.184 114.842 355.017 115.266 355.746 115.852C356.475 116.424 357.094 117.193 357.602 118.156C358.122 119.107 358.52 120.272 358.793 121.652C359.066 123.033 359.203 124.654 359.203 126.516ZM355.57 131.438V125.91C355.57 124.634 355.492 123.514 355.336 122.551C355.193 121.574 354.978 120.741 354.691 120.051C354.405 119.361 354.04 118.801 353.598 118.371C353.168 117.941 352.667 117.629 352.094 117.434C351.534 117.225 350.902 117.121 350.199 117.121C349.34 117.121 348.578 117.284 347.914 117.609C347.25 117.922 346.69 118.423 346.234 119.113C345.792 119.803 345.453 120.708 345.219 121.828C344.984 122.948 344.867 124.309 344.867 125.91V131.438C344.867 132.714 344.939 133.84 345.082 134.816C345.238 135.793 345.466 136.639 345.766 137.355C346.065 138.059 346.43 138.638 346.859 139.094C347.289 139.549 347.784 139.888 348.344 140.109C348.917 140.318 349.548 140.422 350.238 140.422C351.124 140.422 351.898 140.253 352.562 139.914C353.227 139.576 353.78 139.048 354.223 138.332C354.678 137.603 355.017 136.672 355.238 135.539C355.46 134.393 355.57 133.026 355.57 131.438ZM382.484 126.516V130.852C382.484 133.182 382.276 135.148 381.859 136.75C381.443 138.352 380.844 139.641 380.062 140.617C379.281 141.594 378.337 142.303 377.23 142.746C376.137 143.176 374.9 143.391 373.52 143.391C372.426 143.391 371.417 143.254 370.492 142.98C369.568 142.707 368.734 142.271 367.992 141.672C367.263 141.06 366.638 140.266 366.117 139.289C365.596 138.312 365.199 137.128 364.926 135.734C364.652 134.341 364.516 132.714 364.516 130.852V126.516C364.516 124.185 364.724 122.232 365.141 120.656C365.57 119.081 366.176 117.818 366.957 116.867C367.738 115.904 368.676 115.214 369.77 114.797C370.876 114.38 372.113 114.172 373.48 114.172C374.587 114.172 375.603 114.309 376.527 114.582C377.465 114.842 378.298 115.266 379.027 115.852C379.757 116.424 380.375 117.193 380.883 118.156C381.404 119.107 381.801 120.272 382.074 121.652C382.348 123.033 382.484 124.654 382.484 126.516ZM378.852 131.438V125.91C378.852 124.634 378.773 123.514 378.617 122.551C378.474 121.574 378.259 120.741 377.973 120.051C377.686 119.361 377.322 118.801 376.879 118.371C376.449 117.941 375.948 117.629 375.375 117.434C374.815 117.225 374.184 117.121 373.48 117.121C372.621 117.121 371.859 117.284 371.195 117.609C370.531 117.922 369.971 118.423 369.516 119.113C369.073 119.803 368.734 120.708 368.5 121.828C368.266 122.948 368.148 124.309 368.148 125.91V131.438C368.148 132.714 368.22 133.84 368.363 134.816C368.52 135.793 368.747 136.639 369.047 137.355C369.346 138.059 369.711 138.638 370.141 139.094C370.57 139.549 371.065 139.888 371.625 140.109C372.198 140.318 372.829 140.422 373.52 140.422C374.405 140.422 375.18 140.253 375.844 139.914C376.508 139.576 377.061 139.048 377.504 138.332C377.96 137.603 378.298 136.672 378.52 135.539C378.741 134.393 378.852 133.026 378.852 131.438ZM405.766 126.516V130.852C405.766 133.182 405.557 135.148 405.141 136.75C404.724 138.352 404.125 139.641 403.344 140.617C402.562 141.594 401.618 142.303 400.512 142.746C399.418 143.176 398.181 143.391 396.801 143.391C395.707 143.391 394.698 143.254 393.773 142.98C392.849 142.707 392.016 142.271 391.273 141.672C390.544 141.06 389.919 140.266 389.398 139.289C388.878 138.312 388.48 137.128 388.207 135.734C387.934 134.341 387.797 132.714 387.797 130.852V126.516C387.797 124.185 388.005 122.232 388.422 120.656C388.852 119.081 389.457 117.818 390.238 116.867C391.02 115.904 391.957 115.214 393.051 114.797C394.158 114.38 395.395 114.172 396.762 114.172C397.868 114.172 398.884 114.309 399.809 114.582C400.746 114.842 401.579 115.266 402.309 115.852C403.038 116.424 403.656 117.193 404.164 118.156C404.685 119.107 405.082 120.272 405.355 121.652C405.629 123.033 405.766 124.654 405.766 126.516ZM402.133 131.438V125.91C402.133 124.634 402.055 123.514 401.898 122.551C401.755 121.574 401.54 120.741 401.254 120.051C400.967 119.361 400.603 118.801 400.16 118.371C399.73 117.941 399.229 117.629 398.656 117.434C398.096 117.225 397.465 117.121 396.762 117.121C395.902 117.121 395.141 117.284 394.477 117.609C393.812 117.922 393.253 118.423 392.797 119.113C392.354 119.803 392.016 120.708 391.781 121.828C391.547 122.948 391.43 124.309 391.43 125.91V131.438C391.43 132.714 391.501 133.84 391.645 134.816C391.801 135.793 392.029 136.639 392.328 137.355C392.628 138.059 392.992 138.638 393.422 139.094C393.852 139.549 394.346 139.888 394.906 140.109C395.479 140.318 396.111 140.422 396.801 140.422C397.686 140.422 398.461 140.253 399.125 139.914C399.789 139.576 400.342 139.048 400.785 138.332C401.241 137.603 401.579 136.672 401.801 135.539C402.022 134.393 402.133 133.026 402.133 131.438ZM414.477 138.703V141.613C414.477 142.798 414.177 144.048 413.578 145.363C412.979 146.691 412.139 147.798 411.059 148.684L409.008 147.258C409.424 146.685 409.776 146.099 410.062 145.5C410.349 144.914 410.564 144.302 410.707 143.664C410.863 143.039 410.941 142.375 410.941 141.672V138.703H414.477ZM436.938 126.516V130.852C436.938 133.182 436.729 135.148 436.312 136.75C435.896 138.352 435.297 139.641 434.516 140.617C433.734 141.594 432.79 142.303 431.684 142.746C430.59 143.176 429.353 143.391 427.973 143.391C426.879 143.391 425.87 143.254 424.945 142.98C424.021 142.707 423.188 142.271 422.445 141.672C421.716 141.06 421.091 140.266 420.57 139.289C420.049 138.312 419.652 137.128 419.379 135.734C419.105 134.341 418.969 132.714 418.969 130.852V126.516C418.969 124.185 419.177 122.232 419.594 120.656C420.023 119.081 420.629 117.818 421.41 116.867C422.191 115.904 423.129 115.214 424.223 114.797C425.329 114.38 426.566 114.172 427.934 114.172C429.04 114.172 430.056 114.309 430.98 114.582C431.918 114.842 432.751 115.266 433.48 115.852C434.21 116.424 434.828 117.193 435.336 118.156C435.857 119.107 436.254 120.272 436.527 121.652C436.801 123.033 436.938 124.654 436.938 126.516ZM433.305 131.438V125.91C433.305 124.634 433.227 123.514 433.07 122.551C432.927 121.574 432.712 120.741 432.426 120.051C432.139 119.361 431.775 118.801 431.332 118.371C430.902 117.941 430.401 117.629 429.828 117.434C429.268 117.225 428.637 117.121 427.934 117.121C427.074 117.121 426.312 117.284 425.648 117.609C424.984 117.922 424.424 118.423 423.969 119.113C423.526 119.803 423.188 120.708 422.953 121.828C422.719 122.948 422.602 124.309 422.602 125.91V131.438C422.602 132.714 422.673 133.84 422.816 134.816C422.973 135.793 423.201 136.639 423.5 137.355C423.799 138.059 424.164 138.638 424.594 139.094C425.023 139.549 425.518 139.888 426.078 140.109C426.651 140.318 427.283 140.422 427.973 140.422C428.858 140.422 429.633 140.253 430.297 139.914C430.961 139.576 431.514 139.048 431.957 138.332C432.413 137.603 432.751 136.672 432.973 135.539C433.194 134.393 433.305 133.026 433.305 131.438ZM460.219 126.516V130.852C460.219 133.182 460.01 135.148 459.594 136.75C459.177 138.352 458.578 139.641 457.797 140.617C457.016 141.594 456.072 142.303 454.965 142.746C453.871 143.176 452.634 143.391 451.254 143.391C450.16 143.391 449.151 143.254 448.227 142.98C447.302 142.707 446.469 142.271 445.727 141.672C444.997 141.06 444.372 140.266 443.852 139.289C443.331 138.312 442.934 137.128 442.66 135.734C442.387 134.341 442.25 132.714 442.25 130.852V126.516C442.25 124.185 442.458 122.232 442.875 120.656C443.305 119.081 443.91 117.818 444.691 116.867C445.473 115.904 446.41 115.214 447.504 114.797C448.611 114.38 449.848 114.172 451.215 114.172C452.322 114.172 453.337 114.309 454.262 114.582C455.199 114.842 456.033 115.266 456.762 115.852C457.491 116.424 458.109 117.193 458.617 118.156C459.138 119.107 459.535 120.272 459.809 121.652C460.082 123.033 460.219 124.654 460.219 126.516ZM456.586 131.438V125.91C456.586 124.634 456.508 123.514 456.352 122.551C456.208 121.574 455.993 120.741 455.707 120.051C455.421 119.361 455.056 118.801 454.613 118.371C454.184 117.941 453.682 117.629 453.109 117.434C452.549 117.225 451.918 117.121 451.215 117.121C450.355 117.121 449.594 117.284 448.93 117.609C448.266 117.922 447.706 118.423 447.25 119.113C446.807 119.803 446.469 120.708 446.234 121.828C446 122.948 445.883 124.309 445.883 125.91V131.438C445.883 132.714 445.954 133.84 446.098 134.816C446.254 135.793 446.482 136.639 446.781 137.355C447.081 138.059 447.445 138.638 447.875 139.094C448.305 139.549 448.799 139.888 449.359 140.109C449.932 140.318 450.564 140.422 451.254 140.422C452.139 140.422 452.914 140.253 453.578 139.914C454.242 139.576 454.796 139.048 455.238 138.332C455.694 137.603 456.033 136.672 456.254 135.539C456.475 134.393 456.586 133.026 456.586 131.438ZM483.5 126.516V130.852C483.5 133.182 483.292 135.148 482.875 136.75C482.458 138.352 481.859 139.641 481.078 140.617C480.297 141.594 479.353 142.303 478.246 142.746C477.152 143.176 475.915 143.391 474.535 143.391C473.441 143.391 472.432 143.254 471.508 142.98C470.583 142.707 469.75 142.271 469.008 141.672C468.279 141.06 467.654 140.266 467.133 139.289C466.612 138.312 466.215 137.128 465.941 135.734C465.668 134.341 465.531 132.714 465.531 130.852V126.516C465.531 124.185 465.74 122.232 466.156 120.656C466.586 119.081 467.191 117.818 467.973 116.867C468.754 115.904 469.691 115.214 470.785 114.797C471.892 114.38 473.129 114.172 474.496 114.172C475.603 114.172 476.618 114.309 477.543 114.582C478.48 114.842 479.314 115.266 480.043 115.852C480.772 116.424 481.391 117.193 481.898 118.156C482.419 119.107 482.816 120.272 483.09 121.652C483.363 123.033 483.5 124.654 483.5 126.516ZM479.867 131.438V125.91C479.867 124.634 479.789 123.514 479.633 122.551C479.49 121.574 479.275 120.741 478.988 120.051C478.702 119.361 478.337 118.801 477.895 118.371C477.465 117.941 476.964 117.629 476.391 117.434C475.831 117.225 475.199 117.121 474.496 117.121C473.637 117.121 472.875 117.284 472.211 117.609C471.547 117.922 470.987 118.423 470.531 119.113C470.089 119.803 469.75 120.708 469.516 121.828C469.281 122.948 469.164 124.309 469.164 125.91V131.438C469.164 132.714 469.236 133.84 469.379 134.816C469.535 135.793 469.763 136.639 470.062 137.355C470.362 138.059 470.727 138.638 471.156 139.094C471.586 139.549 472.081 139.888 472.641 140.109C473.214 140.318 473.845 140.422 474.535 140.422C475.421 140.422 476.195 140.253 476.859 139.914C477.523 139.576 478.077 139.048 478.52 138.332C478.975 137.603 479.314 136.672 479.535 135.539C479.757 134.393 479.867 133.026 479.867 131.438Z" fill="white"/>
</g>
<rect width="132" height="32" rx="4" fill="#FCCA46"/>
<path d="M20.3047 18.6514C20.3047 18.4229 20.2695 18.2178 20.1992 18.0361C20.1348 17.8486 20.0117 17.6787 19.8301 17.5264C19.6484 17.3682 19.3936 17.2129 19.0654 17.0605C18.7373 16.9082 18.3125 16.75 17.791 16.5859C17.2109 16.3984 16.6602 16.1875 16.1387 15.9531C15.623 15.7188 15.166 15.4463 14.7676 15.1357C14.375 14.8193 14.0645 14.4531 13.8359 14.0371C13.6133 13.6211 13.502 13.1377 13.502 12.5869C13.502 12.0537 13.6191 11.5703 13.8535 11.1367C14.0879 10.6973 14.416 10.3223 14.8379 10.0117C15.2598 9.69531 15.7578 9.45215 16.332 9.28223C16.9121 9.1123 17.5479 9.02734 18.2393 9.02734C19.1826 9.02734 20.0059 9.19727 20.709 9.53711C21.4121 9.87695 21.957 10.3428 22.3438 10.9346C22.7363 11.5264 22.9326 12.2031 22.9326 12.9648H20.3135C20.3135 12.5898 20.2344 12.2617 20.0762 11.9805C19.9238 11.6934 19.6895 11.4678 19.373 11.3037C19.0625 11.1396 18.6699 11.0576 18.1953 11.0576C17.7383 11.0576 17.3574 11.1279 17.0527 11.2686C16.748 11.4033 16.5195 11.5879 16.3672 11.8223C16.2148 12.0508 16.1387 12.3086 16.1387 12.5957C16.1387 12.8125 16.1914 13.0088 16.2969 13.1846C16.4082 13.3604 16.5723 13.5244 16.7891 13.6768C17.0059 13.8291 17.2725 13.9727 17.5889 14.1074C17.9053 14.2422 18.2715 14.374 18.6875 14.5029C19.3848 14.7139 19.9971 14.9512 20.5244 15.2148C21.0576 15.4785 21.5029 15.7744 21.8604 16.1025C22.2178 16.4307 22.4873 16.8027 22.6689 17.2188C22.8506 17.6348 22.9414 18.1064 22.9414 18.6338C22.9414 19.1904 22.833 19.6885 22.6162 20.1279C22.3994 20.5674 22.0859 20.9395 21.6758 21.2441C21.2656 21.5488 20.7764 21.7803 20.208 21.9385C19.6396 22.0967 19.0039 22.1758 18.3008 22.1758C17.668 22.1758 17.0439 22.0938 16.4287 21.9297C15.8135 21.7598 15.2539 21.5049 14.75 21.165C14.252 20.8252 13.8535 20.3916 13.5547 19.8643C13.2559 19.3369 13.1064 18.7129 13.1064 17.9922H15.752C15.752 18.3906 15.8135 18.7275 15.9365 19.0029C16.0596 19.2783 16.2324 19.501 16.4551 19.6709C16.6836 19.8408 16.9531 19.9639 17.2637 20.04C17.5801 20.1162 17.9258 20.1543 18.3008 20.1543C18.7578 20.1543 19.1328 20.0898 19.4258 19.9609C19.7246 19.832 19.9443 19.6533 20.085 19.4248C20.2314 19.1963 20.3047 18.9385 20.3047 18.6514ZM28.0781 9.20312V22H25.4502V9.20312H28.0781ZM41.5029 9.20312V22H38.8661L33.7245 13.4219V22H31.0878V9.20312H33.7245L38.8749 17.79V9.20312H41.5029ZM51.7548 17.7549H54.3827C54.33 18.6162 54.0927 19.3809 53.6708 20.0488C53.2548 20.7168 52.6718 21.2383 51.9218 21.6133C51.1776 21.9883 50.2811 22.1758 49.2323 22.1758C48.412 22.1758 47.6766 22.0352 47.0263 21.7539C46.3759 21.4668 45.8192 21.0566 45.3563 20.5234C44.8993 19.9902 44.5507 19.3457 44.3104 18.5898C44.0702 17.834 43.9501 16.9873 43.9501 16.0498V15.1621C43.9501 14.2246 44.0731 13.3779 44.3192 12.6221C44.5712 11.8604 44.9286 11.2129 45.3915 10.6797C45.8602 10.1465 46.4198 9.73633 47.0702 9.44922C47.7206 9.16211 48.4471 9.01855 49.2499 9.01855C50.3163 9.01855 51.2157 9.21191 51.9481 9.59863C52.6864 9.98535 53.2577 10.5186 53.662 11.1982C54.0721 11.8779 54.3182 12.6514 54.4003 13.5186H51.7636C51.7343 13.0029 51.6317 12.5664 51.4559 12.209C51.2802 11.8457 51.0136 11.5732 50.6561 11.3916C50.3046 11.2041 49.8358 11.1104 49.2499 11.1104C48.8104 11.1104 48.4266 11.1924 48.0985 11.3564C47.7704 11.5205 47.495 11.7695 47.2723 12.1035C47.0497 12.4375 46.8827 12.8594 46.7714 13.3691C46.6659 13.873 46.6132 14.4648 46.6132 15.1445V16.0498C46.6132 16.7119 46.663 17.2949 46.7626 17.7988C46.8622 18.2969 47.0145 18.7188 47.2196 19.0645C47.4305 19.4043 47.7001 19.6621 48.0282 19.8379C48.3622 20.0078 48.7636 20.0928 49.2323 20.0928C49.7831 20.0928 50.2372 20.0049 50.5946 19.8291C50.952 19.6533 51.2245 19.3926 51.412 19.0469C51.6054 18.7012 51.7196 18.2705 51.7548 17.7549ZM65.2411 19.9434V22H58.4295V19.9434H65.2411ZM59.2909 9.20312V22H56.6541V9.20312H59.2909ZM64.3534 14.415V16.4189H58.4295V14.415H64.3534ZM65.2323 9.20312V11.2686H58.4295V9.20312H65.2323ZM77.6853 9.17676V22H75.1541V12.0947L72.113 13.0615V11.0664L77.4129 9.17676H77.6853ZM86.8913 9.17676V22H84.3601V12.0947L81.3191 13.0615V11.0664L86.6189 9.17676H86.8913ZM96.0622 9.20312L91.3688 23.0986H89.488L94.1813 9.20312H96.0622ZM106.499 14.4766V16.6914C106.499 17.6523 106.396 18.4814 106.191 19.1787C105.986 19.8701 105.69 20.4385 105.303 20.8838C104.923 21.3232 104.468 21.6484 103.941 21.8594C103.414 22.0703 102.828 22.1758 102.183 22.1758C101.668 22.1758 101.187 22.1113 100.742 21.9824C100.297 21.8477 99.8952 21.6396 99.5377 21.3584C99.1862 21.0771 98.8815 20.7227 98.6237 20.2949C98.3717 19.8613 98.1784 19.3457 98.0436 18.748C97.9088 18.1504 97.8414 17.4648 97.8414 16.6914V14.4766C97.8414 13.5156 97.944 12.6924 98.1491 12.0068C98.36 11.3154 98.6559 10.75 99.0368 10.3105C99.4235 9.87109 99.8805 9.54883 100.408 9.34375C100.935 9.13281 101.521 9.02734 102.166 9.02734C102.681 9.02734 103.159 9.09473 103.598 9.22949C104.044 9.3584 104.445 9.56055 104.802 9.83594C105.16 10.1113 105.464 10.4658 105.716 10.8994C105.968 11.3271 106.162 11.8398 106.297 12.4375C106.431 13.0293 106.499 13.709 106.499 14.4766ZM103.959 17.0254V14.1338C103.959 13.6709 103.932 13.2666 103.88 12.9209C103.833 12.5752 103.759 12.2822 103.66 12.042C103.56 11.7959 103.437 11.5967 103.291 11.4443C103.144 11.292 102.977 11.1807 102.79 11.1104C102.602 11.04 102.394 11.0049 102.166 11.0049C101.879 11.0049 101.624 11.0605 101.401 11.1719C101.184 11.2832 101 11.4619 100.847 11.708C100.695 11.9482 100.578 12.2705 100.496 12.6748C100.42 13.0732 100.381 13.5596 100.381 14.1338V17.0254C100.381 17.4883 100.405 17.8955 100.452 18.2471C100.505 18.5986 100.581 18.9004 100.68 19.1523C100.786 19.3984 100.909 19.6006 101.049 19.7588C101.196 19.9111 101.363 20.0225 101.55 20.0928C101.744 20.1631 101.955 20.1982 102.183 20.1982C102.464 20.1982 102.714 20.1426 102.93 20.0312C103.153 19.9141 103.34 19.7324 103.493 19.4863C103.651 19.2344 103.768 18.9062 103.844 18.502C103.921 18.0977 103.959 17.6055 103.959 17.0254ZM110.73 20.0752H110.897C111.6 20.0752 112.204 19.9902 112.708 19.8203C113.217 19.6445 113.636 19.3926 113.964 19.0645C114.293 18.7363 114.536 18.335 114.694 17.8604C114.852 17.3799 114.931 16.835 114.931 16.2256V13.7998C114.931 13.3369 114.884 12.9297 114.791 12.5781C114.703 12.2266 114.574 11.9365 114.404 11.708C114.24 11.4736 114.046 11.2979 113.824 11.1807C113.607 11.0635 113.367 11.0049 113.103 11.0049C112.822 11.0049 112.573 11.0752 112.356 11.2158C112.139 11.3506 111.955 11.5352 111.802 11.7695C111.656 12.0039 111.542 12.2734 111.46 12.5781C111.383 12.877 111.345 13.1904 111.345 13.5186C111.345 13.8467 111.383 14.1602 111.46 14.459C111.536 14.752 111.65 15.0127 111.802 15.2412C111.955 15.4639 112.145 15.6426 112.374 15.7773C112.602 15.9062 112.872 15.9707 113.182 15.9707C113.481 15.9707 113.748 15.915 113.982 15.8037C114.222 15.6865 114.424 15.5342 114.588 15.3467C114.758 15.1592 114.887 14.9512 114.975 14.7227C115.069 14.4941 115.116 14.2627 115.116 14.0283L115.951 14.4854C115.951 14.8955 115.863 15.2998 115.687 15.6982C115.511 16.0967 115.265 16.46 114.949 16.7881C114.638 17.1104 114.278 17.3682 113.868 17.5615C113.458 17.7549 113.018 17.8516 112.549 17.8516C111.952 17.8516 111.421 17.7432 110.959 17.5264C110.496 17.3037 110.103 16.999 109.781 16.6123C109.464 16.2197 109.224 15.7627 109.06 15.2412C108.896 14.7197 108.814 14.1543 108.814 13.5449C108.814 12.9238 108.914 12.3408 109.113 11.7959C109.318 11.251 109.608 10.7705 109.983 10.3545C110.364 9.93848 110.818 9.61328 111.345 9.37891C111.879 9.13867 112.47 9.01855 113.121 9.01855C113.771 9.01855 114.363 9.14453 114.896 9.39648C115.429 9.64844 115.886 10.0059 116.267 10.4688C116.648 10.9258 116.941 11.4736 117.146 12.1123C117.357 12.751 117.463 13.46 117.463 14.2393V15.1182C117.463 15.9502 117.372 16.7236 117.19 17.4385C117.014 18.1533 116.748 18.8008 116.39 19.3809C116.039 19.9551 115.599 20.4473 115.072 20.8574C114.55 21.2676 113.944 21.5811 113.253 21.7979C112.561 22.0146 111.788 22.123 110.932 22.123H110.73V20.0752Z" fill="url(#paint2_linear_4481_94302)"/>
<g clip-path="url(#clip1_4481_94302)">
<rect x="561" y="21" width="221" height="172" rx="12" fill="url(#paint3_linear_4481_94302)"/>
<mask id="mask1_4481_94302" style="mask-type:alpha" maskUnits="userSpaceOnUse" x="-124" y="13" width="1152" height="185">
<rect x="1026.66" y="197.119" width="1150" height="173.987" rx="8" transform="rotate(-179.54 1026.66 197.119)" fill="url(#paint4_linear_4481_94302)" fill-opacity="0.95"/>
</mask>
<g mask="url(#mask1_4481_94302)">
<path d="M1119.61 135.677C1086.48 145.129 1053.44 159.511 1020.39 171.688C1000.52 179.758 980.566 183.504 960.728 191.737C932.85 204.256 906.555 226.582 878.052 234.781C858.799 241.023 840.806 238.87 823.637 235.761C794.568 232.167 767.164 224.068 737.994 220.837C703.96 216.476 663.195 220.213 629.775 252.396C599.049 278.942 572.37 315.871 537.173 332.331C479.272 353.108 433.864 312.673 377.156 325.029" stroke="#707A8B" stroke-width="0.9805" stroke-miterlimit="10" stroke-linecap="round" stroke-dasharray="2 6"/>
<path d="M1120.93 126.323C1087.82 135.93 1054.98 151.762 1022.05 164.823C1002.2 173.466 982.196 177.666 962.355 185.512C932.461 198.705 904.396 223.012 873.885 231.401C856.762 236.676 840.459 235.664 825.041 233.174C793.479 230.626 764.456 221.007 733.345 217.224C700.166 212.457 660.352 216.144 627.545 247.286C597.588 272.963 571.843 307.861 538.253 325.769C480.692 350.903 430.596 310.824 373.721 324.043" stroke="#707A8B" stroke-width="0.9805" stroke-miterlimit="10" stroke-linecap="round" stroke-dasharray="2 6"/>
<path d="M1122.19 116.467C1070.92 132.435 1020.73 163.633 969.402 177.193C938.029 189.098 909.19 214.866 877.738 225.899C829.29 242.916 775.58 219.97 731.482 213.947C698.474 208.186 658.607 210.917 625.421 241.995C595.471 267.468 569.87 301.935 536.533 320.443C478.723 347.05 427.499 309.689 370.373 323.625" stroke="#707A8B" stroke-width="0.9805" stroke-miterlimit="10" stroke-linecap="round" stroke-dasharray="2 6"/>
<path d="M1123.39 106.128C1073.92 121.59 1026.2 155.634 976.602 168.974C941.98 179.854 910.563 209.291 876.192 222.042C822.086 241.254 774.535 217.51 726.953 209.987C694.888 203.661 655.872 206.154 623.368 236.443C593.375 261.733 567.823 295.872 534.741 314.97C476.931 343.013 424.298 308.707 367.006 323.424" stroke="#707A8B" stroke-width="0.9805" stroke-miterlimit="10" stroke-linecap="round" stroke-dasharray="2 6"/>
<path d="M1124.56 95.5564C1080.68 109.737 1039.01 140.528 995.371 157.062C979.72 162.561 963.891 166.764 948.62 175.996C923.931 189.926 900.16 208.323 874.637 218.409C819.337 239.737 772.863 215.485 725.295 206.227C693.255 198.821 654.546 200.046 621.379 230.594C592.064 255.112 567.186 287.659 535.506 307.79C478.54 339.816 420.928 307.626 363.657 323.375" stroke="#707A8B" stroke-width="0.9805" stroke-miterlimit="10" stroke-linecap="round" stroke-dasharray="2 6"/>
<path d="M1125.72 84.7907C1084.58 98.6665 1046.06 128.443 1005.57 146.674C988.019 154.9 970.069 158.027 952.768 168.109C926.833 182.257 902.239 201.887 875.728 213.573C819.045 239.036 771.358 213.377 723.604 202.326C691.24 193.921 653.712 193.46 619.453 224.499C590.001 248.941 565.089 281.324 533.627 301.863C477.218 335.034 417.475 306.632 360.254 323.264" stroke="#707A8B" stroke-width="0.9805" stroke-miterlimit="10" stroke-linecap="round" stroke-dasharray="2 6"/>
<path d="M1126.94 73.8994C1086.61 88.0612 1049.46 118.653 1010.08 138.189C991.639 147.958 972.559 151.096 954.295 161.612C927.203 176.344 901.765 197.089 874.198 209.795C815.847 238.13 767.584 209.881 719.26 197.503C687.3 188.608 651.799 187.753 617.549 218.245C588.773 241.919 564.397 272.916 534.257 294.152C479.156 330.628 414.047 305.425 356.728 323.072" stroke="#707A8B" stroke-width="0.9805" stroke-miterlimit="10" stroke-linecap="round" stroke-dasharray="2 6"/>
<path d="M1128.55 63.2555C1088.94 77.7079 1053.14 108.921 1014.94 129.68C995.689 141.077 975.482 144.528 956.144 155.31C929.599 169.645 904.789 189.813 878.132 203.669C815.936 238.441 768.322 208.219 717.902 193.542C685.605 183.652 651.222 181.221 615.92 212.22C586.992 235.86 562.515 266.778 532.456 288.458C478.734 325.587 409.984 304.976 353.079 323.373" stroke="#707A8B" stroke-width="0.9805" stroke-miterlimit="10" stroke-linecap="round" stroke-dasharray="2 6"/>
<path d="M1130.3 52.7473C1090.43 67.7879 1055.11 100.592 1016.99 122.527C999.54 133.505 981.299 137.486 963.531 146.062C941.787 156.887 921.291 172.24 900.317 185.818C818.827 241.565 781.902 210.918 716.555 189.372C684.05 178.536 650.443 174.662 614.261 206.141C585.112 229.733 560.544 260.638 530.564 282.769C479.116 320.008 405.566 304.475 349.326 323.426" stroke="#707A8B" stroke-width="0.9805" stroke-miterlimit="10" stroke-linecap="round" stroke-dasharray="2 6"/>
<path d="M1132.26 42.3153C1092.11 57.8457 1057.25 92.2029 1019.15 115.165C1002.66 126.018 985.323 130.692 968.316 138.058C951.717 145.859 935.792 156.522 920.054 167.203C821.56 238.309 798.838 216.784 718.059 185.959C684.694 173.753 650.961 166.957 612.597 199.885C584.153 222.753 560.005 252.482 531.263 274.856C507.966 293.999 481.316 299.179 456.369 303.841C419.354 310.224 382.813 311.138 345.31 322.938" stroke="#707A8B" stroke-width="0.9805" stroke-miterlimit="10" stroke-linecap="round" stroke-dasharray="2 6"/>
<path d="M1134.31 32.1971C1094.02 48.0788 1059.58 83.5945 1021.67 107.499C1005.28 118.705 988.033 123.979 970.945 130.96C954.248 138.564 938.197 149.162 922.371 159.937C817.975 235.381 801.117 215.505 715.433 180.818C683.176 168.373 650.402 160.697 612.637 192.176C583.054 215.28 558.3 245.961 528.742 269.171C504.706 289.233 477.158 294.417 451.218 299.975C414.536 307.179 378.097 310.004 341.048 321.836" stroke="#707A8B" stroke-width="0.9805" stroke-miterlimit="10" stroke-linecap="round" stroke-dasharray="2 6"/>
<path d="M1136.5 22.3544C1096.02 38.3772 1062.03 74.9204 1024.21 99.6404C1007.9 111.146 990.674 116.997 973.546 123.513C957.679 130.473 942.341 140.19 927.29 150.347C817.576 228.734 806.768 216.194 715.503 176.338C682.324 162.79 649.626 153.341 610.08 186.178C580.508 209.249 555.633 239.843 526.123 263.179C502.159 283.476 474.694 288.963 448.714 295.071C411.332 303.362 374.131 307.791 336.489 319.869" stroke="#707A8B" stroke-width="0.9805" stroke-miterlimit="10" stroke-linecap="round" stroke-dasharray="2 6"/>
<path d="M1138.79 12.8698C1096.98 29.3641 1062.55 68.3299 1023.62 93.6931C1007.29 105.321 989.947 110.393 972.791 117.275C956.845 124.39 941.404 134.154 926.25 144.359C814.969 223.355 806.688 213.019 714.044 170.872C680.732 156.74 648.573 146.455 608.33 179.347C578.568 202.324 553.503 232.82 524.119 256.366C499.343 277.808 470.803 283.336 443.778 290.126C406.421 298.987 369.189 305.033 331.721 316.762" stroke="#707A8B" stroke-width="0.9805" stroke-miterlimit="10" stroke-linecap="round" stroke-dasharray="2 6"/>
<path d="M1141.25 3.8397C1098.2 20.4538 1063.46 61.6002 1023.38 87.3979C1004.35 100.968 983.807 104.32 964.111 114.314C934.361 129.328 906.718 151.189 877.959 169.363C856.331 182.742 833.008 196.152 810.453 197.92C773.608 198.369 744.912 178.304 713.983 165.489C679.901 150.399 647.391 138.867 605.649 172.796C574.074 197.046 547.782 229.749 516.091 253.764C492.628 272.743 466.192 277.11 441.064 283.926C402.863 293.534 364.79 300.862 326.517 312.479" stroke="#707A8B" stroke-width="0.9805" stroke-miterlimit="10" stroke-linecap="round" stroke-dasharray="2 6"/>
<path d="M1143.95 -4.59734C1099.85 12.1603 1064.44 54.8013 1023.24 80.7213C1004.97 93.392 985.478 96.5234 966.666 105.611C939.563 118.693 914.049 137.712 888.085 154.829C863.245 170.793 836.679 187.939 810.383 191.087C773.392 192.437 744.64 172.388 713.884 159.524C680.319 144.553 647.126 131.409 605.447 164.279C572.825 188.437 545.767 221.974 513.378 246.602C489.05 266.525 461.604 270.719 435.514 277.814C397.287 287.542 359.177 295.713 320.927 306.887" stroke="#707A8B" stroke-width="0.9805" stroke-miterlimit="10" stroke-linecap="round" stroke-dasharray="2 6"/>
<path d="M1146.87 -12.2426C1103.12 4.67442 1067.17 45.5793 1026.17 71.5109C1006.15 85.4962 984.66 88.9328 964.041 99.3628C932.86 114.967 903.851 137.687 873.57 156.323C853.663 168.216 832.554 180.168 811.825 182.952C772.833 185.082 742.45 164.049 709.768 151.262C675.256 136.906 643.794 125.423 601.826 158.331C568.533 182.974 540.714 216.871 507.358 241.25C482.887 260.296 455.618 264.204 429.62 271.421C391.447 281.108 353.321 289.455 315.059 300.564" stroke="#707A8B" stroke-width="0.9805" stroke-miterlimit="10" stroke-linecap="round" stroke-dasharray="2 6"/>
<path d="M1150.04 -19.1362C1107.48 -2.58038 1071.48 35.2574 1031.67 60.834C1021.59 67.2943 1011.29 73.0431 1000.74 77.2511C988.429 81.7058 976.008 85.443 963.866 91.897C931.394 108.202 901.168 132.187 869.393 150.921C850.342 161.807 830.048 172.834 810.401 174.541C772.69 175.657 742.442 156.734 710.225 144.625C674.275 130.611 642.555 118.291 599.153 151.806C565.101 176.566 536.346 210.865 501.915 235.055C477.216 253.391 450.029 257.125 424.002 264.47C385.666 274.235 347.361 282.847 308.925 293.982" stroke="#707A8B" stroke-width="0.9805" stroke-miterlimit="10" stroke-linecap="round" stroke-dasharray="2 6"/>
<path d="M1153.33 -25.5206C1109.97 -8.77241 1072.6 28.6333 1031.56 53.6798C1014.12 65.184 995.838 70.8624 977.689 77.6059C962.038 84.1215 946.806 92.9204 931.817 102.484C816.316 179.935 811.991 178.35 711.038 137.719C673.567 124.209 641.422 111.378 596.577 145.207C562.574 169.405 533.478 202.768 499.267 226.601C473.601 245.467 445.435 249.426 418.441 257.053C379.889 266.925 341.351 275.833 302.794 286.965" stroke="#707A8B" stroke-width="0.9805" stroke-miterlimit="10" stroke-linecap="round" stroke-dasharray="2 6"/>
<path d="M1156.92 -31.4656C1112.88 -14.7635 1074.09 21.8251 1031.98 46.2106C1014.46 57.1611 996.276 62.4853 978.203 69.3058C961.946 76.0929 946.146 85.3251 930.617 95.1879C816.962 171.786 810.447 166.601 710.713 130.118C673.442 117.721 639.88 105.333 595.725 137.487C560.873 161.202 530.923 194.578 496.071 218.293C470.328 236.852 442.34 241.064 415.343 248.689C375.738 259.01 336.134 268.312 296.486 279.734" stroke="#707A8B" stroke-width="0.9805" stroke-miterlimit="10" stroke-linecap="round" stroke-dasharray="2 6"/>
<path d="M1160.67 -37.0592C1116.75 -20.8433 1077.16 13.6917 1034.91 37.2647C1017.28 47.7438 999.123 53.4685 981.026 59.9423C964.998 66.425 949.348 75.2791 933.995 84.8709C820.542 160.622 813.166 156.678 711.976 122.81C673.403 111.089 638.307 98.9071 593.148 130.969C557.521 154.522 526.502 188.031 490.708 211.135C464.628 228.81 436.664 232.881 409.646 240.693C369.764 251.158 329.868 260.792 289.932 272.307" stroke="#707A8B" stroke-width="0.9805" stroke-miterlimit="10" stroke-linecap="round" stroke-dasharray="2 6"/>
<path d="M1164.55 -42.4301C1120.84 -26.8125 1080.58 5.47078 1038.28 28.0653C1019.76 38.6735 1000.64 44.4439 981.652 51.2835C966.83 57.2271 952.259 65.2558 938.05 74.047C825.744 148.076 817.071 146.873 714.996 115.731C675.958 104.889 637.679 92.3709 592.251 123.34C555.801 146.276 523.863 179.536 487.401 202.419C461.259 219.598 433.364 223.983 406.3 231.876C365.255 242.851 324.291 252.881 283.221 264.771" stroke="#707A8B" stroke-width="0.9805" stroke-miterlimit="10" stroke-linecap="round" stroke-dasharray="2 6"/>
<path d="M1168.8 -47.5945C1125.23 -32.5771 1084.35 -2.54379 1041.91 19.0755C1024.18 28.4806 1006.09 34.7774 988.005 40.5889C973.291 45.9988 958.815 53.4452 944.645 61.9281C836.81 131.04 825.765 138.594 724.448 110.286C684.522 100.368 640.261 85.2391 593.943 114.64C556.574 136.37 523.668 169.261 486.801 192.341C459.77 210.215 430.959 215.159 402.957 223.271C360.779 234.692 318.586 245.279 276.369 257.564" stroke="#707A8B" stroke-width="0.9805" stroke-miterlimit="10" stroke-linecap="round" stroke-dasharray="2 6"/>
<path d="M1173.32 -52.6557C1129.7 -38.1946 1088.1 -10.2383 1045.37 10.3143C1015.66 25.7129 984.846 30.2476 955.469 47.5759C914.802 70.4358 875.301 102.617 832.496 113.067C804.815 119.021 779.218 113.69 754.389 108.783C728.779 103.399 703.765 96.4191 677.475 92.7964C651.275 88.5209 622.179 90.5426 594.016 107.084C555.742 127.967 521.713 160.646 484.105 183.577C455.934 201.632 426.126 206.822 397.1 215.325C354.532 227.034 311.961 237.96 269.394 250.453" stroke="#707A8B" stroke-width="0.9805" stroke-miterlimit="10" stroke-linecap="round" stroke-dasharray="2 6"/>
<path d="M1177.94 -57.9827C1134.33 -44.1128 1092.18 -18.3373 1049.28 1.1343C1019.54 15.7315 988.945 20.2634 959.507 36.9323C880.741 82.235 849.204 117.128 767.807 101.651C739.467 97.1364 712.016 90.1956 683.412 86.3705C655.015 82.1293 623.833 82.869 593.146 99.9219C553.196 120.555 517.415 153.968 478.04 176.524C450.545 192.912 421.736 198.037 393.59 206.49C349.826 218.687 306.03 230.236 262.244 243.111" stroke="#707A8B" stroke-width="0.9805" stroke-miterlimit="10" stroke-linecap="round" stroke-dasharray="2 6"/>
<path d="M1182.57 -63.508C1138.13 -49.8969 1094.63 -25.5741 1050.62 -7.03975C1021.06 6.38591 990.815 10.9082 961.635 27.2225C893.368 65.9131 854.077 103.211 782.623 93.6503C750.513 90.5194 719.823 83.3288 687.977 79.5065C658.192 75.6413 625.987 75.4755 593.74 91.9614C547.634 114.017 506.495 153.303 460.313 175.036C434.987 186.497 409.227 191.459 383.723 199.316C340.752 211.391 297.854 223.001 254.848 235.703" stroke="#707A8B" stroke-width="0.9805" stroke-miterlimit="10" stroke-linecap="round" stroke-dasharray="2 6"/>
<path d="M1186.63 -68.6426C1142.08 -55.3858 1098.13 -32.8483 1053.89 -15.1964C1024.22 -2.42234 994.034 2.18329 964.768 17.9597C900.49 53.5935 859.154 91.4135 791.364 85.378C757.749 83.4222 725.59 76.7707 692.506 73.1841C661.243 69.5661 627.785 68.8005 593.921 84.9839C546.964 106.139 504.663 145.038 457.778 166.761C431.405 178.509 404.612 183.799 378.032 192.073C334.783 204.37 291.554 216.231 248.366 229.043" stroke="#707A8B" stroke-width="0.9805" stroke-miterlimit="10" stroke-linecap="round" stroke-dasharray="2 6"/>
<path d="M1190.74 -74.188C1146.15 -61.2665 1101.94 -40.5087 1057.58 -23.7529C1027.89 -11.5583 997.755 -6.92471 968.337 8.28375C905.641 41.991 864.992 79.4893 798.254 76.489C762.156 75.7034 727.716 69.2493 692.305 66.1952C660.684 63.1812 627.097 62.9594 593.096 78.3832C545.418 98.922 502.039 137.258 454.589 158.768C428.154 170.318 401.4 175.829 374.863 184.085C330.532 196.803 286.18 209.168 241.776 222.354" stroke="#707A8B" stroke-width="0.9805" stroke-miterlimit="10" stroke-linecap="round" stroke-dasharray="2 6"/>
<path d="M1194.77 -80.2464C1150.1 -67.5807 1105.72 -48.4808 1061.21 -32.544C1031.43 -20.9036 1001.31 -16.1595 971.74 -1.52379C949.055 9.42898 927.321 24.4353 905.042 37.1176C871.267 56.7041 835.351 68.1948 801.826 67.252C764.388 67.3121 728.652 61.3639 691.947 58.8216C660.785 56.5113 628.012 56.4349 594.675 70.3455C545.357 89.9772 500.15 128.705 451.206 150.45C424.777 161.824 398.038 167.448 371.503 175.767C326.037 188.935 280.562 201.802 235.064 215.354" stroke="#707A8B" stroke-width="0.9805" stroke-miterlimit="10" stroke-linecap="round" stroke-dasharray="2 6"/>
<path d="M1198.81 -86.8186C1153.98 -74.2457 1109.3 -56.6172 1064.54 -41.3933C1035.35 -30.5628 1005.89 -25.5756 976.935 -12.1838C952.35 -0.966178 928.957 15.3403 904.866 28.6693C873.846 46.0159 841.047 57.0695 810.021 57.724C770.044 59.234 731.972 53.5129 692.981 51.4195C661.305 49.5594 628.279 49.4863 594.563 62.8813C544.394 81.8331 498.029 120.146 448.29 141.978C420.83 153.685 393.058 159.634 365.492 168.281C319.741 181.609 274.059 194.714 228.318 208.342" stroke="#707A8B" stroke-width="0.9805" stroke-miterlimit="10" stroke-linecap="round" stroke-dasharray="2 6"/>
<path d="M1202.77 -94.0752C1157.86 -81.5218 1113.04 -65.218 1068.17 -50.6661C1038.08 -40.0063 1007.74 -34.7888 977.878 -21.0704C953.045 -9.83287 929.377 6.63942 904.948 19.8587C874.804 36.3029 843.115 46.9271 812.956 48.1905C771.749 50.4876 732.426 45.1888 692.208 43.6309C661.078 42.3087 628.845 42.2708 595.833 54.5459C544.025 72.8182 495.835 111.502 444.578 133.695C417.14 145.273 389.386 151.33 361.824 160.036C314.996 173.775 268.184 187.321 221.339 201.252" stroke="#707A8B" stroke-width="0.9805" stroke-miterlimit="10" stroke-linecap="round" stroke-dasharray="2 6"/>
<path d="M1206.68 -102.105C1160.75 -89.1755 1114.76 -73.637 1068.84 -59.3638C1039.58 -49.536 1010.11 -44.0059 981.018 -31.14C954.391 -19.458 929.067 -1.69027 902.856 12.0302C875.161 26.4503 846.278 36.3157 818.503 38.3929C775.003 41.8814 733.574 36.7416 691.195 35.624C659.863 34.7648 627.568 34.7458 594.486 46.753C541.904 64.9004 492.711 103.003 440.745 125.347C412.345 137.275 383.615 143.622 355.132 152.591C308.161 166.281 261.202 180.026 214.294 193.988" stroke="#707A8B" stroke-width="0.9805" stroke-miterlimit="10" stroke-linecap="round" stroke-dasharray="2 6"/>
<path d="M1210.5 -111.03C1164.5 -97.8833 1118.45 -83.3613 1072.43 -69.4725C1042.99 -59.9126 1013.32 -53.913 984.009 -41.4206C956.791 -29.9028 930.953 -11.9664 904.187 2.00254C876.693 16.252 848.073 26.2135 820.489 28.6022C775.902 32.6755 733.291 27.9794 689.825 27.1949C658.335 26.7138 626.021 26.6274 592.925 38.3318C539.611 56.5096 489.376 94.1017 436.663 116.674C407.316 129.003 377.653 135.552 348.143 144.84C301.15 158.719 254.143 172.543 207.108 186.506" stroke="#707A8B" stroke-width="0.9805" stroke-miterlimit="10" stroke-linecap="round" stroke-dasharray="2 6"/>
<path d="M1214.19 -120.769C1167.14 -106.872 1120.05 -92.8909 1073 -78.9941C1044.33 -69.9988 1015.5 -63.552 986.951 -51.7307C959.723 -40.5191 933.743 -22.9324 907.082 -8.77802C879.127 5.84729 850.109 16.4529 821.969 19.0753C775.251 23.6944 730.514 19.0435 684.945 18.663C654.466 18.588 623.207 18.5758 591.27 29.7535C536.245 48.437 484.26 86.6349 429.772 109.444C400.36 121.497 370.667 128.175 341.102 137.486C294.026 151.274 246.935 165.256 199.885 179.152" stroke="#707A8B" stroke-width="0.9805" stroke-miterlimit="10" stroke-linecap="round" stroke-dasharray="2 6"/>
</g>
<path d="M624.615 87.5723V91H613.878V87.5723H624.615ZM615.299 69.6719V91H610.904V69.6719H615.299ZM644.587 79.8379V80.8486C644.587 82.4697 644.368 83.9248 643.928 85.2139C643.489 86.5029 642.869 87.6016 642.068 88.5098C641.267 89.4082 640.31 90.0967 639.197 90.5752C638.093 91.0537 636.868 91.293 635.52 91.293C634.182 91.293 632.957 91.0537 631.843 90.5752C630.74 90.0967 629.783 89.4082 628.972 88.5098C628.162 87.6016 627.532 86.5029 627.083 85.2139C626.643 83.9248 626.423 82.4697 626.423 80.8486V79.8379C626.423 78.207 626.643 76.752 627.083 75.4727C627.522 74.1836 628.142 73.085 628.943 72.1768C629.754 71.2686 630.711 70.5752 631.814 70.0967C632.927 69.6182 634.153 69.3789 635.491 69.3789C636.838 69.3789 638.064 69.6182 639.168 70.0967C640.281 70.5752 641.238 71.2686 642.039 72.1768C642.849 73.085 643.474 74.1836 643.914 75.4727C644.363 76.752 644.587 78.207 644.587 79.8379ZM640.149 80.8486V79.8086C640.149 78.6758 640.046 77.6797 639.841 76.8203C639.636 75.9609 639.334 75.2383 638.933 74.6523C638.533 74.0664 638.045 73.627 637.468 73.334C636.892 73.0312 636.233 72.8799 635.491 72.8799C634.749 72.8799 634.089 73.0312 633.513 73.334C632.947 73.627 632.463 74.0664 632.063 74.6523C631.672 75.2383 631.375 75.9609 631.17 76.8203C630.964 77.6797 630.862 78.6758 630.862 79.8086V80.8486C630.862 81.9717 630.964 82.9678 631.17 83.8369C631.375 84.6963 631.677 85.4238 632.078 86.0195C632.478 86.6055 632.966 87.0498 633.543 87.3525C634.119 87.6553 634.778 87.8066 635.52 87.8066C636.262 87.8066 636.921 87.6553 637.498 87.3525C638.074 87.0498 638.557 86.6055 638.948 86.0195C639.338 85.4238 639.636 84.6963 639.841 83.8369C640.046 82.9678 640.149 81.9717 640.149 80.8486ZM653.793 87.6162L658.041 69.6719H660.414L660.956 72.6602L656.43 91H653.881L653.793 87.6162ZM651.611 69.6719L655.126 87.6162L654.833 91H651.991L647.26 69.6719H651.611ZM664.692 87.543L668.163 69.6719H672.514L667.797 91H664.955L664.692 87.543ZM661.747 69.6719L666.025 87.6895L665.907 91H663.359L658.803 72.6455L659.389 69.6719H661.747ZM688.567 69.6719V91H684.172V69.6719H688.567ZM697.063 78.7832V82.2109H687.366V78.7832H697.063ZM698.088 69.6719V73.1143H687.366V69.6719H698.088ZM715.849 87.5723V91H704.496V87.5723H715.849ZM705.932 69.6719V91H701.537V69.6719H705.932ZM714.369 78.3584V81.6982H704.496V78.3584H714.369ZM715.834 69.6719V73.1143H704.496V69.6719H715.834ZM733.624 87.5723V91H722.271V87.5723H733.624ZM723.707 69.6719V91H719.312V69.6719H723.707ZM732.144 78.3584V81.6982H722.271V78.3584H732.144ZM733.609 69.6719V73.1143H722.271V69.6719H733.609Z" fill="#FCCA46"/>
<path d="M639.871 126.516V130.852C639.871 133.182 639.663 135.148 639.246 136.75C638.829 138.352 638.23 139.641 637.449 140.617C636.668 141.594 635.724 142.303 634.617 142.746C633.523 143.176 632.286 143.391 630.906 143.391C629.812 143.391 628.803 143.254 627.879 142.98C626.954 142.707 626.121 142.271 625.379 141.672C624.65 141.06 624.025 140.266 623.504 139.289C622.983 138.312 622.586 137.128 622.312 135.734C622.039 134.341 621.902 132.714 621.902 130.852V126.516C621.902 124.185 622.111 122.232 622.527 120.656C622.957 119.081 623.562 117.818 624.344 116.867C625.125 115.904 626.062 115.214 627.156 114.797C628.263 114.38 629.5 114.172 630.867 114.172C631.974 114.172 632.99 114.309 633.914 114.582C634.852 114.842 635.685 115.266 636.414 115.852C637.143 116.424 637.762 117.193 638.27 118.156C638.79 119.107 639.188 120.272 639.461 121.652C639.734 123.033 639.871 124.654 639.871 126.516ZM636.238 131.438V125.91C636.238 124.634 636.16 123.514 636.004 122.551C635.861 121.574 635.646 120.741 635.359 120.051C635.073 119.361 634.708 118.801 634.266 118.371C633.836 117.941 633.335 117.629 632.762 117.434C632.202 117.225 631.57 117.121 630.867 117.121C630.008 117.121 629.246 117.284 628.582 117.609C627.918 117.922 627.358 118.423 626.902 119.113C626.46 119.803 626.121 120.708 625.887 121.828C625.652 122.948 625.535 124.309 625.535 125.91V131.438C625.535 132.714 625.607 133.84 625.75 134.816C625.906 135.793 626.134 136.639 626.434 137.355C626.733 138.059 627.098 138.638 627.527 139.094C627.957 139.549 628.452 139.888 629.012 140.109C629.585 140.318 630.216 140.422 630.906 140.422C631.792 140.422 632.566 140.253 633.23 139.914C633.895 139.576 634.448 139.048 634.891 138.332C635.346 137.603 635.685 136.672 635.906 135.539C636.128 134.393 636.238 133.026 636.238 131.438ZM648.582 138.703V141.613C648.582 142.798 648.283 144.048 647.684 145.363C647.085 146.691 646.245 147.798 645.164 148.684L643.113 147.258C643.53 146.685 643.882 146.099 644.168 145.5C644.454 144.914 644.669 144.302 644.812 143.664C644.969 143.039 645.047 142.375 645.047 141.672V138.703H648.582ZM671.434 140.031V143H652.82V140.402L662.137 130.031C663.283 128.755 664.168 127.674 664.793 126.789C665.431 125.891 665.874 125.09 666.121 124.387C666.382 123.671 666.512 122.941 666.512 122.199C666.512 121.262 666.316 120.415 665.926 119.66C665.548 118.892 664.988 118.28 664.246 117.824C663.504 117.368 662.605 117.141 661.551 117.141C660.288 117.141 659.233 117.388 658.387 117.883C657.553 118.365 656.928 119.042 656.512 119.914C656.095 120.786 655.887 121.789 655.887 122.922H652.273C652.273 121.32 652.625 119.855 653.328 118.527C654.031 117.199 655.073 116.145 656.453 115.363C657.833 114.569 659.533 114.172 661.551 114.172C663.348 114.172 664.884 114.491 666.16 115.129C667.436 115.754 668.413 116.639 669.09 117.785C669.78 118.918 670.125 120.246 670.125 121.77C670.125 122.603 669.982 123.449 669.695 124.309C669.422 125.155 669.038 126.001 668.543 126.848C668.061 127.694 667.495 128.527 666.844 129.348C666.206 130.168 665.522 130.975 664.793 131.77L657.176 140.031H671.434ZM679.871 129.465L676.98 128.723L678.406 114.562H692.996V117.902H681.473L680.613 125.637C681.134 125.337 681.792 125.057 682.586 124.797C683.393 124.536 684.318 124.406 685.359 124.406C686.674 124.406 687.853 124.634 688.895 125.09C689.936 125.533 690.822 126.171 691.551 127.004C692.293 127.837 692.859 128.84 693.25 130.012C693.641 131.184 693.836 132.492 693.836 133.938C693.836 135.305 693.647 136.561 693.27 137.707C692.905 138.853 692.352 139.855 691.609 140.715C690.867 141.561 689.93 142.219 688.797 142.688C687.677 143.156 686.355 143.391 684.832 143.391C683.686 143.391 682.599 143.234 681.57 142.922C680.555 142.596 679.643 142.108 678.836 141.457C678.042 140.793 677.391 139.973 676.883 138.996C676.388 138.007 676.076 136.848 675.945 135.52H679.383C679.539 136.587 679.852 137.486 680.32 138.215C680.789 138.944 681.401 139.497 682.156 139.875C682.924 140.24 683.816 140.422 684.832 140.422C685.691 140.422 686.453 140.272 687.117 139.973C687.781 139.673 688.341 139.243 688.797 138.684C689.253 138.124 689.598 137.447 689.832 136.652C690.079 135.858 690.203 134.966 690.203 133.977C690.203 133.078 690.079 132.245 689.832 131.477C689.585 130.708 689.214 130.038 688.719 129.465C688.237 128.892 687.645 128.449 686.941 128.137C686.238 127.811 685.431 127.648 684.52 127.648C683.309 127.648 682.391 127.811 681.766 128.137C681.154 128.462 680.522 128.905 679.871 129.465ZM697.488 121.535V120.031C697.488 118.951 697.723 117.967 698.191 117.082C698.66 116.197 699.331 115.487 700.203 114.953C701.076 114.419 702.111 114.152 703.309 114.152C704.533 114.152 705.574 114.419 706.434 114.953C707.306 115.487 707.977 116.197 708.445 117.082C708.914 117.967 709.148 118.951 709.148 120.031V121.535C709.148 122.59 708.914 123.56 708.445 124.445C707.99 125.331 707.326 126.04 706.453 126.574C705.594 127.108 704.559 127.375 703.348 127.375C702.137 127.375 701.089 127.108 700.203 126.574C699.331 126.04 698.66 125.331 698.191 124.445C697.723 123.56 697.488 122.59 697.488 121.535ZM700.203 120.031V121.535C700.203 122.134 700.314 122.701 700.535 123.234C700.77 123.768 701.121 124.204 701.59 124.543C702.059 124.868 702.645 125.031 703.348 125.031C704.051 125.031 704.63 124.868 705.086 124.543C705.542 124.204 705.88 123.768 706.102 123.234C706.323 122.701 706.434 122.134 706.434 121.535V120.031C706.434 119.419 706.316 118.846 706.082 118.312C705.861 117.766 705.516 117.329 705.047 117.004C704.591 116.665 704.012 116.496 703.309 116.496C702.618 116.496 702.039 116.665 701.57 117.004C701.115 117.329 700.77 117.766 700.535 118.312C700.314 118.846 700.203 119.419 700.203 120.031ZM711.336 137.551V136.027C711.336 134.96 711.57 133.983 712.039 133.098C712.508 132.212 713.178 131.503 714.051 130.969C714.923 130.435 715.958 130.168 717.156 130.168C718.38 130.168 719.422 130.435 720.281 130.969C721.154 131.503 721.824 132.212 722.293 133.098C722.762 133.983 722.996 134.96 722.996 136.027V137.551C722.996 138.618 722.762 139.595 722.293 140.48C721.837 141.366 721.173 142.076 720.301 142.609C719.441 143.143 718.406 143.41 717.195 143.41C715.984 143.41 714.943 143.143 714.07 142.609C713.198 142.076 712.521 141.366 712.039 140.48C711.57 139.595 711.336 138.618 711.336 137.551ZM714.051 136.027V137.551C714.051 138.15 714.161 138.723 714.383 139.27C714.617 139.803 714.969 140.24 715.438 140.578C715.906 140.904 716.492 141.066 717.195 141.066C717.898 141.066 718.478 140.904 718.934 140.578C719.402 140.24 719.747 139.803 719.969 139.27C720.19 138.736 720.301 138.163 720.301 137.551V136.027C720.301 135.415 720.184 134.842 719.949 134.309C719.728 133.775 719.383 133.345 718.914 133.02C718.458 132.681 717.872 132.512 717.156 132.512C716.466 132.512 715.887 132.681 715.418 133.02C714.962 133.345 714.617 133.775 714.383 134.309C714.161 134.842 714.051 135.415 714.051 136.027ZM718.055 118.605L704.168 140.832L702.137 139.543L716.023 117.316L718.055 118.605Z" fill="white"/>
</g>
<rect x="570" width="80" height="32" rx="4" fill="#FCCA46"/>
<path d="M600.558 9.20312V22H597.921L592.779 13.4219V22H590.143V9.20312H592.779L597.93 17.79V9.20312H600.558ZM613.903 15.3027V15.9092C613.903 16.8818 613.771 17.7549 613.508 18.5283C613.244 19.3018 612.872 19.9609 612.392 20.5059C611.911 21.0449 611.337 21.458 610.669 21.7451C610.007 22.0322 609.271 22.1758 608.463 22.1758C607.66 22.1758 606.925 22.0322 606.257 21.7451C605.595 21.458 605.02 21.0449 604.534 20.5059C604.048 19.9609 603.67 19.3018 603.4 18.5283C603.137 17.7549 603.005 16.8818 603.005 15.9092V15.3027C603.005 14.3242 603.137 13.4512 603.4 12.6836C603.664 11.9102 604.036 11.251 604.517 10.7061C605.003 10.1611 605.577 9.74512 606.239 9.45801C606.907 9.1709 607.643 9.02734 608.445 9.02734C609.254 9.02734 609.989 9.1709 610.651 9.45801C611.319 9.74512 611.894 10.1611 612.374 10.7061C612.86 11.251 613.235 11.9102 613.499 12.6836C613.769 13.4512 613.903 14.3242 613.903 15.3027ZM611.24 15.9092V15.2852C611.24 14.6055 611.179 14.0078 611.056 13.4922C610.933 12.9766 610.751 12.543 610.511 12.1914C610.27 11.8398 609.977 11.5762 609.632 11.4004C609.286 11.2188 608.891 11.1279 608.445 11.1279C608 11.1279 607.604 11.2188 607.259 11.4004C606.919 11.5762 606.629 11.8398 606.389 12.1914C606.154 12.543 605.976 12.9766 605.852 13.4922C605.729 14.0078 605.668 14.6055 605.668 15.2852V15.9092C605.668 16.583 605.729 17.1807 605.852 17.7021C605.976 18.2178 606.157 18.6543 606.397 19.0117C606.638 19.3633 606.931 19.6299 607.276 19.8115C607.622 19.9932 608.018 20.084 608.463 20.084C608.908 20.084 609.304 19.9932 609.649 19.8115C609.995 19.6299 610.285 19.3633 610.519 19.0117C610.754 18.6543 610.933 18.2178 611.056 17.7021C611.179 17.1807 611.24 16.583 611.24 15.9092ZM619.427 19.9697L621.976 9.20312H623.399L623.725 10.9961L621.009 22H619.479L619.427 19.9697ZM618.117 9.20312L620.226 19.9697L620.051 22H618.346L615.507 9.20312H618.117ZM625.966 19.9258L628.049 9.20312H630.659L627.829 22H626.124L625.966 19.9258ZM624.199 9.20312L626.766 20.0137L626.695 22H625.166L622.433 10.9873L622.784 9.20312H624.199Z" fill="url(#paint5_linear_4481_94302)"/>
<defs>
<linearGradient id="paint0_linear_4481_94302" x1="0" y1="21" x2="186.131" y2="396.428" gradientUnits="userSpaceOnUse">
<stop stop-color="#011845"/>
<stop offset="1" stop-color="#15141D"/>
</linearGradient>
<linearGradient id="paint1_linear_4481_94302" x1="-42" y1="31" x2="64.1653" y2="467.446" gradientUnits="userSpaceOnUse">
<stop stop-color="#011845"/>
<stop offset="1" stop-color="#15141D"/>
</linearGradient>
<linearGradient id="paint2_linear_4481_94302" x1="12.5" y1="4" x2="33.1886" y2="61.8649" gradientUnits="userSpaceOnUse">
<stop stop-color="#011845"/>
<stop offset="1" stop-color="#15141D"/>
</linearGradient>
<linearGradient id="paint3_linear_4481_94302" x1="413.897" y1="-79.5" x2="788.611" y2="206.342" gradientUnits="userSpaceOnUse">
<stop stop-color="#011845"/>
<stop offset="1" stop-color="#15141D"/>
</linearGradient>
<linearGradient id="paint4_linear_4481_94302" x1="1026.66" y1="197.119" x2="1134.48" y2="644.228" gradientUnits="userSpaceOnUse">
<stop stop-color="#011845"/>
<stop offset="1" stop-color="#15141D"/>
</linearGradient>
<linearGradient id="paint5_linear_4481_94302" x1="589" y1="4" x2="621.489" y2="39.6687" gradientUnits="userSpaceOnUse">
<stop stop-color="#011845"/>
<stop offset="1" stop-color="#15141D"/>
</linearGradient>
<clipPath id="clip0_4481_94302">
<rect y="21" width="553" height="172" rx="12" fill="white"/>
</clipPath>
<clipPath id="clip1_4481_94302">
<rect x="561" y="21" width="221" height="172" rx="12" fill="white"/>
</clipPath>
</defs>
</svg>
