<svg width="135" height="130" viewBox="0 0 135 130" fill="none" xmlns="http://www.w3.org/2000/svg">
<g clip-path="url(#clip0_6700_126516)">
<path d="M65 130C100.899 130 130 100.898 130 65C130 29.1015 100.899 0 65 0C29.1015 0 0 29.1015 0 65C0 100.898 29.1015 130 65 130Z" fill="#001845"/>
<path d="M88.4741 90.9417C77.6009 89.1295 49.7033 78.5346 43.9666 50.4718C41.097 36.874 43.8064 16.9855 43.8064 16.9855C22.5479 26.7557 9.97555 50.1401 14.8513 74.1526C20.588 102.215 48.1648 120.51 76.3916 114.807C90.9413 111.957 102.599 103.316 110.194 91.7725C106.408 93.4966 99.3473 92.7539 88.4741 90.9417Z" fill="url(#paint0_linear_6700_126516)"/>
<path fill-rule="evenodd" clip-rule="evenodd" d="M114.628 88.6167L118.072 91.0631C118.848 91.6142 118.767 92.7907 117.923 93.2304L106.773 99.0395C105.888 99.5008 104.84 98.8102 104.915 97.8147L105.897 84.7831C105.971 83.7951 107.096 83.2669 107.904 83.8407L110.992 86.0342C118.876 68.1168 115.963 46.4624 101.852 31.1542C82.9953 10.6971 51.2241 9.25386 30.5946 27.8038C30.3331 28.0389 29.9285 28.0247 29.6902 27.7662L27.5877 25.4852C27.3494 25.2267 27.3677 24.8217 27.6289 24.5863C50.0354 4.39876 84.5746 5.95475 105.069 28.1887C120.616 45.0553 123.644 69.006 114.628 88.6167Z" fill="url(#paint1_linear_6700_126516)"/>
<path fill-rule="evenodd" clip-rule="evenodd" d="M15.8062 40.9813L12.4001 38.4823C11.6327 37.9194 11.7317 36.7443 12.5824 36.3176L23.8202 30.6805C24.7125 30.2328 25.7495 30.9395 25.6592 31.9337L24.4774 44.9487C24.3878 45.9355 23.255 46.4463 22.4561 45.8602L19.4019 43.6194C11.2434 61.4135 13.824 83.1102 27.6976 98.6334C46.2377 119.378 77.983 121.98 98.8952 103.75C99.1602 103.519 99.5645 103.539 99.7988 103.801L101.866 106.114C102.1 106.376 102.076 106.781 101.811 107.012C79.0969 126.853 44.5857 124.095 24.4352 101.549C9.14913 84.4456 6.49028 60.4512 15.8062 40.9813Z" fill="url(#paint2_linear_6700_126516)"/>
<path fill-rule="evenodd" clip-rule="evenodd" d="M64.7038 39.6504L85.2083 52.105V65.3012C85.2083 77.0483 77.1455 88.2196 65.7831 90.9941L64.7038 91.2577L63.6244 90.9941C52.262 88.2196 44.1992 77.0483 44.1992 65.3012V52.105L64.7038 39.6504ZM64.7038 86.574C55.5565 84.3403 48.7492 75.1399 48.7492 65.3012V54.6649L64.7038 44.974L80.6583 54.6649V65.3012C80.6583 75.1399 73.851 84.3403 64.7038 86.574Z" fill="white"/>
<path fill-rule="evenodd" clip-rule="evenodd" d="M64.5039 44.4542L64.7045 44.3242L80.659 54.6651V65.3015C80.659 75.1274 73.8693 84.3168 64.7399 86.5655V44.4542H64.5039Z" fill="white"/>
</g>
<circle cx="115" cy="28" r="20" fill="#021334"/>
<path d="M123.272 37.9786C119.31 37.3183 109.145 33.4578 107.055 23.2325C106.009 18.2778 106.997 11.031 106.997 11.031C99.2507 14.591 94.6697 23.1117 96.4462 31.8611C98.5365 42.0865 108.585 48.7524 118.87 46.6746C124.171 45.6362 128.419 42.4876 131.186 38.2813C129.807 38.9095 127.234 38.6389 123.272 37.9786Z" fill="url(#paint3_linear_6700_126516)"/>
<path d="M128.6 28.3326V34.4653C128.598 34.8477 128.497 35.2231 128.306 35.5546C128.115 35.886 127.842 36.1624 127.512 36.3565L122.2 39.4165C121.871 39.6127 121.495 39.7162 121.112 39.7162C120.729 39.7162 120.353 39.6127 120.024 39.4165L114.711 36.3565C114.382 36.1624 114.108 35.886 113.918 35.5546C113.727 35.2231 113.626 34.8477 113.623 34.4653V32.744L116.343 31.1652V34.1572L121.103 36.9196L125.863 34.1572V28.6449L121.103 25.8824L109.951 32.3424C109.619 32.5295 109.245 32.6279 108.863 32.6279C108.482 32.6279 108.108 32.5295 107.775 32.3424L102.463 29.2697C102.138 29.0726 101.87 28.7952 101.684 28.4643C101.498 28.1334 101.4 27.7602 101.4 27.3806V21.2478C101.403 20.8654 101.504 20.4901 101.695 20.1585C101.885 19.827 102.159 19.5507 102.488 19.3566L107.801 16.2966C108.131 16.1024 108.506 16 108.889 16C109.272 16 109.647 16.1024 109.977 16.2966L115.289 19.3566C115.619 19.5507 115.892 19.827 116.083 20.1585C116.274 20.4901 116.375 20.8654 116.377 21.2478V22.969L113.64 24.5373V21.5623L108.88 18.7998L104.12 21.5623V27.0682L108.88 29.8307L120.032 23.3707C120.364 23.1835 120.739 23.0853 121.12 23.0853C121.502 23.0853 121.876 23.1835 122.208 23.3707L127.521 26.4434C127.848 26.6385 128.12 26.9149 128.309 27.246C128.498 27.577 128.599 27.9513 128.6 28.3326Z" fill="#7B3FE4"/>
<defs>
<linearGradient id="paint0_linear_6700_126516" x1="29.7058" y1="99.1421" x2="73.1986" y2="62.1215" gradientUnits="userSpaceOnUse">
<stop stop-color="#733DDA"/>
<stop offset="1" stop-color="#723DD9" stop-opacity="0"/>
</linearGradient>
<linearGradient id="paint1_linear_6700_126516" x1="111.54" y1="95.6988" x2="45.0994" y2="16.8426" gradientUnits="userSpaceOnUse">
<stop stop-color="white"/>
<stop offset="1" stop-color="white" stop-opacity="0"/>
</linearGradient>
<linearGradient id="paint2_linear_6700_126516" x1="21.0641" y1="96.3475" x2="81.7468" y2="122.115" gradientUnits="userSpaceOnUse">
<stop stop-color="white"/>
<stop offset="1" stop-color="white" stop-opacity="0"/>
</linearGradient>
<linearGradient id="paint3_linear_6700_126516" x1="101.859" y1="40.9666" x2="117.706" y2="27.4773" gradientUnits="userSpaceOnUse">
<stop stop-color="white" stop-opacity="0.46"/>
<stop offset="1" stop-color="white" stop-opacity="0"/>
</linearGradient>
<clipPath id="clip0_6700_126516">
<rect width="130" height="130" rx="65" fill="white"/>
</clipPath>
</defs>
</svg>
