<svg width="41" height="40" viewBox="0 0 41 40" fill="none" xmlns="http://www.w3.org/2000/svg">
<rect x="0.5" width="40" height="40" rx="8" fill="#13151C"/>
<g clip-path="url(#clip0_6092_14059)">
<path d="M29.9226 11.6946C32.8846 16.0495 34.3474 20.9617 33.8005 26.6168C33.7983 26.6407 33.7858 26.6627 33.7661 26.6771C31.5231 28.3242 29.3499 29.3237 27.2072 29.9866C27.1905 29.9917 27.1727 29.9914 27.1561 29.9858C27.1396 29.9802 27.1253 29.9696 27.1151 29.9555C26.6201 29.2667 26.1703 28.5405 25.7762 27.778C25.7536 27.7331 25.7742 27.679 25.8208 27.6613C26.5351 27.3921 27.2144 27.0695 27.8678 26.6876C27.9192 26.6575 27.9225 26.5837 27.875 26.5483C27.7363 26.4454 27.599 26.3372 27.4675 26.229C27.4429 26.209 27.4098 26.2051 27.3819 26.2185C23.1401 28.1773 18.4934 28.1773 14.2015 26.2185C14.1736 26.206 14.1405 26.2103 14.1166 26.23C13.9854 26.3382 13.8477 26.4454 13.7104 26.5483C13.6628 26.5837 13.6668 26.6575 13.7186 26.6876C14.3719 27.0623 15.0512 27.3921 15.7646 27.6626C15.8108 27.6803 15.8328 27.7331 15.8098 27.778C15.4243 28.5415 14.9745 29.2677 14.4703 29.9564C14.4483 29.9843 14.4123 29.9971 14.3782 29.9866C12.2456 29.3237 10.0724 28.3242 7.8294 26.6771C7.81071 26.6627 7.79727 26.6398 7.7953 26.6158C7.33831 21.7243 8.26968 16.7714 11.6696 11.6936C11.6778 11.6802 11.6903 11.6697 11.7047 11.6634C13.3776 10.8957 15.1699 10.3308 17.0431 10.0082C17.0772 10.003 17.1113 10.0187 17.129 10.0489C17.3604 10.4587 17.625 10.9842 17.804 11.4136C19.7785 11.112 21.7839 11.112 23.7997 11.4136C23.9787 10.9934 24.2341 10.4587 24.4646 10.0489C24.4728 10.0339 24.4855 10.0219 24.5009 10.0146C24.5163 10.0073 24.5337 10.0051 24.5505 10.0082C26.4247 10.3318 28.2169 10.8966 29.8885 11.6634C29.9033 11.6697 29.9154 11.6802 29.9226 11.6946ZM18.8078 20.9952C18.8285 19.5491 17.7742 18.3525 16.4507 18.3525C15.1381 18.3525 14.0939 19.5386 14.0939 20.9952C14.0939 22.4514 15.1587 23.6375 16.4507 23.6375C17.7637 23.6375 18.8078 22.4514 18.8078 20.9952ZM27.5222 20.9952C27.5429 19.5491 26.4886 18.3525 25.1655 18.3525C23.8525 18.3525 22.8084 19.5386 22.8084 20.9952C22.8084 22.4514 23.8731 23.6375 25.1655 23.6375C26.4886 23.6375 27.5222 22.4514 27.5222 20.9952Z" fill="white"/>
</g>
<defs>
<clipPath id="clip0_6092_14059">
<rect width="27.3523" height="20" fill="white" transform="translate(7.16669 10)"/>
</clipPath>
</defs>
</svg>
