<svg width="40" height="40" viewBox="0 0 40 40" fill="none" xmlns="http://www.w3.org/2000/svg">
<path d="M35.3121 10.7495C35.2505 10.6491 35.1502 10.5762 35.0324 10.5541C34.9153 10.532 34.7922 10.5541 34.6972 10.627L34.6751 10.6437L34.6584 10.6551L29.3023 14.1999C29.1176 14.3231 29.0561 14.5693 29.1678 14.7647C30.0122 16.2407 30.4873 17.9234 30.5488 19.6289C30.7388 24.9408 26.9257 29.587 21.6921 30.4314C21.4793 30.4648 21.3288 30.6495 21.3341 30.8676L21.5636 37.3872C21.5636 37.5043 21.6198 37.6167 21.7088 37.695C21.7871 37.7619 21.8821 37.7954 21.9825 37.7954H22.0327C25.3313 37.4153 28.4626 36.1233 31.0794 34.0605C33.7685 31.9415 35.7818 29.1066 36.8998 25.8582C38.6388 20.8259 38.0574 15.3187 35.3007 10.7561L35.3121 10.7508V10.7495ZM36.9948 21.2943L31.3758 20.8246C31.4039 20.4218 31.4146 20.0137 31.3979 19.6002C31.3925 19.4322 31.3812 19.2589 31.3698 19.0917L36.9948 18.6949C37.0617 19.556 37.0617 20.4278 36.9948 21.295V21.2943ZM35.8487 26.2703L30.6211 24.1734C30.8339 23.6368 31.0011 23.0828 31.1296 22.5127L36.6201 23.7873C36.4803 24.3909 36.3124 24.9837 36.1116 25.5765C36.028 25.8113 35.9437 26.0462 35.8547 26.2757L35.8494 26.2703H35.8487ZM28.9156 27.1201C29.2789 26.6671 29.6034 26.186 29.8938 25.6775L34.7581 28.5231C34.3218 29.2779 33.824 29.9938 33.2821 30.6703L28.9156 27.1201ZM35.854 13.7456C36.1725 14.5566 36.4301 15.3836 36.6201 16.2226L31.1129 17.4417C30.9844 16.877 30.8111 16.3236 30.5983 15.7864L35.8487 13.7456H35.854ZM23.3073 30.9272C23.872 30.7539 24.42 30.5411 24.9398 30.2895L27.3553 35.3719C26.5724 35.7466 25.7615 36.0651 24.9231 36.3227L23.3019 30.9272H23.3073ZM29.5305 34.1201L26.4052 29.4458C26.8916 29.116 27.3499 28.7466 27.7748 28.3499L31.5712 32.4982C30.9336 33.091 30.2517 33.6276 29.5305 34.1194V34.1201Z" fill="#D3F85A"/>
<path fill-rule="evenodd" clip-rule="evenodd" d="M34.6304 10.5393C34.7541 10.4445 34.9102 10.4186 35.0533 10.4456C35.2036 10.4738 35.33 10.5666 35.4069 10.6919C35.4166 10.7078 35.4222 10.7259 35.4231 10.7444C38.1733 15.3262 38.7488 20.8479 37.0049 25.8946C35.88 29.1631 33.8541 32.0157 31.1483 34.1479C28.5155 36.2233 25.3648 37.5234 22.0457 37.9058C22.0415 37.9062 22.0373 37.9065 22.033 37.9065H21.9829C21.857 37.9065 21.7362 37.8642 21.6372 37.7796L21.6361 37.7785C21.5264 37.6821 21.4539 37.5413 21.4533 37.3897L21.2238 30.8719L21.2238 30.8707C21.2171 30.5989 21.4057 30.3649 21.6749 30.3224C26.8532 29.4869 30.6266 24.8895 30.4385 19.6333C30.3776 17.9455 29.9075 16.2802 29.0721 14.82L29.0721 14.82C28.9309 14.5731 29.0091 14.2629 29.2413 14.1082L29.2416 14.108L34.5965 10.5639L34.5976 10.5631L34.6109 10.5541L34.6301 10.5395C34.6302 10.5394 34.6303 10.5394 34.6304 10.5393ZM35.1912 10.7701C35.1454 10.7148 35.0826 10.6764 35.0124 10.6633L35.0123 10.6633C34.9212 10.6461 34.8313 10.6643 34.765 10.7152L34.7644 10.7156L34.7423 10.7324C34.7408 10.7335 34.7393 10.7346 34.7377 10.7357L34.721 10.747L34.7199 10.7478L29.3641 14.2924C29.3641 14.2925 29.3641 14.2925 29.364 14.2925C29.2269 14.384 29.1821 14.5662 29.2643 14.71C30.1177 16.2018 30.5977 17.9021 30.6599 19.6253L30.6599 19.6253C30.8519 24.9929 26.999 29.6878 21.7101 30.5411L21.7097 30.5411C21.5537 30.5657 21.4414 30.7006 21.4452 30.8647C21.4452 30.8649 21.4452 30.8651 21.4452 30.8653L21.6747 37.3837C21.6747 37.385 21.6747 37.3863 21.6747 37.3876C21.6747 37.4691 21.7142 37.552 21.7817 37.6117C21.8392 37.6606 21.9083 37.685 21.9829 37.685H22.0267C25.3025 37.3064 28.4122 36.0227 31.0112 33.9739L31.0113 33.9739C33.6836 31.8681 35.6844 29.0508 36.7955 25.8225L36.7955 25.8224C38.5238 20.8212 37.946 15.3482 35.2063 10.8138C35.1982 10.8003 35.1931 10.7854 35.1912 10.7701ZM35.8089 13.6428C35.8217 13.6378 35.8353 13.6353 35.8491 13.6353H35.8544C35.9 13.6353 35.9408 13.6631 35.9575 13.7055C36.2779 14.5214 36.5372 15.3537 36.7285 16.1985C36.735 16.2272 36.7298 16.2574 36.714 16.2823C36.6983 16.3071 36.6732 16.3247 36.6445 16.3311L31.1372 17.5502C31.0777 17.5633 31.0188 17.526 31.0053 17.4666C30.8781 16.9076 30.7065 16.3597 30.4958 15.8275C30.4849 15.8001 30.4854 15.7695 30.4972 15.7424C30.509 15.7154 30.5311 15.6942 30.5586 15.6835L35.8089 13.6428ZM35.7907 13.8875L30.7422 15.8497C30.9254 16.3253 31.078 16.8132 31.1963 17.3103L36.4876 16.139C36.3096 15.3776 36.0756 14.6261 35.7907 13.8875ZM36.9874 18.5848C37.0481 18.5805 37.1009 18.626 37.1056 18.6867C37.173 19.5535 37.173 20.4311 37.1056 21.3039C37.101 21.3632 37.0504 21.4083 36.991 21.406C36.9851 21.4058 36.9794 21.4051 36.9738 21.404L31.367 20.9353C31.3066 20.9303 31.2615 20.8777 31.2657 20.8173C31.2936 20.4177 31.3042 20.0137 31.2876 19.605L31.2876 19.6041C31.2823 19.4384 31.2711 19.2669 31.2597 19.0995C31.2556 19.0386 31.3015 18.9859 31.3624 18.9816L36.9874 18.5848ZM36.8931 21.175L31.4938 20.7237C31.5167 20.3531 31.5243 19.9773 31.5089 19.5966C31.5047 19.4636 31.4967 19.3276 31.488 19.1947L36.893 18.8135C36.9485 19.5961 36.9486 20.3872 36.8931 21.175ZM31.0711 22.4193C31.0961 22.4036 31.1263 22.3985 31.155 22.4052L36.6456 23.6798C36.7051 23.6936 36.7422 23.7531 36.7284 23.8127C36.5878 24.4197 36.4188 25.016 36.2169 25.6123L36.2163 25.614C36.1327 25.8488 36.0479 26.085 35.9583 26.3161C35.9448 26.351 35.9145 26.3767 35.8779 26.3844C35.8479 26.3907 35.817 26.3843 35.7922 26.3672L30.5802 24.2765C30.5236 24.2538 30.4961 24.1896 30.5185 24.1329C30.729 23.6021 30.8946 23.0537 31.022 22.4887C31.0284 22.46 31.0461 22.435 31.0711 22.4193ZM35.7929 26.1288C35.8663 25.9354 35.9369 25.7384 36.0074 25.5405C36.1949 24.9868 36.3536 24.4331 36.4874 23.8705L31.213 22.646C31.0954 23.147 30.9474 23.6359 30.7645 24.1118L35.7929 26.1288ZM29.8656 25.5709C29.8941 25.5633 29.9246 25.5674 29.9501 25.5823L34.8144 28.4279C34.867 28.4587 34.8848 28.5262 34.8543 28.5789C34.415 29.339 33.914 30.0595 33.3689 30.7399C33.3504 30.7629 33.3235 30.7776 33.2942 30.7807C33.2649 30.7839 33.2355 30.7751 33.2126 30.7565L28.8461 27.2063C28.7989 27.1679 28.7915 27.0986 28.8296 27.0511C29.1891 26.6029 29.5103 26.1267 29.798 25.623C29.8127 25.5973 29.837 25.5785 29.8656 25.5709ZM29.9344 25.8297C29.6743 26.2754 29.3874 26.7002 29.0707 27.1035L33.2655 30.5141C33.7547 29.8961 34.2063 29.2456 34.6071 28.5633L29.9344 25.8297ZM27.7795 28.2396C27.809 28.2407 27.8369 28.2536 27.8569 28.2755L31.6533 32.4238C31.6943 32.4687 31.6915 32.5383 31.647 32.5797C31.0075 33.1742 30.3243 33.7122 29.6021 34.2052C29.5909 34.2146 29.5777 34.2219 29.563 34.2264C29.5163 34.2406 29.4659 34.2225 29.4388 34.182L26.3135 29.5077C26.2796 29.4571 26.293 29.3887 26.3434 29.3545C26.8248 29.0281 27.2787 28.6624 27.6996 28.2693C27.7212 28.2491 27.75 28.2384 27.7795 28.2396ZM29.5603 33.9653C30.2132 33.5145 30.8328 33.0263 31.4155 32.492L27.7686 28.5071C27.3898 28.8543 26.9852 29.1799 26.5584 29.4756L29.5603 33.9653ZM24.977 30.1854C25.0048 30.1952 25.0276 30.2157 25.0402 30.2424L27.4557 35.3248C27.4819 35.3799 27.4585 35.4458 27.4034 35.4722C26.6158 35.8492 25.7997 36.1697 24.956 36.4289C24.9278 36.4376 24.8974 36.4347 24.8713 36.4208C24.8453 36.4069 24.8259 36.3832 24.8175 36.3549L23.1962 30.9594C23.1862 30.9259 23.1925 30.8896 23.2134 30.8615C23.2315 30.8372 23.2585 30.8216 23.288 30.8177C23.8431 30.6467 24.3814 30.4373 24.892 30.1902C24.9186 30.1774 24.9491 30.1757 24.977 30.1854ZM23.4404 31.0022L24.9974 36.1842C25.7572 35.9453 26.4943 35.656 27.2081 35.3198L24.8878 30.4376C24.4237 30.6563 23.9387 30.8446 23.4404 31.0022Z" fill="#D3F85A"/>
<path d="M5.37788 10.5376L11.1762 13.5961C11.2378 13.6295 11.3047 13.6462 11.3716 13.6462C11.5001 13.6462 11.6232 13.59 11.7068 13.4843C13.6358 11.0354 16.5209 9.56479 19.6348 9.45305C22.6538 9.34666 25.5837 10.5437 27.6639 12.741C27.8038 12.8922 28.0333 12.9143 28.2066 12.8025L33.669 9.18474C33.7694 9.11784 33.8369 9.01145 33.8537 8.89369C33.8704 8.7766 33.8369 8.65349 33.7587 8.55848C31.6785 6.05341 28.9446 4.1639 25.8527 3.09001C18.2378 0.456471 9.75574 3.26865 5.22667 9.92208C5.15976 10.0224 5.13701 10.1456 5.16511 10.2633C5.19321 10.3804 5.2715 10.4814 5.37788 10.537V10.5376ZM25.573 3.88957C28.3685 4.85707 30.8568 6.52846 32.7972 8.73712L28.0279 11.8959C25.7972 9.68723 22.7441 8.4909 19.6021 8.60264C16.359 8.71973 13.34 10.1964 11.2659 12.6787L6.19953 10.0117C10.5774 3.95113 18.4726 1.43468 25.573 3.88957Z" fill="#D3F85A"/>
<path fill-rule="evenodd" clip-rule="evenodd" d="M5.13454 9.85967C9.69176 3.16489 18.2262 0.335388 25.8883 2.98526L25.8884 2.98531C28.9992 4.06577 31.7501 5.96692 33.8433 8.48764L33.8435 8.48796C33.9416 8.60704 33.9838 8.76141 33.9627 8.90926C33.9414 9.05877 33.8559 9.19272 33.7298 9.27679L33.7296 9.27697L28.2671 12.8947L28.266 12.8955C28.0506 13.0343 27.7612 13.0093 27.5825 12.8166C25.5242 10.6427 22.6252 9.45836 19.6382 9.56362C16.5569 9.6742 13.7021 11.1293 11.7932 13.5527L11.7931 13.5529C11.6878 13.686 11.5322 13.7569 11.371 13.7569C11.2857 13.7569 11.2009 13.7356 11.1234 13.6936C11.1232 13.6935 11.123 13.6934 11.1227 13.6933L5.32563 10.6355C5.32195 10.6336 5.31841 10.6314 5.31501 10.6291C5.1856 10.5575 5.09136 10.4329 5.05685 10.2891L5.05681 10.2889C5.02146 10.1408 5.0502 9.98617 5.13394 9.86056L5.13454 9.85967ZM5.31794 9.98382C5.26809 10.0588 5.25142 10.1502 5.27222 10.2375C5.29294 10.3237 5.35087 10.3982 5.42854 10.4387C5.43209 10.4406 5.43552 10.4426 5.43881 10.4448L11.2273 13.498L11.2285 13.4987C11.2739 13.5234 11.3227 13.5354 11.371 13.5354C11.4666 13.5354 11.5573 13.4939 11.6192 13.4157C13.5683 10.9414 16.4837 9.4552 19.6303 9.34229L19.6304 9.34229C22.681 9.23479 25.6417 10.4443 27.7437 12.6647L27.7446 12.6657C27.8455 12.7747 28.0145 12.7938 28.1454 12.7097C28.1456 12.7096 28.1458 12.7095 28.146 12.7094L33.607 9.09251C33.607 9.09249 33.6071 9.09246 33.6071 9.09243C33.6816 9.04269 33.7312 8.96394 33.7434 8.87802L33.7435 8.87793C33.7558 8.7917 33.7311 8.69995 33.6728 8.62904C31.6056 6.13968 28.8887 4.26185 25.8158 3.19454C18.2484 0.577441 9.81892 3.37211 5.31794 9.98382ZM6.36383 9.9733L11.238 12.5391C13.3305 10.074 16.353 8.60902 19.5975 8.49188L19.5975 8.49188C22.7401 8.38012 25.7944 9.56421 28.0409 11.754L32.6292 8.71505C30.714 6.56793 28.2734 4.94145 25.5362 3.99413C18.5226 1.56922 10.7279 4.02688 6.36383 9.9733ZM6.10917 9.9468C10.5156 3.84668 18.462 1.31393 25.6086 3.78482L25.6086 3.78483C28.4222 4.75858 30.9267 6.44082 32.8798 8.66394C32.9009 8.68797 32.9106 8.71995 32.9063 8.75166C32.9021 8.78336 32.8844 8.81169 32.8577 8.82935L28.0885 11.9881C28.0447 12.0171 27.9867 12.0114 27.9494 11.9745C25.7403 9.78728 22.7169 8.60257 19.6055 8.7132C16.3937 8.82916 13.4042 10.2915 11.3503 12.7496C11.3168 12.7897 11.2599 12.8009 11.2137 12.7766L6.14735 10.1096C6.11896 10.0947 6.09845 10.0682 6.09112 10.0369C6.0838 10.0057 6.09038 9.97281 6.10917 9.9468Z" fill="#D3F85A"/>
<path d="M19.1704 30.5374C13.825 30.1179 9.64857 25.7514 9.45855 20.384C9.40235 18.7347 9.71548 17.1409 10.3926 15.6482C10.4876 15.4414 10.404 15.2005 10.2026 15.1002L4.46045 12.0752C4.36009 12.019 4.23698 12.0137 4.13059 12.0471C4.02421 12.0806 3.92919 12.1642 3.87901 12.2652C3.58261 12.8862 3.31965 13.5292 3.09618 14.1661C1.54121 18.6785 1.83227 23.5367 3.92317 27.8309C6.01408 32.1305 9.64857 35.3569 14.1663 36.9165C15.8437 37.4979 17.594 37.8225 19.3551 37.8894H19.3718C19.4835 37.8894 19.5899 37.8445 19.6735 37.7663C19.7572 37.6826 19.802 37.5709 19.7967 37.4531L19.5672 30.9395C19.5618 30.7214 19.3939 30.5481 19.1757 30.5314L19.1704 30.5367V30.5374Z" fill="#D3F85A"/>
<path fill-rule="evenodd" clip-rule="evenodd" d="M4.51362 11.9777L10.2535 15.0015C10.5084 15.1293 10.6129 15.4343 10.4937 15.694C9.82382 17.1709 9.51399 18.7476 9.5696 20.38C9.7573 25.6806 13.8737 29.9943 19.1474 30.4243C19.1594 30.4211 19.1719 30.4199 19.1846 30.4209C19.4579 30.4418 19.6712 30.6602 19.6782 30.9362C19.6782 30.9364 19.6782 30.9365 19.6782 30.9367L19.9077 37.448C19.9077 37.4481 19.9077 37.4483 19.9077 37.4485C19.9143 37.5982 19.857 37.7397 19.7522 37.8444C19.7514 37.8453 19.7505 37.8461 19.7496 37.847C19.6471 37.9429 19.5142 38 19.3722 38H19.3554C19.354 38 19.3526 38 19.3512 37.9999C17.5794 37.9326 15.8183 37.6061 14.1304 37.021C9.58493 35.4517 5.92771 32.2052 3.824 27.8793C1.72022 23.5586 1.42736 18.67 2.99187 14.1299L2.99207 14.1293L2.99207 14.1293C3.2168 13.4888 3.48125 12.8421 3.77946 12.2174L3.78022 12.2159C3.84315 12.0892 3.96125 11.9843 4.09775 11.9414C4.22818 11.9004 4.38295 11.9051 4.51362 11.9777ZM19.1961 30.6451C19.1851 30.6477 19.1736 30.6486 19.1621 30.6477C13.7605 30.2237 9.54028 25.8113 9.34827 20.3878L9.34826 20.3876C9.29149 18.7215 9.60789 17.1107 10.2921 15.6023L10.2924 15.6018C10.3628 15.4485 10.3005 15.2724 10.1536 15.1992C10.1528 15.1988 10.1521 15.1984 10.1514 15.198L4.40922 12.1731C4.40839 12.1726 4.40755 12.1722 4.40673 12.1717C4.33694 12.1326 4.2461 12.1269 4.16419 12.1526C4.08817 12.1765 4.01646 12.2386 3.97893 12.3137C3.68453 12.9304 3.42326 13.5693 3.20116 14.2024C1.65585 18.6869 1.94513 23.5147 4.02312 27.7823L4.02314 27.7824C6.10122 32.0556 9.71292 35.2617 14.2028 36.8117L14.2029 36.8118C15.8692 37.3893 17.608 37.7118 19.3576 37.7785H19.3722C19.453 37.7785 19.5324 37.7464 19.5969 37.6866C19.6584 37.6243 19.6903 37.5431 19.6864 37.458L19.6864 37.4569L19.4569 30.9433L19.4568 30.9421C19.4531 30.7916 19.3445 30.6694 19.1961 30.6451Z" fill="#D3F85A"/>
<path d="M28.3666 19.727C28.2046 15.1157 24.3246 11.4986 19.7139 11.6605C15.1085 11.8224 11.4908 15.7078 11.6527 20.3192C11.8146 24.8295 15.5267 28.3918 20.0043 28.3918H20.306C24.9114 28.2298 28.5291 24.3444 28.3672 19.7331V19.7277L28.3666 19.727ZM20.2773 27.6263H20.0036C15.9342 27.6263 12.5513 24.3886 12.4061 20.2851C12.2555 16.0926 15.5434 12.5591 19.736 12.4139C21.768 12.3416 23.6996 13.0669 25.1904 14.4513C26.6751 15.8356 27.5349 17.7171 27.6078 19.7491C27.7583 23.9416 24.4704 27.4751 20.2779 27.6203V27.6257L20.2773 27.6263Z" fill="#D3F85A"/>
<path fill-rule="evenodd" clip-rule="evenodd" d="M28.4772 19.7118C28.3072 15.0447 24.3784 11.3858 19.7104 11.5497L19.7104 11.5497C15.0438 11.7138 11.3783 15.6506 11.5424 20.323L11.5424 20.3231C11.7065 24.893 15.4675 28.5024 20.0047 28.5024H20.3064C20.3077 28.5024 20.309 28.5024 20.3103 28.5023C24.9762 28.3383 28.6413 24.4025 28.4783 19.731V19.7276C28.4783 19.7223 28.478 19.717 28.4772 19.7118ZM28.2563 19.7308C28.0965 15.1806 24.2677 11.6113 19.7182 11.7711C15.1741 11.9308 11.604 15.7648 11.7637 20.3152C11.9235 24.7659 15.5867 28.2809 20.0047 28.2809H20.3045C24.8463 28.1202 28.4146 24.2888 28.2571 19.7408C28.2567 19.7375 28.2564 19.7342 28.2563 19.7308ZM25.1154 14.5323C23.646 13.1678 21.7428 12.4532 19.7403 12.5245L19.7402 12.5245C15.6089 12.6675 12.3688 16.1496 12.5171 20.281L12.5171 20.281C12.6602 24.3248 15.994 27.5155 20.004 27.5155H20.2422C20.2524 27.512 20.2632 27.5099 20.2745 27.5095C24.4057 27.3665 27.6459 23.8844 27.4975 19.753C27.4256 17.7504 26.5786 15.8967 25.1154 14.5323ZM19.7325 12.3031C21.794 12.2298 23.7541 12.9659 25.2661 14.37L25.2663 14.3702C26.7724 15.7745 27.6449 17.6837 27.7188 19.7451C27.8712 23.9869 24.5544 27.5637 20.3174 27.7296C20.3048 27.7344 20.2914 27.737 20.2776 27.737H20.004C15.8752 27.737 12.4431 24.4522 12.2958 20.2889C12.1431 16.0353 15.4787 12.4504 19.7325 12.3031Z" fill="#D3F85A"/>
</svg>
