<svg width="40" height="40" viewBox="0 0 40 40" fill="none" xmlns="http://www.w3.org/2000/svg">
<path d="M11.0488 12.45L5.06105 10.7544C4.71313 11.322 4.44452 11.9346 4.2627 12.575L5.87033 25.6397L11.0488 12.45Z" fill="#C8A8FF"/>
<path d="M34.1967 25.6398L20.6753 2.02932C20.1643 1.9822 19.6496 1.9919 19.1408 2.05824L11.0488 12.45L34.1967 25.6398Z" fill="#875FE3"/>
<path d="M35.8042 12.5752L34.1963 25.6399L35.4853 28.3272C35.8091 27.5728 36.0055 26.7698 36.0663 25.9511V14.0498C36.0293 13.5506 35.9414 13.0566 35.8042 12.5752Z" fill="#9B65EA"/>
<path d="M5.87012 25.6396L18.7599 37.881C19.599 38.0395 20.4591 38.0395 21.2982 37.881L34.1851 25.6396H5.87035H5.87012Z" fill="#875FE3"/>
<path d="M5.87012 25.64H34.1962L11.0486 12.4502L5.87012 25.64Z" fill="#AB83F2"/>
<path d="M4.26217 12.5749C4.12625 13.0566 4.03843 13.5506 4 14.0495V25.9508C4.06043 26.7699 4.25776 27.5731 4.58379 28.3269L5.8698 25.6397L4.26217 12.5749ZM19.1402 2.05811C18.4022 2.15719 17.6843 2.37699 17.0137 2.70954L7.02075 8.65766C6.23197 9.21653 5.56505 9.92995 5.06052 10.7546L11.0483 12.4501L19.1402 2.05811Z" fill="#9B65EA"/>
<path d="M35.804 12.5751C35.3514 10.9806 34.3779 9.59621 33.0483 8.65732L23.0524 2.71012C22.3081 2.34015 21.5023 2.10942 20.6749 2.0293L34.1963 25.6398L35.804 12.5751ZM21.3095 37.8813C21.9138 37.7659 22.5 37.5703 23.0524 37.2996L33.0483 31.3489C34.1159 30.5959 34.9596 29.5516 35.4851 28.333L34.1963 25.6455L21.3095 37.8813ZM4.58398 28.3271C5.10878 29.5463 5.95246 30.5907 7.02095 31.343L17.0139 37.2936C17.5675 37.564 18.1546 37.7597 18.7598 37.8754L5.87 25.6398L4.58398 28.3271Z" fill="#6D33CC"/>
</svg>
