<?xml version="1.0" encoding="UTF-8"?>
<!DOCTYPE svg PUBLIC "-//W3C//DTD SVG 1.1//EN" "http://www.w3.org/Graphics/SVG/1.1/DTD/svg11.dtd">
<svg xmlns="http://www.w3.org/2000/svg" version="1.1" width="96px" height="135px" style="shape-rendering:geometricPrecision; text-rendering:geometricPrecision; image-rendering:optimizeQuality; fill-rule:evenodd; clip-rule:evenodd" xmlns:xlink="http://www.w3.org/1999/xlink">
<g><path style="opacity:0.016" fill="#007f7e" d="M 56.5,16.5 C 57.8333,17.1667 57.8333,17.1667 56.5,16.5 Z"/></g>
<g><path style="opacity:1" fill="#01ecc2" d="M 56.5,17.5 C 57.6005,18.6049 58.2671,19.9382 58.5,21.5C 57.5084,21.3284 56.8417,21.6618 56.5,22.5C 55.8333,22.5 55.5,22.8333 55.5,23.5C 54.5084,23.3284 53.8417,23.6618 53.5,24.5C 52.5084,24.3284 51.8417,24.6618 51.5,25.5C 50.5084,25.3284 49.8417,25.6618 49.5,26.5C 48.8333,26.5 48.5,26.8333 48.5,27.5C 47.5084,27.3284 46.8417,27.6618 46.5,28.5C 45.5084,28.3284 44.8417,28.6618 44.5,29.5C 42.9731,29.427 41.9731,30.0937 41.5,31.5C 40.5084,31.3284 39.8417,31.6618 39.5,32.5C 38.8333,32.5 38.1667,32.5 37.5,32.5C 36.7109,32.2172 36.0442,31.7172 35.5,31C 37.1341,30.5065 38.8008,30.3398 40.5,30.5C 40.6567,29.1266 40.49,27.7932 40,26.5C 38.6439,27.3802 37.1439,27.7135 35.5,27.5C 35.7852,25.712 35.4519,24.0453 34.5,22.5C 33.2638,23.2458 31.9305,23.5792 30.5,23.5C 35.6473,19.4211 41.314,16.0877 47.5,13.5C 50.3681,15.1001 53.3681,16.4335 56.5,17.5 Z"/></g>
<g><path style="opacity:0.004" fill="#000000" d="M 59.5,18.5 C 58.8333,17.1667 58.8333,17.1667 59.5,18.5 Z"/></g>
<g><path style="opacity:0.004" fill="#000000" d="M 59.5,18.5 C 60.8333,19.1667 60.8333,19.1667 59.5,18.5 Z"/></g>
<g><path style="opacity:0.004" fill="#000000" d="M 59.5,20.5 C 60.8333,21.1667 60.8333,21.1667 59.5,20.5 Z"/></g>
<g><path style="opacity:0.004" fill="#000000" d="M 58.5,21.5 C 58.8333,21.5 59.1667,21.5 59.5,21.5C 59.3147,22.1701 58.9813,22.1701 58.5,21.5 Z"/></g>
<g><path style="opacity:0.008" fill="#19a781" d="M 56.5,23.5 C 56.5,23.1667 56.5,22.8333 56.5,22.5C 57.1667,22.5 57.8333,22.5 58.5,22.5C 58.1583,23.3382 57.4916,23.6716 56.5,23.5 Z"/></g>
<g><path style="opacity:0.012" fill="#00aaa9" d="M 55.5,23.5 C 55.8333,23.5 56.1667,23.5 56.5,23.5C 56.3147,24.1701 55.9813,24.1701 55.5,23.5 Z"/></g>
<g><path style="opacity:0.004" fill="#132b2b" d="M 53.5,25.5 C 53.5,25.1667 53.5,24.8333 53.5,24.5C 54.1667,24.5 54.8333,24.5 55.5,24.5C 55.1583,25.3382 54.4916,25.6716 53.5,25.5 Z"/></g>
<g><path style="opacity:0.008" fill="#208c45" d="M 51.5,26.5 C 51.5,26.1667 51.5,25.8333 51.5,25.5C 52.1667,25.5 52.8333,25.5 53.5,25.5C 53.1583,26.3382 52.4916,26.6716 51.5,26.5 Z"/></g>
<g><path style="opacity:0.012" fill="#0e3939" d="M 49.5,27.5 C 49.5,27.1667 49.5,26.8333 49.5,26.5C 50.1667,26.5 50.8333,26.5 51.5,26.5C 51.1583,27.3382 50.4916,27.6716 49.5,27.5 Z"/></g>
<g><path style="opacity:0.012" fill="#00aaa9" d="M 48.5,27.5 C 48.8333,27.5 49.1667,27.5 49.5,27.5C 49.3147,28.1701 48.9813,28.1701 48.5,27.5 Z"/></g>
<g><path style="opacity:0.004" fill="#173d2b" d="M 46.5,29.5 C 46.5,29.1667 46.5,28.8333 46.5,28.5C 47.1667,28.5 47.8333,28.5 48.5,28.5C 48.1583,29.3382 47.4916,29.6716 46.5,29.5 Z"/></g>
<g><path style="opacity:1" fill="#03f3c4" d="M 37.5,32.5 C 37.5,32.8333 37.5,33.1667 37.5,33.5C 35.9731,33.427 34.9731,34.0937 34.5,35.5C 33.5084,35.3284 32.8417,35.6618 32.5,36.5C 31.5084,36.3284 30.8417,36.6618 30.5,37.5C 29.8333,37.5 29.5,37.8333 29.5,38.5C 28.5084,38.3284 27.8417,38.6618 27.5,39.5C 26.5084,39.3284 25.8417,39.6618 25.5,40.5C 24.5084,40.3284 23.8417,40.6618 23.5,41.5C 22.8333,41.5 22.5,41.8333 22.5,42.5C 21.5084,42.3284 20.8417,42.6618 20.5,43.5C 18.7162,43.8925 17.0495,44.5592 15.5,45.5C 15.1667,45.5 14.8333,45.5 14.5,45.5C 13.6649,44.0568 12.3316,43.0568 10.5,42.5C 12.1667,40.5 13.8333,38.5 15.5,36.5C 14.6798,34.8888 13.3464,34.2222 11.5,34.5C 17.3344,30.0791 23.6678,26.4124 30.5,23.5C 31.9305,23.5792 33.2638,23.2458 34.5,22.5C 35.4519,24.0453 35.7852,25.712 35.5,27.5C 37.1439,27.7135 38.6439,27.3802 40,26.5C 40.49,27.7932 40.6567,29.1266 40.5,30.5C 38.8008,30.3398 37.1341,30.5065 35.5,31C 36.0442,31.7172 36.7109,32.2172 37.5,32.5 Z"/></g>
<g><path style="opacity:0.008" fill="#0ea78d" d="M 44.5,30.5 C 44.5,30.1667 44.5,29.8333 44.5,29.5C 45.1667,29.5 45.8333,29.5 46.5,29.5C 46.1583,30.3382 45.4916,30.6716 44.5,30.5 Z"/></g>
<g><path style="opacity:0.998" fill="#03cfb9" d="M 73.5,28.5 C 72.7619,32.606 70.7619,35.9394 67.5,38.5C 64.6484,36.9091 61.6484,35.5758 58.5,34.5C 58.4142,33.5041 58.7476,32.6708 59.5,32C 62.6612,30.5869 65.6612,28.9203 68.5,27C 70.5348,26.4014 72.2015,26.9014 73.5,28.5 Z"/></g>
<g><path style="opacity:0.012" fill="#005554" d="M 44.5,30.5 C 43.8333,31.1667 43.8333,31.1667 44.5,30.5 Z"/></g>
<g><path style="opacity:0.012" fill="#00aaa9" d="M 41.5,31.5 C 42.8333,32.1667 42.8333,32.1667 41.5,31.5 Z"/></g>
<g><path style="opacity:0.999" fill="#01c8b5" d="M 73.5,28.5 C 75.4832,29.4706 77.4832,30.4706 79.5,31.5C 80.5353,33.205 80.5353,34.8716 79.5,36.5C 80.1667,37.1667 80.8333,37.8333 81.5,38.5C 79.1553,39.8518 76.8219,41.1851 74.5,42.5C 71.9959,41.4161 69.6626,40.0828 67.5,38.5C 70.7619,35.9394 72.7619,32.606 73.5,28.5 Z"/></g>
<g><path style="opacity:0.004" fill="#193d3d" d="M 39.5,33.5 C 39.5,33.1667 39.5,32.8333 39.5,32.5C 40.1667,32.5 40.8333,32.5 41.5,32.5C 41.1583,33.3382 40.4916,33.6716 39.5,33.5 Z"/></g>
<g><path style="opacity:0.008" fill="#19a781" d="M 37.5,34.5 C 37.5,34.1667 37.5,33.8333 37.5,33.5C 38.1667,33.5 38.8333,33.5 39.5,33.5C 39.1583,34.3382 38.4916,34.6716 37.5,34.5 Z"/></g>
<g><path style="opacity:0.004" fill="#132b2b" d="M 57.5,34.5 C 56.475,34.1034 56.3083,33.4368 57,32.5C 57.4643,33.0944 57.631,33.7611 57.5,34.5 Z"/></g>
<g><path style="opacity:0.012" fill="#00aaa9" d="M 37.5,34.5 C 36.8333,35.1667 36.8333,35.1667 37.5,34.5 Z"/></g>
<g><path style="opacity:0.004" fill="#000000" d="M 57.5,34.5 C 57.8333,34.5 58.1667,34.5 58.5,34.5C 58.3147,35.1701 57.9813,35.1701 57.5,34.5 Z"/></g>
<g><path style="opacity:0.016" fill="#00bf7e" d="M 34.5,35.5 C 35.8333,36.1667 35.8333,36.1667 34.5,35.5 Z"/></g>
<g><path style="opacity:0.004" fill="#173d2b" d="M 32.5,37.5 C 32.5,37.1667 32.5,36.8333 32.5,36.5C 33.1667,36.5 33.8333,36.5 34.5,36.5C 34.1583,37.3382 33.4916,37.6716 32.5,37.5 Z"/></g>
<g><path style="opacity:0.997" fill="#00fac5" d="M 11.5,34.5 C 13.3464,34.2222 14.6798,34.8888 15.5,36.5C 13.8333,38.5 12.1667,40.5 10.5,42.5C 12.3316,43.0568 13.6649,44.0568 14.5,45.5C 12.6064,46.0476 10.9397,47.0476 9.5,48.5C 6.26941,53.6278 3.60275,58.9611 1.5,64.5C 1.81277,60.9581 1.47944,57.6248 0.5,54.5C -2.28655,43.8424 1.38011,37.1757 11.5,34.5 Z"/></g>
<g><path style="opacity:0.008" fill="#00ff7e" d="M 30.5,38.5 C 30.5,38.1667 30.5,37.8333 30.5,37.5C 31.1667,37.5 31.8333,37.5 32.5,37.5C 32.1583,38.3382 31.4916,38.6716 30.5,38.5 Z"/></g>
<g><path style="opacity:0.012" fill="#00aaa9" d="M 29.5,38.5 C 29.8333,38.5 30.1667,38.5 30.5,38.5C 30.3147,39.1701 29.9813,39.1701 29.5,38.5 Z"/></g>
<g><path style="opacity:0.004" fill="#00ff00" d="M 95.5,38.5 C 95.5,38.8333 95.5,39.1667 95.5,39.5C 94.8299,39.0187 94.8299,38.6853 95.5,38.5 Z"/></g>
<g><path style="opacity:0.004" fill="#183d1b" d="M 27.5,40.5 C 27.5,40.1667 27.5,39.8333 27.5,39.5C 28.1667,39.5 28.8333,39.5 29.5,39.5C 29.1583,40.3382 28.4916,40.6716 27.5,40.5 Z"/></g>
<g><path style="opacity:0.004" fill="#1c374e" d="M 25.5,41.5 C 25.5,41.1667 25.5,40.8333 25.5,40.5C 26.1667,40.5 26.8333,40.5 27.5,40.5C 27.1583,41.3382 26.4916,41.6716 25.5,41.5 Z"/></g>
<g><path style="opacity:0.012" fill="#006262" d="M 23.5,42.5 C 23.5,42.1667 23.5,41.8333 23.5,41.5C 24.1667,41.5 24.8333,41.5 25.5,41.5C 25.1583,42.3382 24.4916,42.6716 23.5,42.5 Z"/></g>
<g><path style="opacity:0.012" fill="#00ffa9" d="M 22.5,42.5 C 22.8333,42.5 23.1667,42.5 23.5,42.5C 23.3147,43.1701 22.9813,43.1701 22.5,42.5 Z"/></g>
<g><path style="opacity:1" fill="#02b6b3" d="M 79.5,31.5 C 84.3682,34.4338 89.3682,37.1005 94.5,39.5C 94.5,39.8333 94.5,40.1667 94.5,40.5C 93.0695,40.5792 91.7362,40.2458 90.5,39.5C 89.9294,43.8612 89.596,48.1945 89.5,52.5C 85.883,49.7424 83.883,50.7424 83.5,55.5C 82.8333,53.5 82.1667,51.5 81.5,49.5C 81.7148,47.8212 81.0481,46.8212 79.5,46.5C 79.5,45.8333 79.1667,45.5 78.5,45.5C 77.1667,44.5 75.8333,43.5 74.5,42.5C 76.8219,41.1851 79.1553,39.8518 81.5,38.5C 80.8333,37.8333 80.1667,37.1667 79.5,36.5C 80.5353,34.8716 80.5353,33.205 79.5,31.5 Z"/></g>
<g><path style="opacity:0.004" fill="#193d3d" d="M 20.5,43.5 C 21.1667,43.5 21.8333,43.5 22.5,43.5C 21.8333,44.8333 21.1667,44.8333 20.5,43.5 Z"/></g>
<g><path style="opacity:1" fill="#01d6bf" d="M 56.5,44.5 C 56.5774,45.7498 57.244,46.5831 58.5,47C 55.8985,48.3188 53.7318,50.1521 52,52.5C 51.5172,53.448 51.3505,54.448 51.5,55.5C 49.4727,55.3379 47.4727,55.5045 45.5,56C 47.4904,57.8402 47.4904,59.0069 45.5,59.5C 40.3951,57.1131 35.3951,54.4464 30.5,51.5C 29.479,50.9984 29.3123,50.3317 30,49.5C 35.4706,45.5289 41.3039,42.1956 47.5,39.5C 50.6512,40.9086 53.6512,42.5753 56.5,44.5 Z"/></g>
<g><path style="opacity:0.004" fill="#194233" d="M 78.5,45.5 C 79.1667,45.5 79.5,45.8333 79.5,46.5C 79.5,46.8333 79.5,47.1667 79.5,47.5C 76.5404,46.968 76.2071,46.3013 78.5,45.5 Z"/></g>
<g><path style="opacity:0.999" fill="#00c9b8" d="M 56.5,44.5 C 60.1667,46.5 63.8333,48.5 67.5,50.5C 66.8166,52.1765 65.4832,52.8432 63.5,52.5C 63.3601,54.1238 64.0267,55.2904 65.5,56C 63.9632,57.1096 63.2965,58.6096 63.5,60.5C 62.1779,60.33 61.0113,60.6634 60,61.5C 60.1484,62.825 59.9817,63.9916 59.5,65C 58.2575,65.3114 57.2575,64.8114 56.5,63.5C 55.7025,63.9569 55.3691,64.6236 55.5,65.5C 51.7991,63.9884 48.4658,61.9884 45.5,59.5C 47.4904,59.0069 47.4904,57.8402 45.5,56C 47.4727,55.5045 49.4727,55.3379 51.5,55.5C 51.3505,54.448 51.5172,53.448 52,52.5C 53.7318,50.1521 55.8985,48.3188 58.5,47C 57.244,46.5831 56.5774,45.7498 56.5,44.5 Z"/></g>
<g><path style="opacity:0.004" fill="#070810" d="M 79.5,47.5 C 80.4889,52.9753 80.8222,58.642 80.5,64.5C 79.8333,64.5 79.1667,64.5 78.5,64.5C 79.4524,58.9252 79.7857,53.2586 79.5,47.5 Z"/></g>
<g><path style="opacity:0.004" fill="#132b2b" d="M 27.5,49.5 C 28.525,49.8966 28.6917,50.5632 28,51.5C 27.5357,50.9056 27.369,50.2389 27.5,49.5 Z"/></g>
<g><path style="opacity:1" fill="#00efc3" d="M 14.5,45.5 C 14.8333,45.5 15.1667,45.5 15.5,45.5C 13.7982,47.8002 13.1315,50.4669 13.5,53.5C 13.5792,54.9305 13.2458,56.2638 12.5,57.5C 9.60902,59.7756 6.94236,62.2756 4.5,65C 3.67056,68.4779 3.00389,71.9779 2.5,75.5C 1.51836,72.0381 1.18503,68.3714 1.5,64.5C 3.60275,58.9611 6.26941,53.6278 9.5,48.5C 10.9397,47.0476 12.6064,46.0476 14.5,45.5 Z"/></g>
<g><path style="opacity:0.998" fill="#00adb4" d="M 94.5,40.5 C 94.5,44.1667 94.5,47.8333 94.5,51.5C 93.9331,55.4966 93.0998,59.4966 92,63.5C 90.9748,59.8989 89.4748,59.8989 87.5,63.5C 88.9538,65.2633 88.6204,66.5967 86.5,67.5C 85.6747,63.8776 85.1747,60.211 85,56.5C 84.79,58.0581 84.29,59.3915 83.5,60.5C 83.5,58.8333 83.5,57.1667 83.5,55.5C 83.883,50.7424 85.883,49.7424 89.5,52.5C 89.596,48.1945 89.9294,43.8612 90.5,39.5C 91.7362,40.2458 93.0695,40.5792 94.5,40.5 Z"/></g>
<g><path style="opacity:0.008" fill="#458f85" d="M 14.5,53.5 C 14.4561,45.8245 15.1228,45.6578 16.5,53C 15.9056,53.4643 15.2389,53.631 14.5,53.5 Z"/></g>
<g><path style="opacity:0.999" fill="#04e2b5" d="M 13.5,53.5 C 13.8333,53.5 14.1667,53.5 14.5,53.5C 17.0094,54.9213 19.3428,56.5879 21.5,58.5C 21.2471,60.8273 21.9137,62.8273 23.5,64.5C 21.5988,65.2309 19.5988,65.2309 17.5,64.5C 17.8432,66.4832 17.1765,67.8166 15.5,68.5C 14.8826,68.3893 14.3826,68.056 14,67.5C 13.5005,73.4908 13.3338,79.4908 13.5,85.5C 12.5139,81.03 12.1805,76.3633 12.5,71.5C 12.5,70.1667 12.5,68.8333 12.5,67.5C 10.8008,67.3398 9.13414,67.5065 7.5,68C 5.61759,70.978 4.11759,74.1447 3,77.5C 2.53566,76.9056 2.36899,76.2389 2.5,75.5C 3.00389,71.9779 3.67056,68.4779 4.5,65C 6.94236,62.2756 9.60902,59.7756 12.5,57.5C 13.2458,56.2638 13.5792,54.9305 13.5,53.5 Z"/></g>
<g><path style="opacity:1" fill="#00bab6" d="M 67.5,50.5 C 68.4822,51.1408 69.4822,51.8075 70.5,52.5C 71.1674,55.6417 71.834,58.6417 72.5,61.5C 71.9536,63.3032 71.1203,64.9698 70,66.5C 69.6667,66.1667 69.3333,65.8333 69,65.5C 67.9805,66.6872 66.8139,67.6872 65.5,68.5C 64.6143,67.675 64.281,66.675 64.5,65.5C 63.448,65.3505 62.448,65.5172 61.5,66C 61.1164,66.9506 60.7831,67.7839 60.5,68.5C 58.6316,67.7368 56.9649,66.7368 55.5,65.5C 55.3691,64.6236 55.7025,63.9569 56.5,63.5C 57.2575,64.8114 58.2575,65.3114 59.5,65C 59.9817,63.9916 60.1484,62.825 60,61.5C 61.0113,60.6634 62.1779,60.33 63.5,60.5C 63.2965,58.6096 63.9632,57.1096 65.5,56C 64.0267,55.2904 63.3601,54.1238 63.5,52.5C 65.4832,52.8432 66.8166,52.1765 67.5,50.5 Z"/></g>
<g><path style="opacity:0.996" fill="#00d7c0" d="M 21.5,58.5 C 24.3516,60.0909 27.3516,61.4242 30.5,62.5C 30.5,63.1667 30.8333,63.5 31.5,63.5C 32.8333,64.5 34.1667,65.5 35.5,66.5C 33.2776,66.178 31.4443,66.8446 30,68.5C 27.4543,71.0373 25.7876,74.0373 25,77.5C 24.9504,75.256 24.1171,73.5893 22.5,72.5C 20.9505,71.5592 19.2838,70.8925 17.5,70.5C 17.1583,69.6618 16.4916,69.3284 15.5,69.5C 15.5,69.1667 15.5,68.8333 15.5,68.5C 17.1765,67.8166 17.8432,66.4832 17.5,64.5C 19.5988,65.2309 21.5988,65.2309 23.5,64.5C 21.9137,62.8273 21.2471,60.8273 21.5,58.5 Z"/></g>
<g><path style="opacity:0.012" fill="#2d956d" d="M 30.5,62.5 C 31.4971,61.2875 32.4971,61.4542 33.5,63C 32.9056,63.4643 32.2389,63.631 31.5,63.5C 30.8333,63.5 30.5,63.1667 30.5,62.5 Z"/></g>
<g><path style="opacity:1" fill="#00a4b0" d="M 94.5,51.5 C 94.5,59.1667 94.5,66.8333 94.5,74.5C 93.8339,71.3107 93.1672,67.9773 92.5,64.5C 91.0815,67.5251 89.0815,70.0251 86.5,72C 87.4506,72.7175 87.6172,73.5509 87,74.5C 84.6667,75.5 83,77.1667 82,79.5C 81.0228,78.2264 80.1894,78.2264 79.5,79.5C 77.6316,78.7368 75.9649,77.7368 74.5,76.5C 74.8442,73.4377 75.5109,70.4377 76.5,67.5C 77.048,72.5947 79.2147,73.5947 83,70.5C 83.4983,67.1832 83.665,63.8499 83.5,60.5C 84.29,59.3915 84.79,58.0581 85,56.5C 85.1747,60.211 85.6747,63.8776 86.5,67.5C 88.6204,66.5967 88.9538,65.2633 87.5,63.5C 89.4748,59.8989 90.9748,59.8989 92,63.5C 93.0998,59.4966 93.9331,55.4966 94.5,51.5 Z"/></g>
<g><path style="opacity:1" fill="#01abac" d="M 81.5,49.5 C 82.1667,51.5 82.8333,53.5 83.5,55.5C 83.5,57.1667 83.5,58.8333 83.5,60.5C 83.665,63.8499 83.4983,67.1832 83,70.5C 79.2147,73.5947 77.048,72.5947 76.5,67.5C 75.5109,70.4377 74.8442,73.4377 74.5,76.5C 69.5537,74.1974 64.8871,71.5307 60.5,68.5C 60.7831,67.7839 61.1164,66.9506 61.5,66C 62.448,65.5172 63.448,65.3505 64.5,65.5C 64.281,66.675 64.6143,67.675 65.5,68.5C 66.8139,67.6872 67.9805,66.6872 69,65.5C 69.3333,65.8333 69.6667,66.1667 70,66.5C 71.1203,64.9698 71.9536,63.3032 72.5,61.5C 74.5,62.5 76.5,63.5 78.5,64.5C 79.1667,65.8333 79.8333,65.8333 80.5,64.5C 81.4872,59.6946 81.8205,54.6946 81.5,49.5 Z"/></g>
<g><path style="opacity:1" fill="#009dad" d="M 94.5,74.5 C 94.5,77.5 94.5,80.5 94.5,83.5C 93.8343,80.9723 93.1676,78.3056 92.5,75.5C 91.5835,78.558 90.0835,81.2247 88,83.5C 86.6667,82.8333 85.6667,81.8333 85,80.5C 83.9887,81.3366 82.8221,81.67 81.5,81.5C 81.1667,80.5 80.5,79.8333 79.5,79.5C 80.1894,78.2264 81.0228,78.2264 82,79.5C 83,77.1667 84.6667,75.5 87,74.5C 87.6172,73.5509 87.4506,72.7175 86.5,72C 89.0815,70.0251 91.0815,67.5251 92.5,64.5C 93.1672,67.9773 93.8339,71.3107 94.5,74.5 Z"/></g>
<g><path style="opacity:0.999" fill="#00e0c0" d="M 0.5,54.5 C 1.47944,57.6248 1.81277,60.9581 1.5,64.5C 1.18503,68.3714 1.51836,72.0381 2.5,75.5C 2.36899,76.2389 2.53566,76.9056 3,77.5C 4.11759,74.1447 5.61759,70.978 7.5,68C 9.13414,67.5065 10.8008,67.3398 12.5,67.5C 12.5,68.8333 12.5,70.1667 12.5,71.5C 11.065,75.2551 10.065,79.2551 9.5,83.5C 8.48259,80.972 7.31592,80.972 6,83.5C 4.62355,86.0533 3.45688,88.7199 2.5,91.5C 1.83195,89.0312 1.16528,86.6979 0.5,84.5C 0.5,74.5 0.5,64.5 0.5,54.5 Z"/></g>
<g><path style="opacity:0.004" fill="#1f3e28" d="M 15.5,69.5 C 15.8417,70.3382 16.5084,70.6716 17.5,70.5C 15.2458,75.7881 14.9124,81.2881 16.5,87C 15.9056,87.4643 15.2389,87.631 14.5,87.5C 14.1771,81.31 14.5104,75.31 15.5,69.5 Z"/></g>
<g><path style="opacity:0.008" fill="#1c7f5d" d="M 22.5,73.5 C 22.6641,76.1873 22.4974,78.854 22,81.5C 21.7744,78.905 21.2744,76.405 20.5,74C 21.0944,73.5357 21.7611,73.369 22.5,73.5 Z"/></g>
<g><path style="opacity:1" fill="#01b5b5" d="M 50.5,75.5 C 53.3311,76.0787 55.6644,77.412 57.5,79.5C 52.6805,80.4308 50.1805,83.4308 50,88.5C 48.9887,87.6634 47.8221,87.33 46.5,87.5C 46.1667,89.5 45.8333,91.5 45.5,93.5C 43.326,93.2503 41.6594,92.2503 40.5,90.5C 41.8333,90.5 43.1667,90.5 44.5,90.5C 44.5228,88.4004 43.8561,86.5671 42.5,85C 43.0779,83.1886 43.5779,81.3553 44,79.5C 46.1731,78.0672 48.3398,76.7339 50.5,75.5 Z"/></g>
<g><path style="opacity:0.994" fill="#07c9b9" d="M 35.5,66.5 C 38.6339,67.9009 41.6339,69.5675 44.5,71.5C 44.1119,73.6847 43.1119,75.518 41.5,77C 41.6448,77.772 41.9781,78.4387 42.5,79C 41.4459,81.3822 40.7792,83.8822 40.5,86.5C 39.5,86.5 38.5,86.5 37.5,86.5C 37.5614,84.4078 38.5614,82.9078 40.5,82C 39.6921,80.2942 38.3588,79.4609 36.5,79.5C 36.4287,82.6523 35.0954,84.9856 32.5,86.5C 29.7765,84.7188 26.9432,83.0521 24,81.5C 23.8171,78.6353 23.3171,75.9686 22.5,73.5C 22.5,73.1667 22.5,72.8333 22.5,72.5C 24.1171,73.5893 24.9504,75.256 25,77.5C 25.7876,74.0373 27.4543,71.0373 30,68.5C 31.4443,66.8446 33.2776,66.178 35.5,66.5 Z"/></g>
<g><path style="opacity:0.999" fill="#01aeb4" d="M 57.5,79.5 C 59.5,80.1667 61.5,80.8333 63.5,81.5C 66.1667,83.1667 66.1667,84.8333 63.5,86.5C 62.5084,86.3284 61.8417,86.6618 61.5,87.5C 60.5084,87.3284 59.8417,87.6618 59.5,88.5C 58.8333,88.5 58.5,88.8333 58.5,89.5C 57.5084,89.3284 56.8417,89.6618 56.5,90.5C 55.5084,90.3284 54.8417,90.6618 54.5,91.5C 53.8333,91.5 53.5,91.8333 53.5,92.5C 52.5084,92.3284 51.8417,92.6618 51.5,93.5C 50.5084,93.3284 49.8417,93.6618 49.5,94.5C 47.901,94.7678 46.5676,94.4345 45.5,93.5C 45.8333,91.5 46.1667,89.5 46.5,87.5C 47.8221,87.33 48.9887,87.6634 50,88.5C 50.1805,83.4308 52.6805,80.4308 57.5,79.5 Z"/></g>
<g><path style="opacity:0.012" fill="#00aaa9" d="M 63.5,80.5 C 64.8333,81.1667 64.8333,81.1667 63.5,80.5 Z"/></g>
<g><path style="opacity:1" fill="#058da9" d="M 94.5,83.5 C 94.8226,87.226 94.4892,90.8927 93.5,94.5C 92.0986,95.5207 90.7653,96.5207 89.5,97.5C 86.6689,98.0787 84.3356,99.412 82.5,101.5C 82.1667,101.5 81.8333,101.5 81.5,101.5C 81.0371,98.5176 80.7038,95.5176 80.5,92.5C 78.5168,92.8432 77.1834,92.1765 76.5,90.5C 76.5,90.1667 76.5,89.8333 76.5,89.5C 77.9217,89.2914 79.255,88.7914 80.5,88C 79.8333,87.6667 79.1667,87.3333 78.5,87C 78.88,84.6742 79.88,82.8409 81.5,81.5C 82.8221,81.67 83.9887,81.3366 85,80.5C 85.6667,81.8333 86.6667,82.8333 88,83.5C 90.0835,81.2247 91.5835,78.558 92.5,75.5C 93.1676,78.3056 93.8343,80.9723 94.5,83.5 Z"/></g>
<g><path style="opacity:0.999" fill="#00bdb5" d="M 44.5,71.5 C 46.8816,72.3507 48.8816,73.684 50.5,75.5C 48.3398,76.7339 46.1731,78.0672 44,79.5C 43.5779,81.3553 43.0779,83.1886 42.5,85C 43.8561,86.5671 44.5228,88.4004 44.5,90.5C 43.1667,90.5 41.8333,90.5 40.5,90.5C 37.605,89.6006 34.9384,88.2672 32.5,86.5C 35.0954,84.9856 36.4287,82.6523 36.5,79.5C 38.3588,79.4609 39.6921,80.2942 40.5,82C 38.5614,82.9078 37.5614,84.4078 37.5,86.5C 38.5,86.5 39.5,86.5 40.5,86.5C 40.7792,83.8822 41.4459,81.3822 42.5,79C 41.9781,78.4387 41.6448,77.772 41.5,77C 43.1119,75.518 44.1119,73.6847 44.5,71.5 Z"/></g>
<g><path style="opacity:0.008" fill="#007f7e" d="M 66.5,83.5 C 67.8333,84.1667 67.8333,84.1667 66.5,83.5 Z"/></g>
<g><path style="opacity:0.004" fill="#0e1f1f" d="M 63.5,87.5 C 63.5,87.1667 63.5,86.8333 63.5,86.5C 66.1667,86.8333 66.1667,87.1667 63.5,87.5 Z"/></g>
<g><path style="opacity:1" fill="#00d1be" d="M 12.5,71.5 C 12.1805,76.3633 12.5139,81.03 13.5,85.5C 13.3284,86.4916 13.6618,87.1583 14.5,87.5C 16.3492,88.593 18.0158,89.9263 19.5,91.5C 19.6309,92.3764 19.2975,93.0431 18.5,93.5C 17.3914,92.4104 16.3914,92.4104 15.5,93.5C 17.4468,95.2756 17.7801,97.2756 16.5,99.5C 15.549,100.326 14.549,100.492 13.5,100C 14.3363,98.7567 14.003,97.5901 12.5,96.5C 11.7348,97.6119 10.7348,98.2786 9.5,98.5C 1.65558,97.1178 -1.34442,92.4511 0.5,84.5C 1.16528,86.6979 1.83195,89.0312 2.5,91.5C 3.45688,88.7199 4.62355,86.0533 6,83.5C 7.31592,80.972 8.48259,80.972 9.5,83.5C 10.065,79.2551 11.065,75.2551 12.5,71.5 Z"/></g>
<g><path style="opacity:0.008" fill="#008d8d" d="M 61.5,88.5 C 61.5,88.1667 61.5,87.8333 61.5,87.5C 62.1667,87.5 62.8333,87.5 63.5,87.5C 63.1583,88.3382 62.4916,88.6716 61.5,88.5 Z"/></g>
<g><path style="opacity:0.012" fill="#0e3939" d="M 59.5,89.5 C 59.5,89.1667 59.5,88.8333 59.5,88.5C 60.1667,88.5 60.8333,88.5 61.5,88.5C 61.1583,89.3382 60.4916,89.6716 59.5,89.5 Z"/></g>
<g><path style="opacity:0.004" fill="#163a3a" d="M 76.5,89.5 C 75.8333,89.5 75.5,89.8333 75.5,90.5C 73.0248,90.2533 73.0248,89.5866 75.5,88.5C 76.1067,88.6236 76.44,88.9569 76.5,89.5 Z"/></g>
<g><path style="opacity:0.016" fill="#00403f" d="M 58.5,89.5 C 58.8333,89.5 59.1667,89.5 59.5,89.5C 59.3147,90.1701 58.9813,90.1701 58.5,89.5 Z"/></g>
<g><path style="opacity:0.004" fill="#0e1f1f" d="M 56.5,91.5 C 56.5,91.1667 56.5,90.8333 56.5,90.5C 57.1667,90.5 57.8333,90.5 58.5,90.5C 58.1583,91.3382 57.4916,91.6716 56.5,91.5 Z"/></g>
<g><path style="opacity:0.008" fill="#128d72" d="M 54.5,92.5 C 54.5,92.1667 54.5,91.8333 54.5,91.5C 55.1667,91.5 55.8333,91.5 56.5,91.5C 56.1583,92.3382 55.4916,92.6716 54.5,92.5 Z"/></g>
<g><path style="opacity:0.012" fill="#005554" d="M 53.5,92.5 C 53.8333,92.5 54.1667,92.5 54.5,92.5C 54.3147,93.1701 53.9813,93.1701 53.5,92.5 Z"/></g>
<g><path style="opacity:0.004" fill="#132b2b" d="M 51.5,94.5 C 51.5,94.1667 51.5,93.8333 51.5,93.5C 52.1667,93.5 52.8333,93.5 53.5,93.5C 53.1583,94.3382 52.4916,94.6716 51.5,94.5 Z"/></g>
<g><path style="opacity:0.004" fill="#0e1f1f" d="M 49.5,95.5 C 49.5,95.1667 49.5,94.8333 49.5,94.5C 50.1667,94.5 50.8333,94.5 51.5,94.5C 51.1583,95.3382 50.4916,95.6716 49.5,95.5 Z"/></g>
<g><path style="opacity:0.999" fill="#0192a9" d="M 75.5,90.5 C 75.8333,90.5 76.1667,90.5 76.5,90.5C 77.1834,92.1765 78.5168,92.8432 80.5,92.5C 80.7038,95.5176 81.0371,98.5176 81.5,101.5C 80.8333,101.5 80.5,101.833 80.5,102.5C 79.8333,102.5 79.5,102.833 79.5,103.5C 78.5084,103.328 77.8417,103.662 77.5,104.5C 76.5084,104.328 75.8417,104.662 75.5,105.5C 74.5084,105.328 73.8417,105.662 73.5,106.5C 72.8333,106.5 72.5,106.833 72.5,107.5C 71.8333,107.5 71.1667,107.5 70.5,107.5C 68.7872,106.695 67.1206,105.695 65.5,104.5C 66.624,103.086 67.624,101.586 68.5,100C 68.1667,99.6667 67.8333,99.3333 67.5,99C 69.7765,97.858 72.1099,97.358 74.5,97.5C 73.6906,95.9291 73.3573,94.2624 73.5,92.5C 74.1667,91.8333 74.8333,91.1667 75.5,90.5 Z"/></g>
<g><path style="opacity:0.998" fill="#00c0b8" d="M 19.5,91.5 C 23.1168,92.6417 26.4502,94.3084 29.5,96.5C 29.6495,97.552 29.4828,98.552 29,99.5C 28.6667,99.1667 28.3333,98.8333 28,98.5C 26.406,99.7159 24.906,101.049 23.5,102.5C 23.1203,100.979 22.9536,99.3126 23,97.5C 20.9096,99.7942 18.4096,101.461 15.5,102.5C 13.1184,101.649 11.1184,100.316 9.5,98.5C 10.7348,98.2786 11.7348,97.6119 12.5,96.5C 14.003,97.5901 14.3363,98.7567 13.5,100C 14.549,100.492 15.549,100.326 16.5,99.5C 17.7801,97.2756 17.4468,95.2756 15.5,93.5C 16.3914,92.4104 17.3914,92.4104 18.5,93.5C 19.2975,93.0431 19.6309,92.3764 19.5,91.5 Z"/></g>
<g><path style="opacity:0.008" fill="#2a4978" d="M 49.5,95.5 C 48.2139,97.3675 46.8805,97.5342 45.5,96C 46.7932,95.51 48.1266,95.3433 49.5,95.5 Z"/></g>
<g><path style="opacity:0.004" fill="#1529d2" d="M 89.5,97.5 C 90.2389,97.369 90.9056,97.5357 91.5,98C 90.5632,98.6917 89.8966,98.525 89.5,97.5 Z"/></g>
<g><path style="opacity:0.004" fill="#000000" d="M 35.5,98.5 C 36.8333,99.1667 36.8333,99.1667 35.5,98.5 Z"/></g>
<g><path style="opacity:0.999" fill="#05b7ae" d="M 29.5,96.5 C 31.5168,97.5294 33.5168,98.5294 35.5,99.5C 35.8039,100.15 36.1373,100.817 36.5,101.5C 34.8164,102.15 33.4831,103.15 32.5,104.5C 31.5084,104.328 30.8417,104.662 30.5,105.5C 28.321,105.84 26.4877,106.84 25,108.5C 21.8533,106.35 18.6867,104.35 15.5,102.5C 18.4096,101.461 20.9096,99.7942 23,97.5C 22.9536,99.3126 23.1203,100.979 23.5,102.5C 24.906,101.049 26.406,99.7159 28,98.5C 28.3333,98.8333 28.6667,99.1667 29,99.5C 29.4828,98.552 29.6495,97.552 29.5,96.5 Z"/></g>
<g><path style="opacity:0.008" fill="#007f00" d="M 37.5,100.5 C 38.8333,101.167 38.8333,101.167 37.5,100.5 Z"/></g>
<g><path style="opacity:0.004" fill="#132b2b" d="M 82.5,102.5 C 82.5,102.167 82.5,101.833 82.5,101.5C 85.1667,101.833 85.1667,102.167 82.5,102.5 Z"/></g>
<g><path style="opacity:0.008" fill="#233280" d="M 80.5,103.5 C 80.5,103.167 80.5,102.833 80.5,102.5C 81.1667,102.5 81.8333,102.5 82.5,102.5C 82.1583,103.338 81.4916,103.672 80.5,103.5 Z"/></g>
<g><path style="opacity:0.012" fill="#00aa54" d="M 34.5,103.5 C 35.8333,104.167 35.8333,104.167 34.5,103.5 Z"/></g>
<g><path style="opacity:0.012" fill="#00aa54" d="M 79.5,103.5 C 79.8333,103.5 80.1667,103.5 80.5,103.5C 80.3147,104.17 79.9813,104.17 79.5,103.5 Z"/></g>
<g><path style="opacity:0.012" fill="#00aaa9" d="M 32.5,104.5 C 33.8333,105.167 33.8333,105.167 32.5,104.5 Z"/></g>
<g><path style="opacity:1" fill="#0395ab" d="M 73.5,92.5 C 73.3573,94.2624 73.6906,95.9291 74.5,97.5C 72.1099,97.358 69.7765,97.858 67.5,99C 67.8333,99.3333 68.1667,99.6667 68.5,100C 67.624,101.586 66.624,103.086 65.5,104.5C 67.1206,105.695 68.7872,106.695 70.5,107.5C 70.5,107.833 70.5,108.167 70.5,108.5C 67.6689,109.079 65.3356,110.412 63.5,112.5C 62.5084,112.328 61.8417,112.662 61.5,113.5C 60.8333,113.5 60.5,113.833 60.5,114.5C 59.5084,114.328 58.8417,114.662 58.5,115.5C 57.5084,115.328 56.8417,115.662 56.5,116.5C 55.5084,116.328 54.8417,116.662 54.5,117.5C 53.8333,117.5 53.5,117.833 53.5,118.5C 52.8333,118.5 52.1667,118.5 51.5,118.5C 51.3185,115.447 51.1519,112.447 51,109.5C 52.1332,111.211 53.6332,111.711 55.5,111C 57.1862,108.675 58.6862,105.841 60,102.5C 61.5998,101.134 63.4332,100.134 65.5,99.5C 64.675,98.6143 63.675,98.281 62.5,98.5C 65.9988,96.2495 69.6654,94.2495 73.5,92.5 Z"/></g>
<g><path style="opacity:0.004" fill="#11192b" d="M 77.5,105.5 C 77.5,105.167 77.5,104.833 77.5,104.5C 78.1667,104.5 78.8333,104.5 79.5,104.5C 79.1583,105.338 78.4916,105.672 77.5,105.5 Z"/></g>
<g><path style="opacity:0.004" fill="#163720" d="M 30.5,105.5 C 31.1667,105.5 31.8333,105.5 32.5,105.5C 31.8333,106.833 31.1667,106.833 30.5,105.5 Z"/></g>
<g><path style="opacity:0.008" fill="#0c228d" d="M 75.5,106.5 C 75.5,106.167 75.5,105.833 75.5,105.5C 76.1667,105.5 76.8333,105.5 77.5,105.5C 77.1583,106.338 76.4916,106.672 75.5,106.5 Z"/></g>
<g><path style="opacity:0.012" fill="#1c3e63" d="M 73.5,107.5 C 73.5,107.167 73.5,106.833 73.5,106.5C 74.1667,106.5 74.8333,106.5 75.5,106.5C 75.1583,107.338 74.4916,107.672 73.5,107.5 Z"/></g>
<g><path style="opacity:0.012" fill="#0054aa" d="M 72.5,107.5 C 72.8333,107.5 73.1667,107.5 73.5,107.5C 73.3147,108.17 72.9813,108.17 72.5,107.5 Z"/></g>
<g><path style="opacity:0.004" fill="#173737" d="M 70.5,108.5 C 71.1667,108.5 71.8333,108.5 72.5,108.5C 71.8333,109.833 71.1667,109.833 70.5,108.5 Z"/></g>
<g><path style="opacity:0.004" fill="#000000" d="M 24.5,109.5 C 25.8333,110.167 25.8333,110.167 24.5,109.5 Z"/></g>
<g><path style="opacity:1" fill="#029eaa" d="M 62.5,98.5 C 63.675,98.281 64.675,98.6143 65.5,99.5C 63.4332,100.134 61.5998,101.134 60,102.5C 58.6862,105.841 57.1862,108.675 55.5,111C 53.6332,111.711 52.1332,111.211 51,109.5C 51.1519,112.447 51.3185,115.447 51.5,118.5C 51.5,118.833 51.5,119.167 51.5,119.5C 50.5084,119.328 49.8417,119.662 49.5,120.5C 48.1667,120.5 46.8333,120.5 45.5,120.5C 42.3419,118.196 39.0085,116.03 35.5,114C 44.5274,108.822 53.5274,103.655 62.5,98.5 Z"/></g>
<g><path style="opacity:0.004" fill="#0b1919" d="M 63.5,113.5 C 63.5,113.167 63.5,112.833 63.5,112.5C 66.1667,112.833 66.1667,113.167 63.5,113.5 Z"/></g>
<g><path style="opacity:0.008" fill="#233280" d="M 61.5,114.5 C 61.5,114.167 61.5,113.833 61.5,113.5C 62.1667,113.5 62.8333,113.5 63.5,113.5C 63.1583,114.338 62.4916,114.672 61.5,114.5 Z"/></g>
<g><path style="opacity:0.012" fill="#005554" d="M 60.5,114.5 C 60.8333,114.5 61.1667,114.5 61.5,114.5C 61.3147,115.17 60.9813,115.17 60.5,114.5 Z"/></g>
<g><path style="opacity:0.004" fill="#132b2b" d="M 58.5,116.5 C 58.5,116.167 58.5,115.833 58.5,115.5C 59.1667,115.5 59.8333,115.5 60.5,115.5C 60.1583,116.338 59.4916,116.672 58.5,116.5 Z"/></g>
<g><path style="opacity:0.004" fill="#11192b" d="M 56.5,117.5 C 56.5,117.167 56.5,116.833 56.5,116.5C 57.1667,116.5 57.8333,116.5 58.5,116.5C 58.1583,117.338 57.4916,117.672 56.5,117.5 Z"/></g>
<g><path style="opacity:0.008" fill="#007f7e" d="M 54.5,118.5 C 54.5,118.167 54.5,117.833 54.5,117.5C 55.1667,117.5 55.8333,117.5 56.5,117.5C 56.1583,118.338 55.4916,118.672 54.5,118.5 Z"/></g>
<g><path style="opacity:0.016" fill="#00403f" d="M 53.5,118.5 C 53.8333,118.5 54.1667,118.5 54.5,118.5C 54.3147,119.17 53.9813,119.17 53.5,118.5 Z"/></g>
<g><path style="opacity:0.004" fill="#17193d" d="M 51.5,120.5 C 51.5,120.167 51.5,119.833 51.5,119.5C 52.1667,119.5 52.8333,119.5 53.5,119.5C 53.1583,120.338 52.4916,120.672 51.5,120.5 Z"/></g>
<g><path style="opacity:0.012" fill="#1c3e63" d="M 45.5,120.5 C 45.5,120.833 45.5,121.167 45.5,121.5C 42.8333,121.167 42.8333,120.833 45.5,120.5 Z"/></g>
<g><path style="opacity:0.008" fill="#1b2571" d="M 49.5,121.5 C 49.5,121.167 49.5,120.833 49.5,120.5C 50.1667,120.5 50.8333,120.5 51.5,120.5C 51.1583,121.338 50.4916,121.672 49.5,121.5 Z"/></g>
<g><path style="opacity:0.008" fill="#007f7e" d="M 45.5,121.5 C 46.8333,122.167 46.8333,122.167 45.5,121.5 Z"/></g>
<g><path style="opacity:0.012" fill="#005554" d="M 49.5,121.5 C 48.8333,122.167 48.8333,122.167 49.5,121.5 Z"/></g>
</svg>
