<svg width="40" height="40" viewBox="0 0 40 40" fill="none" xmlns="http://www.w3.org/2000/svg">
<rect width="40" height="40" fill="white"/>
<path d="M37.0019 4.93579H2.99805V35.0253H37.0019V4.93579Z" fill="#B7A38E"/>
<path d="M8.99099 30.0112H2.99805V32.0308H8.99099V30.0112Z" fill="#6A5C52"/>
<path d="M37.0017 30.0112H31.0088V32.0308H37.0017V30.0112Z" fill="#6A5C52"/>
<path d="M31.0091 33.0088H8.99121V35.0283H31.0091V33.0088Z" fill="#6A5C52"/>
<path d="M28.0103 4.93579H11.9854V7.87151H28.0103V4.93579Z" fill="#312A1D"/>
<path d="M34.0037 13.9859H37.0018V4.93572V2H34.0037H28.0107V4.93572H34.0037V13.9859Z" fill="#312A1D"/>
<path d="M40.0001 13.9856H37.002V32.0268H40.0001V13.9856Z" fill="#312A1D"/>
<path d="M5.99288 4.93572H11.9858V2H5.99288H2.99805V4.93572V13.9859H5.99288V4.93572Z" fill="#312A1D"/>
<path d="M5.99288 32.0308H2.99805V35.0256H5.99288H8.99099V32.0308H5.99288Z" fill="#312A1D"/>
<path d="M31.0091 35.0256H8.99121V38.0237H31.0091V35.0256Z" fill="#312A1D"/>
<path d="M31.0088 32.0308V35.0256H34.0036H37.0017V32.0308H34.0036H31.0088Z" fill="#312A1D"/>
<path d="M2.99812 13.9856H0V32.0268H2.99812V13.9856Z" fill="#312A1D"/>
<path d="M31.0088 5.97632H30.0303V7.99258H31.0088V8.97115H33.0251V7.99258V5.97632H31.0088Z" fill="#6A5C52"/>
<path d="M10.0323 5.97632H9.05372H7.03418V7.99258V8.97115H9.05372V7.99258H10.0323V5.97632Z" fill="#6A5C52"/>
<path d="M15.0426 19.0037H11.9854V22.0609H15.0426V19.0037Z" fill="#312A1D"/>
<path d="M17.9824 21.9985H15.9629V24.0181H17.9824V21.9985Z" fill="#312A1D"/>
<path d="M24.0371 21.9985H22.0176V24.0181H24.0371V21.9985Z" fill="#312A1D"/>
<path d="M24.0345 27.9945H22.0182V27.0127H17.9824V27.9945H15.9629V24.0178H13.9434V30.9893H15.9629V32.0303H17.9824V33.0089H18.961V33.9875H20.9773V33.0089H22.0182V32.0303H24.0345V30.9893H26.054V24.0178H24.0345V27.9945Z" fill="#312A1D"/>
<path d="M28.0104 19.0037H24.9531V22.0609H28.0104V19.0037Z" fill="#312A1D"/>
</svg>
