<svg width="32" height="32" viewBox="0 0 32 32" fill="none" xmlns="http://www.w3.org/2000/svg">
<g clip-path="url(#clip0_3933_6939)">
<rect y="0.0012207" width="32" height="32.0002" rx="16" fill="#303C4B"/>
<path d="M16 32C24.8366 32 32 24.8366 32 16C32 7.16344 24.8366 0 16 0C7.16344 0 0 7.16344 0 16C0 24.8366 7.16344 32 16 32Z" fill="#2D374B"/>
<path d="M14.9332 4.54647C15.5934 4.17339 16.4068 4.17339 17.067 4.54647L25.6003 9.36906C26.2602 9.74202 26.6667 10.4311 26.6667 11.177V20.823C26.6667 21.5688 26.2602 22.258 25.6003 22.6309L17.067 27.4535C16.4068 27.8266 15.5934 27.8266 14.9332 27.4535L6.39995 22.6309C5.74006 22.258 5.3335 21.5688 5.3335 20.823V11.177C5.3335 10.4311 5.74006 9.74202 6.39995 9.36906L14.9332 4.54647Z" fill="#96BEDC"/>
<path d="M15.68 5.79739C15.9 5.67296 16.1713 5.67296 16.3913 5.79739L24.8358 10.5712C25.0556 10.6955 25.1911 10.9252 25.1911 11.1737V20.7219C25.1911 20.9705 25.0556 21.2002 24.8358 21.3245L16.3913 26.0982C16.1713 26.2227 15.9 26.2227 15.68 26.0982L7.23554 21.3245C7.01565 21.2002 6.88013 20.9705 6.88013 20.7219V11.1737C6.88013 10.9252 7.01565 10.6955 7.23554 10.5712L15.68 5.79739Z" fill="#2D374B"/>
<path d="M7.67501 23.3517L6.15245 22.4912C5.64627 22.2051 5.33325 21.6687 5.33325 21.0873L11.0534 12.5215C11.6772 11.5874 12.7406 11.0243 13.8809 11.0243H15.5287L7.67501 23.3517Z" fill="white"/>
<path d="M11.3102 25.406L8.57178 23.8584L16.5511 11.0243H20.0088L11.3102 25.406Z" fill="white"/>
<path fill-rule="evenodd" clip-rule="evenodd" d="M22.4287 22.6852L19.3937 24.401L16.0889 19.3403L18.1155 16.0174L22.4287 22.6852ZM25.1911 19.2524V20.7219C25.1911 20.9705 25.0556 21.2002 24.8357 21.3245L23.2937 22.1962L18.7022 14.9822L20.4621 12.0943L25.1911 19.2524Z" fill="#28A0F0"/>
</g>
<defs>
<clipPath id="clip0_3933_6939">
<rect width="32" height="32" fill="white"/>
</clipPath>
</defs>
</svg>
