<svg width="40" height="40" viewBox="0 0 40 40" fill="none" xmlns="http://www.w3.org/2000/svg">
<path d="M23.8341 31.8943V35.9314L20.3142 38L16.8943 35.9314V31.8943L20.3142 33.9629L23.8341 31.8943ZM5 17.9314L8.41983 20V26.9231L14.3086 30.443V34.4801L5 28.9917V17.9314ZM35.6284 17.9314V29.0083L26.2196 34.4968V30.4597L32.1084 26.9398V20.0167L35.6284 17.9314ZM26.203 12.443L29.7229 14.5116V18.5487L23.8341 22.0686V29.0917L20.4143 31.1603L17.0111 29.0917V22.0519L10.9055 18.532V14.4949L14.4254 12.4263L20.3142 15.9462L26.203 12.443ZM10.9055 21.4347L14.3253 23.5032V27.5403L10.9055 25.4717V21.4347ZM29.7229 21.4347V25.4717L26.3031 27.5403V23.5032L29.7229 21.4347ZM8.41983 8.92308L11.9398 10.9917L8.41983 13.0602V17.0973L5 15.0287V10.9917L8.41983 8.92308ZM32.2085 8.92308L35.7285 10.9917V15.0287L32.2085 17.0973V13.0602L28.7887 10.9917L32.2085 8.92308ZM20.3142 8.92308L23.8341 10.9917L20.3142 13.0602L16.8943 10.9917L20.3142 8.92308ZM20.3142 2L29.7229 7.48841L26.3031 9.55699L20.4143 6.03707L14.4087 9.55699L10.9889 7.48841L20.3142 2Z" fill="#F3BA2F"/>
</svg>
