<svg width="40" height="40" viewBox="0 0 40 40" fill="none" xmlns="http://www.w3.org/2000/svg">
<path d="M37 20.4157V28.0816C36.9972 28.5597 36.8705 29.0288 36.6321 29.4432C36.3937 29.8575 36.0518 30.203 35.64 30.4457L28.9994 34.2707C28.5881 34.5158 28.1182 34.6452 27.6393 34.6452C27.1606 34.6452 26.6906 34.5158 26.2794 34.2707L19.6387 30.4457C19.2268 30.203 18.885 29.8575 18.6466 29.4432C18.4083 29.0288 18.2815 28.5597 18.2788 28.0816V25.9301L21.6787 23.9565V27.6965L27.6287 31.1496L33.5787 27.6965V20.8061L27.6287 17.353L13.6888 25.428C13.2736 25.6619 12.8052 25.7848 12.3287 25.7848C11.8523 25.7848 11.3839 25.6619 10.9688 25.428L4.32811 21.5871C3.92259 21.3407 3.58735 20.994 3.35467 20.5804C3.12206 20.1668 2.99993 19.7002 3 19.2257V11.5598C3.00275 11.0817 3.12955 10.6126 3.36795 10.1982C3.60628 9.78381 3.94816 9.4384 4.35997 9.19569L11.0006 5.3707C11.4128 5.12799 11.8823 5 12.3606 5C12.8389 5 13.3085 5.12799 13.7206 5.3707L20.3613 9.19569C20.7731 9.4384 21.115 9.78381 21.3533 10.1982C21.5917 10.6126 21.7185 11.0817 21.7212 11.5598V13.7113L18.3 15.6716V11.9529L12.35 8.49978L6.39996 11.9529V18.8352L12.35 22.2884L26.29 14.2134C26.7051 13.9794 27.1735 13.8566 27.65 13.8566C28.1265 13.8566 28.5948 13.9794 29.01 14.2134L35.6506 18.0543C36.0601 18.2981 36.3996 18.6437 36.636 19.0574C36.8725 19.4712 36.9979 19.9391 37 20.4157Z" fill="#7B3FE4"/>
</svg>
