<svg width="32" height="32" viewBox="0 0 32 32" fill="none" xmlns="http://www.w3.org/2000/svg" id="addtask-svg">
    <g>
        <path d="M29.3334 6.9065L14.12 22.1332L8.46669 16.4798L10.3467 14.5998L14.12 18.3732L27.4534 5.03984L29.3334 6.9065ZM16 26.6665C10.12 26.6665 5.33335 21.8798 5.33335 15.9998C5.33335 10.1198 10.12 5.33317 16 5.33317C18.0934 5.33317 20.0534 5.9465 21.7067 6.99984L23.64 5.0665C21.4667 3.55984 18.84 2.6665 16 2.6665C8.64002 2.6665 2.66669 8.63984 2.66669 15.9998C2.66669 23.3598 8.64002 29.3332 16 29.3332C18.3067 29.3332 20.48 28.7465 22.3734 27.7065L20.3734 25.7065C19.04 26.3198 17.56 26.6665 16 26.6665ZM25.3334 19.9998H21.3334V22.6665H25.3334V26.6665H28V22.6665H32V19.9998H28V15.9998H25.3334V19.9998Z"
              fill="#1C95E7"/>
    </g>
</svg>
