<svg width="32" height="32" viewBox="0 0 32 32" fill="none" xmlns="http://www.w3.org/2000/svg">
<path fill-rule="evenodd" clip-rule="evenodd" d="M24 21V14.3333C24 10.24 21.8267 6.81333 18 5.90667V5C18 3.89333 17.1067 3 16 3C14.8933 3 14 3.89333 14 5V5.90667C10.1867 6.81333 8 10.2267 8 14.3333V21L5.33333 23.6667V25H26.6667V23.6667L24 21ZM16 29C17.4667 29 18.6667 27.8 18.6667 26.3333H13.3333C13.3333 27.8 14.5333 29 16 29ZM10.6667 22.3333H21.3333V14.3333C21.3333 11.0267 19.32 8.33333 16 8.33333C12.68 8.33333 10.6667 11.0267 10.6667 14.3333V22.3333ZM10.1067 5.10667L8.2 3.2C5 5.64 2.89333 9.4 2.70667 13.6667H5.37333C5.57333 10.1333 7.38666 7.04 10.1067 5.10667ZM29.2933 13.6667H26.6267C26.4267 10.1333 24.6 7.04 21.9067 5.10667L23.8 3.2C26.9867 5.64 29.0933 9.4 29.2933 13.6667Z" fill="#ffffff"/>
</svg>
