<svg width="32" height="32" viewBox="0 0 32 32" fill="none" xmlns="http://www.w3.org/2000/svg">
<path fill-rule="evenodd" clip-rule="evenodd" d="M24.0001 21V14.3333C24.0001 10.24 21.8268 6.81333 18.0001 5.90667V5C18.0001 3.89333 17.1068 3 16.0001 3C14.8935 3 14.0001 3.89333 14.0001 5V5.90667C10.1868 6.81333 8.00012 10.2267 8.00012 14.3333V21L5.33345 23.6667V25H26.6668V23.6667L24.0001 21ZM16.0001 29C17.4668 29 18.6668 27.8 18.6668 26.3333H13.3335C13.3335 27.8 14.5335 29 16.0001 29ZM10.6668 22.3333H21.3335V14.3333C21.3335 11.0267 19.3201 8.33333 16.0001 8.33333C12.6801 8.33333 10.6668 11.0267 10.6668 14.3333V22.3333ZM10.1068 5.10667L8.20012 3.2C5.00012 5.64 2.89345 9.4 2.70679 13.6667H5.37345C5.57345 10.1333 7.38679 7.04 10.1068 5.10667ZM29.2935 13.6667H26.6268C26.4268 10.1333 24.6001 7.04 21.9068 5.10667L23.8001 3.2C26.9868 5.64 29.0935 9.4 29.2935 13.6667Z" fill="#CF3F92"/>
</svg>
