<svg width="101" height="100" viewBox="0 0 101 100" fill="none" xmlns="http://www.w3.org/2000/svg">
<path d="M50.7899 99.7664C78.2947 99.7664 100.592 77.4694 100.592 49.9647C100.592 22.46 78.2947 0.163086 50.7899 0.163086C23.2852 0.163086 0.988281 22.46 0.988281 49.9647C0.988281 77.4694 23.2852 99.7664 50.7899 99.7664Z" fill="#001845"/>
<path d="M76.8341 74.9224C54.7513 79.3835 33.177 65.0712 28.689 43.1167C26.444 32.4787 28.7496 21.8537 34.2346 13.2736C17.6034 20.9171 7.76761 39.2116 11.5821 57.9974C16.0701 79.952 37.6444 94.2643 59.7272 89.8031C71.1099 87.5735 80.2303 80.8133 86.1717 71.7821C83.21 73.1309 80.249 74.2535 76.8341 74.9224Z" fill="url(#paint0_linear_3319_157961)"/>
<path d="M48.1766 72.7227C48.1766 72.4679 47.9833 72.2545 47.7308 72.2202C40.4748 71.2354 35.9908 66.1879 35.7775 59.5133C35.7687 59.2373 35.9934 59.0124 36.2695 59.0124H41.0453C41.3214 59.0124 41.5441 59.2365 41.5548 59.5124C41.7506 64.5597 44.943 67.569 50.7436 67.569C56.7332 67.569 59.942 64.3603 59.942 60.5098C59.942 49.6002 36.1974 55.162 36.1974 39.1183C36.1974 33.8823 40.9138 28.4412 47.7366 27.4128C47.9867 27.3751 48.1766 27.1628 48.1766 26.9099V21.4355C48.1766 21.1594 48.4005 20.9355 48.6766 20.9355L52.5967 20.9355C52.8728 20.9355 53.0967 21.1594 53.0967 21.4355V26.9272C53.0967 27.1726 53.2757 27.3809 53.5167 27.4272C59.7605 28.6276 64.2002 33.846 64.4252 40.1154C64.4351 40.3913 64.2103 40.6158 63.9342 40.6158L59.1585 40.6158C58.8823 40.6158 58.6598 40.3914 58.6458 40.1156C58.4088 35.4513 54.8683 32.0592 50.5297 32.0592C45.1818 32.0592 41.7592 35.6957 41.7592 39.1183C41.7592 50.028 65.5037 44.4662 65.5037 60.5098C65.5037 66.1767 60.9733 71.2258 53.5289 72.4243C53.2825 72.464 53.0967 72.6749 53.0967 72.9245V78.4066C53.0967 78.6827 52.8728 78.9066 52.5967 78.9066H48.6766C48.4005 78.9066 48.1766 78.6827 48.1766 78.4066V72.7227Z" fill="white"/>
<path fill-rule="evenodd" clip-rule="evenodd" d="M89.1269 67.9181L91.7403 69.7744C92.329 70.1925 92.2677 71.0853 91.6272 71.4189L83.1667 75.8269C82.4949 76.177 81.6999 75.6529 81.7568 74.8975L82.5017 65.0091C82.5581 64.2594 83.4116 63.8586 84.0246 64.294L86.368 65.9584C92.3504 52.3627 90.1395 35.9312 79.4323 24.3153C65.1237 8.79237 41.0156 7.69725 25.3619 21.773C25.1635 21.9514 24.8565 21.9406 24.6757 21.7445L23.0803 20.0137C22.8994 19.8175 22.9133 19.5102 23.1115 19.3316C40.1137 4.01318 66.3221 5.19387 81.8735 22.0651C93.6708 34.8635 95.9679 53.0374 89.1269 67.9181Z" fill="#23DD00"/>
<path fill-rule="evenodd" clip-rule="evenodd" d="M13.6544 32.1112L11.0409 30.2549C10.4522 29.8368 10.5136 28.944 11.154 28.6104L19.6146 24.2024C20.2864 23.8523 21.0814 24.3764 21.0245 25.1318L20.2796 35.0202C20.2231 35.7699 19.3696 36.1707 18.7566 35.7353L16.4133 34.0709C10.4308 47.6666 12.6418 64.0981 23.3489 75.714C37.6576 91.2369 61.7656 92.332 77.4194 78.2563C77.6178 78.0779 77.9248 78.0887 78.1056 78.2848L79.701 80.0156C79.8818 80.2118 79.868 80.5191 79.6697 80.6977C62.6676 96.0161 36.4591 94.8354 20.9077 77.9642C9.1105 65.1658 6.81335 46.9919 13.6544 32.1112Z" fill="#23DD00"/>
<defs>
<linearGradient id="paint0_linear_3319_157961" x1="8.59394" y1="99.3781" x2="54.6348" y2="45.9075" gradientUnits="userSpaceOnUse">
<stop offset="0.0729167" stop-color="#FFD923"/>
<stop offset="0.4775" stop-color="#0466C8"/>
<stop offset="1" stop-color="#001845"/>
</linearGradient>
</defs>
</svg>
