<svg width="103" height="100" viewBox="0 0 103 100" fill="none" xmlns="http://www.w3.org/2000/svg">
<g clip-path="url(#clip0_5453_102297)">
<g clip-path="url(#clip1_5453_102297)">
<path d="M50.786 99.7663C78.2908 99.7663 100.588 77.4693 100.588 49.9646C100.588 22.4599 78.2908 0.162964 50.786 0.162964C23.2813 0.162964 0.984375 22.4599 0.984375 49.9646C0.984375 77.4693 23.2813 99.7663 50.786 99.7663Z" fill="#001845"/>
<path d="M76.8341 74.9219C54.7513 79.383 33.177 65.0708 28.689 43.1162C26.444 32.4782 28.7496 21.8532 34.2346 13.2731C17.6034 20.9167 7.76761 39.2112 11.5821 57.9969C16.0701 79.9515 37.6444 94.2638 59.7272 89.8026C71.1099 87.573 80.2303 80.8129 86.1717 71.7816C83.21 73.1304 80.2489 74.253 76.8341 74.9219Z" fill="url(#paint0_linear_5453_102297)"/>
<path d="M48.1739 72.2755C40.8285 71.4594 36.2078 66.5564 35.7967 59.9796C35.7634 59.447 36.1993 59.0128 36.733 59.0128H40.5763C41.1099 59.0128 41.5377 59.4463 41.5791 59.9783C41.9491 64.7445 45.1209 67.5694 50.7408 67.5694C56.7305 67.5694 59.9392 64.3607 59.9392 60.5102C59.9392 49.6005 36.1946 55.1623 36.1946 39.1187C36.1946 33.7708 41.1147 28.209 48.1739 27.3534V21.9021C48.1739 21.3685 48.6064 20.9359 49.14 20.9359L52.1277 20.9359C52.6613 20.9359 53.0939 21.3685 53.0939 21.9021V27.3534C59.4005 28.3706 63.9659 33.4508 64.3979 39.65C64.435 40.1823 63.9988 40.6161 63.4652 40.6161L59.6219 40.6161C59.0883 40.6161 58.661 40.1821 58.6082 39.6511C58.1676 35.2279 54.72 32.0595 50.5269 32.0595C45.179 32.0595 41.7564 35.6961 41.7564 39.1187C41.7564 50.0284 65.501 44.4666 65.501 60.5102C65.501 66.2859 60.7948 71.4199 53.0939 72.4895V77.9407C53.0939 78.4744 52.6613 78.9069 52.1277 78.9069H49.14C48.6064 78.9069 48.1739 78.4744 48.1739 77.9407V72.2755Z" fill="#FCCA46"/>
<path fill-rule="evenodd" clip-rule="evenodd" d="M89.123 67.9188L91.7364 69.7751C92.3251 70.1933 92.2638 71.086 91.6233 71.4197L83.1628 75.8277C82.491 76.1777 81.696 75.6536 81.7529 74.8982L82.4977 65.0098C82.5542 64.2601 83.4077 63.8593 84.0207 64.2947L86.364 65.9592C92.3465 52.3634 90.1356 35.9319 79.4284 24.316C65.1198 8.79309 41.0117 7.69798 25.358 21.7738C25.1596 21.9521 24.8526 21.9414 24.6718 21.7452L23.0764 20.0144C22.8955 19.8182 22.9094 19.5109 23.1076 19.3323C40.1098 4.01392 66.3182 5.1946 81.8696 22.0658C93.6668 34.8642 95.964 53.0381 89.123 67.9188Z" fill="#FCCA46"/>
<path fill-rule="evenodd" clip-rule="evenodd" d="M13.6505 32.11L11.037 30.2537C10.4483 29.8355 10.5097 28.9428 11.1501 28.6092L19.6107 24.2011C20.2825 23.8511 21.0775 24.3752 21.0205 25.1306L20.2757 35.019C20.2192 35.7687 19.3657 36.1695 18.7527 35.7341L16.4094 34.0696C10.4269 47.6654 12.6379 64.0969 23.345 75.7128C37.6536 91.2357 61.7617 92.3308 77.4155 78.2551C77.6139 78.0767 77.9209 78.0874 78.1017 78.2836L79.6971 80.0144C79.8779 80.2106 79.8641 80.5179 79.6658 80.6965C62.6637 96.0149 36.4552 94.8342 20.9038 77.963C9.10659 65.1646 6.80944 46.9907 13.6505 32.11Z" fill="#FCCA46"/>
</g>
<path fill-rule="evenodd" clip-rule="evenodd" d="M123.4 98C123.793 96.0613 124 94.0548 124 92C124 75.4315 110.569 62 94 62C77.4315 62 64 75.4315 64 92C64 94.0548 64.2066 96.0613 64.6001 98H123.4Z" fill="white"/>
<path d="M77.5 84L79.2625 85.7625L86.25 78.7875V94H88.75V78.7875L95.725 85.775L97.5 84L87.5 74L77.5 84Z" fill="url(#paint1_linear_5453_102297)"/>
</g>
<defs>
<linearGradient id="paint0_linear_5453_102297" x1="8.59394" y1="99.3776" x2="54.6348" y2="45.907" gradientUnits="userSpaceOnUse">
<stop offset="0.0729167" stop-color="#FFD923"/>
<stop offset="0.4775" stop-color="#0466C8"/>
<stop offset="1" stop-color="#001845"/>
</linearGradient>
<linearGradient id="paint1_linear_5453_102297" x1="77.5" y1="74" x2="97.9291" y2="74.4484" gradientUnits="userSpaceOnUse">
<stop stop-color="#28A0F0"/>
<stop offset="1" stop-color="#0678C4" stop-opacity="0.9917"/>
</linearGradient>
<clipPath id="clip0_5453_102297">
<rect width="103" height="100" fill="white"/>
</clipPath>
<clipPath id="clip1_5453_102297">
<rect width="100" height="100" fill="white" transform="translate(0.5)"/>
</clipPath>
</defs>
</svg>
