<svg width="200" height="200" viewBox="0 0 200 200" fill="none" xmlns="http://www.w3.org/2000/svg">
<g clip-path="url(#clip0_4724_111589)">
<path d="M100 200C155.228 200 200 155.228 200 100C200 44.7715 155.228 0 100 0C44.7715 0 0 44.7715 0 100C0 155.228 44.7715 200 100 200Z" fill="url(#paint0_radial_4724_111589)"/>
<path d="M143.079 150.355C122.708 146.959 70.4427 127.11 59.6952 74.5352C54.3191 49.0602 59.3951 11.7995 59.3951 11.7995C19.5679 30.1037 -3.98609 73.9139 5.14846 118.901C15.896 171.476 67.5604 205.75 120.443 195.066C147.701 189.727 169.542 173.538 183.77 151.911C176.677 155.141 163.45 153.75 143.079 150.355Z" fill="url(#paint1_linear_4724_111589)"/>
<path fill-rule="evenodd" clip-rule="evenodd" d="M99.4723 12.208L25.0173 53.2728V53.5933L34.13 59.2502V59.1949L99.4723 22.1802L164.815 59.1949V92.5811C164.815 104.143 164.237 111.794 160.864 120.781L151.406 114.551C150.656 114.057 149.686 114.725 149.88 115.602L155.752 142.155C155.899 142.824 156.66 143.149 157.246 142.795L179.608 129.255C180.357 128.801 180.203 127.673 179.361 127.436L169.324 124.622C173.191 114.423 173.927 105.466 173.927 92.5811V53.2728L99.4723 12.208Z" fill="url(#paint2_linear_4724_111589)"/>
<path fill-rule="evenodd" clip-rule="evenodd" d="M33.8273 52.1021C33.51 51.4954 32.6905 51.3798 32.2178 51.8751L13.4409 71.5475C12.8208 72.1972 13.3049 73.2714 14.2023 73.2373L25.4783 72.8081V92.6701C25.4783 137.587 56.3794 179.777 98.4285 190.082L99.5031 190.345L100.578 190.082C127.242 183.547 150.215 163.165 162.877 138.423L155.155 133.619C143.836 156.141 123.15 174.806 99.5031 180.976C62.4001 171.294 34.5383 133.381 34.5383 92.6701L34.5343 73.8446L44.7887 76.6946C45.6321 76.929 46.3483 76.0433 45.9426 75.2676L33.8273 52.1021Z" fill="url(#paint3_linear_4724_111589)"/>
<path d="M80.6089 117.573V125H56.0117V117.573H80.6089ZM59.1221 78.7891V125H49.6006V78.7891H59.1221ZM77.4033 97.6099V104.846H56.0117V97.6099H77.4033ZM80.5771 78.7891V86.2476H56.0117V78.7891H80.5771Z" fill="white"/>
<path d="M100.959 78.7891V125H91.4697V78.7891H100.959ZM115.178 78.7891V86.2476H77.4731V78.7891H115.178Z" fill="white"/>
<path d="M137.655 112.908C137.655 112.083 137.528 111.342 137.274 110.686C137.042 110.009 136.597 109.395 135.941 108.845C135.285 108.274 134.365 107.713 133.18 107.163C131.995 106.613 130.461 106.042 128.578 105.449C126.483 104.772 124.494 104.01 122.611 103.164C120.749 102.318 119.099 101.334 117.66 100.212C116.243 99.0698 115.121 97.7474 114.296 96.2451C113.492 94.7428 113.09 92.9972 113.09 91.0083C113.09 89.0828 113.513 87.3372 114.359 85.7715C115.206 84.1846 116.391 82.8304 117.914 81.709C119.438 80.5664 121.236 79.6883 123.31 79.0747C125.404 78.4611 127.7 78.1543 130.197 78.1543C133.603 78.1543 136.576 78.7679 139.115 79.9951C141.654 81.2223 143.622 82.9045 145.019 85.0415C146.436 87.1785 147.145 89.6224 147.145 92.373H137.687C137.687 91.0189 137.401 89.834 136.83 88.8184C136.28 87.7816 135.434 86.967 134.291 86.3745C133.17 85.7821 131.752 85.4858 130.038 85.4858C128.388 85.4858 127.012 85.7397 125.912 86.2476C124.812 86.7342 123.987 87.4007 123.437 88.2471C122.886 89.0723 122.611 90.0033 122.611 91.04C122.611 91.8229 122.802 92.5317 123.183 93.1665C123.585 93.8013 124.177 94.3937 124.96 94.9438C125.743 95.494 126.706 96.0124 127.848 96.499C128.991 96.9857 130.313 97.4618 131.815 97.9272C134.333 98.689 136.544 99.5459 138.449 100.498C140.374 101.45 141.982 102.519 143.273 103.704C144.564 104.889 145.537 106.232 146.193 107.734C146.849 109.237 147.177 110.94 147.177 112.844C147.177 114.854 146.785 116.653 146.002 118.24C145.22 119.827 144.088 121.17 142.606 122.271C141.125 123.371 139.359 124.207 137.306 124.778C135.254 125.349 132.958 125.635 130.419 125.635C128.134 125.635 125.88 125.339 123.659 124.746C121.437 124.132 119.416 123.212 117.597 121.985C115.798 120.758 114.359 119.192 113.28 117.288C112.201 115.383 111.662 113.13 111.662 110.527H121.215C121.215 111.966 121.437 113.183 121.881 114.177C122.326 115.172 122.95 115.976 123.754 116.589C124.579 117.203 125.552 117.647 126.674 117.922C127.816 118.197 129.065 118.335 130.419 118.335C132.069 118.335 133.424 118.102 134.481 117.637C135.561 117.171 136.354 116.526 136.862 115.701C137.391 114.875 137.655 113.944 137.655 112.908Z" fill="white"/>
</g>
<defs>
<radialGradient id="paint0_radial_4724_111589" cx="0" cy="0" r="1" gradientUnits="userSpaceOnUse" gradientTransform="translate(200 -28) rotate(129.992) scale(255.179)">
<stop offset="0.209938" stop-color="#FF86AE"/>
<stop offset="0.400641" stop-color="#EC276B"/>
<stop offset="0.710502" stop-color="#4E0A1B"/>
</radialGradient>
<linearGradient id="paint1_linear_4724_111589" x1="32.978" y1="165.718" x2="114.461" y2="96.3606" gradientUnits="userSpaceOnUse">
<stop stop-color="#FF0420"/>
<stop offset="1" stop-color="#FF0420" stop-opacity="0"/>
</linearGradient>
<linearGradient id="paint2_linear_4724_111589" x1="146.297" y1="1.91437" x2="46.9431" y2="48.2599" gradientUnits="userSpaceOnUse">
<stop offset="0.445694" stop-color="white"/>
<stop offset="1" stop-color="white" stop-opacity="0"/>
</linearGradient>
<linearGradient id="paint3_linear_4724_111589" x1="48.9119" y1="218.034" x2="157.014" y2="155.215" gradientUnits="userSpaceOnUse">
<stop offset="0.559619" stop-color="white"/>
<stop offset="0.918509" stop-color="white" stop-opacity="0"/>
</linearGradient>
<clipPath id="clip0_4724_111589">
<rect width="200" height="200" fill="white"/>
</clipPath>
</defs>
</svg>
