<svg width="40" height="40" viewBox="0 0 40 40" fill="none" xmlns="http://www.w3.org/2000/svg">
<g clip-path="url(#clip0_4267_90668)">
<path d="M20 40C31.0457 40 40 31.0457 40 20C40 8.9543 31.0457 0 20 0C8.95431 0 0 8.9543 0 20C0 31.0457 8.95431 40 20 40Z" fill="#001845"/>
<path d="M28.6157 30.071C24.5416 29.392 14.0885 25.4221 11.939 14.9071C10.8638 9.81214 11.879 2.36 11.879 2.36C3.91352 6.02084 -0.797267 14.7829 1.02964 23.7802C3.17915 34.2952 13.512 41.15 24.0885 39.0134C29.5402 37.9455 33.9083 34.7078 36.7539 30.3823C35.3354 31.0283 32.6899 30.75 28.6157 30.071Z" fill="url(#paint0_linear_4267_90668)"/>
<path fill-rule="evenodd" clip-rule="evenodd" d="M19.7049 3.68555L5.66848 11.4272V11.4876L7.38643 12.5541V12.5436L19.7049 5.56553L32.0234 12.5436V18.8377C32.0234 21.0174 31.9146 22.4597 31.2786 24.154L29.5193 22.995C29.3693 22.8962 29.1752 23.0298 29.214 23.2052L30.3114 28.1679C30.3409 28.3016 30.4931 28.3667 30.6103 28.2958L34.7898 25.7652C34.9395 25.6745 34.9087 25.4488 34.7402 25.4016L32.8735 24.8781C33.6026 22.9554 33.7414 21.2667 33.7414 18.8377V11.4272L19.7049 3.68555Z" fill="url(#paint1_linear_4267_90668)"/>
<path fill-rule="evenodd" clip-rule="evenodd" d="M7.33684 11.2206C7.27338 11.0993 7.10949 11.0762 7.01494 11.1752L3.50566 14.8519C3.38165 14.9818 3.47847 15.1966 3.65794 15.1898L5.75544 15.11V18.8544C5.75544 27.3223 11.581 35.276 19.5082 37.2187L19.7108 37.2683L19.9134 37.2187C24.9402 35.9868 29.2711 32.1443 31.6582 27.4799L30.2023 26.5742C28.0685 30.8201 24.1689 34.3388 19.7108 35.5022C12.7161 33.6769 7.46347 26.5294 7.46347 18.8544L7.4627 15.3054L9.37038 15.8356C9.53905 15.8825 9.68229 15.7053 9.60116 15.5502L7.33684 11.2206Z" fill="url(#paint2_linear_4267_90668)"/>
<path d="M16.0687 16.407H13.7312L13.7187 15.1195H15.6812C16.027 15.1195 16.3104 15.0758 16.5312 14.9883C16.752 14.8966 16.9166 14.7654 17.025 14.5945C17.1375 14.4195 17.1937 14.207 17.1937 13.957C17.1937 13.6737 17.1395 13.4445 17.0312 13.2695C16.927 13.0945 16.7625 12.9674 16.5375 12.8883C16.3166 12.8091 16.0312 12.7695 15.6812 12.7695H14.3812V20.4008H12.5062V11.3008H15.6812C16.2104 11.3008 16.6833 11.3508 17.1 11.4508C17.5208 11.5508 17.877 11.7029 18.1687 11.907C18.4604 12.1112 18.6833 12.3695 18.8375 12.682C18.9916 12.9904 19.0687 13.357 19.0687 13.782C19.0687 14.157 18.9833 14.5029 18.8125 14.8195C18.6458 15.1362 18.3812 15.3945 18.0187 15.5945C17.6604 15.7945 17.1916 15.9049 16.6125 15.9258L16.0687 16.407ZM15.9875 20.4008H13.2187L13.95 18.9383H15.9875C16.3166 18.9383 16.5854 18.8862 16.7937 18.782C17.002 18.6737 17.1562 18.5279 17.2562 18.3445C17.3562 18.1612 17.4062 17.9508 17.4062 17.7133C17.4062 17.4466 17.3604 17.2154 17.2687 17.0195C17.1812 16.8237 17.0395 16.6737 16.8437 16.5695C16.6479 16.4612 16.3895 16.407 16.0687 16.407H14.2625L14.275 15.1195H16.525L16.9562 15.6258C17.5104 15.6174 17.9562 15.7154 18.2937 15.9195C18.6354 16.1195 18.8833 16.3799 19.0375 16.7008C19.1958 17.0216 19.275 17.3654 19.275 17.732C19.275 18.3154 19.1479 18.807 18.8937 19.207C18.6395 19.6029 18.2666 19.9008 17.775 20.1008C17.2875 20.3008 16.6916 20.4008 15.9875 20.4008Z" fill="white"/>
<path d="M25.7062 11.3008H27.575V17.3133C27.575 18.0133 27.425 18.6029 27.125 19.082C26.8291 19.5612 26.4187 19.9216 25.8937 20.1633C25.3729 20.4049 24.7729 20.5258 24.0937 20.5258C23.4145 20.5258 22.8104 20.4049 22.2812 20.1633C21.7562 19.9216 21.3437 19.5612 21.0437 19.082C20.7479 18.6029 20.6 18.0133 20.6 17.3133V11.3008H22.475V17.3133C22.475 17.7216 22.5395 18.0549 22.6687 18.3133C22.7979 18.5716 22.9833 18.7612 23.225 18.882C23.4708 19.0029 23.7604 19.0633 24.0937 19.0633C24.4354 19.0633 24.725 19.0029 24.9625 18.882C25.2041 18.7612 25.3875 18.5716 25.5125 18.3133C25.6416 18.0549 25.7062 17.7216 25.7062 17.3133V11.3008Z" fill="white"/>
<path d="M17.4437 28.0195C17.4437 27.857 17.4187 27.7112 17.3687 27.582C17.3229 27.4487 17.2354 27.3279 17.1062 27.2195C16.977 27.107 16.7958 26.9966 16.5625 26.8883C16.3291 26.7799 16.027 26.6674 15.6562 26.5508C15.2437 26.4174 14.852 26.2674 14.4812 26.1008C14.1145 25.9341 13.7895 25.7404 13.5062 25.5195C13.227 25.2945 13.0062 25.0341 12.8437 24.7383C12.6854 24.4424 12.6062 24.0987 12.6062 23.707C12.6062 23.3279 12.6895 22.9841 12.8562 22.6758C13.0229 22.3633 13.2562 22.0966 13.5562 21.8758C13.8562 21.6508 14.2104 21.4779 14.6187 21.357C15.0312 21.2362 15.4833 21.1758 15.975 21.1758C16.6458 21.1758 17.2312 21.2966 17.7312 21.5383C18.2312 21.7799 18.6187 22.1112 18.8937 22.532C19.1729 22.9529 19.3125 23.4341 19.3125 23.9758H17.45C17.45 23.7091 17.3937 23.4758 17.2812 23.2758C17.1729 23.0716 17.0062 22.9112 16.7812 22.7945C16.5604 22.6779 16.2812 22.6195 15.9437 22.6195C15.6187 22.6195 15.3479 22.6695 15.1312 22.7695C14.9145 22.8654 14.752 22.9966 14.6437 23.1633C14.5354 23.3258 14.4812 23.5091 14.4812 23.7133C14.4812 23.8674 14.5187 24.007 14.5937 24.132C14.6729 24.257 14.7895 24.3737 14.9437 24.482C15.0979 24.5904 15.2875 24.6924 15.5125 24.7883C15.7375 24.8841 15.9979 24.9779 16.2937 25.0695C16.7895 25.2195 17.225 25.3883 17.6 25.5758C17.9791 25.7633 18.2958 25.9737 18.55 26.207C18.8041 26.4404 18.9958 26.7049 19.125 27.0008C19.2541 27.2966 19.3187 27.632 19.3187 28.007C19.3187 28.4029 19.2416 28.757 19.0875 29.0695C18.9333 29.382 18.7104 29.6466 18.4187 29.8633C18.127 30.0799 17.7791 30.2445 17.375 30.357C16.9708 30.4695 16.5187 30.5258 16.0187 30.5258C15.5687 30.5258 15.125 30.4674 14.6875 30.3508C14.25 30.2299 13.852 30.0487 13.4937 29.807C13.1395 29.5654 12.8562 29.257 12.6437 28.882C12.4312 28.507 12.325 28.0633 12.325 27.5508H14.2062C14.2062 27.8341 14.25 28.0737 14.3375 28.2695C14.425 28.4654 14.5479 28.6237 14.7062 28.7445C14.8687 28.8654 15.0604 28.9529 15.2812 29.007C15.5062 29.0612 15.752 29.0883 16.0187 29.0883C16.3437 29.0883 16.6104 29.0424 16.8187 28.9508C17.0312 28.8591 17.1875 28.732 17.2875 28.5695C17.3916 28.407 17.4437 28.2237 17.4437 28.0195Z" fill="white"/>
<path d="M23.3875 30.4008H21.4062L21.4187 28.9383H23.3875C23.8791 28.9383 24.2937 28.8279 24.6312 28.607C24.9687 28.382 25.2229 28.0549 25.3937 27.6258C25.5687 27.1966 25.6562 26.6779 25.6562 26.0695V25.6258C25.6562 25.1591 25.6062 24.7487 25.5062 24.3945C25.4104 24.0404 25.2666 23.7424 25.075 23.5008C24.8833 23.2591 24.6479 23.0779 24.3687 22.957C24.0895 22.832 23.7687 22.7695 23.4062 22.7695H21.3687V21.3008H23.4062C24.0145 21.3008 24.5708 21.4049 25.075 21.6133C25.5833 21.8174 26.0229 22.1112 26.3937 22.4945C26.7645 22.8779 27.05 23.3362 27.25 23.8695C27.4541 24.3987 27.5562 24.9883 27.5562 25.6383V26.0695C27.5562 26.7154 27.4541 27.3049 27.25 27.8383C27.05 28.3716 26.7645 28.8299 26.3937 29.2133C26.027 29.5924 25.5875 29.8862 25.075 30.0945C24.5666 30.2987 24.0041 30.4008 23.3875 30.4008ZM22.4687 21.3008V30.4008H20.5937V21.3008H22.4687Z" fill="white"/>
</g>
<defs>
<linearGradient id="paint0_linear_4267_90668" x1="6.59554" y1="33.1437" x2="22.8921" y2="19.2722" gradientUnits="userSpaceOnUse">
<stop stop-color="#F3BA2F"/>
<stop offset="1" stop-color="#F3BA2F" stop-opacity="0"/>
</linearGradient>
<linearGradient id="paint1_linear_4267_90668" x1="28.5191" y1="1.74548" x2="9.79745" y2="10.4758" gradientUnits="userSpaceOnUse">
<stop offset="0.445694" stop-color="white"/>
<stop offset="1" stop-color="white" stop-opacity="0"/>
</linearGradient>
<linearGradient id="paint2_linear_4267_90668" x1="10.1857" y1="42.4868" x2="30.5563" y2="30.6524" gradientUnits="userSpaceOnUse">
<stop offset="0.559619" stop-color="white"/>
<stop offset="0.918509" stop-color="white" stop-opacity="0"/>
</linearGradient>
<clipPath id="clip0_4267_90668">
<rect width="40" height="40" fill="white"/>
</clipPath>
</defs>
</svg>
