<svg width="130" height="130" viewBox="0 0 130 130" fill="none" xmlns="http://www.w3.org/2000/svg">
<g clip-path="url(#clip0_7078_118322)">
<path d="M65 130C100.899 130 130 100.898 130 65C130 29.1015 100.899 0 65 0C29.1015 0 0 29.1015 0 65C0 100.898 29.1015 130 65 130Z" fill="url(#paint0_radial_7078_118322)"/>
<path d="M93.0009 98.3805C79.76 96.1736 45.7874 83.2716 38.8015 49.0979C35.3071 32.5391 38.6065 8.31967 38.6065 8.31967C12.7188 20.2174 -2.5913 48.694 3.34616 77.9354C10.332 112.109 43.9139 134.387 78.2874 127.443C96.0053 123.973 110.202 113.45 119.45 99.3922C114.84 101.492 106.242 100.587 93.0009 98.3805Z" fill="url(#paint1_linear_7078_118322)"/>
<path fill-rule="evenodd" clip-rule="evenodd" d="M64.6571 7.93518L16.2614 34.6273V34.8356L22.1846 38.5126V38.4766L64.6571 14.4171L107.13 38.4766V60.1777C107.13 67.6932 106.754 72.6659 104.561 78.5076L99.1349 74.9326C98.385 74.4385 97.4144 75.1067 97.6083 75.9836L101.133 91.9242C101.281 92.5928 102.042 92.9184 102.628 92.5637L116.055 84.4338C116.804 83.9805 116.65 82.8519 115.807 82.6156L110.061 81.0041C112.574 74.3751 113.053 68.5526 113.053 60.1777V34.6273L64.6571 7.93518Z" fill="url(#paint2_linear_7078_118322)"/>
<path fill-rule="evenodd" clip-rule="evenodd" d="M22.2141 34.299C21.8968 33.6923 21.0773 33.5767 20.6046 34.072L9.33249 45.8817C8.71243 46.5313 9.19652 47.6056 10.0939 47.5714L16.561 47.3253V60.2356C16.561 89.4316 36.6467 116.855 63.9786 123.553L64.6771 123.724L65.3756 123.553C82.7073 119.306 97.6398 106.057 105.87 89.975L100.851 86.8524C93.4932 101.492 80.0479 113.624 64.6771 117.635C40.5602 111.341 22.45 86.6978 22.45 60.2356L22.4474 47.9991L28.3346 49.6352C29.178 49.8696 29.8941 48.984 29.4885 48.2083L22.2141 34.299Z" fill="url(#paint3_linear_7078_118322)"/>
<path d="M53.3058 67.9727V72.8H37.3176V67.9727H53.3058ZM39.3394 42.7629V72.8H33.1504V42.7629H39.3394ZM51.2222 54.9965V59.7001H37.3176V54.9965H51.2222ZM53.2852 42.7629V47.611H37.3176V42.7629H53.2852Z" fill="white"/>
<path d="M66.5337 42.7629V72.8H60.3653V42.7629H66.5337ZM75.7759 42.7629V47.611H51.2676V42.7629H75.7759Z" fill="white"/>
<path d="M90.3859 64.9401C90.3859 64.4037 90.3034 63.9223 90.1384 63.496C89.9871 63.0559 89.6983 62.657 89.2719 62.2994C88.8456 61.9281 88.2473 61.5636 87.4771 61.2061C86.7069 60.8485 85.7098 60.4771 84.4858 60.092C83.1242 59.6519 81.8314 59.1568 80.6074 58.6067C79.3971 58.0566 78.3243 57.417 77.3891 56.6881C76.4676 55.9454 75.7387 55.0859 75.2023 54.1094C74.6797 53.1329 74.4184 51.9983 74.4184 50.7054C74.4184 49.4539 74.6935 48.3193 75.2436 47.3015C75.7937 46.27 76.5639 45.3898 77.5541 44.6609C78.5444 43.9182 79.7134 43.3475 81.0612 42.9486C82.4228 42.5498 83.915 42.3503 85.5379 42.3503C87.7522 42.3503 89.6845 42.7492 91.3349 43.5469C92.9853 44.3446 94.2644 45.4379 95.1721 46.827C96.0935 48.2161 96.5543 49.8046 96.5543 51.5925H90.4066C90.4066 50.7123 90.2209 49.9421 89.8496 49.282C89.492 48.6081 88.9418 48.0786 88.1992 47.6935C87.4702 47.3084 86.5488 47.1158 85.4348 47.1158C84.362 47.1158 83.468 47.2809 82.7529 47.611C82.0377 47.9273 81.5013 48.3605 81.1437 48.9106C80.7862 49.447 80.6074 50.0522 80.6074 50.7261C80.6074 51.2349 80.7312 51.6957 80.9787 52.1083C81.24 52.5209 81.6251 52.906 82.134 53.2635C82.6429 53.6211 83.2686 53.9581 84.0113 54.2744C84.754 54.5907 85.6136 54.9002 86.59 55.2028C88.2267 55.6979 89.6639 56.2549 90.9017 56.8738C92.1532 57.4927 93.1985 58.1872 94.0374 58.9574C94.8764 59.7276 95.509 60.6009 95.9354 61.5774C96.3617 62.5539 96.5749 63.661 96.5749 64.8988C96.5749 66.2054 96.3205 67.3744 95.8116 68.4059C95.3027 69.4374 94.5669 70.3107 93.6042 71.0259C92.6415 71.741 91.4931 72.2843 90.159 72.6556C88.8249 73.027 87.3327 73.2126 85.6823 73.2126C84.197 73.2126 82.7323 73.0201 81.2882 72.635C79.8441 72.2362 78.5306 71.6379 77.3479 70.8402C76.1788 70.0425 75.2436 69.0248 74.5422 67.787C73.8408 66.5492 73.4901 65.0845 73.4901 63.3928H79.6997C79.6997 64.328 79.8441 65.1189 80.1329 65.7653C80.4217 66.4117 80.8274 66.9343 81.35 67.3331C81.8864 67.732 82.5191 68.0208 83.248 68.1996C83.9907 68.3784 84.8021 68.4678 85.6823 68.4678C86.7551 68.4678 87.6353 68.3165 88.3229 68.0139C89.0244 67.7113 89.5401 67.2919 89.8702 66.7555C90.214 66.2191 90.3859 65.614 90.3859 64.9401Z" fill="white"/>
<path d="M62.2609 103.6V112.45H58.5V86.2038C58.5 83.8833 59.1882 82.0588 60.5485 80.6985C61.8928 79.3382 63.7652 78.65 66.0698 78.65C68.2943 78.65 70.0067 79.1942 71.287 80.2504C72.5513 81.3387 73.1755 82.843 73.1755 84.7475C73.1755 86.0598 72.7594 87.2921 71.9272 88.4283C71.095 89.5646 70.0227 90.3488 68.6944 90.7809V90.8449C70.6949 91.165 72.2473 91.8852 73.3035 93.0534C74.3598 94.1897 74.8879 95.646 74.8879 97.4385C74.8879 99.551 74.1517 101.279 72.6954 102.608C71.223 103.936 69.3026 104.592 66.902 104.592C65.2056 104.592 63.6532 104.256 62.2609 103.6ZM64.6455 92.6533V89.5806C66.0378 89.4046 67.1741 88.8924 68.0863 88.0282C68.9825 87.148 69.4306 86.1718 69.4306 85.0515C69.4306 82.843 68.2943 81.7228 66.0538 81.7228C64.8375 81.7228 63.8933 82.1068 63.2371 82.891C62.581 83.6752 62.2609 84.7635 62.2609 86.1878V100.255C63.7172 101.103 65.1416 101.519 66.5179 101.519C67.8622 101.519 68.9185 101.167 69.6706 100.479C70.4228 99.775 70.7909 98.7828 70.7909 97.5185C70.7909 94.6538 68.7424 93.0534 64.6455 92.6533Z" fill="white"/>
</g>
<defs>
<radialGradient id="paint0_radial_7078_118322" cx="0" cy="0" r="1" gradientUnits="userSpaceOnUse" gradientTransform="translate(130 -18.2) rotate(131.262) scale(162.131)">
<stop stop-color="#FBFAF5"/>
<stop offset="0.289222" stop-color="#F3F3F3"/>
<stop offset="0.527498" stop-color="#98A2B0"/>
<stop offset="0.738019" stop-color="#232323"/>
</radialGradient>
<linearGradient id="paint1_linear_7078_118322" x1="21.4353" y1="108.367" x2="74.399" y2="63.2844" gradientUnits="userSpaceOnUse">
<stop stop-color="#FD0420"/>
<stop offset="1" stop-color="#FB0520" stop-opacity="0"/>
</linearGradient>
<linearGradient id="paint2_linear_7078_118322" x1="94.6849" y1="1.26022" x2="30.3749" y2="31.1746" gradientUnits="userSpaceOnUse">
<stop offset="0.445694" stop-color="white"/>
<stop offset="1" stop-color="white" stop-opacity="0"/>
</linearGradient>
<linearGradient id="paint3_linear_7078_118322" x1="32.1721" y1="141.673" x2="102.164" y2="101.099" gradientUnits="userSpaceOnUse">
<stop offset="0.559619" stop-color="white"/>
<stop offset="0.918509" stop-color="white" stop-opacity="0"/>
</linearGradient>
<clipPath id="clip0_7078_118322">
<rect width="130" height="130" rx="65" fill="white"/>
</clipPath>
</defs>
</svg>
