<svg width="28" height="28" viewBox="0 0 28 28" fill="none" xmlns="http://www.w3.org/2000/svg">
<path d="M25.6667 5.83337V8.16671H22.1667V11.6667H19.8333V8.16671H16.3333V5.83337H19.8333V2.33337H22.1667V5.83337H25.6667ZM22.1667 22.1667H5.83333V5.83337H12.8333V3.50004H5.83333C4.55 3.50004 3.5 4.55004 3.5 5.83337V22.1667C3.5 23.45 4.55 24.5 5.83333 24.5H22.1667C23.45 24.5 24.5 23.45 24.5 22.1667V15.1667H22.1667V22.1667ZM17.5 15.1667V19.8334H19.8333V15.1667H17.5ZM12.8333 19.8334H15.1667V10.5H12.8333V19.8334ZM10.5 19.8334V12.8334H8.16667V19.8334H10.5Z" fill="#ADB3BD"/>
</svg>
