<svg width="28" height="28" viewBox="0 0 28 28" fill="none" xmlns="http://www.w3.org/2000/svg">
<path fill-rule="evenodd" clip-rule="evenodd" d="M13.9993 4.66663C11.421 4.66663 9.33268 6.75496 9.33268 9.33329C9.33268 11.9116 11.421 14 13.9993 14C16.5777 14 18.666 11.9116 18.666 9.33329C18.666 6.75496 16.5777 4.66663 13.9993 4.66663ZM16.3327 9.33329C16.3327 8.04996 15.2827 6.99996 13.9993 6.99996C12.716 6.99996 11.666 8.04996 11.666 9.33329C11.666 10.6166 12.716 11.6666 13.9993 11.6666C15.2827 11.6666 16.3327 10.6166 16.3327 9.33329ZM20.9993 19.8333C20.766 19.005 17.1493 17.5 13.9993 17.5C10.8493 17.5 7.23268 19.005 6.99935 19.845V21H20.9993V19.8333ZM4.66602 19.8333C4.66602 16.73 10.8843 15.1666 13.9993 15.1666C17.1144 15.1666 23.3327 16.73 23.3327 19.8333V23.3333H4.66602V19.8333Z" fill="#1C95E7"/>
</svg>
