<svg width="28" height="28" viewBox="0 0 28 28" fill="none" xmlns="http://www.w3.org/2000/svg">
<path fill-rule="evenodd" clip-rule="evenodd" d="M14 4.66669C11.4216 4.66669 9.33329 6.75502 9.33329 9.33335C9.33329 11.9117 11.4216 14 14 14C16.5783 14 18.6666 11.9117 18.6666 9.33335C18.6666 6.75502 16.5783 4.66669 14 4.66669ZM16.3333 9.33335C16.3333 8.05002 15.2833 7.00002 14 7.00002C12.7166 7.00002 11.6666 8.05002 11.6666 9.33335C11.6666 10.6167 12.7166 11.6667 14 11.6667C15.2833 11.6667 16.3333 10.6167 16.3333 9.33335ZM21 19.8334C20.7666 19.005 17.15 17.5 14 17.5C10.85 17.5 7.23329 19.005 6.99996 19.845V21H21V19.8334ZM4.66663 19.8334C4.66663 16.73 10.885 15.1667 14 15.1667C17.115 15.1667 23.3333 16.73 23.3333 19.8334V23.3334H4.66663V19.8334Z" fill="#ADB3BD"/>
</svg>
