<svg width="27" height="26" viewBox="0 0 27 26" fill="none" xmlns="http://www.w3.org/2000/svg">
<path d="M1.94252 11.7102L3.79426 9.78671L5.8117 9.88271L7.59836 11.6027L8.98542 10.1618L4.66288 6.00063L0.501676 10.3232L1.94252 11.7102Z" fill="#29323E"/>
<path d="M25.6123 16.6467L23.1781 17.7438L21.341 16.9045L20.322 14.6436L18.4986 15.4653L20.964 20.9355L26.4341 18.4701L25.6123 16.6467Z" fill="#29323E"/>
<path fill-rule="evenodd" clip-rule="evenodd" d="M19.2003 23.1574C17.6877 24.4263 15.9224 25.3633 14 25.8327C7.98 24.3627 3.5 18.3077 3.5 11.8327V7.57115L5.83333 9.8428V12.0893C5.83333 17.1294 9.625 22.3327 14 23.4994C15.5161 23.0951 16.9622 22.206 18.2046 21.007L19.2003 23.1574ZM22.5965 19.0304C23.8057 16.8657 24.5 14.3817 24.5 11.8327V4.83268L14 0.166016L6.26615 3.60328L8.06506 5.35464L14 2.70935L22.1667 6.34935V12.0893C22.1667 13.8208 21.7192 15.5715 20.9543 17.1712L21.5977 16.8733L22.5965 19.0304Z" fill="#29323E"/>
</svg>
