<svg width="29" height="28" viewBox="0 0 29 28" fill="none" xmlns="http://www.w3.org/2000/svg">
<path d="M3.44252 12.7102L5.29426 10.7867L7.3117 10.8827L9.09836 12.6027L10.4854 11.1618L6.16288 7.00063L2.00168 11.3232L3.44252 12.7102Z" fill="#ADB3BD"/>
<path d="M27.1123 17.6467L24.6781 18.7438L22.841 17.9045L21.822 15.6436L19.9986 16.4653L22.464 21.9355L27.9341 19.4701L27.1123 17.6467Z" fill="#ADB3BD"/>
<path fill-rule="evenodd" clip-rule="evenodd" d="M20.7003 24.1574C19.1877 25.4263 17.4224 26.3633 15.5 26.8327C9.48 25.3627 5 19.3077 5 12.8327V8.57115L7.33333 10.8428V13.0893C7.33333 18.1294 11.125 23.3327 15.5 24.4994C17.0161 24.0951 18.4622 23.206 19.7046 22.007L20.7003 24.1574ZM24.0965 20.0304C25.3057 17.8657 26 15.3817 26 12.8327V5.83268L15.5 1.16602L7.76615 4.60328L9.56506 6.35464L15.5 3.70935L23.6667 7.34935V13.0893C23.6667 14.8208 23.2192 16.5715 22.4543 18.1712L23.0977 17.8733L24.0965 20.0304Z" fill="#ADB3BD"/>
</svg>
