<svg width="29" height="28" viewBox="0 0 29 28" fill="none" xmlns="http://www.w3.org/2000/svg">
<path fill-rule="evenodd" clip-rule="evenodd" d="M14.5003 4.66675C11.922 4.66675 9.83366 6.75508 9.83366 9.33342C9.83366 11.9117 11.922 14.0001 14.5003 14.0001C17.0787 14.0001 19.167 11.9117 19.167 9.33342C19.167 6.75508 17.0787 4.66675 14.5003 4.66675ZM16.8337 9.33342C16.8337 8.05008 15.7837 7.00008 14.5003 7.00008C13.217 7.00008 12.167 8.05008 12.167 9.33342C12.167 10.6167 13.217 11.6667 14.5003 11.6667C15.7837 11.6667 16.8337 10.6167 16.8337 9.33342ZM21.5003 19.8334C21.267 19.0051 17.6503 17.5001 14.5003 17.5001C11.3503 17.5001 7.73366 19.0051 7.50033 19.8451V21.0001H21.5003V19.8334ZM5.16699 19.8334C5.16699 16.7301 11.3853 15.1667 14.5003 15.1667C17.6153 15.1667 23.8337 16.7301 23.8337 19.8334V23.3334H5.16699V19.8334Z" fill="#ADB3BD"/>
</svg>
