<svg width="29" height="28" viewBox="0 0 29 28" fill="none" xmlns="http://www.w3.org/2000/svg">
<path d="M15.4709 13.0182C13.5291 12.3745 12.5909 11.9709 12.5909 10.9455C12.5909 9.83273 13.8018 9.42909 14.5655 9.42909C15.9945 9.42909 16.5182 10.5091 16.6382 10.8909L18.3618 10.16C18.1982 9.66909 17.4673 8.06545 15.5909 7.71636V6.36364H13.4091V7.73818C10.7036 8.34909 10.6927 10.8582 10.6927 10.9673C10.6927 13.4436 13.1473 14.1418 14.3473 14.5782C16.0709 15.1891 16.8345 15.7455 16.8345 16.7927C16.8345 18.0255 15.6891 18.5491 14.6745 18.5491C12.6891 18.5491 12.1218 16.5091 12.0564 16.2691L10.2455 17C10.9327 19.3891 12.7327 20.0327 13.4091 20.2291V21.6364H15.5909V20.2836C16.0273 20.1855 18.7545 19.64 18.7545 16.7709C18.7545 15.2545 18.0891 13.9236 15.4709 13.0182ZM4.68182 23.8182H2.5V17.2727H9.04545V19.4545H6.34C8.09636 22.0836 11.0964 23.8182 14.5 23.8182C17.1039 23.8182 19.6012 22.7838 21.4425 20.9425C23.2838 19.1012 24.3182 16.6039 24.3182 14H26.5C26.5 20.6327 21.1327 26 14.5 26C10.4418 26 6.85273 23.9818 4.68182 20.9055V23.8182ZM2.5 14C2.5 7.36727 7.86727 2 14.5 2C18.5582 2 22.1473 4.01818 24.3182 7.09455V4.18182H26.5V10.7273H19.9545V8.54545H22.66C20.9036 5.91636 17.9036 4.18182 14.5 4.18182C11.8961 4.18182 9.39876 5.21623 7.5575 7.0575C5.71623 8.89876 4.68182 11.3961 4.68182 14H2.5Z" fill="#ADB3BD"/>
</svg>
