<svg width="40" height="40" viewBox="0 0 40 40" fill="none" xmlns="http://www.w3.org/2000/svg">
<path d="M34.4131 4.45703L21.9209 13.7351L24.231 8.26117L34.4131 4.45703Z" fill="#E2761B" stroke="#E2761B" stroke-linecap="round" stroke-linejoin="round"/>
<path d="M5.57434 4.45703L17.9661 13.823L15.7689 8.26117L5.57434 4.45703Z" fill="#E4761B" stroke="#E4761B" stroke-linecap="round" stroke-linejoin="round"/>
<path d="M29.9184 25.9639L26.5913 31.0612L33.71 33.0197L35.7564 26.0769L29.9184 25.9639Z" fill="#E4761B" stroke="#E4761B" stroke-linecap="round" stroke-linejoin="round"/>
<path d="M4.2561 26.0769L6.29 33.0197L13.4086 31.0612L10.0816 25.9639L4.2561 26.0769Z" fill="#E4761B" stroke="#E4761B" stroke-linecap="round" stroke-linejoin="round"/>
<path d="M13.0069 17.3506L11.0232 20.3512L18.0916 20.6651L17.8405 13.0693L13.0069 17.3506Z" fill="#E4761B" stroke="#E4761B" stroke-linecap="round" stroke-linejoin="round"/>
<path d="M26.9805 17.3506L22.0841 12.9814L21.9209 20.6651L28.9768 20.3512L26.9805 17.3506Z" fill="#E4761B" stroke="#E4761B" stroke-linecap="round" stroke-linejoin="round"/>
<path d="M13.4087 31.061L17.6523 28.9895L13.9862 26.127L13.4087 31.061Z" fill="#E4761B" stroke="#E4761B" stroke-linecap="round" stroke-linejoin="round"/>
<path d="M22.3352 28.9895L26.5913 31.061L26.0012 26.127L22.3352 28.9895Z" fill="#E4761B" stroke="#E4761B" stroke-linecap="round" stroke-linejoin="round"/>
<path d="M26.5913 31.0608L22.3352 28.9893L22.6742 31.7639L22.6365 32.9315L26.5913 31.0608Z" fill="#D7C1B3" stroke="#D7C1B3" stroke-linecap="round" stroke-linejoin="round"/>
<path d="M13.4087 31.0608L17.3635 32.9315L17.3384 31.7639L17.6523 28.9893L13.4087 31.0608Z" fill="#D7C1B3" stroke="#D7C1B3" stroke-linecap="round" stroke-linejoin="round"/>
<path d="M17.4262 24.2939L13.8857 23.2519L16.3842 22.1094L17.4262 24.2939Z" fill="#233447" stroke="#233447" stroke-linecap="round" stroke-linejoin="round"/>
<path d="M22.5612 24.2939L23.6032 22.1094L26.1142 23.2519L22.5612 24.2939Z" fill="#233447" stroke="#233447" stroke-linecap="round" stroke-linejoin="round"/>
<path d="M13.4087 31.0612L14.0114 25.9639L10.0817 26.0769L13.4087 31.0612Z" fill="#CD6116" stroke="#CD6116" stroke-linecap="round" stroke-linejoin="round"/>
<path d="M25.9888 25.9639L26.5914 31.0612L29.9185 26.0769L25.9888 25.9639Z" fill="#CD6116" stroke="#CD6116" stroke-linecap="round" stroke-linejoin="round"/>
<path d="M28.9769 20.3516L21.921 20.6654L22.5739 24.2938L23.6159 22.1093L26.1269 23.2517L28.9769 20.3516Z" fill="#CD6116" stroke="#CD6116" stroke-linecap="round" stroke-linejoin="round"/>
<path d="M13.8858 23.2517L16.3968 22.1093L17.4263 24.2938L18.0917 20.6654L11.0233 20.3516L13.8858 23.2517Z" fill="#CD6116" stroke="#CD6116" stroke-linecap="round" stroke-linejoin="round"/>
<path d="M11.0232 20.3516L13.9862 26.1268L13.8857 23.2517L11.0232 20.3516Z" fill="#E4751F" stroke="#E4751F" stroke-linecap="round" stroke-linejoin="round"/>
<path d="M26.1268 23.2517L26.0012 26.1268L28.9767 20.3516L26.1268 23.2517Z" fill="#E4751F" stroke="#E4751F" stroke-linecap="round" stroke-linejoin="round"/>
<path d="M18.0916 20.665L17.4261 24.2934L18.2548 28.5746L18.4431 22.9375L18.0916 20.665Z" fill="#E4751F" stroke="#E4751F" stroke-linecap="round" stroke-linejoin="round"/>
<path d="M21.9209 20.665L21.5819 22.9249L21.7326 28.5746L22.5737 24.2934L21.9209 20.665Z" fill="#E4751F" stroke="#E4751F" stroke-linecap="round" stroke-linejoin="round"/>
<path d="M22.5737 24.294L21.7325 28.5752L22.3352 28.9896L26.0012 26.127L26.1268 23.252L22.5737 24.294Z" fill="#F6851B" stroke="#F6851B" stroke-linecap="round" stroke-linejoin="round"/>
<path d="M13.8857 23.252L13.9862 26.127L17.6522 28.9896L18.2549 28.5752L17.4262 24.294L13.8857 23.252Z" fill="#F6851B" stroke="#F6851B" stroke-linecap="round" stroke-linejoin="round"/>
<path d="M22.6366 32.9312L22.6742 31.7636L22.3604 31.4874H17.6271L17.3384 31.7636L17.3635 32.9312L13.4087 31.0605L14.7897 32.1905L17.5895 34.1365H22.398L25.2103 32.1905L26.5914 31.0605L22.6366 32.9312Z" fill="#C0AD9E" stroke="#C0AD9E" stroke-linecap="round" stroke-linejoin="round"/>
<path d="M22.3352 28.9895L21.7326 28.5752H18.2549L17.6523 28.9895L17.3384 31.7641L17.6271 31.4879H22.3603L22.6742 31.7641L22.3352 28.9895Z" fill="#161616" stroke="#161616" stroke-linecap="round" stroke-linejoin="round"/>
<path d="M34.9404 14.3378L36.0075 9.21535L34.413 4.45703L22.3352 13.4212L26.9805 17.3509L33.5468 19.2718L35.0031 17.5769L34.3754 17.125L35.3798 16.2084L34.6014 15.6058L35.6058 14.84L34.9404 14.3378Z" fill="#763D16" stroke="#763D16" stroke-linecap="round" stroke-linejoin="round"/>
<path d="M3.99243 9.21535L5.0596 14.3378L4.38163 14.84L5.38603 15.6058L4.62018 16.2084L5.62457 17.125L4.99683 17.5769L6.44064 19.2718L13.0069 17.3509L17.6522 13.4212L5.57435 4.45703L3.99243 9.21535Z" fill="#763D16" stroke="#763D16" stroke-linecap="round" stroke-linejoin="round"/>
<path d="M33.5467 19.2715L26.9805 17.3506L28.9767 20.3512L26.0012 26.1265L29.9184 26.0763H35.7564L33.5467 19.2715Z" fill="#F6851B" stroke="#F6851B" stroke-linecap="round" stroke-linejoin="round"/>
<path d="M13.0069 17.3506L6.44066 19.2715L4.2561 26.0763H10.0816L13.9862 26.1265L11.0232 20.3512L13.0069 17.3506Z" fill="#F6851B" stroke="#F6851B" stroke-linecap="round" stroke-linejoin="round"/>
<path d="M21.921 20.665L22.3353 13.4208L24.2436 8.26074H15.769L17.6523 13.4208L18.0917 20.665L18.2424 22.95L18.2549 28.5746H21.7326L21.7577 22.95L21.921 20.665Z" fill="#F6851B" stroke="#F6851B" stroke-linecap="round" stroke-linejoin="round"/>
</svg>
