<svg width="40" height="40" viewBox="0 0 40 40" fill="none" xmlns="http://www.w3.org/2000/svg">
<circle cx="20" cy="20" r="20" fill="#367BF4"/>
<path d="M11.505 14.5111C16.2849 9.82962 24.037 9.82962 28.8168 14.5111L29.3916 15.0708C29.6336 15.3053 29.6336 15.6834 29.3916 15.9179L27.4252 17.8464C27.3042 17.9599 27.1151 17.9599 26.9941 17.8464L26.2 17.0674C22.8647 13.8002 17.4571 13.8002 14.1218 17.0674L13.2748 17.8994C13.1538 18.0128 12.9647 18.0128 12.8437 17.8994L10.8697 15.9784C10.6277 15.7439 10.6277 15.3658 10.8697 15.1313L11.505 14.5111ZM32.8857 18.4968L34.6403 20.2137C34.8824 20.4481 34.8824 20.8263 34.6403 21.0607L26.737 28.7977C26.495 29.0321 26.1092 29.0321 25.8748 28.7977L20.2706 23.3069C20.2101 23.2464 20.1118 23.2464 20.0513 23.3069L14.4471 28.7977C14.205 29.0321 13.8193 29.0321 13.5849 28.7977L5.68151 21.0607C5.4395 20.8263 5.4395 20.4481 5.68151 20.2137L7.43613 18.4968C7.67815 18.2624 8.06387 18.2624 8.29832 18.4968L13.9025 23.9876C13.963 24.0481 14.0613 24.0481 14.1218 23.9876L19.7261 18.4968C19.9681 18.2624 20.3538 18.2624 20.5882 18.4968L26.1924 23.9876C26.2529 24.0481 26.3513 24.0481 26.4118 23.9876L32.016 18.4968C32.258 18.2624 32.6437 18.2624 32.8857 18.4968Z" fill="white"/>
</svg>
