<svg width="24" height="25" viewBox="0 0 24 25" fill="none" xmlns="http://www.w3.org/2000/svg">
<circle cx="12" cy="12.5" r="12" fill="white"/>
<path d="M11.9153 0.501882C10.1274 0.520703 8.43821 0.91123 6.84787 1.67346C5.25753 2.4357 3.89774 3.48494 2.76851 4.8212C1.60163 6.23275 0.801757 7.82309 0.368883 9.59222C-0.158093 11.7001 -0.120452 13.7892 0.481807 15.8595C1.06524 17.8733 2.10979 19.6142 3.61543 21.0822C5.15872 22.5878 6.98432 23.6041 9.09222 24.1311C11.2001 24.6581 13.2892 24.6205 15.3595 24.0182C17.3733 23.4159 19.1142 22.3714 20.5822 20.8846C22.0878 19.3413 23.1041 17.5157 23.6311 15.4078C24.1581 13.2999 24.1205 11.2014 23.5182 9.1123C22.9159 7.11732 21.8714 5.38582 20.3846 3.91782C18.8413 2.39335 17.0157 1.37704 14.9078 0.868883C13.9103 0.605395 12.9128 0.483061 11.9153 0.501882ZM11.5201 4.68005L12.8187 5.01882L12.2823 7.13614L13.3551 7.36198L13.8632 5.2729L15.1901 5.58344L14.6537 7.75721C15.5759 8.07716 16.2534 8.45358 16.6863 8.88645C17.1945 9.41343 17.3921 10.0439 17.2792 10.7779C17.1286 11.8507 16.5734 12.5 15.6135 12.7258C16.2346 13.0458 16.6487 13.4504 16.8557 13.9398C17.1004 14.4856 17.091 15.1443 16.8275 15.9159C16.4887 16.857 15.9053 17.4592 15.0772 17.7227C14.3808 17.9297 13.4115 17.9203 12.1694 17.6945L11.633 19.8683L10.3061 19.5295L10.8425 17.3839L9.79799 17.1299L9.26161 19.2754L7.93476 18.9649L8.49937 16.7629L5.84567 16.0853L6.49498 14.5891L6.97491 14.7302C7.29486 14.8055 7.45483 14.8338 7.45483 14.8149C7.73714 14.8902 7.93476 14.7867 8.04768 14.5044L8.92284 11.0602L9.06399 11.0885L8.92284 11.0602L9.51568 8.57591C9.55332 8.18068 9.35571 7.9266 8.92284 7.81368L7.96299 7.58783L8.30176 6.17629L10.1368 6.62798H10.1085L10.9555 6.85383L11.5201 4.68005ZM11.9435 8.68883L11.2942 11.3143L11.4918 11.3708C12.2635 11.5778 12.8657 11.6719 13.2986 11.6531C14.0703 11.6531 14.5314 11.3519 14.6819 10.7497C14.8325 10.1474 14.5784 9.6675 13.9197 9.30991C13.5621 9.10289 12.9881 8.91468 12.1976 8.74529L11.9435 8.68883ZM10.9555 12.6412L10.2215 15.5207L10.4755 15.6054C11.4166 15.8501 12.1412 15.9724 12.6493 15.9724C13.5715 15.9724 14.1173 15.643 14.2867 14.9843C14.4561 14.3256 14.1361 13.7892 13.3269 13.3752C12.894 13.1493 12.207 12.9235 11.266 12.6976L10.9555 12.6412Z" fill="#F7931A"/>
</svg>
