<svg width="150" height="150" viewBox="0 0 150 150" fill="none" xmlns="http://www.w3.org/2000/svg">
<g clip-path="url(#clip0_8767_108048)">
<path d="M75 150C116.421 150 150 116.421 150 75C150 33.5786 116.421 0 75 0C33.5786 0 0 33.5786 0 75C0 116.421 33.5786 150 75 150Z" fill="#001845"/>
<path d="M107.31 112.766C92.0319 110.22 52.8328 95.333 44.7721 55.9018C40.7401 36.7955 44.547 8.85001 44.547 8.85001C14.6766 22.5782 -2.98883 55.4358 3.86208 89.1758C11.9227 128.607 50.671 154.313 90.3327 146.3C110.777 142.296 127.157 130.154 137.828 113.934C132.509 116.356 122.588 115.313 107.31 112.766Z" fill="url(#paint0_linear_8767_108048)"/>
<path fill-rule="evenodd" clip-rule="evenodd" d="M73.8934 13.8223L21.2567 42.8534V43.08L27.699 47.0792V47.0401L73.8934 20.8722L120.088 47.0401V70.6428C120.088 78.8169 119.68 84.2254 117.295 90.579L110.697 86.2327C110.135 85.8622 109.407 86.3633 109.552 87.021L113.668 105.631C113.778 106.133 114.349 106.377 114.788 106.111L130.461 96.621C131.023 96.281 130.908 95.4346 130.276 95.2573L123.276 93.2943C126.01 86.0843 126.53 79.7516 126.53 70.6428V42.8534L73.8934 13.8223Z" fill="url(#paint1_linear_8767_108048)"/>
<path fill-rule="evenodd" clip-rule="evenodd" d="M27.5127 42.0783C27.2747 41.6233 26.6601 41.5366 26.3055 41.908L13.1457 55.6955C12.6807 56.1827 13.0437 56.9884 13.7168 56.9628L21.5824 56.6634V70.705C21.5824 102.46 43.4283 132.286 73.1553 139.571L73.915 139.757L74.6747 139.571C93.5252 134.951 109.766 120.542 118.718 103.05L113.258 99.6543C105.256 115.576 90.6328 128.771 73.915 133.134C47.6847 126.289 27.9875 99.4862 27.9875 70.705L27.9846 57.3962L35.1384 59.3844C35.771 59.5602 36.3081 58.8959 36.0038 58.3142L27.5127 42.0783Z" fill="url(#paint2_linear_8767_108048)"/>
<path d="M61.5062 78.4294V83.9995H43.0583V78.4294H61.5062ZM45.3911 49.3413V83.9995H38.25V49.3413H45.3911ZM59.1021 63.4569V68.8842H43.0583V63.4569H59.1021ZM61.4824 49.3413V54.9352H43.0583V49.3413H61.4824Z" fill="white"/>
<path d="M76.7692 49.3413V83.9995H69.6519V49.3413H76.7692ZM87.4332 49.3413V54.9352H59.1544V49.3413H87.4332Z" fill="white"/>
<path d="M104.291 74.9303C104.291 74.3114 104.196 73.756 104.005 73.264C103.831 72.7562 103.498 72.296 103.006 71.8834C102.514 71.455 101.823 71.0344 100.935 70.6218C100.046 70.2092 98.8955 69.7808 97.4832 69.3364C95.9121 68.8286 94.4204 68.2573 93.0081 67.6226C91.6116 66.9878 90.3738 66.2499 89.2947 65.4088C88.2314 64.5519 87.3904 63.5601 86.7715 62.4333C86.1685 61.3066 85.8669 59.9974 85.8669 58.5057C85.8669 57.0616 86.1843 55.7524 86.8191 54.5781C87.4539 53.3879 88.3425 52.3723 89.4851 51.5312C90.6277 50.6743 91.9766 50.0157 93.5317 49.5555C95.1028 49.0953 96.8246 48.8652 98.6971 48.8652C101.252 48.8652 103.482 49.3254 105.386 50.2458C107.29 51.1663 108.766 52.4279 109.813 54.0306C110.877 55.6334 111.408 57.4663 111.408 59.5293H104.315C104.315 58.5137 104.101 57.625 103.672 56.8633C103.26 56.0857 102.625 55.4747 101.768 55.0304C100.927 54.5861 99.8635 54.3639 98.5781 54.3639C97.3403 54.3639 96.3088 54.5543 95.4836 54.9352C94.6584 55.3002 94.0396 55.8 93.627 56.4348C93.2144 57.0537 93.0081 57.752 93.0081 58.5295C93.0081 59.1167 93.1509 59.6483 93.4365 60.1244C93.738 60.6005 94.1824 61.0448 94.7695 61.4574C95.3567 61.87 96.0787 62.2588 96.9357 62.6238C97.7926 62.9888 98.7844 63.3458 99.9111 63.6949C101.8 64.2662 103.458 64.9089 104.886 65.623C106.33 66.3372 107.536 67.1385 108.504 68.0272C109.472 68.9159 110.202 69.9236 110.694 71.0503C111.186 72.177 111.432 73.4545 111.432 74.8827C111.432 76.3903 111.139 77.7391 110.551 78.9293C109.964 80.1195 109.115 81.1272 108.004 81.9524C106.894 82.7776 105.568 83.4044 104.029 83.8329C102.49 84.2613 100.768 84.4756 98.8638 84.4756C97.1499 84.4756 95.4598 84.2534 93.7936 83.8091C92.1273 83.3489 90.6118 82.6586 89.2471 81.7382C87.8982 80.8177 86.8191 79.6434 86.0098 78.2152C85.2004 76.787 84.7958 75.0969 84.7958 73.145H91.9607C91.9607 74.2241 92.1273 75.1366 92.4606 75.8824C92.7938 76.6283 93.262 77.2313 93.865 77.6915C94.4839 78.1517 95.2139 78.485 96.0549 78.6913C96.9119 78.8976 97.8481 79.0007 98.8638 79.0007C100.102 79.0007 101.117 78.8262 101.911 78.477C102.72 78.1279 103.315 77.6439 103.696 77.025C104.093 76.4061 104.291 75.7079 104.291 74.9303Z" fill="white"/>
<path d="M71.8395 119.538V129.75H67.5V99.4659C67.5 96.7884 68.294 94.6832 69.8636 93.1136C71.4148 91.544 73.5753 90.75 76.2344 90.75C78.8011 90.75 80.777 91.3778 82.2543 92.5966C83.7131 93.8523 84.4332 95.5881 84.4332 97.7855C84.4332 99.2997 83.9531 100.722 82.9929 102.033C82.0327 103.344 80.7955 104.249 79.2628 104.747V104.821C81.571 105.19 83.3622 106.021 84.581 107.369C85.7997 108.68 86.4091 110.361 86.4091 112.429C86.4091 114.866 85.5597 116.861 83.8793 118.393C82.1804 119.926 79.9645 120.683 77.1946 120.683C75.2372 120.683 73.446 120.295 71.8395 119.538ZM74.5909 106.908V103.362C76.1974 103.159 77.5085 102.568 78.5611 101.571C79.5952 100.555 80.1122 99.429 80.1122 98.1364C80.1122 95.5881 78.8011 94.2955 76.2159 94.2955C74.8125 94.2955 73.723 94.7386 72.9659 95.6435C72.2088 96.5483 71.8395 97.804 71.8395 99.4474V115.679C73.5199 116.658 75.1634 117.138 76.7514 117.138C78.3026 117.138 79.5213 116.732 80.3892 115.938C81.2571 115.125 81.6818 113.98 81.6818 112.521C81.6818 109.216 79.3182 107.369 74.5909 106.908Z" fill="white"/>
</g>
<defs>
<linearGradient id="paint0_linear_8767_108048" x1="24.7342" y1="124.289" x2="85.8462" y2="72.2708" gradientUnits="userSpaceOnUse">
<stop stop-color="#F3BA2F"/>
<stop offset="1" stop-color="#F3BA2F" stop-opacity="0"/>
</linearGradient>
<linearGradient id="paint1_linear_8767_108048" x1="106.946" y1="6.54703" x2="36.7403" y2="39.2856" gradientUnits="userSpaceOnUse">
<stop offset="0.445694" stop-color="white"/>
<stop offset="1" stop-color="white" stop-opacity="0"/>
</linearGradient>
<linearGradient id="paint2_linear_8767_108048" x1="38.1957" y1="159.326" x2="114.586" y2="114.947" gradientUnits="userSpaceOnUse">
<stop offset="0.559619" stop-color="white"/>
<stop offset="0.918509" stop-color="white" stop-opacity="0"/>
</linearGradient>
<clipPath id="clip0_8767_108048">
<rect width="150" height="150" rx="75" fill="white"/>
</clipPath>
</defs>
</svg>
