<svg width="141" height="141" viewBox="0 0 141 141" fill="none" xmlns="http://www.w3.org/2000/svg">
<g clip-path="url(#clip0_316_14289)">
<path d="M70.8986 140.173C109.405 140.173 140.621 108.957 140.621 70.4508C140.621 31.9442 109.405 0.728516 70.8986 0.728516C32.392 0.728516 1.17627 31.9442 1.17627 70.4508C1.17627 108.957 32.392 140.173 70.8986 140.173Z" fill="#26A17B"/>
<path d="M107.365 105.392C76.449 111.637 46.245 91.6001 39.9617 60.8638C36.8188 45.9706 40.0465 31.0956 47.7257 19.0834C24.4419 29.7844 10.6718 55.3967 16.0121 81.6968C22.2953 112.433 52.4993 132.47 83.4153 126.225C99.3511 123.103 112.12 113.639 120.438 100.995C116.291 102.884 112.146 104.455 107.365 105.392Z" fill="url(#paint0_linear_316_14289)"/>
<path fill-rule="evenodd" clip-rule="evenodd" d="M125.667 96.8893L129.464 99.5864C130.32 100.194 130.231 101.491 129.3 101.976L117.007 108.381C116.031 108.889 114.876 108.128 114.959 107.03L116.041 92.6627C116.123 91.5733 117.363 90.991 118.254 91.6236L121.658 94.042C130.351 74.2879 127.138 50.4135 111.581 33.5361C90.7914 10.9818 55.7632 9.39067 33.0189 29.8422C32.7306 30.1014 32.2846 30.0858 32.0219 29.8008L29.7038 27.286C29.441 27.0009 29.4612 26.5544 29.7492 26.2949C54.4527 4.03786 92.5326 5.75335 115.128 30.2666C132.269 48.8622 135.607 75.2682 125.667 96.8893Z" fill="white"/>
<path fill-rule="evenodd" clip-rule="evenodd" d="M16.0092 44.8607L12.212 42.1636C11.3565 41.556 11.4457 40.2589 12.3763 39.7741L24.6691 33.3694C25.6453 32.8608 26.8003 33.6223 26.7176 34.7198L25.6354 49.0873C25.5533 50.1767 24.3132 50.759 23.4226 50.1264L20.0178 47.708C11.3255 67.4621 14.5379 91.3365 30.095 108.214C50.8849 130.768 85.9131 132.359 108.657 111.908C108.946 111.649 109.392 111.664 109.654 111.949L111.972 114.464C112.235 114.749 112.215 115.196 111.927 115.455C87.2236 137.712 49.1436 135.997 26.548 111.483C9.4071 92.8878 6.06942 66.4818 16.0092 44.8607Z" fill="white"/>
<path fill-rule="evenodd" clip-rule="evenodd" d="M99.5982 41.0996H41.8V55.2281H62.9927V76.0996H77.7633V55.2281H99.5982V41.0996ZM62.9927 111.1V81.6996H50.2V78.8996H62.9927H77.7633H90.8V81.6996H77.7633V111.1H62.9927Z" fill="white"/>
</g>
<defs>
<linearGradient id="paint0_linear_316_14289" x1="11.8287" y1="139.63" x2="76.2859" y2="64.7709" gradientUnits="userSpaceOnUse">
<stop offset="0.0729167" stop-color="white" stop-opacity="0.81"/>
<stop offset="0.4775" stop-color="white" stop-opacity="0.48"/>
<stop offset="1" stop-color="white" stop-opacity="0"/>
</linearGradient>
<clipPath id="clip0_316_14289">
<rect width="140" height="140" fill="white" transform="translate(0.5 0.5)"/>
</clipPath>
</defs>
</svg>
