<svg width="61" height="32" viewBox="0 0 61 32" fill="none" xmlns="http://www.w3.org/2000/svg">
<g clip-path="url(#clip0_5102_41254)">
<circle cx="16" cy="16" r="16" fill="#F0B90B"/>
<path d="M10.5368 8.66352L15.8441 5.6001L21.1515 8.66352L19.2002 9.79522L15.8441 7.86352L12.488 9.79522L10.5368 8.66352ZM21.1515 12.5269L19.2002 11.3952L15.8441 13.3269L12.488 11.3952L10.5368 12.5269V14.7904L13.8929 16.7221V20.5855L15.8441 21.7172L17.7953 20.5855V16.7221L21.1515 14.7904V12.5269ZM21.1515 18.6538V16.3904L19.2002 17.5221V19.7855L21.1515 18.6538ZM22.5368 19.4538L19.1807 21.3855V23.649L24.4881 20.5855V14.4586L22.5368 15.5904V19.4538ZM20.5857 10.5952L22.5368 11.7269V13.9904L24.4881 12.8586V10.5952L22.5368 9.46353L20.5857 10.5952ZM13.8929 22.205V24.4685L15.8441 25.6001L17.7953 24.4685V22.205L15.8441 23.3367L13.8929 22.205ZM10.5368 18.6538L12.488 19.7855V17.5221L10.5368 16.3904V18.6538ZM13.8929 10.5952L15.8441 11.7269L17.7953 10.5952L15.8441 9.46353L13.8929 10.5952ZM9.15142 11.7269L11.1026 10.5952L9.15142 9.46353L7.2002 10.5952V12.8586L9.15142 13.9904V11.7269ZM9.15142 15.5904L7.2002 14.4586V20.5855L12.5075 23.649V21.3855L9.15142 19.4538V15.5904Z" fill="white"/>
</g>
<g clip-path="url(#clip1_5102_41254)">
<path d="M45 32C48.1646 32 51.258 31.0616 53.8892 29.3035C56.5204 27.5454 58.5711 25.0466 59.7821 22.1229C60.9931 19.1993 61.31 15.9823 60.6926 12.8786C60.0753 9.77487 58.5514 6.92394 56.3138 4.6863C54.0761 2.44866 51.2252 0.924806 48.1215 0.307443C45.0178 -0.309921 41.8007 0.00693262 38.8771 1.21793C35.9535 2.42894 33.4546 4.4797 31.6965 7.11088C29.9384 9.74207 29 12.8355 29 16C28.995 18.1026 29.4054 20.1854 30.2076 22.1289C31.0099 24.0725 32.1883 25.8383 33.675 27.325C35.1618 28.8118 36.9276 29.9902 38.8711 30.7924C40.8146 31.5947 42.8975 32.0051 45 32Z" fill="#F0B90B"/>
<rect x="44.7842" y="5" width="3.66027" height="10.3708" transform="rotate(45 44.7842 5)" fill="white"/>
<rect x="36.5879" y="13.1958" width="3.66026" height="3.66026" transform="rotate(45 36.5879 13.1958)" fill="white"/>
<rect x="49.0996" y="9.31396" width="3.66026" height="15.2511" transform="rotate(45 49.0996 9.31396)" fill="white"/>
<rect x="53.415" y="13.6274" width="3.66026" height="15.2511" transform="rotate(45 53.415 13.6274)" fill="white"/>
</g>
<defs>
<clipPath id="clip0_5102_41254">
<rect width="32" height="32" fill="white"/>
</clipPath>
<clipPath id="clip1_5102_41254">
<rect width="32" height="32" fill="white" transform="translate(29)"/>
</clipPath>
</defs>
</svg>
