<svg width="61" height="32" viewBox="0 0 61 32" fill="none" xmlns="http://www.w3.org/2000/svg">
<g clip-path="url(#clip0_5102_40061)">
<path d="M16 32C24.8366 32 32 24.8366 32 16C32 7.16344 24.8366 0 16 0C7.16344 0 0 7.16344 0 16C0 24.8366 7.16344 32 16 32Z" fill="#8247E5"/>
<path fill-rule="evenodd" clip-rule="evenodd" d="M10.6807 7.06735C11.0029 6.88836 11.3945 6.88836 11.7167 7.06735L16.5167 9.73401C16.8553 9.92212 17.0654 10.2791 17.0654 10.6664V12.4007L14.932 13.5998V11.2941L11.1987 9.21999L7.46536 11.2941V15.3721L11.1987 17.4462L20.2807 12.4007C20.6029 12.2217 20.9945 12.2217 21.3167 12.4007L26.1167 15.0673C26.4553 15.2555 26.6654 15.6124 26.6654 15.9998V21.3331C26.6654 21.7205 26.4553 22.0774 26.1167 22.2655L21.3167 24.9322C20.9945 25.1112 20.6029 25.1112 20.2807 24.9322L15.4807 22.2655C15.1421 22.0774 14.932 21.7205 14.932 21.3331V19.5989L17.0654 18.3998V20.7055L20.7987 22.7796L24.532 20.7055V16.6274L20.7987 14.5533L11.7167 19.5989C11.3945 19.7779 11.0029 19.7779 10.6807 19.5989L5.88067 16.9322C5.54206 16.7441 5.33203 16.3871 5.33203 15.9998V10.6664C5.33203 10.2791 5.54206 9.92212 5.88067 9.73401L10.6807 7.06735Z" fill="white"/>
</g>
<g clip-path="url(#clip1_5102_40061)">
<path d="M45.0928 31.9258C53.8943 31.9258 61.0293 24.7908 61.0293 15.9893C61.0293 7.18776 53.8943 0.0527344 45.0928 0.0527344C36.2913 0.0527344 29.1562 7.18776 29.1562 15.9893C29.1562 24.7908 36.2913 31.9258 45.0928 31.9258Z" fill="#001845"/>
<path d="M53.4278 23.976C46.3613 25.4035 39.4575 20.8236 38.0213 13.7981C37.3029 10.394 38.0407 6.99399 39.7959 4.24835C34.4739 6.69429 31.3265 12.5485 32.5471 18.56C33.9833 25.5854 40.8871 30.1654 47.9536 28.7378C51.596 28.0243 54.5145 25.8611 56.4158 22.9711C55.4681 23.4027 54.5205 23.7619 53.4278 23.976Z" fill="url(#paint0_linear_5102_40061)"/>
<path d="M44.2584 23.5769C44.2584 23.3221 44.0661 23.1106 43.8158 23.063C41.7911 22.6771 40.5061 21.2601 40.3134 19.3848C40.2851 19.1101 40.5119 18.8853 40.7881 18.8853H41.6363C41.9125 18.8853 42.1318 19.1105 42.1678 19.3843C42.3536 20.7942 43.3574 21.6234 45.0798 21.6234C46.9965 21.6234 48.0233 20.5966 48.0233 19.3645C48.0233 15.8734 40.425 17.6531 40.425 12.5192C40.425 10.9205 41.7989 9.26211 43.8214 8.82747C44.0686 8.77434 44.2584 8.56409 44.2584 8.31122V7.20068C44.2584 6.92454 44.4822 6.70068 44.7584 6.70068H45.3328C45.6089 6.70068 45.8328 6.92454 45.8328 7.20068V8.32845C45.8328 8.57386 46.012 8.78 46.2495 8.84177C47.9874 9.29372 49.233 10.74 49.4326 12.4992C49.4638 12.7736 49.2369 12.9984 48.9608 12.9984H48.1125C47.8364 12.9984 47.6172 12.7727 47.5724 12.5002C47.3562 11.1846 46.2925 10.2602 45.0113 10.2602C43.3 10.2602 42.2048 11.4239 42.2048 12.5192C42.2048 16.0103 49.803 14.2305 49.803 19.3645C49.803 21.1029 48.4707 22.6596 46.2618 23.1233C46.0176 23.1745 45.8328 23.3836 45.8328 23.6332V24.7514C45.8328 25.0275 45.6089 25.2514 45.3328 25.2514H44.7584C44.4822 25.2514 44.2584 25.0275 44.2584 24.7514V23.5769Z" fill="white"/>
<path fill-rule="evenodd" clip-rule="evenodd" d="M57.3609 21.7345L58.1972 22.3286C58.3856 22.4624 58.366 22.748 58.161 22.8548L55.4536 24.2654C55.2387 24.3774 54.9843 24.2097 55.0025 23.968L55.2408 20.8037C55.2589 20.5638 55.532 20.4355 55.7282 20.5748L56.4781 21.1075C58.3924 16.7568 57.6849 11.4987 54.2586 7.78166C49.6799 2.81432 41.9653 2.46388 36.9561 6.96813C36.8926 7.02521 36.7944 7.02177 36.7365 6.95899L36.226 6.40514C36.1681 6.34236 36.1726 6.24402 36.236 6.18687C41.6767 1.28498 50.0634 1.6628 55.0398 7.06158C58.815 11.1571 59.55 16.9727 57.3609 21.7345Z" fill="#23DD00"/>
<path fill-rule="evenodd" clip-rule="evenodd" d="M33.2104 10.2762L32.3741 9.68218C32.1857 9.54837 32.2053 9.2627 32.4103 9.15592L35.1176 7.74536C35.3326 7.63336 35.587 7.80106 35.5688 8.04278L35.3304 11.2071C35.3124 11.447 35.0393 11.5752 34.8431 11.4359L34.0932 10.9033C32.1788 15.2539 32.8863 20.512 36.3126 24.2291C40.8914 29.1964 48.606 29.5469 53.6152 25.0426C53.6787 24.9855 53.7769 24.989 53.8348 25.0517L54.3453 25.6056C54.4032 25.6684 54.3987 25.7667 54.3353 25.8239C48.8946 30.7258 40.5079 30.3479 35.5315 24.9492C31.7563 20.8537 31.0212 15.038 33.2104 10.2762Z" fill="#23DD00"/>
</g>
<defs>
<linearGradient id="paint0_linear_5102_40061" x1="31.5909" y1="31.8018" x2="46.324" y2="14.6912" gradientUnits="userSpaceOnUse">
<stop offset="0.0729167" stop-color="#FFD923"/>
<stop offset="0.4775" stop-color="#0466C8"/>
<stop offset="1" stop-color="#001845"/>
</linearGradient>
<clipPath id="clip0_5102_40061">
<rect width="32" height="32" fill="white"/>
</clipPath>
<clipPath id="clip1_5102_40061">
<rect width="32" height="32" fill="white" transform="translate(29)"/>
</clipPath>
</defs>
</svg>
